<svg width="57" height="57" viewBox="0 0 57 57" fill="none" xmlns="http://www.w3.org/2000/svg">
<g clip-path="url(#clip0_607_280)">
<path d="M22.3955 43.6618C23.6465 47.8316 21.0788 51.2635 18.4977 53.1311C16.0046 54.9352 13.1801 55.8589 10.2258 56.4175C7.16843 56.9962 4.08718 57.1261 0.98952 56.8894C0.538679 56.8554 0.181888 56.7022 0.0430529 56.2318C-0.100261 55.7506 0.129638 55.4179 0.504344 55.1595C1.73893 54.3101 2.82871 53.2997 3.73487 52.0758C4.95602 50.4264 5.34864 48.613 5.12173 46.5319C4.78136 43.4281 5.48151 40.5409 7.36996 38.0467C9.30768 35.4891 11.8888 34.7061 14.882 35.7088C14.9492 35.7304 15.0178 35.7474 15.1507 35.7846C15.2656 34.7123 15.9568 34.0748 16.6615 33.4281C28.4654 22.5848 40.2679 11.7338 52.0719 0.884291C53.3482 -0.288542 55.0128 -0.294731 56.1459 0.865724C57.2744 2.01999 57.2894 3.7746 56.1653 5.08978C45.5526 17.5005 34.9429 29.9142 24.3049 42.3017C23.8271 42.8603 23.0882 43.1775 22.3955 43.6618ZM15.809 38.2788C15.6224 38.1302 15.4866 38.0065 15.3373 37.9059C13.1995 36.4638 10.696 36.863 8.91805 38.9596C7.25501 40.9215 6.68474 43.2672 6.76685 45.8248C6.79969 46.8631 6.95495 47.9137 6.85045 48.9364C6.61607 51.2279 5.40836 53.0289 3.87371 54.6149C3.72591 54.7681 3.52139 54.8609 3.34225 54.9816C3.3945 55.0621 3.44824 55.1441 3.50049 55.2245C4.94557 55.1224 6.39662 55.0652 7.83722 54.9089C10.605 54.6056 13.313 54.0254 15.8299 52.7272C17.9378 51.641 19.671 50.1495 20.5951 47.8301C21.3221 46.0074 21.0355 44.3023 19.9696 42.6112C19.3755 44.129 18.4857 45.3328 17.5169 46.4809C17.0959 46.9807 16.6017 47.0828 16.2046 46.7563C15.7732 46.4004 15.7926 45.9084 16.2032 45.3359C16.8675 44.4075 17.5527 43.49 18.1394 42.5106C18.7873 41.4259 18.7201 41.2124 17.8692 40.332C17.1705 39.6079 16.9794 39.5182 16.1419 40.0612C15.1388 40.7142 14.1983 41.477 13.2548 42.2243C12.7263 42.6421 12.2814 42.7055 11.9172 42.3187C11.5335 41.9118 11.5917 41.4012 12.0904 40.9076C13.1727 39.8369 14.352 38.9101 15.809 38.2788ZM31.2541 31.5172C31.4034 31.3486 31.5437 31.1954 31.6795 31.036C38.7691 22.7473 45.8586 14.457 52.9482 6.16823C53.6155 5.3884 54.2902 4.61477 54.9441 3.82411C55.3979 3.27638 55.3875 2.61569 54.9531 2.14996C54.5052 1.67031 53.8543 1.66566 53.296 2.14068C53.1661 2.25053 53.0437 2.36813 52.9183 2.48417C44.533 10.1927 36.1476 17.9012 27.7623 25.6097C27.3652 25.9749 26.9726 26.3447 26.6083 26.682C28.1758 28.3143 29.697 29.8972 31.2541 31.5172ZM25.2095 27.9569C22.6015 30.3521 19.9965 32.7442 17.393 35.1378C16.6331 35.8356 16.6137 36.5041 17.3332 37.2545C18.5678 38.5403 19.8054 39.823 21.046 41.1026C21.7924 41.8731 22.4298 41.8514 23.1285 41.036C25.3513 38.4366 27.5742 35.8372 29.7956 33.2362C29.8896 33.1264 29.9657 33.0026 30.015 32.9345C28.4027 31.265 26.8248 29.6295 25.2095 27.9569Z" fill="black"/>
<path d="M15.8101 38.2777C14.3531 38.9105 13.1737 39.8358 12.0899 40.9049C11.5898 41.3985 11.5331 41.9091 11.9167 42.316C12.2825 42.7029 12.7259 42.6394 13.2543 42.2217C14.1993 41.4743 15.1383 40.7115 16.1415 40.0586C16.9775 39.5155 17.1701 39.6052 17.8687 40.3293C18.7182 41.2097 18.7868 41.4248 18.1389 42.5079C17.5522 43.4873 16.867 44.4064 16.2027 45.3332C15.7937 45.9057 15.7728 46.3978 16.2042 46.7536C16.6013 47.0816 17.0954 46.978 17.5164 46.4782C18.4838 45.3286 19.375 44.1264 19.9692 42.6085C21.0351 44.2996 21.3217 46.0032 20.5947 47.8274C19.6706 50.1468 17.9374 51.6384 15.8295 52.7246C13.311 54.0227 10.6045 54.6029 7.83677 54.9062C6.39617 55.064 4.94661 55.1197 3.50004 55.2218C3.44779 55.1414 3.39405 55.0594 3.3418 54.9789C3.52094 54.8582 3.72546 54.7654 3.87325 54.6122C5.40939 53.0263 6.61562 51.2268 6.84999 48.9337C6.95449 47.911 6.80073 46.8604 6.76639 45.8222C6.68429 43.2645 7.25456 40.9189 8.91759 38.9569C10.6956 36.8588 13.1991 36.4612 15.3368 37.9032C15.4891 38.0053 15.625 38.1291 15.8101 38.2777Z" fill="#AE85C9"/>
<path d="M31.2551 31.5166C29.6981 29.8966 28.1754 28.3122 26.6094 26.6829C26.9736 26.3441 27.3662 25.9743 27.7633 25.6107C36.1487 17.9022 44.534 10.1937 52.9194 2.48514C53.0448 2.37064 53.1687 2.25305 53.2971 2.14165C53.8554 1.66509 54.5063 1.66973 54.9541 2.15093C55.3885 2.61666 55.399 3.27735 54.9452 3.82508C54.2913 4.61574 53.6165 5.38937 52.9492 6.1692C45.8597 14.4595 38.7701 22.7482 31.6806 31.037C31.5462 31.1948 31.4059 31.348 31.2551 31.5166Z" fill="white"/>
<path d="M25.2097 27.957C26.825 29.6312 28.4029 31.2651 30.0137 32.9362C29.9645 33.0042 29.8883 33.128 29.7943 33.2379C27.5729 35.8388 25.3501 38.4383 23.1272 41.0377C22.4285 41.8546 21.7911 41.8763 21.0447 41.1042C19.8056 39.8231 18.5665 38.5419 17.332 37.2561C16.6124 36.5057 16.6318 35.8373 17.3917 35.1395C19.9967 32.7427 22.6032 30.3507 25.2097 27.957Z" fill="white"/>
</g>
<defs>
<clipPath id="clip0_607_280">
<rect width="57" height="57" fill="white"/>
</clipPath>
</defs>
</svg>
