<svg width="386" height="247" viewBox="0 0 386 247" fill="none" xmlns="http://www.w3.org/2000/svg">
<rect width="386" height="247" fill="#F7F7F7"/>
<path d="M239.986 127.076C234.161 122.525 234.518 114.437 237.71 101.853C240.112 92.3902 242.176 83.7424 248.814 74.8844C253.457 68.6839 259.155 64.0654 264.49 60.8629C270.269 57.3921 277.031 52.3609 282.4 56.0699C289.773 61.1668 292.955 84.9928 278.513 105.62C262.645 128.278 245.678 131.526 239.986 127.076Z" fill="url(#paint0_linear_663_80)"/>
<path d="M45.6319 126.235C55.9684 137.842 76.3674 136.262 76.3674 136.262C76.3674 136.262 79.9943 115.864 69.6475 104.264C59.311 92.6566 38.9226 94.2296 38.9226 94.2296C38.9226 94.2296 35.2954 114.628 45.6319 126.235Z" fill="url(#paint1_linear_663_80)"/>
<path d="M333.422 130H333.531C334.179 137.825 341 137.946 341 137.946C341 137.946 333.478 138.071 333.478 147.113C333.478 138.071 325.956 137.946 325.956 137.946C325.956 137.946 332.775 137.825 333.422 130ZM113.625 171.511H113.722C114.296 178.594 120.349 178.703 120.349 178.703C120.349 178.703 113.674 178.816 113.674 187C113.674 178.816 107 178.703 107 178.703C107 178.703 113.05 178.594 113.625 171.511Z" fill="#9CD083"/>
<path d="M338.387 224H47.6132C46.17 224 45 224.672 45 225.5C45 226.328 46.17 227 47.6132 227H338.387C339.83 227 341 226.328 341 225.5C341 224.672 339.83 224 338.387 224Z" fill="#E1E4E5"/>
<path d="M245.062 40.6372C244.843 40.557 244.621 40.4844 244.397 40.4197C244.323 40.3978 244.25 40.375 244.175 40.3555C244.096 40.335 244.017 40.3155 243.938 40.296C243.858 40.2762 243.777 40.257 243.696 40.2384C243.619 40.2213 243.543 40.2065 243.465 40.1913C243.304 40.1603 243.143 40.1328 242.981 40.109C242.71 40.0706 242.437 40.0423 242.163 40.0243C242.105 40.021 242.048 40.0152 241.991 40.0129C241.822 40.0048 241.653 40 241.483 40H163.513C162.801 39.9986 162.092 40.0716 161.395 40.218C156.945 41.1449 153.52 44.9407 153.054 49.6273C153.018 49.9918 153 50.3578 153 50.7241V213.277C153 217.919 155.89 221.871 159.936 223.364C159.954 223.371 159.972 223.377 159.99 223.382C160.191 223.455 160.395 223.521 160.6 223.581C160.675 223.603 160.748 223.626 160.823 223.645C160.902 223.665 160.981 223.685 161.06 223.704C161.217 223.744 161.375 223.779 161.534 223.809C161.621 223.826 161.707 223.842 161.794 223.856L162.016 223.892C162.11 223.905 162.204 223.916 162.3 223.928C162.369 223.936 162.437 223.944 162.508 223.951C162.616 223.961 162.725 223.969 162.834 223.976C162.892 223.98 162.95 223.985 163.007 223.988C163.175 223.996 163.344 224 163.514 224H241.486C241.845 224 242.203 223.982 242.561 223.945C247.509 223.433 251.443 219.42 251.946 214.372C251.982 214.011 252 213.645 252 213.275V50.7241C251.998 46.0823 249.107 42.1309 245.062 40.6372Z" fill="#C59CE0"/>
<path fill-rule="evenodd" clip-rule="evenodd" d="M132.651 152H76.3494C75.1717 151.999 74.0378 152.442 73.1775 153.239C72.3172 154.036 71.7949 155.127 71.7165 156.292L68.021 211.188C67.6635 216.496 71.9159 221 77.2869 221H131.713C137.084 221 141.336 216.496 140.979 211.188L137.284 156.292C137.205 155.127 136.683 154.036 135.822 153.239C134.962 152.442 133.828 151.999 132.651 152Z" fill="#C59CE0" stroke="#C59CE0" stroke-width="13.417" stroke-linecap="round" stroke-linejoin="round"/>
<path fill-rule="evenodd" clip-rule="evenodd" d="M97.7113 196.771C97.3451 196.944 96.9328 197.02 96.5211 196.992C96.1094 196.963 95.7146 196.831 95.3816 196.61C95.0486 196.39 94.7906 196.089 94.6368 195.742C94.4831 195.395 94.4397 195.017 94.5116 194.649L95.7039 188.468L90.6841 184.117C90.3837 183.858 90.1702 183.527 90.068 183.163C89.9658 182.799 89.979 182.416 90.1062 182.058C90.2335 181.7 90.4695 181.382 90.7872 181.141C91.105 180.899 91.4917 180.743 91.903 180.69L98.8726 179.789L102.019 174.112C102.202 173.778 102.484 173.497 102.834 173.301C103.184 173.104 103.588 173 104 173C104.412 173 104.816 173.104 105.166 173.301C105.516 173.497 105.798 173.778 105.981 174.112L109.127 179.789L116.097 180.69C116.508 180.743 116.895 180.899 117.213 181.141C117.531 181.382 117.767 181.7 117.894 182.058C118.021 182.416 118.034 182.799 117.932 183.163C117.83 183.527 117.616 183.858 117.316 184.117L112.296 188.468L113.488 194.65C113.561 195.018 113.518 195.397 113.364 195.744C113.211 196.091 112.953 196.392 112.619 196.613C112.286 196.834 111.891 196.966 111.479 196.994C111.067 197.022 110.655 196.946 110.289 196.772L104 193.833L97.7113 196.771Z" fill="white"/>
<path d="M118 159V141.857C118 134.756 111.734 129 104.002 129H103.998C96.2662 129 90 134.756 90 141.857V159" stroke="#C59CE0" stroke-width="13.417" stroke-linecap="round" stroke-linejoin="round"/>
<path fill-rule="evenodd" clip-rule="evenodd" d="M218 94V117.299C218.013 118.49 217.639 119.652 216.938 120.602C216.236 121.553 215.247 122.239 214.124 122.553C206.151 124.482 197.849 124.482 189.876 122.553C188.753 122.239 187.764 121.553 187.062 120.602C186.361 119.652 185.987 118.49 186 117.299V94" fill="white"/>
<path d="M218 94V117.299C218.013 118.49 217.639 119.652 216.938 120.602C216.236 121.553 215.247 122.239 214.124 122.553C206.151 124.482 197.849 124.482 189.876 122.553C188.753 122.239 187.764 121.553 187.062 120.602C186.361 119.652 185.987 118.49 186 117.299V94" stroke="white" stroke-width="7.76" stroke-linecap="round" stroke-linejoin="round"/>
<path fill-rule="evenodd" clip-rule="evenodd" d="M217.611 100L225.997 97.9488C226.339 97.8649 226.661 97.7098 226.944 97.4928C227.227 97.2759 227.464 97.0017 227.642 96.6867C227.82 96.3718 227.935 96.0226 227.979 95.6604C228.024 95.2981 227.997 94.9303 227.9 94.5791L224.746 83.1158C224.339 81.6347 223.631 80.2612 222.67 79.0876C221.709 77.914 220.518 76.9674 219.175 76.3112L214.504 74.0282C213.119 73.3511 211.607 73 210.075 73H193.925C192.394 73 190.881 73.3511 189.496 74.0282L184.825 76.3112C183.483 76.9674 182.291 77.914 181.33 79.0876C180.37 80.2612 179.662 81.6347 179.254 83.1158L176.1 94.5791C176.003 94.9303 175.976 95.2982 176.021 95.6605C176.065 96.0228 176.179 96.372 176.357 96.687C176.535 97.0021 176.773 97.2763 177.056 97.4932C177.339 97.7101 177.661 97.8651 178.004 97.9488L186.39 100" fill="white"/>
<path d="M217.611 100L225.997 97.9488C226.339 97.8649 226.661 97.7098 226.944 97.4928C227.227 97.2759 227.464 97.0017 227.642 96.6867C227.82 96.3718 227.935 96.0226 227.979 95.6604C228.024 95.2981 227.997 94.9303 227.9 94.5791L224.746 83.1158C224.339 81.6347 223.631 80.2612 222.67 79.0876C221.709 77.914 220.518 76.9674 219.175 76.3112L214.504 74.0282C213.119 73.3511 211.607 73 210.075 73H193.925C192.394 73 190.881 73.3511 189.496 74.0282L184.825 76.3112C183.483 76.9674 182.291 77.914 181.33 79.0876C180.37 80.2612 179.662 81.6347 179.254 83.1158L176.1 94.5791C176.003 94.9303 175.976 95.2982 176.021 95.6605C176.065 96.0228 176.179 96.372 176.357 96.687C176.535 97.0021 176.773 97.2763 177.056 97.4932C177.339 97.7101 177.661 97.8651 178.004 97.9488L186.39 100" stroke="white" stroke-width="7.76" stroke-linecap="round" stroke-linejoin="round"/>
<path fill-rule="evenodd" clip-rule="evenodd" d="M318.665 222H277.332C271.401 222 266.686 216.774 267.016 210.567L269.131 170.643C269.538 162.987 275.575 157 282.888 157H313.112C320.425 157 326.463 162.987 326.869 170.643L328.984 210.563C329.311 216.774 324.596 222 318.665 222Z" fill="#C59CE0" stroke="#C59CE0" stroke-width="10.25" stroke-linecap="round" stroke-linejoin="round"/>
<path d="M310 168C310 173.522 305.075 178 299 178C292.925 178 288 173.522 288 168" stroke="white" stroke-width="8.625" stroke-linecap="round" stroke-linejoin="round"/>
<path d="M174.902 176H229.098C230.149 176 231 176.895 231 178C231 179.105 230.149 180 229.098 180H174.902C173.851 180 173 179.105 173 178C173 176.895 173.851 176 174.902 176Z" fill="white"/>
<path d="M174.902 154H229.098C230.149 154 231 154.895 231 156C231 157.105 230.149 158 229.098 158H174.902C173.851 158 173 157.105 173 156C173 154.895 173.851 154 174.902 154Z" fill="white"/>
<path d="M176.912 165H227.088C228.144 165 229 165.895 229 167C229 168.105 228.144 169 227.088 169H176.912C175.856 169 175 168.105 175 167C175 165.895 175.856 165 176.912 165Z" fill="white"/>
<path d="M118.596 78H90.4038C85.2102 78 81 82.1467 81 87.2618V103.738C81 108.853 85.2102 113 90.4038 113H118.596C123.79 113 128 108.853 128 103.738V87.2618C128 82.1467 123.79 78 118.596 78Z" fill="#C59CE0"/>
<path d="M108.917 109.72L106.524 107.327C105.227 106.03 103.124 106.03 101.827 107.327L99.435 109.72C98.1379 111.017 98.1379 113.12 99.435 114.418L101.827 116.81C103.124 118.108 105.227 118.108 106.524 116.81L108.917 114.418C110.214 113.12 110.214 111.017 108.917 109.72Z" fill="#C59CE0"/>
<path fill-rule="evenodd" clip-rule="evenodd" d="M108.928 86C113.162 86 116 89.9111 116 93.5532C116 100.947 104.215 107 104 107C103.785 107 92 100.947 92 93.5532C92 89.9111 94.8385 86 99.0722 86C101.492 86 103.081 87.1877 104 88.2458C104.919 87.1877 106.508 86 108.928 86Z" fill="white"/>
<path d="M329.615 100.385C331.115 110.744 323.935 120.359 313.56 121.868C303.193 123.378 293.569 116.202 292.061 105.843C290.561 95.4911 297.749 85.8688 308.116 84.3593C318.49 82.8499 328.115 90.0255 329.615 100.385Z" fill="url(#paint2_linear_663_80)"/>
<path d="M324.979 101.057C326.127 108.854 320.629 116.1 312.691 117.238C304.753 118.369 297.382 112.968 296.234 105.171C295.085 97.3667 300.583 90.1209 308.521 88.9898C316.459 87.8515 323.823 93.2524 324.979 101.057Z" fill="#C59CE0"/>
<path d="M310.48 95.8892C311.28 95.8892 312.02 95.9958 312.7 96.2092C313.394 96.4092 313.987 96.7225 314.48 97.1492C314.974 97.5758 315.36 98.1158 315.64 98.7692C315.92 99.4092 316.06 100.176 316.06 101.069C316.06 101.923 315.94 102.669 315.7 103.309C315.46 103.949 315.12 104.489 314.68 104.929C314.24 105.356 313.707 105.676 313.08 105.889C312.467 106.103 311.78 106.209 311.02 106.209C310.447 106.209 309.914 106.123 309.42 105.949V109.269C309.287 109.309 309.074 109.349 308.78 109.389C308.487 109.443 308.187 109.469 307.88 109.469C307.587 109.469 307.32 109.449 307.08 109.409C306.854 109.369 306.66 109.289 306.5 109.169C306.34 109.049 306.22 108.883 306.14 108.669C306.06 108.469 306.02 108.203 306.02 107.869V98.2692C306.02 97.9092 306.094 97.6158 306.24 97.3892C306.4 97.1625 306.614 96.9558 306.88 96.7692C307.294 96.5025 307.807 96.2892 308.42 96.1292C309.034 95.9692 309.72 95.8892 310.48 95.8892ZM310.52 103.529C311.894 103.529 312.58 102.709 312.58 101.069C312.58 100.216 312.407 99.5825 312.06 99.1692C311.727 98.7558 311.24 98.5492 310.6 98.5492C310.347 98.5492 310.12 98.5825 309.92 98.6492C309.72 98.7025 309.547 98.7692 309.4 98.8492V103.249C309.56 103.329 309.734 103.396 309.92 103.449C310.107 103.503 310.307 103.529 310.52 103.529Z" fill="white"/>
<path d="M288.515 126.985C289.296 132.377 285.558 137.382 280.158 138.168C274.761 138.954 269.751 135.219 268.966 129.826C268.185 124.438 271.927 119.429 277.324 118.643C282.724 117.857 287.734 121.593 288.515 126.985Z" fill="url(#paint3_linear_663_80)"/>
<path d="M286.1 127.335C286.698 131.394 283.836 135.166 279.704 135.758C275.572 136.347 271.735 133.535 271.138 129.477C270.54 125.414 273.402 121.642 277.534 121.054C281.666 120.461 285.499 123.273 286.1 127.335Z" fill="#C59CE0"/>
<path d="M278.75 124.99C279.15 124.99 279.52 125.043 279.86 125.15C280.207 125.25 280.503 125.407 280.75 125.62C280.997 125.833 281.19 126.103 281.33 126.43C281.47 126.75 281.54 127.133 281.54 127.58C281.54 128.007 281.48 128.38 281.36 128.7C281.24 129.02 281.07 129.29 280.85 129.51C280.63 129.723 280.363 129.883 280.05 129.99C279.743 130.097 279.4 130.15 279.02 130.15C278.733 130.15 278.467 130.107 278.22 130.02V131.68C278.153 131.7 278.047 131.72 277.9 131.74C277.753 131.767 277.603 131.78 277.45 131.78C277.303 131.78 277.17 131.77 277.05 131.75C276.937 131.73 276.84 131.69 276.76 131.63C276.68 131.57 276.62 131.487 276.58 131.38C276.54 131.28 276.52 131.147 276.52 130.98V126.18C276.52 126 276.557 125.853 276.63 125.74C276.71 125.627 276.817 125.523 276.95 125.43C277.157 125.297 277.413 125.19 277.72 125.11C278.027 125.03 278.37 124.99 278.75 124.99ZM278.77 128.81C279.457 128.81 279.8 128.4 279.8 127.58C279.8 127.153 279.713 126.837 279.54 126.63C279.373 126.423 279.13 126.32 278.81 126.32C278.683 126.32 278.57 126.337 278.47 126.37C278.37 126.397 278.283 126.43 278.21 126.47V128.67C278.29 128.71 278.377 128.743 278.47 128.77C278.563 128.797 278.663 128.81 278.77 128.81Z" fill="white"/>
<defs>
<linearGradient id="paint0_linear_663_80" x1="202.383" y1="96.657" x2="350.933" y2="87.4329" gradientUnits="userSpaceOnUse">
<stop stop-color="#9CD083"/>
<stop offset="1" stop-color="#EEEEEE"/>
</linearGradient>
<linearGradient id="paint1_linear_663_80" x1="87.168" y1="166.121" x2="12.5058" y2="39.6586" gradientUnits="userSpaceOnUse">
<stop stop-color="#9CD083"/>
<stop offset="1" stop-color="#EEEEEE"/>
</linearGradient>
<linearGradient id="paint2_linear_663_80" x1="311.648" y1="143.323" x2="310.48" y2="42.9192" gradientUnits="userSpaceOnUse">
<stop stop-color="#C59CE0"/>
<stop offset="1" stop-color="#EEEEEE"/>
</linearGradient>
<linearGradient id="paint3_linear_663_80" x1="279.162" y1="149.336" x2="278.554" y2="97.0718" gradientUnits="userSpaceOnUse">
<stop stop-color="#C59CE0"/>
<stop offset="1" stop-color="#EEEEEE"/>
</linearGradient>
</defs>
</svg>
