<?xml version="1.0" encoding="utf-8"?>
<!-- Generator: Adobe Illustrator 24.0.2, SVG Export Plug-In . SVG Version: 6.00 Build 0)  -->
<svg version="1.1" id="Layer_1" xmlns="http://www.w3.org/2000/svg" xmlns:xlink="http://www.w3.org/1999/xlink" x="0px" y="0px"
	 viewBox="0 0 1920 480.42" style="enable-background:new 0 0 1920 480.42;" xml:space="preserve">
<style type="text/css">
	.st0{fill:#FFF4AA;}
	.st1{fill:#FFFFFF;}
	.st2{fill:#E5E5E5;}
	.st3{fill:#FDE464;}
	.st4{fill:#F0F0F0;}
	.st5{fill:#FFB7B7;}
	.st6{fill:#2F2E41;}
	.st7{fill:#FFB8B8;}
	.st8{fill:#3F3D56;}
	.st9{fill:#CCCCCC;}
	.st10{fill:#A0616A;}
	.st11{opacity:0.14;enable-background:new    ;}
	.st12{fill:#CBCBCB;}
</style>
<rect class="st0" width="1920" height="480.42"/>
<path class="st1" d="M703.08,345.35h518.2V83.01h-518.2V345.35z"/>
<path class="st2" d="M1225.56,349.62H698.81V78.74h526.75V349.62z M707.36,341.07h509.65V87.29H707.36V341.07z"/>
<polygon class="st3" points="944.94,138.51 944.94,227.55 815.51,227.55 791.59,256.24 794.32,227.55 782.69,227.55 782.69,138.51 
	"/>
<polygon class="st4" points="1023.27,143.79 1023.27,200.88 1106.26,200.88 1121.59,219.28 1119.84,200.88 1127.3,200.88 
	1127.3,143.79 "/>
<polygon class="st5" points="680.78,403.79 688.26,403.79 691.83,374.91 680.78,374.91 "/>
<path class="st6" d="M678.87,401.35h14.75l0,0c5.19,0,9.4,4.21,9.4,9.4v0.31h-24.14L678.87,401.35z"/>
<polygon class="st5" points="770.73,403.54 778,401.75 774.56,372.86 763.83,375.5 "/>
<path class="st6" d="M768.29,401.63l14.32-3.52l0,0c5.04-1.24,10.13,1.84,11.37,6.88l0.07,0.3l-23.44,5.77L768.29,401.63z"/>
<path class="st6" d="M676.17,396.9l1.56-7.96c0,0,2.86-30.73,23.41-61.39l6.69-33.31c0,0-1.99-25.21,17.18-38.86l5.91-4.07
	l20.72,1.19l4.79,26.2l9.64,62c0,0,2.49,0.23,3.42,7.4c1.9,3.01,3.02,6.44,3.27,9.99c0,0,4.93,13.61,6.26,23.64l-0.16,9.81
	l-10.42,5.55l-21.72-61.42l-15.53-34.34c0,0-7.48,24.19-18.93,44.92c0,0-15.69,33.95-18.82,40.85l-3.42,11.29L676.17,396.9z"/>
<circle class="st5" cx="745.46" cy="183.78" r="14.81"/>
<circle class="st7" cx="745.46" cy="183.78" r="14.81"/>
<path class="st8" d="M725.05,255.54l4.89-12.21c-3.45-11.19-3.24-23.19,0.6-34.25l0,0l0.94-0.77c8.15-6.71,15.3-5.49,21.94,2.72l0,0
	c1.07,1.33,2.32,2.51,3.71,3.5c2.93,2.05,7.57,13.21,1.44,19.75l-4.91,28.62C754.19,278.7,742.72,272.75,725.05,255.54z"/>
<path class="st5" d="M795.16,238.93c-2.39-1.81-5.79-1.33-7.6,1.05c-0.19,0.25-0.36,0.53-0.51,0.81l-12.35-0.96l-2.42,7.37
	l17.47,1.11c2.77,1.19,5.97-0.1,7.16-2.86C797.9,243.13,797.18,240.43,795.16,238.93L795.16,238.93z"/>
<path class="st9" d="M783.33,250.88l-35.2-6.57l-11.45-19.2c-1.53-4.25,0.67-8.93,4.92-10.47c4.25-1.53,8.93,0.67,10.47,4.92l0,0
	l5.37,14.85l27.84,4.61L783.33,250.88z"/>
<circle class="st6" cx="719.05" cy="166.32" r="14.21"/>
<path class="st6" d="M706.8,178.09c6.36,4.6,15.24,3.17,19.84-3.19c0.94-1.29,1.65-2.74,2.1-4.27c-0.98,7.79-8.09,13.31-15.87,12.33
	c-7.79-0.98-13.31-8.09-12.33-15.87c0.1-0.77,0.26-1.54,0.48-2.28C700.37,169.95,702.59,175.05,706.8,178.09z"/>
<path class="st6" d="M762.87,178.1c-2.48-4.44-3.43-6.3-6.63-9c-2.83-2.39-6.31-3.09-9.11-0.83c-8.52-3.68-18.41,0.24-22.09,8.76
	c-3.68,8.52,0.24,18.41,8.76,22.09c8.52,3.68,18.41-0.24,22.09-8.76c0.91-2.1,1.38-4.37,1.38-6.67c0-0.64-0.04-1.27-0.11-1.9
	C759.6,181.46,760.44,178.45,762.87,178.1z"/>
<path class="st10" d="M1199.69,284.41c0.18-3.7,3.32-6.56,7.02-6.39c0.39,0.02,0.79,0.07,1.17,0.16l8.88-12.51l8.92,3.54
	l-12.78,17.49c-1.07,3.57-4.83,5.6-8.4,4.54C1201.51,290.35,1199.52,287.52,1199.69,284.41L1199.69,284.41z"/>
<path class="st8" d="M1209.43,273.65l15.78-26.54l-6.43-17.15l8.76-23.35l0.32,0.14c0.21,0.09,5.19,2.31,5.92,10.26l10.06,31.63
	l-26.86,34.84L1209.43,273.65z"/>
<path class="st10" d="M1123.72,176.08c3.68,0.46,6.29,3.82,5.82,7.49c-0.05,0.39-0.13,0.78-0.25,1.16l11.78,9.82l-4.22,8.62
	l-16.45-14.1c-3.48-1.34-5.21-5.24-3.87-8.72C1117.66,177.43,1120.63,175.67,1123.72,176.08z"/>
<path class="st8" d="M1133.69,186.62l25.24,17.79l17.59-5.08l22.6,10.54l-0.16,0.31c-0.11,0.2-2.71,4.99-10.69,5.11l-32.31,7.59
	l-32.66-29.47L1133.69,186.62z"/>
<polygon class="st10" points="1179.88,402.9 1171.11,402.9 1166.93,369.05 1179.88,369.05 "/>
<path class="st6" d="M1164.84,400.39h16.92l0,0v10.66l0,0h-27.58l0,0l0,0C1154.18,405.16,1158.95,400.39,1164.84,400.39
	L1164.84,400.39z"/>
<polygon class="st10" points="1214.95,402.9 1206.18,402.9 1202,369.05 1214.96,369.05 "/>
<path class="st6" d="M1199.91,400.39h16.92l0,0v10.66l0,0h-27.58l0,0l0,0C1189.26,405.16,1194.03,400.39,1199.91,400.39
	L1199.91,400.39z"/>
<polygon class="st6" points="1218.08,279.35 1217.36,329.46 1216.64,395.31 1200.9,393.88 1193.02,302.97 1183,393.88 
	1166.75,393.88 1165.11,302.26 1170.83,282.22 "/>
<path class="st8" d="M1169.27,282.52l-2.4-0.1l11.14-61.38l-4.56-18.55c-0.49-2,0.59-4.05,2.52-4.77l8.21-3.08l2.9-7.98l22.88,2.47
	l0.56,6.23c2.48,0.8,22.9,7.6,21.49,15.34c-1.39,7.65-9.6,31.71-10.02,32.93l-1.44,34.51l-0.18,0.09
	c-0.21,0.11-15.98,7.86-33.12,7.86C1181.07,286.18,1174.94,284.97,1169.27,282.52z"/>
<circle class="st10" cx="1197.62" cy="166.24" r="16.47"/>
<path class="st6" d="M1210.96,182.18c-3.14,3.34-8.97,1.55-9.38-3.02c-0.03-0.35-0.03-0.71,0.01-1.07c0.21-2.02,1.38-3.86,1.1-6
	c-0.06-0.53-0.26-1.04-0.58-1.47c-2.5-3.35-8.38,1.5-10.74-1.53c-1.45-1.86,0.25-4.79-0.86-6.87c-1.47-2.74-5.81-1.39-8.53-2.89
	c-3.03-1.67-2.85-6.32-0.85-9.15c2.43-3.45,6.7-5.29,10.91-5.55c4.21-0.26,8.4,0.87,12.33,2.41c4.47,1.74,8.9,4.15,11.65,8.08
	c3.34,4.78,3.67,11.2,1.99,16.79C1217,175.3,1213.52,179.45,1210.96,182.18z"/>
<polygon class="st7" points="1032.47,398.35 1034.91,392.05 1011.8,379.62 1008.18,388.91 "/>
<path class="st6" d="M1045.58,381.92c-4.36-1.7-9.27,0.46-10.97,4.82v0.01l-1.65,4.24l-2.55,6.55l-0.62,1.61l8.16,3.17l7.89-20.3
	L1045.58,381.92z"/>
<path class="st6" d="M1030.41,386.23l-1.06,2.82l-2.66,7.05l-0.06,0.18c-6.77,0.87-14.19-0.84-21.05-3.48
	c-2.75-1.06-5.44-2.26-8.06-3.6c-3.88-1.96-7.36-4.03-10.13-5.8c-4.17-2.68-6.75-4.69-6.75-4.69s-0.68,0.62-1.92,1.67
	c-1.65,1.41-4.3,3.62-7.64,6.23c-1.28,1-2.65,2.04-4.11,3.14c-10.8,8.01-24.66-13.36-24.66-13.36s3.9-2.48,4.92-2.96
	c3.28-1.55,10.98-5.21,17.63-8.46c3.42-1.68,6.56-3.25,8.67-4.37c7.46-3.97,16.74,3.55,16.74,3.55L1030.41,386.23z"/>
<path class="st11" d="M1030.41,386.23l-1.06,2.82l-2.66,7.05l-0.06,0.18c-6.77,0.87-14.19-0.84-21.05-3.48
	c-2.75-1.06-5.44-2.26-8.06-3.6c-3.88-1.96-7.36-4.03-10.13-5.8c-4.17-2.68-6.75-4.69-6.75-4.69s-0.68,0.62-1.92,1.67
	c-1.65,1.41-4.3,3.62-7.64,6.23c-1.28,1-2.65,2.04-4.11,3.14c-10.8,8.01-24.66-13.36-24.66-13.36s3.9-2.48,4.92-2.96
	c3.28-1.55,10.98-5.21,17.63-8.46c3.42-1.68,6.56-3.25,8.67-4.37c7.46-3.97,16.74,3.55,16.74,3.55L1030.41,386.23z"/>
<path class="st6" d="M922.39,326.98h-31.95c-1.37,0-2.48-1.11-2.48-2.48v-13.77c-0.01-10.19,8.25-18.46,18.44-18.47
	c10.19-0.01,18.46,8.25,18.47,18.44c0,0.01,0,0.02,0,0.02v13.77C924.87,325.87,923.76,326.98,922.39,326.98z"/>
<path class="st7" d="M952.78,344.28c-2.81,0.49-4.69,3.17-4.19,5.98c0.05,0.3,0.13,0.59,0.24,0.88l-8.69,7.99l3.57,6.46l12.11-11.46
	c2.62-1.16,3.81-4.23,2.65-6.85C957.49,345.09,955.14,343.85,952.78,344.28L952.78,344.28z"/>
<path class="st3" d="M926.64,380.61c-0.39,0-0.79-0.02-1.18-0.05c-4.76-0.4-8.99-3.22-11.18-7.47l-13.92-26.79
	c-1.96-3.77-0.49-8.41,3.28-10.37c3.53-1.83,7.87-0.67,10.02,2.67l12.84,28.82l17.48-14.2l10.12,3.94L937,376.03
	C934.34,378.94,930.58,380.61,926.64,380.61z"/>
<polygon class="st7" points="1030.51,407.2 1033.44,401.11 1011.34,386.94 1007.03,395.92 "/>
<path class="st6" d="M1044.85,391.83c-4.22-2.03-9.28-0.25-11.31,3.96c0,0,0,0,0,0.01l-1.97,4.1l-3.04,6.34l-0.74,1.55l7.89,3.79
	l9.43-19.64L1044.85,391.83z"/>
<path class="st6" d="M1029.39,394.96l-1.28,2.73l-3.19,6.82l-0.08,0.17c-6.82,0.35-14.08-1.92-20.72-5.09
	c-2.66-1.27-5.25-2.67-7.76-4.2c-3.72-2.25-7.02-4.58-9.65-6.56c-3.96-2.99-6.37-5.2-6.37-5.2s-0.73,0.56-2.04,1.52
	c-1.76,1.28-4.56,3.28-8.1,5.62c-1.35,0.9-2.8,1.83-4.34,2.81c-11.38,7.16-27.57,15.87-41.34,17.71
	c-24.18,3.23-18.49-29.03-18.49-29.03l19.24-9.99l8.17,1.66l9.1,1.84l3.22,0.66c0,0,0.61-0.23,1.66-0.63
	c3.39-1.29,11.35-4.35,18.23-7.09c3.54-1.41,6.79-2.74,8.98-3.69c7.75-3.39,16.42,4.82,16.42,4.82L1029.39,394.96z"/>
<path class="st7" d="M870.82,412.07c2.78-0.64,4.52-3.41,3.88-6.19c-0.07-0.3-0.16-0.59-0.28-0.87l8.26-8.43l-3.9-6.27l-11.5,12.07
	c-2.56,1.29-3.59,4.42-2.29,6.98C866.08,411.5,868.49,412.62,870.82,412.07L870.82,412.07z"/>
<circle class="st7" cx="910.94" cy="314.71" r="12.88"/>
<path class="st3" d="M894.18,350.47l11.22,31.82l-0.07,0.11c-1.56,2.58-2.07,4.66-1.48,6.02c0.32,0.7,0.93,1.22,1.66,1.43
	l26.56-18.57l-0.93-7.44l0.05-0.08c2.57-4.11,3.4-7.83,2.47-11.06c-0.84-2.61-2.65-4.8-5.07-6.11l-0.09-0.07l-13.25-16.12
	l-17.71,3.15L894.18,350.47z"/>
<path class="st3" d="M877.11,406.33l-7.52-9.25l18.13-29.92l8.45-26.12l0.26,0.08l-0.26-0.08c1.78-5.51,7.7-8.54,13.21-6.75
	c5.51,1.78,8.54,7.7,6.75,13.21c-0.3,0.92-0.72,1.79-1.26,2.6l-15.51,23.24L877.11,406.33z"/>
<path class="st6" d="M929.24,312.1H909.7l-0.2-2.81l-1,2.81h-3.01l-0.4-5.56l-1.99,5.56h-5.82v-0.28c0.01-8.06,6.54-14.59,14.6-14.6
	h2.75c8.06,0.01,14.59,6.54,14.6,14.6L929.24,312.1z"/>
<path class="st6" d="M909.54,329.55c-0.15,0-0.29-0.01-0.44-0.04l-14.31-2.52v-23.65h15.75l-0.39,0.45
	c-5.43,6.33-1.34,16.59,1.58,22.14c0.44,0.83,0.36,1.84-0.19,2.59C911.07,329.17,910.33,329.55,909.54,329.55z"/>
<polygon class="st4" points="1123.3,287.18 1123.3,320.5 975.72,320.5 954.41,346.06 956.85,320.5 946.48,320.5 946.48,287.18 "/>
<circle class="st1" cx="1007.83" cy="303.79" r="6.04"/>
<circle class="st1" cx="987.46" cy="303.79" r="6.04"/>
<circle class="st1" cx="967.08" cy="303.79" r="6.04"/>
<path class="st12" d="M592.1,165.09c-0.53,0-0.98-0.41-1.01-0.95c-1.38-18.76-16.98-33.3-35.8-33.35c-1.09,0-2.23,0.06-3.39,0.16
	c-0.4,0.04-0.78-0.16-0.98-0.51c-11.72-20.51-37.84-27.63-58.35-15.92c-9.64,5.51-16.76,14.55-19.86,25.22
	c-0.13,0.44-0.54,0.75-1,0.73l-0.27-0.01c-0.14,0-0.28-0.01-0.42-0.01c-14.18,0.04-26.41,9.96-29.39,23.81
	c-0.1,0.47-0.52,0.81-1,0.81h-68.22c-0.56,0-1.02-0.45-1.02-1.02c0-0.56,0.45-1.02,1.02-1.02c0,0,0,0,0.01,0h67.41
	c3.49-14.4,16.35-24.56,31.17-24.62c7.31-23.64,32.4-36.88,56.04-29.57c10.64,3.29,19.67,10.42,25.34,20.01
	c1-0.08,1.98-0.12,2.93-0.12c19.88,0.05,36.37,15.41,37.83,35.24c0.04,0.56-0.38,1.05-0.94,1.09l0,0
	C592.15,165.09,592.12,165.09,592.1,165.09z"/>
<path class="st12" d="M579.98,178.15H412.97c-0.56,0-1.02-0.46-1.02-1.02s0.46-1.01,1.02-1.02h167.01c0.56,0,1.02,0.45,1.02,1.02
	C581.01,177.69,580.55,178.15,579.98,178.15C579.99,178.15,579.99,178.15,579.98,178.15z"/>
<path class="st12" d="M453.71,192.92H397.7c-0.56,0-1.02-0.45-1.02-1.02c0-0.56,0.45-1.02,1.02-1.02c0,0,0,0,0.01,0h56.01
	c0.56,0,1.02,0.46,1.02,1.02C454.72,192.46,454.27,192.91,453.71,192.92z"/>
<path class="st12" d="M1523.1,271.09c-0.53,0-0.98-0.41-1.01-0.95c-1.38-18.76-16.98-33.3-35.8-33.35c-1.09,0-2.23,0.06-3.39,0.16
	c-0.4,0.04-0.78-0.16-0.98-0.51c-11.72-20.51-37.84-27.63-58.35-15.92c-9.64,5.51-16.76,14.55-19.86,25.22
	c-0.13,0.44-0.54,0.75-1,0.73l-0.27-0.01c-0.14,0-0.28-0.01-0.42-0.01c-14.18,0.04-26.41,9.96-29.39,23.81
	c-0.1,0.47-0.52,0.81-1,0.81h-68.22c-0.56,0-1.02-0.45-1.02-1.02c0-0.56,0.45-1.02,1.02-1.02c0,0,0,0,0.01,0h67.41
	c3.49-14.4,16.35-24.56,31.17-24.62c7.31-23.64,32.4-36.88,56.04-29.57c10.64,3.29,19.67,10.42,25.34,20.01
	c1-0.08,1.98-0.12,2.93-0.12c19.88,0.05,36.37,15.41,37.83,35.24c0.04,0.56-0.38,1.05-0.94,1.09l0,0
	C1523.15,271.09,1523.12,271.09,1523.1,271.09z"/>
<path class="st12" d="M1510.98,284.15h-167.01c-0.56,0-1.02-0.46-1.02-1.02s0.46-1.01,1.02-1.02h167.01c0.56,0,1.02,0.45,1.02,1.02
	C1512.01,283.69,1511.55,284.15,1510.98,284.15C1510.99,284.15,1510.99,284.15,1510.98,284.15z"/>
<path class="st12" d="M1384.71,298.92h-56.01c-0.56,0-1.02-0.45-1.02-1.02c0-0.56,0.45-1.02,1.02-1.02c0,0,0,0,0.01,0h56.01
	c0.56,0,1.02,0.46,1.02,1.02C1385.72,298.46,1385.27,298.91,1384.71,298.92z"/>
</svg>
