<svg width="387" height="247" viewBox="0 0 387 247" fill="none" xmlns="http://www.w3.org/2000/svg">
<rect width="386" height="247" fill="#F7F7F7"/>
<path d="M207.738 158.85C200.838 157.308 197.829 150.172 195.424 137.989C193.618 128.827 191.854 120.508 193.955 110.131C195.424 102.868 198.452 96.54 201.748 91.5842C205.318 86.2141 209.097 79.0927 215.258 80.0952C223.72 81.4745 236.244 100.757 232.226 124.505C227.81 150.594 214.482 160.36 207.738 158.85Z" fill="url(#paint0_linear_646_266)"/>
<path d="M297.347 144.538C289.893 148.375 280 143.442 280 143.442C280 143.442 282.199 132.292 289.657 128.461C297.111 124.625 307 129.552 307 129.552C307 129.552 304.801 140.702 297.347 144.538Z" fill="url(#paint1_linear_646_266)"/>
<path d="M93.0813 179.406C105.781 187.136 124 179.991 124 179.991C124 179.991 121.618 160.317 108.911 152.596C96.2116 144.867 78 152.003 78 152.003C78 152.003 80.3821 171.677 93.0813 179.406Z" fill="url(#paint2_linear_646_266)"/>
<path d="M166 220C162.686 220 160 222.91 160 226.5C160 230.09 162.686 233 166 233C169.314 233 172 230.09 172 226.5C172 222.91 169.314 220 166 220Z" fill="#AE85C9"/>
<path d="M89.5 190C87.0147 190 85 187.985 85 185.5C85 183.015 87.0147 181 89.5 181C91.9853 181 94 183.015 94 185.5C94 187.985 91.9853 190 89.5 190Z" fill="#E1E4E5"/>
<path d="M134.5 56C132.567 56 131 54.6569 131 53C131 51.3431 132.567 50 134.5 50C136.433 50 138 51.3431 138 53C138 54.6569 136.433 56 134.5 56Z" fill="#E1E4E5"/>
<path d="M175 162C173.343 162 172 159.985 172 157.5C172 155.015 173.343 153 175 153C176.657 153 178 155.015 178 157.5C178 159.985 176.657 162 175 162Z" fill="#E1E4E5"/>
<path d="M184.5 50C182.015 50 180 47.7614 180 45C180 42.2386 182.015 40 184.5 40C186.985 40 189 42.2386 189 45C189 47.7614 186.985 50 184.5 50Z" fill="#E1E4E5"/>
<path d="M261 177C259.343 177 258 175.433 258 173.5C258 171.567 259.343 170 261 170C262.657 170 264 171.567 264 173.5C264 175.433 262.657 177 261 177Z" fill="#E1E4E5"/>
<path d="M307.782 173H307.872C308.403 180.551 314 180.667 314 180.667C314 180.667 307.828 180.788 307.828 189.512C307.828 180.788 301.656 180.667 301.656 180.667C301.656 180.667 307.251 180.551 307.782 173ZM127.436 213.055H127.515C127.987 219.889 132.953 219.994 132.953 219.994C132.953 219.994 127.476 220.103 127.476 228C127.476 220.103 122 219.994 122 219.994C122 219.994 126.964 219.889 127.436 213.055Z" fill="#9CD083"/>
<path d="M182.246 13.0346C182.028 13.0165 181.81 13.0057 181.592 13.0022C181.52 13.0011 181.448 12.9984 181.376 12.9992C181.222 13.0007 181.068 13.0049 180.914 13.0115C180.841 13.0146 180.768 13.0199 180.694 13.0257C180.541 13.0375 180.389 13.0521 180.237 13.0696C180.083 13.0883 179.93 13.1102 179.778 13.1354C179.677 13.1524 179.576 13.172 179.476 13.1924C179.423 13.2032 179.37 13.2117 179.317 13.224C179.163 13.2575 179.009 13.2944 178.855 13.3356L108.298 32.2198C107.813 32.3483 107.338 32.5147 106.879 32.7176C106.728 32.7838 106.579 32.8534 106.433 32.9262C102.628 34.8279 100.433 39.0286 101.128 43.3047C101.181 43.6338 101.252 43.963 101.34 44.2917L132.878 161.861L140.073 188.685C141.179 192.808 144.736 195.618 148.754 195.964C148.771 195.966 148.789 195.967 148.807 195.967C149.006 195.983 149.206 195.993 149.406 195.996C149.479 195.997 149.55 196 149.624 195.999C149.777 195.997 149.931 195.993 150.085 195.987C150.158 195.983 150.231 195.978 150.305 195.972C150.388 195.967 150.47 195.96 150.552 195.951C150.622 195.944 150.691 195.937 150.762 195.929C150.915 195.91 151.068 195.888 151.22 195.863C151.321 195.846 151.422 195.826 151.522 195.806C151.575 195.795 151.628 195.786 151.681 195.774C151.835 195.741 151.989 195.704 152.143 195.663L222.701 176.778C223.026 176.691 223.347 176.588 223.661 176.469C228.017 174.815 230.62 170.297 229.873 165.692C229.819 165.36 229.748 165.03 229.66 164.705L198.123 47.1374L190.927 20.3142C189.819 16.1912 186.262 13.3814 182.246 13.0346Z" fill="#C59CE0"/>
<path d="M154.362 33.713L137.468 38.2396C136.964 38.3748 136.664 38.8932 136.799 39.3975C136.934 39.9019 137.453 40.2011 137.957 40.066L154.851 35.5393C155.356 35.4041 155.655 34.8857 155.52 34.3814C155.385 33.8771 154.866 33.5778 154.362 33.713Z" fill="white"/>
<path d="M86.4601 111.488C88.1445 110.513 90.0551 109.999 92 109.999C93.9449 109.999 95.8555 110.513 97.5399 111.488L100.46 113.18C102.144 114.155 103.543 115.559 104.516 117.249C105.488 118.939 106 120.856 106 122.807V126.19C106 128.142 105.488 130.059 104.516 131.749C103.543 133.439 102.144 134.842 100.46 135.818L97.5399 137.51C95.8555 138.485 93.9449 138.999 92 138.999C90.0551 138.999 88.1445 138.485 86.4601 137.51L83.5399 135.818C81.8555 134.842 80.4568 133.439 79.4844 131.749C78.5119 130.059 78 128.142 78 126.19V122.807C78 120.856 78.5119 118.939 79.4844 117.249C80.4568 115.559 81.8555 114.155 83.5399 113.18L86.4601 111.488Z" fill="#C59CE0"/>
<path d="M97 120.999L90.75 127.999L87 123.799" stroke="#F7F7F7" stroke-width="5" stroke-linecap="round" stroke-linejoin="round"/>
<path d="M221.762 36.4884C223.507 35.5127 225.486 34.999 227.5 34.999C229.514 34.999 231.493 35.5127 233.238 36.4884L236.262 38.18C238.007 39.1557 239.455 40.5591 240.463 42.2491C241.47 43.9391 242 45.8562 242 47.8076V51.1908C242 53.1422 241.47 55.0592 240.463 56.7491C239.455 58.439 238.007 59.8423 236.262 60.818L233.238 62.5096C231.493 63.4854 229.514 63.999 227.5 63.999C225.486 63.999 223.507 63.4854 221.762 62.5096L218.738 60.818C216.993 59.8423 215.545 58.439 214.537 56.7491C213.53 55.0592 213 53.1422 213 51.1908V47.8076C213 45.8562 213.53 43.9391 214.537 42.2491C215.545 40.5591 216.993 39.1557 218.738 38.18L221.762 36.4884Z" fill="#C59CE0"/>
<path d="M299.246 233.297C299.246 233.297 282.358 218.184 270.782 215.888C259.328 213.617 228.781 213.71 206.755 202.781C206.549 202.68 206.384 202.51 206.289 202.3C206.194 202.09 206.174 201.854 206.235 201.631C206.689 200.011 208.588 196.616 216.711 197.431C227.283 198.509 235.399 199.124 235.399 199.124C235.399 199.124 204.725 164.918 197.101 155.028C195.594 153.076 194.601 151.337 193.978 149.773C192.038 144.892 198.37 140.981 201.926 144.838L222.739 167.405C222.739 167.405 221.891 164.009 224.342 162.076C226.664 160.253 232.194 161.656 235.254 165.382C235.254 165.382 234.622 161.488 238.403 160C242.184 158.512 246.85 161.737 248.79 163.766C248.79 163.766 247.385 160.184 249.801 158.325C252.216 156.466 258.198 158.765 259.765 160.033C261.332 161.301 276.169 169.528 291.509 191.05L323.328 203.017C323.328 203.017 327.161 215.32 299.246 233.297Z" fill="#F8AE9D"/>
<path d="M233 45.998L226.75 52.998L223 48.798" stroke="#F7F7F7" stroke-width="5" stroke-linecap="round" stroke-linejoin="round"/>
<path d="M157.828 114.549C157.828 114.549 162.197 115.894 168.449 114.175C174.7 112.457 177.828 109.05 177.828 109.05" stroke="white" stroke-width="5" stroke-linecap="round" stroke-linejoin="round"/>
<path d="M152.774 106.35C155.592 105.594 157.278 102.747 156.54 99.9901C155.802 97.2336 152.92 95.6116 150.102 96.3674C147.284 97.1232 145.598 99.9705 146.336 102.727C147.074 105.484 149.956 107.106 152.774 106.35Z" fill="white"/>
<path d="M177.735 99.3498C180.552 98.594 182.239 95.7467 181.501 92.9901C180.763 90.2336 177.88 88.6116 175.063 89.3674C172.245 90.1232 170.559 92.9705 171.297 95.7271C172.035 98.4836 174.917 100.106 177.735 99.3498Z" fill="white"/>
<path d="M279.11 104.759C280.546 114.668 273.677 123.865 263.754 125.308C253.837 126.753 244.632 119.889 243.189 109.98C241.754 100.078 248.63 90.8743 258.546 89.4305C268.469 87.9866 277.675 94.8503 279.11 104.759Z" fill="url(#paint3_linear_646_266)"/>
<path d="M274.675 105.402C275.774 112.86 270.515 119.791 262.922 120.88C255.329 121.962 248.279 116.796 247.18 109.337C246.082 101.873 251.341 94.9418 258.933 93.8598C266.526 92.7711 273.57 97.9372 274.675 105.402Z" fill="#C59CE0"/>
<path d="M261.047 100.98C261.847 100.98 262.587 101.087 263.267 101.3C263.96 101.5 264.554 101.813 265.047 102.24C265.54 102.667 265.927 103.207 266.207 103.86C266.487 104.5 266.627 105.267 266.627 106.16C266.627 107.013 266.507 107.76 266.267 108.4C266.027 109.04 265.687 109.58 265.247 110.02C264.807 110.447 264.274 110.767 263.647 110.98C263.034 111.193 262.347 111.3 261.587 111.3C261.014 111.3 260.48 111.213 259.987 111.04V114.36C259.854 114.4 259.64 114.44 259.347 114.48C259.054 114.533 258.754 114.56 258.447 114.56C258.154 114.56 257.887 114.54 257.647 114.5C257.42 114.46 257.227 114.38 257.067 114.26C256.907 114.14 256.787 113.973 256.707 113.76C256.627 113.56 256.587 113.293 256.587 112.96V103.36C256.587 103 256.66 102.707 256.807 102.48C256.967 102.253 257.18 102.047 257.447 101.86C257.86 101.593 258.374 101.38 258.987 101.22C259.6 101.06 260.287 100.98 261.047 100.98ZM261.087 108.62C262.46 108.62 263.147 107.8 263.147 106.16C263.147 105.307 262.974 104.673 262.627 104.26C262.294 103.847 261.807 103.64 261.167 103.64C260.914 103.64 260.687 103.673 260.487 103.74C260.287 103.793 260.114 103.86 259.967 103.94V108.34C260.127 108.42 260.3 108.487 260.487 108.54C260.674 108.593 260.874 108.62 261.087 108.62Z" fill="white"/>
<path d="M121.074 188.798C122.786 200.617 114.593 211.588 102.756 213.31C90.9272 215.033 79.9463 206.846 78.2259 195.026C76.5141 183.215 84.7153 172.236 96.544 170.514C108.381 168.791 119.362 176.979 121.074 188.798Z" fill="url(#paint4_linear_646_266)"/>
<path d="M115.783 189.565C117.093 198.461 110.82 206.729 101.763 208.027C92.706 209.318 84.2958 203.156 82.9855 194.259C81.6755 185.355 87.9483 177.087 97.0051 175.797C106.062 174.498 114.464 180.66 115.783 189.565Z" fill="#C59CE0"/>
<path d="M99.2148 181.97C100.415 181.97 101.525 182.13 102.545 182.45C103.585 182.75 104.475 183.22 105.215 183.86C105.955 184.5 106.535 185.31 106.955 186.29C107.375 187.25 107.585 188.4 107.585 189.74C107.585 191.02 107.405 192.14 107.045 193.1C106.685 194.06 106.175 194.87 105.515 195.53C104.855 196.17 104.055 196.65 103.115 196.97C102.195 197.29 101.165 197.45 100.025 197.45C99.1648 197.45 98.3648 197.32 97.6248 197.06V202.04C97.4248 202.1 97.1048 202.16 96.6648 202.22C96.2248 202.3 95.7748 202.34 95.3148 202.34C94.8748 202.34 94.4748 202.31 94.1148 202.25C93.7748 202.19 93.4848 202.07 93.2448 201.89C93.0048 201.71 92.8248 201.46 92.7048 201.14C92.5848 200.84 92.5248 200.44 92.5248 199.94V185.54C92.5248 185 92.6348 184.56 92.8548 184.22C93.0948 183.88 93.4148 183.57 93.8148 183.29C94.4348 182.89 95.2048 182.57 96.1248 182.33C97.0448 182.09 98.0748 181.97 99.2148 181.97ZM99.2748 193.43C101.335 193.43 102.365 192.2 102.365 189.74C102.365 188.46 102.105 187.51 101.585 186.89C101.085 186.27 100.355 185.96 99.3948 185.96C99.0148 185.96 98.6748 186.01 98.3748 186.11C98.0748 186.19 97.8148 186.29 97.5948 186.41V193.01C97.8348 193.13 98.0948 193.23 98.3748 193.31C98.6548 193.39 98.9548 193.43 99.2748 193.43Z" fill="white"/>
<defs>
<linearGradient id="paint0_linear_646_266" x1="162.767" y1="147.992" x2="287.342" y2="79.0802" gradientUnits="userSpaceOnUse">
<stop stop-color="#9CD083"/>
<stop offset="1" stop-color="#EEEEEE"/>
</linearGradient>
<linearGradient id="paint1_linear_646_266" x1="268.724" y1="156.505" x2="331.93" y2="108.315" gradientUnits="userSpaceOnUse">
<stop stop-color="#9CD083"/>
<stop offset="1" stop-color="#EEEEEE"/>
</linearGradient>
<linearGradient id="paint2_linear_646_266" x1="142.224" y1="204.287" x2="38.5846" y2="109.464" gradientUnits="userSpaceOnUse">
<stop stop-color="#9CD083"/>
<stop offset="1" stop-color="#EEEEEE"/>
</linearGradient>
<linearGradient id="paint3_linear_646_266" x1="261.924" y1="145.831" x2="260.807" y2="49.792" gradientUnits="userSpaceOnUse">
<stop stop-color="#C59CE0"/>
<stop offset="1" stop-color="#EEEEEE"/>
</linearGradient>
<linearGradient id="paint4_linear_646_266" x1="100.573" y1="237.79" x2="99.2409" y2="123.231" gradientUnits="userSpaceOnUse">
<stop stop-color="#C59CE0"/>
<stop offset="1" stop-color="#EEEEEE"/>
</linearGradient>
</defs>
</svg>
