<?xml version="1.0" encoding="utf-8"?>
<!-- Generator: Adobe Illustrator 24.0.2, SVG Export Plug-In . SVG Version: 6.00 Build 0)  -->
<svg version="1.1" id="Layer_1" xmlns="http://www.w3.org/2000/svg" xmlns:xlink="http://www.w3.org/1999/xlink" x="0px" y="0px"
	 viewBox="0 0 395 130" style="enable-background:new 0 0 395 130;" xml:space="preserve">
<style type="text/css">
	.st0{fill:#FFF4AA;}
	.st1{fill:#FFFFFF;}
	.st2{fill:#E5E5E5;}
	.st3{fill:#FDE464;}
	.st4{fill:#F0F0F0;}
	.st5{fill:#FFB7B7;}
	.st6{fill:#2F2E41;}
	.st7{fill:#FFB8B8;}
	.st8{fill:#3F3D56;}
	.st9{fill:#CCCCCC;}
	.st10{fill:#A0616A;}
	.st11{opacity:0.14;enable-background:new    ;}
	.st12{fill:#CBCBCB;}
</style>
<rect x="1.1" y="0.45" class="st0" width="393.4" height="129.55"/>
<path class="st1" d="M121.81,93.14H268.1V17.87H121.81V93.14z"/>
<path class="st2" d="M269.31,94.37H120.6V16.64h148.71V94.37z M123.02,91.92h143.88V19.09H123.02V91.92z"/>
<polygon class="st3" points="190.09,33.79 190.09,59.34 153.55,59.34 146.79,67.57 147.57,59.34 144.28,59.34 144.28,33.79 "/>
<polygon class="st4" points="212.2,35.31 212.2,51.69 235.63,51.69 239.96,56.97 239.46,51.69 241.57,51.69 241.57,35.31 "/>
<polygon class="st5" points="115.51,109.91 117.62,109.91 118.63,101.63 115.51,101.63 "/>
<path class="st6" d="M114.97,109.21h4.16l0,0c1.47,0,2.65,1.21,2.65,2.7V112h-6.81L114.97,109.21z"/>
<polygon class="st5" points="140.91,109.84 142.96,109.33 141.99,101.04 138.96,101.8 "/>
<path class="st6" d="M140.22,109.29l4.04-1.01l0,0c1.42-0.36,2.86,0.53,3.21,1.97l0.02,0.09l-6.62,1.66L140.22,109.29z"/>
<path class="st6" d="M114.21,107.94l0.44-2.28c0,0,0.81-8.82,6.61-17.62l1.89-9.56c0,0-0.56-7.23,4.85-11.15l1.67-1.17l5.85,0.34
	l1.35,7.52l2.72,17.79c0,0,0.7,0.07,0.97,2.12c0.54,0.86,0.85,1.85,0.92,2.87c0,0,1.39,3.91,1.77,6.78l-0.05,2.81l-2.94,1.59
	l-6.13-17.62l-4.38-9.85c0,0-2.11,6.94-5.34,12.89c0,0-4.43,9.74-5.31,11.72l-0.97,3.24L114.21,107.94z"/>
<ellipse class="st5" cx="133.77" cy="46.78" rx="4.18" ry="4.25"/>
<ellipse class="st7" cx="133.77" cy="46.78" rx="4.18" ry="4.25"/>
<path class="st8" d="M128.01,67.37l1.38-3.5c-0.97-3.21-0.91-6.65,0.17-9.83l0,0l0.27-0.22c2.3-1.93,4.32-1.58,6.19,0.78l0,0
	c0.3,0.38,0.65,0.72,1.05,1c0.83,0.59,2.14,3.79,0.41,5.67l-1.39,8.21C136.24,74.02,133,72.31,128.01,67.37z"/>
<path class="st5" d="M147.8,62.61c-0.67-0.52-1.63-0.38-2.15,0.3c-0.05,0.07-0.1,0.15-0.14,0.23l-3.49-0.28l-0.68,2.11l4.93,0.32
	c0.78,0.34,1.69-0.03,2.02-0.82C148.58,63.81,148.37,63.04,147.8,62.61L147.8,62.61z"/>
<path class="st9" d="M144.46,66.04l-9.94-1.89l-3.23-5.51c-0.43-1.22,0.19-2.56,1.39-3c1.2-0.44,2.52,0.19,2.96,1.41l0,0l1.52,4.26
	l7.86,1.32L144.46,66.04z"/>
<ellipse class="st6" cx="126.32" cy="41.77" rx="4.01" ry="4.08"/>
<path class="st6" d="M122.86,45.15c1.8,1.32,4.3,0.91,5.6-0.92c0.27-0.37,0.47-0.79,0.59-1.23c-0.28,2.24-2.28,3.82-4.48,3.54
	c-2.2-0.28-3.76-2.32-3.48-4.55c0.03-0.22,0.07-0.44,0.14-0.65C121.04,42.81,121.67,44.28,122.86,45.15z"/>
<path class="st6" d="M138.69,45.15c-0.7-1.27-0.97-1.81-1.87-2.58c-0.8-0.69-1.78-0.89-2.57-0.24c-2.41-1.06-5.2,0.07-6.24,2.51
	c-1.04,2.44,0.07,5.28,2.47,6.34c2.41,1.06,5.2-0.07,6.24-2.51c0.26-0.6,0.39-1.25,0.39-1.91c0-0.18-0.01-0.36-0.03-0.55
	C137.76,46.12,138,45.25,138.69,45.15z"/>
<path class="st10" d="M262,75.66c0.05-1.06,0.94-1.88,1.98-1.83c0.11,0.01,0.22,0.02,0.33,0.05l2.51-3.59l2.52,1.02l-3.61,5.02
	c-0.3,1.02-1.36,1.61-2.37,1.3C262.52,77.36,261.96,76.55,262,75.66L262,75.66z"/>
<path class="st8" d="M264.75,72.57l4.45-7.62l-1.82-4.92l2.47-6.7l0.09,0.04c0.06,0.03,1.47,0.66,1.67,2.94l2.84,9.08l-7.58,10
	L264.75,72.57z"/>
<path class="st10" d="M240.56,44.57c1.04,0.13,1.78,1.1,1.64,2.15c-0.01,0.11-0.04,0.22-0.07,0.33l3.33,2.82l-1.19,2.47l-4.64-4.05
	c-0.98-0.38-1.47-1.5-1.09-2.5C238.85,44.96,239.69,44.45,240.56,44.57z"/>
<path class="st8" d="M243.37,47.6l7.13,5.1l4.97-1.46l6.38,3.02l-0.05,0.09c-0.03,0.06-0.77,1.43-3.02,1.47L249.66,58l-9.22-8.46
	L243.37,47.6z"/>
<polygon class="st10" points="256.41,109.66 253.94,109.66 252.76,99.94 256.41,99.94 "/>
<path class="st6" d="M252.17,108.94h4.78l0,0V112l0,0h-7.79l0,0l0,0C249.16,110.31,250.5,108.94,252.17,108.94L252.17,108.94z"/>
<polygon class="st10" points="266.31,109.66 263.84,109.66 262.66,99.94 266.32,99.94 "/>
<path class="st6" d="M262.07,108.94h4.78l0,0V112l0,0h-7.79l0,0l0,0C259.06,110.31,260.41,108.94,262.07,108.94L262.07,108.94z"/>
<polygon class="st6" points="267.2,74.2 266.99,88.58 266.79,107.48 262.35,107.07 260.12,80.98 257.29,107.07 252.71,107.07 
	252.24,80.78 253.86,75.03 "/>
<path class="st8" d="M253.42,75.11l-0.68-0.03l3.14-17.61l-1.29-5.32c-0.14-0.57,0.17-1.16,0.71-1.37l2.32-0.88l0.82-2.29l6.46,0.71
	l0.16,1.79c0.7,0.23,6.46,2.18,6.07,4.4c-0.39,2.2-2.71,9.1-2.83,9.45l-0.41,9.9l-0.05,0.03c-0.06,0.03-4.51,2.26-9.35,2.26
	C256.75,76.16,255.02,75.82,253.42,75.11z"/>
<ellipse class="st10" cx="261.42" cy="41.75" rx="4.65" ry="4.73"/>
<path class="st6" d="M265.19,46.32c-0.89,0.96-2.53,0.44-2.65-0.87c-0.01-0.1-0.01-0.2,0-0.31c0.06-0.58,0.39-1.11,0.31-1.72
	c-0.02-0.15-0.07-0.3-0.16-0.42c-0.71-0.96-2.37,0.43-3.03-0.44c-0.41-0.53,0.07-1.37-0.24-1.97c-0.41-0.79-1.64-0.4-2.41-0.83
	c-0.86-0.48-0.8-1.81-0.24-2.63c0.69-0.99,1.89-1.52,3.08-1.59s2.37,0.25,3.48,0.69c1.26,0.5,2.51,1.19,3.29,2.32
	c0.94,1.37,1.04,3.21,0.56,4.82C266.89,44.35,265.91,45.54,265.19,46.32z"/>
<polygon class="st7" points="214.8,108.35 215.49,106.54 208.96,102.98 207.94,105.64 "/>
<path class="st6" d="M218.5,103.64c-1.23-0.49-2.62,0.13-3.1,1.38v0l-0.47,1.22l-0.72,1.88l-0.18,0.46l2.3,0.91l2.23-5.83
	L218.5,103.64z"/>
<path class="st6" d="M214.22,104.87l-0.3,0.81l-0.75,2.02l-0.02,0.05c-1.91,0.25-4.01-0.24-5.94-1c-0.78-0.3-1.54-0.65-2.28-1.03
	c-1.1-0.56-2.08-1.16-2.86-1.66c-1.18-0.77-1.91-1.35-1.91-1.35s-0.19,0.18-0.54,0.48c-0.47,0.4-1.21,1.04-2.16,1.79
	c-0.36,0.29-0.75,0.59-1.16,0.9c-3.05,2.3-6.96-3.83-6.96-3.83s1.1-0.71,1.39-0.85c0.93-0.44,3.1-1.5,4.98-2.43
	c0.97-0.48,1.85-0.93,2.45-1.25c2.11-1.14,4.73,1.02,4.73,1.02L214.22,104.87z"/>
<path class="st11" d="M214.22,104.87l-0.3,0.81l-0.75,2.02l-0.02,0.05c-1.91,0.25-4.01-0.24-5.94-1c-0.78-0.3-1.54-0.65-2.28-1.03
	c-1.1-0.56-2.08-1.16-2.86-1.66c-1.18-0.77-1.91-1.35-1.91-1.35s-0.19,0.18-0.54,0.48c-0.47,0.4-1.21,1.04-2.16,1.79
	c-0.36,0.29-0.75,0.59-1.16,0.9c-3.05,2.3-6.96-3.83-6.96-3.83s1.1-0.71,1.39-0.85c0.93-0.44,3.1-1.5,4.98-2.43
	c0.97-0.48,1.85-0.93,2.45-1.25c2.11-1.14,4.73,1.02,4.73,1.02L214.22,104.87z"/>
<path class="st6" d="M183.72,87.87h-9.02c-0.39,0-0.7-0.32-0.7-0.71v-3.95c0-2.92,2.33-5.3,5.21-5.3s5.21,2.37,5.21,5.29
	c0,0,0,0.01,0,0.01v3.95C184.42,87.55,184.11,87.87,183.72,87.87z"/>
<path class="st7" d="M192.3,92.84c-0.79,0.14-1.32,0.91-1.18,1.72c0.01,0.09,0.04,0.17,0.07,0.25l-2.45,2.29l1.01,1.85l3.42-3.29
	c0.74-0.33,1.08-1.21,0.75-1.97C193.63,93.07,192.97,92.71,192.3,92.84L192.3,92.84z"/>
<path class="st3" d="M184.92,103.26c-0.11,0-0.22-0.01-0.33-0.01c-1.34-0.11-2.54-0.92-3.16-2.14l-3.93-7.69
	c-0.55-1.08-0.14-2.41,0.93-2.98c1-0.53,2.22-0.19,2.83,0.77l3.62,8.27l4.93-4.07l2.86,1.13l-4.83,5.41
	C187.09,102.78,186.03,103.26,184.92,103.26z"/>
<polygon class="st7" points="214.24,110.89 215.07,109.14 208.83,105.08 207.62,107.65 "/>
<path class="st6" d="M218.29,106.48c-1.19-0.58-2.62-0.07-3.19,1.14c0,0,0,0,0,0l-0.56,1.18l-0.86,1.82l-0.21,0.44l2.23,1.09
	l2.66-5.64L218.29,106.48z"/>
<path class="st6" d="M213.93,107.38l-0.36,0.78l-0.9,1.96l-0.02,0.05c-1.93,0.1-3.97-0.55-5.85-1.46c-0.75-0.36-1.48-0.77-2.19-1.21
	c-1.05-0.65-1.98-1.31-2.72-1.88c-1.12-0.86-1.8-1.49-1.8-1.49s-0.21,0.16-0.58,0.44c-0.5,0.37-1.29,0.94-2.29,1.61
	c-0.38,0.26-0.79,0.53-1.23,0.81c-3.21,2.05-7.78,4.55-11.67,5.08c-6.83,0.93-5.22-8.33-5.22-8.33l5.43-2.87l2.31,0.48l2.57,0.53
	l0.91,0.19c0,0,0.17-0.07,0.47-0.18c0.96-0.37,3.2-1.25,5.15-2.03c1-0.4,1.92-0.79,2.54-1.06c2.19-0.97,4.64,1.38,4.64,1.38
	L213.93,107.38z"/>
<path class="st7" d="M169.16,112.29c0.78-0.18,1.28-0.98,1.1-1.78c-0.02-0.09-0.05-0.17-0.08-0.25l2.33-2.42l-1.1-1.8l-3.25,3.46
	c-0.72,0.37-1.01,1.27-0.65,2C167.82,112.13,168.5,112.45,169.16,112.29L169.16,112.29z"/>
<ellipse class="st7" cx="180.49" cy="84.35" rx="3.64" ry="3.7"/>
<path class="st3" d="M175.76,94.61l3.17,9.13l-0.02,0.03c-0.44,0.74-0.58,1.34-0.42,1.73c0.09,0.2,0.26,0.35,0.47,0.41l7.5-5.33
	l-0.26-2.13l0.01-0.02c0.73-1.18,0.96-2.25,0.7-3.17c-0.24-0.75-0.75-1.38-1.43-1.75l-0.03-0.02l-3.74-4.63l-5,0.9L175.76,94.61z"/>
<path class="st3" d="M170.94,110.64l-2.12-2.65l5.12-8.59l2.39-7.5l0.07,0.02l-0.07-0.02c0.5-1.58,2.17-2.45,3.73-1.94
	c1.56,0.51,2.41,2.21,1.91,3.79c-0.08,0.26-0.2,0.51-0.36,0.75l-4.38,6.67L170.94,110.64z"/>
<path class="st6" d="M185.65,83.6h-5.52l-0.06-0.81l-0.28,0.81h-0.85l-0.11-1.6l-0.56,1.6h-1.64v-0.08c0-2.31,1.85-4.19,4.12-4.19
	h0.78c2.28,0,4.12,1.88,4.12,4.19L185.65,83.6z"/>
<path class="st6" d="M180.09,88.61c-0.04,0-0.08,0-0.12-0.01l-4.04-0.72v-6.79h4.45l-0.11,0.13c-1.53,1.82-0.38,4.76,0.45,6.35
	c0.12,0.24,0.1,0.53-0.05,0.74C180.52,88.5,180.32,88.61,180.09,88.61z"/>
<polygon class="st4" points="240.44,76.45 240.44,86.01 198.78,86.01 192.76,93.35 193.45,86.01 190.52,86.01 190.52,76.45 "/>
<ellipse class="st1" cx="207.84" cy="81.22" rx="1.71" ry="1.73"/>
<ellipse class="st1" cx="202.09" cy="81.22" rx="1.71" ry="1.73"/>
<ellipse class="st1" cx="196.34" cy="81.22" rx="1.71" ry="1.73"/>
<path class="st12" d="M90.48,41.42c-0.15,0-0.28-0.12-0.29-0.27c-0.39-5.38-4.79-9.56-10.11-9.57c-0.31,0-0.63,0.02-0.96,0.05
	c-0.11,0.01-0.22-0.05-0.28-0.15c-3.31-5.89-10.68-7.93-16.47-4.57c-2.72,1.58-4.73,4.18-5.61,7.24c-0.04,0.13-0.15,0.22-0.28,0.21
	l-0.08,0c-0.04,0-0.08,0-0.12,0c-4,0.01-7.46,2.86-8.3,6.83c-0.03,0.13-0.15,0.23-0.28,0.23H28.46c-0.16,0-0.29-0.13-0.29-0.29
	c0-0.16,0.13-0.29,0.29-0.29c0,0,0,0,0,0h19.03c0.99-4.13,4.62-7.05,8.8-7.06c2.06-6.78,9.15-10.58,15.82-8.49
	c3,0.94,5.55,2.99,7.15,5.74c0.28-0.02,0.56-0.03,0.83-0.03C85.7,31,90.36,35.41,90.77,41.1c0.01,0.16-0.11,0.3-0.27,0.31l0,0
	C90.49,41.42,90.48,41.42,90.48,41.42z"/>
<path class="st12" d="M87.06,45.17H39.91c-0.16,0-0.29-0.13-0.29-0.29s0.13-0.29,0.29-0.29h47.15c0.16,0,0.29,0.13,0.29,0.29
	C87.35,45.03,87.22,45.17,87.06,45.17C87.06,45.17,87.06,45.17,87.06,45.17z"/>
<path class="st12" d="M51.41,49.4H35.6c-0.16,0-0.29-0.13-0.29-0.29c0-0.16,0.13-0.29,0.29-0.29c0,0,0,0,0,0h15.81
	c0.16,0,0.29,0.13,0.29,0.29C51.69,49.27,51.57,49.4,51.41,49.4z"/>
<path class="st12" d="M353.31,71.83c-0.15,0-0.28-0.12-0.29-0.27c-0.39-5.38-4.79-9.56-10.11-9.57c-0.31,0-0.63,0.02-0.96,0.05
	c-0.11,0.01-0.22-0.05-0.28-0.15c-3.31-5.89-10.68-7.93-16.47-4.57c-2.72,1.58-4.73,4.18-5.61,7.24c-0.04,0.13-0.15,0.22-0.28,0.21
	l-0.08,0c-0.04,0-0.08,0-0.12,0c-4,0.01-7.46,2.86-8.3,6.83c-0.03,0.13-0.15,0.23-0.28,0.23h-19.26c-0.16,0-0.29-0.13-0.29-0.29
	c0-0.16,0.13-0.29,0.29-0.29c0,0,0,0,0,0h19.03c0.99-4.13,4.62-7.05,8.8-7.06c2.06-6.78,9.15-10.58,15.82-8.49
	c3,0.94,5.55,2.99,7.15,5.74c0.28-0.02,0.56-0.03,0.83-0.03c5.61,0.01,10.27,4.42,10.68,10.11c0.01,0.16-0.11,0.3-0.27,0.31l0,0
	C353.32,71.83,353.31,71.83,353.31,71.83z"/>
<path class="st12" d="M349.88,75.58h-47.15c-0.16,0-0.29-0.13-0.29-0.29s0.13-0.29,0.29-0.29h47.15c0.16,0,0.29,0.13,0.29,0.29
	C350.17,75.45,350.04,75.58,349.88,75.58C349.89,75.58,349.89,75.58,349.88,75.58z"/>
<path class="st12" d="M314.24,79.82h-15.81c-0.16,0-0.29-0.13-0.29-0.29c0-0.16,0.13-0.29,0.29-0.29c0,0,0,0,0,0h15.81
	c0.16,0,0.29,0.13,0.29,0.29C314.52,79.69,314.4,79.82,314.24,79.82z"/>
</svg>
