<?xml version="1.0" encoding="utf-8"?>
<!-- Generator: Adobe Illustrator 24.0.2, SVG Export Plug-In . SVG Version: 6.00 Build 0)  -->
<svg version="1.1" id="Layer_1" xmlns="http://www.w3.org/2000/svg" xmlns:xlink="http://www.w3.org/1999/xlink" x="0px" y="0px"
	 viewBox="0 0 595.28 841.89" style="enable-background:new 0 0 595.28 841.89;" xml:space="preserve">
<style type="text/css">
	.st0{fill:#F9F9F9;}
	.st1{fill:#E0E3E4;}
	.st2{fill:#F6F6F6;}
	.st3{fill:#F7F7F7;}
	.st4{fill:#FDC203;}
	.st5{fill:#F8F8F8;}
	.st6{fill:#E1E4E3;}
	.st7{fill:#645524;}
	.st8{fill:#FEC307;}
	.st9{fill:#E6E9E9;}
	.st10{fill:#F3AB99;}
	.st11{fill:#F7B29B;}
</style>
<path class="st0" d="M235.04,522.8c-2.72-0.84-5.5-1.03-8.35-1.02c-17.49,0.06-34.97,0.04-52.46,0.03
	c-8.75-0.01-16.65-5.9-18.09-13.43c-1.83-9.57,3.62-19.47,12.4-22.54c0.94-0.33,1.88-0.73,2.85-0.89c5.84-0.99,12.43-0.59,14.65-8.1
	c0.89,2.38,1.85,3.92,5.09,4.26c3.87,0.4,7.55,1.33,11.61,0.94c3.16-0.31,6.41,0.94,9.24-1.59c1.02-0.91,2.27-0.06,3.29,0.37
	c5.55,2.32,10.95,3.8,17.07,1.32c2.52-1.02,6.01-1.12,8.73,0.48c3.03,1.78,6.01,1.39,9.12,0.65c5.45-1.3,11.15-0.89,16.55-1.95
	c3.91-0.76,7.04,0.57,10.51,0.93c4.42,0.45,9.34,1.27,13.87-1.31c5.3-3.02,10.52,0.9,15.83,0.91c-0.2,3.46,2.27,3.08,4.4,2.96
	c7.99-0.44,16.34-0.06,21.63,6.32c5.43,6.56,11.74,9.24,19.76,10.29c4.71,0.62,7,4.42,7.27,9.37c0.3,5.35-2.53,8.22-7.04,10.04
	c-2.73,0.81-5.5,1.01-8.35,1c-34.63-0.04-69.27-0.04-103.9,0.01C238.82,521.85,236.7,521.09,235.04,522.8z"/>
<path class="st1" d="M352.98,520.84c4.52-1.82,7.34-4.69,7.04-10.04c-0.28-4.96-2.56-8.75-7.27-9.37
	c-8.02-1.05-14.32-3.73-19.76-10.29c-5.28-6.38-13.63-6.76-21.63-6.32c-2.13,0.12-4.6,0.49-4.4-2.96c-2.25-6.92-7.66-10.44-13.98-13
	c0.38-0.7,0.68-1.46,1.15-2.1c4.26-5.77,10.14-9.95,15.05-15.08c7.17-2.77,13.73-7.17,21.43-8.5c2.51-0.43,3.61-1.58,3.69-4.84
	c2.68,3.57,5.68,3.48,8.9,3.23c3.11-0.24,6.26,0.07,9.39,0.14c26.17,2.82,47.28,13.6,59.78,37.96c1.32,2.56,2.02,5.3,2.48,8.04
	c0.56,3.36,2.27,4.48,5.48,4.16c5.97-0.6,11.56,0.82,16.81,3.62c7.99,4.27,11.72,14.25,7.99,20.95c-3.05,5.47-8.31,6.31-13.71,6.33
	c-26.15,0.09-52.3,0.03-78.44,0.02C352.98,522.13,352.98,521.48,352.98,520.84z"/>
<path class="st2" d="M292.99,468.85c6.31,2.55,11.72,6.08,13.98,13c-5.31-0.01-10.53-3.93-15.83-0.91
	c-4.53,2.58-9.45,1.76-13.87,1.31c-3.48-0.35-6.6-1.69-10.51-0.93c-5.41,1.05-11.1,0.65-16.55,1.95c-3.11,0.74-6.09,1.13-9.12-0.65
	c-2.72-1.6-6.21-1.5-8.73-0.48c-6.12,2.48-11.52,1.01-17.07-1.32c-1.02-0.43-2.27-1.28-3.29-0.37c-2.83,2.53-6.08,1.29-9.24,1.59
	c-4.06,0.39-7.74-0.54-11.61-0.94c-3.24-0.34-4.2-1.88-5.09-4.26c2.64-6.16,7.89-8.84,14.01-9.85c2.44-0.4,3.65-0.8,4.33-3.48
	c5.76-22.77,26.33-32.3,47.94-28.93c5.51,0.86,10.28,3.66,15.72,4.31c2.63,3.54,6.02,6.14,9.99,8.03
	c2.21,5.65,6.59,10.42,7.55,16.49C286.33,468.22,288.73,469.48,292.99,468.85z"/>
<path class="st3" d="M344.02,331.95c12.01,4.02,22.85,9.67,29.63,21.07c2.24,3.77,3.49,7.69,1.31,11.72
	c-2.19,4.04-6.13,5.09-10.55,5.23c-9.74,0.33-19.39,0.46-28.78-2.96c-10.67-3.89-17.9-11.8-24.18-20.62
	c-3.25-4.56-1.74-8.45,3.01-11.73c4.99-3.44,10.86-3.61,16.49-4.72c-0.29,3.83,0.6,7.21,4.9,7.89
	C340.19,338.54,343.24,336.62,344.02,331.95z"/>
<path class="st4" d="M352.6,441.7c-3.13-0.07-6.28-0.38-9.39-0.14c-3.22,0.25-6.22,0.33-8.9-3.23c-0.08,3.26-1.18,4.4-3.69,4.84
	c-7.7,1.33-14.26,5.73-21.43,8.5c-0.12-1.58-0.25-3.17-0.37-4.75c-0.15-1.53-0.55-2.96-1.69-4.08c-1.14-3.72-4.08-6.7-4.22-10.87
	c-0.08-2.32-2.21-1.94-3.77-2.14c-3.05-1.32-6.11-2.63-9.16-3.95c-5.01-3.59-9.51-7.67-12.58-13.13c-0.71-1.69-1.42-3.39-2.13-5.08
	c-0.55-3.91-1.11-7.81-1.66-11.72c0.02-1.36,0.05-2.71,0.07-4.07c0.15-0.65,0.3-1.31,0.46-1.96c2.26-0.35,4.52-0.7,6.78-1.04
	c0.52,1.07,1.04,2.14,1.56,3.22c0.42,1.3,0.85,2.6,1.27,3.9c1.08,4.57,2.31,9.09,5.13,12.98c0.29,0.55,0.48,1.2,0.9,1.63
	c4.31,4.39,9.87,3.33,15.16,3.39c4.16,2.74,7.23-0.23,10.53-2.01c2.98-0.15,5.66,0.92,8.32,2.05c10.45,6.75,19.75,14.76,27.07,24.91
	c0.17,0.24,0.57,0.3,0.87,0.45C352.02,440.16,352.31,440.93,352.6,441.7z"/>
<path class="st5" d="M462.61,455.86c-11.27-1.29-22.57,0.38-33.82-0.26c-4.1-0.23-8.23-0.65-12.36-0.74
	c-2.07-0.04-3.68-0.95-4.19-2.88c-0.52-1.99,0.58-4.06,2.43-4.34c8.64-1.29,11.51-7.71,15.04-14.55c3.65-7.07,15.89-7.7,21.77-2.14
	c1.33,1.26,2.95,2.41,3.76,3.97c2.37,4.56,5.71,7.49,10.93,8.21c1.07,0.15,2.13,0.94,3.04,1.63c2.41,1.82,4.07,4.52,3.31,7.28
	c-0.82,2.95-3.87,3.84-6.91,3.81C464.61,455.85,463.61,455.86,462.61,455.86z"/>
<path class="st6" d="M289.98,425.87c3.05,1.32,6.11,2.63,9.16,3.95c-7.99,0.03-15.98,0.05-23.97,0.08c-5.95,0.02-5.95,0.03-3.45,5.4
	c0.42,0.9,0.96,1.79,1.17,2.75c0.8,3.71,2.92,5.02,6.77,4.91c9.15-0.27,18.31-0.11,27.46-0.13c1.13,1.12,1.53,2.55,1.69,4.08
	c-10.26,0-20.52,0.01-30.79,0.01c-3.96-1.89-7.35-4.49-9.99-8.03c-3.47-10.06-8.41-19.49-12.71-29.19
	c-9.62-21.71-19.55-43.28-29.37-64.91c-0.71-1.57-1.61-3.22,0.42-4.34c2.32-1.27,2.84,0.9,3.51,2.29c1.73,3.59,3.5,7.18,4.93,10.89
	c1.26,3.27,3.23,4.48,6.8,4.37c8.15-0.25,16.32-0.07,24.48-0.06c-0.23,1.36-0.46,2.72-0.69,4.09c-7.6-0.03-15.2-0.11-22.8-0.04
	c-1.18,0.01-3.2-0.95-3.12,1.79c0.17,5.83,5.56,11.14,11.47,11.13c3.96,0,7.93-0.01,11.89-0.02c-0.3,1.35-0.61,2.7-0.91,4.05
	c-2.16-0.01-4.31-0.02-6.47-0.02c-9.17,0-8.86-0.12-5.53,8.26c1.61,4.05,3.89,5.01,7.81,4.8c5.29-0.28,10.61-0.09,15.92-0.1
	c-0.02,1.36-0.05,2.71-0.07,4.07c-4.66-0.01-9.32-0.04-13.97-0.03c-6.07,0-6.1,0.03-3.39,5.44c1.25,2.49,2.34,6.73,4.02,7.01
	c4.87,0.81,10.12,1.76,15-0.7c0.71,1.69,1.42,3.39,2.13,5.08c-3.97,0.05-7.93,0.07-11.9,0.19c-1.06,0.03-2.43-0.49-3.01,0.98
	c-1.05,2.65,5.22,11.93,8.14,11.95C277.08,425.93,283.53,425.88,289.98,425.87z"/>
<path class="st7" d="M351.72,439.39c-0.3-0.15-0.7-0.21-0.87-0.45c-7.32-10.16-16.62-18.16-27.07-24.91
	c0.3-3.64,0.62-7.28,0.9-10.93c0.34-4.48-0.56-8.65-3.54-12.13c-3.88-4.54-7.22-4.12-9.78,1.11c-0.73,1.49-1.38,3.01-2.06,4.52
	c-0.07-0.27-0.21-0.49-0.42-0.67c-0.51-3.08,0.42-5.88,1.67-8.63c1.56-1.8,3.59-2.91,5.76-3.76c6.85-2.68,12.62,0.52,13.96,7.73
	c0.27,1.46,0.51,2.95,0.54,4.43c0.13,5.95,3,10.31,7.64,13.76c3.58,2.66,7.15,5.36,10.57,8.21c3.23,2.69,5.58,6.09,7.06,10.04
	C358.38,433.78,357.44,436.26,351.72,439.39z"/>
<path class="st6" d="M310.56,387.31c-1.25,2.74-2.18,5.54-1.67,8.63c-8.38,0.02-16.76,0.04-25.14,0.06c-0.42-1.3-0.85-2.6-1.27-3.9
	c6.63-0.06,13.25-0.07,19.88-0.23c1.19-0.03,3.21,0.95,3.18-1.76c-0.07-5.55-5.54-11.18-10.99-11.17c-4.8,0.01-9.61,0.03-14.41,0.04
	c0.01-0.99,0.02-1.97,0.03-2.96c0.17-0.12,0.36-0.21,0.56-0.27c0.42-0.25,0.84-0.5,1.26-0.75c0.49-0.05,0.97-0.1,1.46-0.15
	c2.49,0.02,4.97,0.06,7.46,0.07c7.79,0.01,7.69,0.04,4.91-7.33c-1.51-3.99-3.62-6.29-8.38-5.74c-4.26,0.49-8.61,0.16-12.91,0.2
	c-1.59-1.28-3.5-2.2-4.57-4.07c5.83-0.02,11.66-0.14,17.49,0c3.35,0.08,3.66-1.05,2.25-3.78c-1.67-3.24-3.05-6.64-4.55-9.97
	c-0.6-1.34-1.69-2.82,0.33-3.82c2.1-1.04,3.04,0.5,3.76,2.09c3.62,8.02,6.98,16.17,10.88,24.05
	C303.53,373.49,305.39,381.24,310.56,387.31z"/>
<path class="st5" d="M402.66,423.31c-8.73,0.28-17.22-0.35-25.73,0.46c-5.49,0.52-6.74-1.8-4.8-7.04
	c3.44-9.27,11.04-13.64,18.79-11.02c2.57,0.87,4.63,2.48,5.53,4.66c1.51,3.65,2.82,6.9,7.39,7.6c1.42,0.22,3.32,1.49,2.57,3.55
	C405.81,423.16,404.41,424.19,402.66,423.31z"/>
<path class="st5" d="M222.03,417.89c-4.81,1.26-10.22-2.03-16-0.5c-2.66,0.7-3.38-2.26-2.95-4.55c1.62-8.68,10.46-17.21,20.41-12.19
	c2.33,1.17,4.59,2.85,4.9,5.32c0.52,4.15,3.11,5.44,6.49,6.43c1.19,0.35,2.83,0.85,2.71,2.5c-0.14,2.04-2.03,1.64-3.41,2.07
	C230.44,418.11,226.63,417.88,222.03,417.89z"/>
<path class="st5" d="M167.7,436.87c-4.81-0.01-9.62,0.05-14.43-0.04c-1.66-0.03-3.61-0.39-3.94-2.32c-0.36-2.1,1.66-3.01,3.16-3.18
	c3.75-0.41,5.11-2.73,6.41-5.88c3.25-7.84,11.47-8.88,16.92-2.18c2.2,2.71,3.97,5.45,7.87,6.2c1.89,0.36,4.03,2.02,3.25,4.78
	c-0.67,2.4-2.79,2.59-4.81,2.61C177.32,436.91,172.51,436.88,167.7,436.87z"/>
<path class="st5" d="M136.71,468.84c-3.31,0-6.63,0-9.94,0c-1.57,0-3.1-0.24-3.47-2.08c-0.35-1.76,0.89-3.22,2.24-3.4
	c3.29-0.45,4.02-2.7,5.02-5.27c1.82-4.64,8.59-6.61,13.03-4.2c3.55,1.92,5.79,4.84,7.18,8.52c1.61,4.27,0.52,6.1-4.14,6.4
	C143.35,469.01,140.03,468.84,136.71,468.84z"/>
<path class="st8" d="M280.72,375.74c-0.2,0.07-0.39,0.16-0.56,0.28c-4.04,0.3-7.67,1.91-11.31,3.51c-2.25-0.77-4.96,4-6.88-0.58
	c0.3-1.35,0.61-2.7,0.91-4.05c0.85-4.29,1.7-8.57,2.54-12.86c0.23-1.36,0.46-2.72,0.69-4.09c1.29-1.64,2.56-0.74,3.83,0.02
	c1.07,1.86,2.98,2.78,4.57,4.07c3.03,2.78,5.94,5.71,9.13,8.28c2.3,1.85,1.72,3.11-0.21,4.53c-0.49,0.05-0.97,0.1-1.46,0.15
	C281.56,375.24,281.14,375.49,280.72,375.74z"/>
<path class="st3" d="M179.18,386.92c7.47-0.01,11.18,2.34,12.64,7.75c1.22,4.53-0.69,7.11-5.34,7.23
	c-6.65,0.18-12.56-4.61-13.24-11.17C172.7,385.57,176.9,387.36,179.18,386.92z"/>
<path class="st3" d="M424.98,411.9c-2.54,0.18-5.36-0.09-5.89-3.48c-0.69-4.41,2.37-6.93,5.53-9.22c0.13-0.09,0.31-0.12,0.46-0.17
	c4.1-1.4,8.21-1.53,11.82,1.07c1.73,1.25,0.09,3.12-0.43,4.49C434.64,409.46,430.64,411.94,424.98,411.9z"/>
<path class="st1" d="M344.02,331.95c-0.78,4.67-3.82,6.59-8.18,5.89c-4.29-0.68-5.19-4.06-4.9-7.89c1.08-4.43,4.29-5.62,8.24-4.88
	C342.77,325.75,344.24,328.37,344.02,331.95z"/>
<path class="st9" d="M352.98,520.84c0,0.65,0,1.3,0,1.94c-39.31,0.01-78.63,0.02-117.94,0.03c1.65-1.72,3.78-0.95,5.68-0.96
	c34.63-0.05,69.27-0.05,103.9-0.01C347.48,521.84,350.26,521.64,352.98,520.84z"/>
<path class="st6" d="M170.8,462.84c2.68,0.42,4.13,1.73,4.23,4.25c0.1,2.71-1.18,4.56-3.94,4.62c-2.51,0.06-3.84-1.61-3.99-4.09
	C166.92,464.84,168.48,463.44,170.8,462.84z"/>
<path class="st1" d="M268.73,336.87c-0.54,2.09-1.26,4.04-4.04,4.08c-2.51,0.03-4.3-1.11-4.54-3.57c-0.28-2.77,1.44-4.2,4.17-4.41
	C267.07,332.76,268.05,334.56,268.73,336.87z"/>
<path class="st6" d="M365.95,392.84c-0.22,2.29-1.44,3.76-3.68,3.97c-2.27,0.21-3.26-1.17-3.28-3.35c-0.02-2.16,0.9-3.43,3.18-3.52
	C364.26,389.86,365.7,390.55,365.95,392.84z"/>
<path class="st6" d="M427.91,473.24c-0.6,2-1.59,3.58-3.71,3.4c-1.76-0.15-3.12-1.51-3.05-3.28c0.07-1.97,1.45-3.4,3.54-3.27
	C426.51,470.19,427.38,471.69,427.91,473.24z"/>
<path class="st6" d="M155.05,399.09c0.02,2.26-0.7,3.63-2.79,3.73c-2.01,0.09-3.15-0.96-3.12-2.99c0.02-1.87,1.08-3.36,2.87-3.48
	C153.8,396.22,155.15,397.32,155.05,399.09z"/>
<path class="st6" d="M390.8,436.61c-0.48,2.08-2.05,2.34-3.8,2.23c-1.66-0.1-3.02-0.79-2.81-2.66c0.24-2.14,1.99-2.34,3.73-2.25
	C389.61,434.01,390.74,434.74,390.8,436.61z"/>
<path class="st10" d="M310.94,406.15c-3.75-2.64-1.29-6.33-1.63-9.55c0.69-1.51,1.33-3.04,2.06-4.52c2.56-5.23,5.9-5.64,9.78-1.11
	c2.98,3.48,3.88,7.65,3.54,12.13c-0.28,3.64-0.6,7.29-0.9,10.93c-2.66-1.13-5.34-2.21-8.32-2.05
	C315.31,408.98,314.86,406.21,310.94,406.15z"/>
<path class="st11" d="M274.14,389.92c0.89-4.82-1.71-7.86-5.3-10.4c3.64-1.6,7.27-3.2,11.31-3.51c-0.01,0.98-0.02,1.97-0.03,2.95
	c-0.44,3.36-0.19,6.66,0.79,9.9C278.66,389.22,276.4,389.57,274.14,389.92z"/>
<path class="st6" d="M288.88,408.97c6.41,0,12.82-0.01,19.23-0.01c-1.06,1.67-2.11,3.35-3.17,5.02c-5.3-0.06-10.85,1-15.16-3.39
	C289.36,410.17,289.17,409.52,288.88,408.97z"/>
<path class="st7" d="M304.94,413.98c1.06-1.67,2.11-3.35,3.17-5.02c1.48-0.39,2.09-1.66,2.83-2.8c3.93,0.06,4.38,2.83,4.53,5.82
	C312.17,413.75,309.1,416.72,304.94,413.98z"/>
<path class="st11" d="M280.72,375.74c0.42-0.25,0.84-0.5,1.26-0.75C281.56,375.24,281.14,375.49,280.72,375.74z"/>
</svg>
