<svg id="Layer_1" data-name="Layer 1" xmlns="http://www.w3.org/2000/svg" viewBox="0 0 349.46 197.94"><defs><style>.cls-1{fill:#f9f9f9;}.cls-2{fill:#e0e3e4;}.cls-3{fill:#f6f6f6;}.cls-4{fill:#f7f7f7;}.cls-5{fill:#fdc203;}.cls-6{fill:#f8f8f8;}.cls-7{fill:#e1e4e3;}.cls-8{fill:#645524;}.cls-9{fill:#fec307;}.cls-10{fill:#e6e9e9;}.cls-11{fill:#f3ab99;}.cls-12{fill:#f7b29b;}</style></defs><title>banner022222</title><path class="cls-1" d="M235,522.8a27.6,27.6,0,0,0-8.35-1c-17.49.06-35,0-52.46,0-8.74,0-16.64-5.9-18.09-13.43-1.83-9.57,3.62-19.48,12.41-22.54a17.09,17.09,0,0,1,2.85-.89c5.84-1,12.42-.59,14.65-8.1.89,2.37,1.85,3.92,5.09,4.25,3.87.41,7.55,1.34,11.61.94,3.16-.3,6.41.94,9.24-1.59,1-.91,2.27-.06,3.3.37,5.54,2.32,11,3.8,17.06,1.32a10.25,10.25,0,0,1,8.74.48c3,1.78,6,1.39,9.12.65,5.45-1.3,11.14-.9,16.55-1.95,3.91-.76,7,.57,10.51.93,4.42.45,9.34,1.27,13.87-1.31,5.3-3,10.52.9,15.83.91-.2,3.45,2.27,3.08,4.4,3,8-.44,16.34-.06,21.63,6.32,5.43,6.56,11.74,9.24,19.75,10.29,4.72.62,7,4.42,7.28,9.37.3,5.36-2.53,8.22-7,10.05a29.26,29.26,0,0,1-8.35,1q-51.94-.06-103.9,0C238.82,521.85,236.7,521.09,235,522.8Z" transform="translate(-123.25 -324.87)"/><path class="cls-2" d="M353,520.84c4.52-1.83,7.35-4.69,7-10.05-.28-5-2.56-8.75-7.28-9.37-8-1.05-14.32-3.73-19.75-10.29-5.29-6.38-13.64-6.76-21.63-6.32-2.13.12-4.6.49-4.4-3-2.25-6.92-7.66-10.45-14-13a17.75,17.75,0,0,1,1.15-2.1c4.26-5.77,10.14-9.95,15.05-15.08,7.17-2.78,13.73-7.18,21.43-8.51,2.51-.43,3.61-1.58,3.69-4.83,2.68,3.56,5.68,3.48,8.9,3.23s6.26.07,9.39.13c26.17,2.83,47.27,13.61,59.78,38a26.85,26.85,0,0,1,2.48,8c.56,3.37,2.27,4.48,5.48,4.16a29,29,0,0,1,16.81,3.62c8,4.27,11.72,14.25,8,20.95-3.06,5.47-8.31,6.31-13.71,6.33-26.15.1-52.3,0-78.44,0C353,522.13,353,521.48,353,520.84Z" transform="translate(-123.25 -324.87)"/><path class="cls-3" d="M293,468.85c6.32,2.55,11.73,6.08,14,13-5.31,0-10.53-3.93-15.83-.91-4.53,2.58-9.45,1.76-13.87,1.31-3.48-.36-6.6-1.69-10.51-.93-5.41,1.05-11.1.65-16.55,1.95-3.11.74-6.1,1.13-9.12-.65a10.25,10.25,0,0,0-8.74-.48c-6.11,2.48-11.52,1-17.06-1.32-1-.43-2.28-1.28-3.3-.37-2.83,2.53-6.08,1.29-9.24,1.59-4.06.4-7.74-.53-11.61-.94-3.24-.33-4.2-1.88-5.09-4.25,2.64-6.16,7.89-8.84,14-9.85,2.44-.4,3.65-.8,4.32-3.48,5.76-22.77,26.34-32.3,48-28.93,5.5.85,10.28,3.65,15.72,4.3a26.2,26.2,0,0,0,10,8c2.21,5.66,6.59,10.42,7.55,16.49C286.33,468.22,288.73,469.48,293,468.85Z" transform="translate(-123.25 -324.87)"/><path class="cls-4" d="M344,332c12,4,22.84,9.67,29.63,21.08,2.24,3.76,3.49,7.69,1.31,11.71s-6.13,5.09-10.55,5.24c-9.74.32-19.39.46-28.78-3-10.67-3.89-17.9-11.8-24.18-20.62-3.24-4.55-1.74-8.45,3-11.72,5-3.45,10.86-3.61,16.49-4.73-.29,3.84.6,7.21,4.89,7.9S343.24,336.62,344,332Z" transform="translate(-123.25 -324.87)"/><path class="cls-5" d="M352.6,441.69c-3.13-.06-6.28-.37-9.39-.13s-6.22.33-8.9-3.23c-.08,3.25-1.18,4.4-3.69,4.83-7.7,1.33-14.26,5.73-21.43,8.51-.13-1.59-.25-3.17-.37-4.75a6.42,6.42,0,0,0-1.69-4.09c-1.14-3.71-4.08-6.69-4.22-10.86-.07-2.32-2.2-1.94-3.77-2.15L290,425.87c-5-3.59-9.51-7.67-12.58-13.12l-2.13-5.08L273.62,396c0-1.36,0-2.71.07-4.07l.45-2,6.78-1,1.56,3.21,1.27,3.9c1.08,4.58,2.31,9.09,5.13,13a6.51,6.51,0,0,0,.9,1.62c4.31,4.39,9.86,3.33,15.16,3.39,4.16,2.74,7.23-.23,10.53-2,3-.15,5.66.93,8.32,2.06,10.45,6.75,19.75,14.75,27.07,24.91.17.24.57.31.86.45Z" transform="translate(-123.25 -324.87)"/><path class="cls-6" d="M462.61,455.86c-11.27-1.29-22.57.38-33.81-.26-4.1-.23-8.23-.65-12.36-.74-2.07,0-3.68-.94-4.19-2.87a3.38,3.38,0,0,1,2.43-4.35c8.64-1.29,11.51-7.71,15-14.54,3.65-7.07,15.89-7.71,21.77-2.14,1.32,1.25,2.95,2.41,3.75,4,2.37,4.56,5.72,7.49,10.93,8.22a7.12,7.12,0,0,1,3,1.63c2.41,1.82,4.08,4.52,3.31,7.28-.81,2.95-3.86,3.84-6.91,3.81Z" transform="translate(-123.25 -324.87)"/><path class="cls-7" d="M290,425.87l9.16,3.95-24,.08c-5.95,0-5.95,0-3.45,5.41a13.33,13.33,0,0,1,1.16,2.74c.8,3.71,2.93,5,6.78,4.91,9.14-.27,18.3-.11,27.46-.13a6.42,6.42,0,0,1,1.69,4.09H278a26.2,26.2,0,0,1-10-8c-3.47-10.06-8.41-19.49-12.71-29.19C245.72,388,235.79,366.41,226,344.79c-.71-1.57-1.61-3.22.42-4.33,2.32-1.27,2.84.9,3.51,2.29,1.73,3.58,3.5,7.17,4.93,10.89,1.26,3.26,3.23,4.48,6.8,4.37,8.15-.25,16.32-.07,24.48-.06l-.69,4.09c-7.6,0-15.2-.12-22.8-.05-1.18,0-3.2-.95-3.12,1.79A12,12,0,0,0,251,374.92l11.89,0c-.3,1.35-.6,2.69-.91,4h-6.47c-9.17,0-8.86-.13-5.53,8.25,1.61,4.05,3.89,5,7.81,4.8,5.29-.28,10.61-.09,15.92-.1,0,1.36-.05,2.71-.07,4.07-4.66,0-9.32,0-14,0-6.07,0-6.1,0-3.39,5.44,1.25,2.49,2.34,6.73,4,7,4.87.81,10.12,1.76,15-.69l2.13,5.08c-4,.05-7.93.07-11.9.18-1.06,0-2.43-.48-3,1-1.05,2.65,5.22,11.92,8.14,11.95C277.08,425.93,283.53,425.88,290,425.87Z" transform="translate(-123.25 -324.87)"/><path class="cls-8" d="M351.72,439.39c-.29-.14-.69-.21-.86-.45-7.32-10.16-16.62-18.16-27.07-24.91.3-3.65.62-7.29.9-10.93.34-4.48-.56-8.65-3.54-12.13-3.88-4.54-7.22-4.13-9.78,1.11-.73,1.48-1.38,3-2.06,4.52a1.28,1.28,0,0,0-.42-.67c-.51-3.08.42-5.88,1.67-8.62a14.08,14.08,0,0,1,5.76-3.76c6.85-2.68,12.62.51,14,7.73a27.63,27.63,0,0,1,.54,4.43c.13,5.94,3,10.3,7.64,13.75,3.58,2.66,7.15,5.36,10.57,8.21a23.8,23.8,0,0,1,7.07,10C358.38,433.78,357.44,436.26,351.72,439.39Z" transform="translate(-123.25 -324.87)"/><path class="cls-7" d="M310.56,387.31c-1.25,2.74-2.18,5.54-1.67,8.62l-25.14.06c-.42-1.3-.85-2.6-1.27-3.9,6.63-.06,13.25-.07,19.88-.23,1.19,0,3.21.95,3.17-1.76-.07-5.55-5.54-11.18-11-11.17-4.8,0-9.61,0-14.41,0l0-3a2.26,2.26,0,0,1,.56-.28L282,375l1.45-.15c2.49,0,5,.06,7.46.06,7.79,0,7.69,0,4.91-7.32-1.5-4-3.62-6.29-8.38-5.75-4.25.49-8.6.17-12.91.2-1.59-1.28-3.5-2.2-4.57-4.07,5.83,0,11.66-.14,17.49,0,3.35.08,3.66-1.05,2.25-3.78-1.67-3.24-3.05-6.64-4.55-10-.6-1.33-1.7-2.82.33-3.82s3,.5,3.76,2.09c3.62,8,7,16.17,10.88,24.05C303.53,373.49,305.39,381.24,310.56,387.31Z" transform="translate(-123.25 -324.87)"/><path class="cls-6" d="M402.66,423.31c-8.73.28-17.22-.35-25.73.46-5.49.52-6.75-1.8-4.8-7,3.44-9.27,11-13.64,18.79-11a8.8,8.8,0,0,1,5.53,4.67c1.51,3.65,2.82,6.9,7.38,7.6,1.43.21,3.33,1.48,2.58,3.55C405.81,423.16,404.41,424.19,402.66,423.31Z" transform="translate(-123.25 -324.87)"/><path class="cls-6" d="M222,417.89c-4.81,1.26-10.22-2-16-.5-2.66.7-3.37-2.26-2.95-4.55,1.62-8.68,10.46-17.2,20.42-12.18,2.33,1.17,4.59,2.85,4.9,5.32.51,4.15,3.11,5.44,6.48,6.43,1.19.34,2.83.85,2.72,2.49-.14,2-2,1.65-3.41,2.07C230.44,418.11,226.63,417.88,222,417.89Z" transform="translate(-123.25 -324.87)"/><path class="cls-6" d="M167.7,436.87c-4.82,0-9.63.05-14.44,0-1.66,0-3.61-.39-3.94-2.32-.36-2.1,1.67-3,3.16-3.18,3.75-.41,5.11-2.73,6.41-5.87,3.26-7.84,11.48-8.89,16.93-2.19,2.2,2.71,4,5.45,7.86,6.2,1.89.37,4,2,3.26,4.78-.68,2.4-2.79,2.59-4.81,2.61C177.32,436.91,172.51,436.88,167.7,436.87Z" transform="translate(-123.25 -324.87)"/><path class="cls-6" d="M136.71,468.84c-3.31,0-6.62,0-9.94,0-1.57,0-3.1-.24-3.46-2.08a2.83,2.83,0,0,1,2.24-3.4c3.29-.46,4-2.71,5-5.27,1.82-4.64,8.59-6.61,13-4.21a15.38,15.38,0,0,1,7.18,8.52c1.61,4.27.52,6.1-4.14,6.4C143.35,469,140,468.84,136.71,468.84Z" transform="translate(-123.25 -324.87)"/><path class="cls-9" d="M280.72,375.74a2.26,2.26,0,0,0-.56.28c-4,.3-7.68,1.91-11.31,3.5-2.25-.77-5,4-6.89-.58.31-1.35.61-2.69.91-4L265.42,362l.69-4.09c1.29-1.64,2.56-.74,3.83,0,1.07,1.87,3,2.79,4.57,4.07,3,2.78,5.94,5.71,9.13,8.28,2.31,1.86,1.72,3.11-.21,4.53L282,375Z" transform="translate(-123.25 -324.87)"/><path class="cls-4" d="M179.18,386.92c7.46,0,11.18,2.34,12.64,7.75,1.21,4.53-.7,7.11-5.34,7.24a12.81,12.81,0,0,1-13.24-11.17C172.7,385.57,176.9,387.36,179.18,386.92Z" transform="translate(-123.25 -324.87)"/><path class="cls-4" d="M425,411.9c-2.53.18-5.35-.09-5.88-3.48-.69-4.42,2.37-6.93,5.53-9.22a1.5,1.5,0,0,1,.46-.17c4.11-1.4,8.21-1.53,11.82,1.07,1.74,1.25.09,3.12-.43,4.49C434.64,409.46,430.64,411.94,425,411.9Z" transform="translate(-123.25 -324.87)"/><path class="cls-2" d="M344,332c-.78,4.67-3.83,6.59-8.18,5.9s-5.18-4.06-4.89-7.9c1.08-4.43,4.28-5.62,8.24-4.88C342.77,325.75,344.24,328.37,344,332Z" transform="translate(-123.25 -324.87)"/><path class="cls-10" d="M353,520.84c0,.64,0,1.29,0,1.94l-118,0c1.66-1.71,3.78-.95,5.69-.95q51.95-.08,103.9,0A29.26,29.26,0,0,0,353,520.84Z" transform="translate(-123.25 -324.87)"/><path class="cls-7" d="M170.8,462.84c2.68.41,4.13,1.72,4.23,4.24.1,2.71-1.19,4.56-3.95,4.63-2.5.06-3.84-1.61-4-4.09C166.92,464.84,168.48,463.44,170.8,462.84Z" transform="translate(-123.25 -324.87)"/><path class="cls-2" d="M268.73,336.87c-.54,2.09-1.26,4-4,4.08-2.5,0-4.29-1.11-4.54-3.57-.27-2.78,1.44-4.2,4.17-4.41S268.05,334.56,268.73,336.87Z" transform="translate(-123.25 -324.87)"/><path class="cls-7" d="M366,392.84c-.22,2.29-1.44,3.75-3.68,4s-3.26-1.17-3.28-3.35.9-3.43,3.18-3.52C364.26,389.86,365.7,390.55,366,392.84Z" transform="translate(-123.25 -324.87)"/><path class="cls-7" d="M427.91,473.24c-.6,2-1.6,3.58-3.71,3.4a3.29,3.29,0,1,1,.49-6.56C426.51,470.19,427.38,471.69,427.91,473.24Z" transform="translate(-123.25 -324.87)"/><path class="cls-7" d="M155.05,399.09c0,2.26-.69,3.63-2.78,3.72a2.67,2.67,0,0,1-3.13-3c0-1.87,1.08-3.37,2.88-3.49A2.59,2.59,0,0,1,155.05,399.09Z" transform="translate(-123.25 -324.87)"/><path class="cls-7" d="M390.8,436.61c-.48,2.08-2.05,2.34-3.79,2.23s-3-.8-2.81-2.66c.24-2.14,2-2.35,3.73-2.26S390.74,434.74,390.8,436.61Z" transform="translate(-123.25 -324.87)"/><path class="cls-11" d="M310.94,406.15c-3.75-2.63-1.29-6.33-1.63-9.55.68-1.51,1.33-3,2.06-4.52,2.56-5.24,5.9-5.65,9.78-1.11,3,3.48,3.88,7.65,3.54,12.13-.28,3.64-.6,7.28-.9,10.93-2.66-1.13-5.34-2.21-8.32-2.06C315.31,409,314.86,406.21,310.94,406.15Z" transform="translate(-123.25 -324.87)"/><path class="cls-12" d="M274.14,389.92c.89-4.82-1.71-7.86-5.29-10.4,3.63-1.59,7.27-3.2,11.31-3.5l0,3a23.4,23.4,0,0,0,.79,9.91Z" transform="translate(-123.25 -324.87)"/><path class="cls-7" d="M288.88,409h19.23l-3.17,5c-5.3-.06-10.85,1-15.16-3.39A6.51,6.51,0,0,1,288.88,409Z" transform="translate(-123.25 -324.87)"/><path class="cls-8" d="M304.94,414l3.17-5c1.48-.4,2.09-1.67,2.83-2.81,3.92.06,4.37,2.83,4.53,5.82C312.17,413.75,309.1,416.72,304.94,414Z" transform="translate(-123.25 -324.87)"/><path class="cls-12" d="M280.72,375.74,282,375Z" transform="translate(-123.25 -324.87)"/></svg>