<?xml version="1.0" encoding="utf-8"?>
<!-- Generator: Adobe Illustrator 24.0.2, SVG Export Plug-In . SVG Version: 6.00 Build 0)  -->
<svg version="1.1" id="Layer_1" xmlns="http://www.w3.org/2000/svg" xmlns:xlink="http://www.w3.org/1999/xlink" x="0px" y="0px"
	 viewBox="0 0 700 300" style="enable-background:new 0 0 700 300;" xml:space="preserve">
<style type="text/css">
	.st0{fill:#FFF4AA;}
	.st1{fill:#FFB7B7;}
	.st2{fill:#2F2E41;}
	.st3{fill:#FFFFFF;}
	.st4{fill:#E5E5E5;}
	.st5{fill:#FDE464;}
	.st6{fill:#F0F0F0;}
	.st7{fill:#FFB8B8;}
	.st8{fill:#3F3D56;}
	.st9{fill:#CCCCCC;}
	.st10{fill:#A0616A;}
	.st11{opacity:0.14;enable-background:new    ;}
	.st12{fill:#CBCBCB;}
</style>
<rect class="st0" width="700" height="300"/>
<polygon class="st1" points="184.85,254.14 189.15,254.14 191.21,237.52 184.85,237.52 "/>
<path class="st2" d="M183.75,252.73h8.49l0,0c2.99,0,5.41,2.42,5.41,5.41v0.18h-13.89L183.75,252.73z"/>
<g>
	<path class="st3" d="M202.19,207.46h298.13V56.53H202.19V207.46z"/>
	<path class="st4" d="M502.78,209.92H199.73V54.07h303.05V209.92z M204.65,205h293.21V58.99H204.65V205z"/>
	<polygon class="st5" points="341.33,88.46 341.33,139.69 266.87,139.69 253.11,156.19 254.68,139.69 247.99,139.69 247.99,88.46 	
		"/>
	<polygon class="st6" points="386.4,91.5 386.4,124.34 434.14,124.34 442.96,134.93 441.96,124.34 446.25,124.34 446.25,91.5 	"/>
	<polygon class="st1" points="241.11,240.94 245.29,239.91 243.31,223.29 237.14,224.81 	"/>
	<path class="st2" d="M239.7,239.84l8.24-2.03l0,0c2.9-0.71,5.83,1.06,6.54,3.96l0.04,0.17l-13.49,3.32L239.7,239.84z"/>
	<path class="st2" d="M186.7,237.12l0.9-4.58c0,0,1.65-17.68,13.47-35.32l3.85-19.16c0,0-1.14-14.5,9.88-22.36l3.4-2.34l11.92,0.68
		l2.76,15.07l5.55,35.67c0,0,1.43,0.13,1.97,4.26c1.09,1.73,1.74,3.71,1.88,5.75c0,0,2.84,7.83,3.6,13.6l-0.09,5.64l-5.99,3.19
		l-12.5-35.34l-8.93-19.76c0,0-4.3,13.92-10.89,25.84c0,0-9.03,19.53-10.83,23.5l-1.97,6.5L186.7,237.12z"/>
	<circle class="st1" cx="226.57" cy="114.51" r="8.52"/>
	<circle class="st7" cx="226.57" cy="114.51" r="8.52"/>
	<path class="st8" d="M214.83,155.79l2.81-7.02c-1.98-6.44-1.86-13.34,0.35-19.7l0,0l0.54-0.44c4.69-3.86,8.8-3.16,12.62,1.56l0,0
		c0.62,0.77,1.33,1.44,2.13,2.01c1.69,1.18,4.36,7.6,0.83,11.36l-2.82,16.47C231.59,169.12,224.99,165.69,214.83,155.79z"/>
	<path class="st1" d="M255.16,146.23c-1.38-1.04-3.33-0.77-4.37,0.6c-0.11,0.14-0.21,0.3-0.29,0.47l-7.11-0.55l-1.39,4.24
		l10.05,0.64c1.59,0.68,3.43-0.06,4.12-1.65C256.74,148.65,256.32,147.1,255.16,146.23L255.16,146.23z"/>
	<path class="st9" d="M248.36,153.11l-20.25-3.78l-6.59-11.05c-0.88-2.45,0.39-5.14,2.83-6.02c2.45-0.88,5.14,0.39,6.02,2.83l0,0
		l3.09,8.54l16.02,2.65L248.36,153.11z"/>
	<circle class="st2" cx="211.37" cy="104.46" r="8.18"/>
	<path class="st2" d="M204.33,111.23c3.66,2.65,8.77,1.82,11.41-1.84c0.54-0.74,0.95-1.58,1.21-2.46c-0.56,4.48-4.65,7.66-9.13,7.09
		c-4.48-0.56-7.66-4.65-7.09-9.13c0.06-0.44,0.15-0.89,0.28-1.31C200.63,106.55,201.9,109.48,204.33,111.23z"/>
	<path class="st2" d="M236.58,111.24c-1.43-2.55-1.97-3.62-3.81-5.18c-1.63-1.38-3.63-1.78-5.24-0.48
		c-4.9-2.12-10.59,0.14-12.71,5.04c-2.12,4.9,0.14,10.59,5.04,12.71c4.9,2.12,10.59-0.14,12.71-5.04c0.52-1.21,0.79-2.51,0.79-3.84
		c0-0.37-0.02-0.73-0.06-1.09C234.7,113.17,235.19,111.44,236.58,111.24z"/>
	<path class="st10" d="M487.9,172.4c0.1-2.13,1.91-3.77,4.04-3.68c0.22,0.01,0.45,0.04,0.67,0.09l5.11-7.2l5.13,2.04l-7.35,10.06
		c-0.62,2.05-2.78,3.22-4.83,2.61C488.94,175.82,487.8,174.19,487.9,172.4L487.9,172.4z"/>
	<path class="st8" d="M493.5,166.21l9.08-15.27l-3.7-9.87l5.04-13.43l0.18,0.08c0.12,0.05,2.99,1.33,3.41,5.9l5.79,18.2
		l-15.45,20.04L493.5,166.21z"/>
	<path class="st10" d="M444.19,110.08c2.12,0.26,3.62,2.2,3.35,4.31c-0.03,0.22-0.07,0.45-0.14,0.67l6.78,5.65l-2.43,4.96
		l-9.46-8.11c-2-0.77-3-3.01-2.23-5.02C440.7,110.85,442.41,109.84,444.19,110.08z"/>
	<path class="st8" d="M449.92,116.14l14.52,10.23l10.12-2.92l13,6.06l-0.09,0.18c-0.06,0.12-1.56,2.87-6.15,2.94L462.74,137
		l-18.79-16.95L449.92,116.14z"/>
	<polygon class="st10" points="476.5,240.57 471.45,240.57 469.05,221.1 476.5,221.1 	"/>
	<path class="st2" d="M467.85,239.13h9.73l0,0v6.13l0,0h-15.87l0,0l0,0C461.71,241.87,464.46,239.13,467.85,239.13L467.85,239.13z"
		/>
	<polygon class="st10" points="496.68,240.57 491.63,240.57 489.22,221.1 496.68,221.1 	"/>
	<path class="st2" d="M488.02,239.13h9.73l0,0v6.13l0,0h-15.87l0,0l0,0C481.9,241.87,484.64,239.13,488.02,239.13L488.02,239.13z"/>
	<polygon class="st2" points="498.48,169.49 498.06,198.32 497.65,236.2 488.59,235.38 484.06,183.08 478.29,235.38 468.94,235.38 
		468,182.67 471.29,171.14 	"/>
	<path class="st8" d="M470.39,171.31l-1.38-0.06l6.41-35.31l-2.62-10.67c-0.28-1.15,0.34-2.33,1.45-2.74l4.72-1.77l1.67-4.59
		l13.16,1.42l0.32,3.58c1.43,0.46,13.17,4.37,12.36,8.83c-0.8,4.4-5.52,18.24-5.76,18.95l-0.83,19.85l-0.1,0.05
		c-0.12,0.06-9.19,4.52-19.05,4.52C477.18,173.42,473.66,172.72,470.39,171.31z"/>
	<circle class="st10" cx="486.71" cy="104.41" r="9.48"/>
	<path class="st2" d="M494.38,113.59c-1.81,1.92-5.16,0.89-5.4-1.74c-0.02-0.2-0.02-0.41,0.01-0.62c0.12-1.16,0.79-2.22,0.63-3.45
		c-0.03-0.3-0.15-0.6-0.33-0.85c-1.44-1.93-4.82,0.86-6.18-0.88c-0.83-1.07,0.14-2.76-0.49-3.95c-0.85-1.58-3.34-0.8-4.91-1.66
		c-1.74-0.96-1.64-3.64-0.49-5.26c1.4-1.98,3.85-3.04,6.28-3.19c2.42-0.15,4.83,0.5,7.09,1.39c2.57,1,5.12,2.39,6.7,4.65
		c1.92,2.75,2.11,6.44,1.14,9.66C497.85,109.63,495.85,112.01,494.38,113.59z"/>
	<polygon class="st7" points="391.69,237.95 393.09,234.33 379.8,227.18 377.72,232.52 	"/>
	<path class="st2" d="M399.23,228.5c-2.51-0.98-5.33,0.26-6.31,2.77v0.01l-0.95,2.44l-1.47,3.77l-0.36,0.93l4.69,1.82l4.54-11.68
		L399.23,228.5z"/>
	<path class="st2" d="M390.51,230.98l-0.61,1.62l-1.53,4.06l-0.03,0.1c-3.89,0.5-8.16-0.48-12.11-2c-1.58-0.61-3.13-1.3-4.64-2.07
		c-2.23-1.13-4.23-2.32-5.83-3.34c-2.4-1.54-3.88-2.7-3.88-2.7s-0.39,0.36-1.1,0.96c-0.95,0.81-2.47,2.08-4.4,3.58
		c-0.74,0.58-1.52,1.17-2.36,1.81c-6.21,4.61-14.19-7.69-14.19-7.69s2.24-1.43,2.83-1.7c1.89-0.89,6.32-3,10.14-4.87
		c1.97-0.97,3.77-1.87,4.99-2.51c4.29-2.28,9.63,2.04,9.63,2.04L390.51,230.98z"/>
	<path class="st11" d="M390.51,230.98l-0.61,1.62l-1.53,4.06l-0.03,0.1c-3.89,0.5-8.16-0.48-12.11-2c-1.58-0.61-3.13-1.3-4.64-2.07
		c-2.23-1.13-4.23-2.32-5.83-3.34c-2.4-1.54-3.88-2.7-3.88-2.7s-0.39,0.36-1.1,0.96c-0.95,0.81-2.47,2.08-4.4,3.58
		c-0.74,0.58-1.52,1.17-2.36,1.81c-6.21,4.61-14.19-7.69-14.19-7.69s2.24-1.43,2.83-1.7c1.89-0.89,6.32-3,10.14-4.87
		c1.97-0.97,3.77-1.87,4.99-2.51c4.29-2.28,9.63,2.04,9.63,2.04L390.51,230.98z"/>
	<path class="st2" d="M328.36,196.89h-18.38c-0.79,0-1.43-0.64-1.43-1.43v-7.92c-0.01-5.86,4.75-10.62,10.61-10.63
		c5.86-0.01,10.62,4.75,10.63,10.61c0,0.01,0,0.01,0,0.01v7.92C329.79,196.25,329.15,196.89,328.36,196.89z"/>
	<path class="st7" d="M345.84,206.85c-1.62,0.28-2.7,1.82-2.41,3.44c0.03,0.17,0.07,0.34,0.14,0.51l-5,4.6l2.05,3.72l6.97-6.59
		c1.51-0.67,2.19-2.43,1.52-3.94C348.55,207.31,347.2,206.6,345.84,206.85L345.84,206.85z"/>
	<path class="st5" d="M330.8,227.75c-0.22,0-0.45-0.01-0.68-0.03c-2.74-0.23-5.17-1.85-6.43-4.3l-8.01-15.41
		c-1.13-2.17-0.28-4.84,1.89-5.97c2.03-1.05,4.53-0.39,5.76,1.54l7.39,16.58l10.06-8.17l5.82,2.27l-9.84,10.86
		C335.23,226.79,333.07,227.75,330.8,227.75z"/>
	<polygon class="st7" points="390.56,243.04 392.25,239.54 379.53,231.39 377.05,236.55 	"/>
	<path class="st2" d="M398.81,234.2c-2.43-1.17-5.34-0.14-6.51,2.28c0,0,0,0,0,0.01l-1.13,2.36l-1.75,3.65l-0.43,0.89l4.54,2.18
		l5.43-11.3L398.81,234.2z"/>
	<path class="st2" d="M389.92,236l-0.74,1.57l-1.84,3.92l-0.05,0.1c-3.92,0.2-8.1-1.1-11.92-2.93c-1.53-0.73-3.02-1.54-4.46-2.42
		c-2.14-1.29-4.04-2.63-5.55-3.77c-2.28-1.72-3.66-2.99-3.66-2.99s-0.42,0.32-1.17,0.87c-1.01,0.74-2.62,1.89-4.66,3.23
		c-0.78,0.52-1.61,1.05-2.5,1.62c-6.55,4.12-15.86,9.13-23.78,10.19c-13.91,1.86-10.64-16.7-10.64-16.7l11.07-5.75l4.7,0.96
		l5.24,1.06l1.85,0.38c0,0,0.35-0.13,0.96-0.36c1.95-0.74,6.53-2.5,10.49-4.08c2.04-0.81,3.91-1.58,5.17-2.12
		c4.46-1.95,9.45,2.77,9.45,2.77L389.92,236z"/>
	<path class="st7" d="M298.69,245.85c1.6-0.37,2.6-1.96,2.23-3.56c-0.04-0.17-0.09-0.34-0.16-0.5l4.75-4.85l-2.24-3.61l-6.62,6.94
		c-1.47,0.74-2.07,2.54-1.32,4.02C295.96,245.52,297.35,246.16,298.69,245.85L298.69,245.85z"/>
	<circle class="st7" cx="321.77" cy="189.83" r="7.41"/>
	<path class="st5" d="M312.13,210.41l6.46,18.31l-0.04,0.06c-0.9,1.48-1.19,2.68-0.85,3.46c0.18,0.4,0.54,0.7,0.96,0.82l15.28-10.68
		l-0.54-4.28l0.03-0.05c1.48-2.36,1.96-4.5,1.42-6.36c-0.48-1.5-1.52-2.76-2.92-3.52l-0.05-0.04l-7.62-9.27l-10.19,1.81
		L312.13,210.41z"/>
	<path class="st5" d="M302.31,242.54l-4.33-5.32l10.43-17.21l4.86-15.03l0.15,0.05l-0.15-0.05c1.02-3.17,4.43-4.91,7.6-3.88
		c3.17,1.02,4.91,4.43,3.88,7.6c-0.17,0.53-0.41,1.03-0.72,1.5l-8.92,13.37L302.31,242.54z"/>
	<path class="st2" d="M332.3,188.33h-11.24l-0.12-1.62l-0.58,1.62h-1.73l-0.23-3.2l-1.14,3.2h-3.35v-0.16
		c0.01-4.64,3.76-8.39,8.4-8.4h1.58c4.64,0.01,8.39,3.76,8.4,8.4L332.3,188.33z"/>
	<path class="st2" d="M320.97,198.37c-0.09,0-0.17-0.01-0.25-0.02l-8.23-1.45v-13.61h9.06l-0.22,0.26
		c-3.12,3.64-0.77,9.54,0.91,12.74c0.25,0.48,0.21,1.06-0.11,1.49C321.85,198.15,321.42,198.37,320.97,198.37z"/>
	<polygon class="st6" points="443.95,173.99 443.95,193.16 359.04,193.16 346.78,207.87 348.18,193.16 342.22,193.16 342.22,173.99 
			"/>
	<circle class="st3" cx="377.51" cy="183.55" r="3.47"/>
	<circle class="st3" cx="365.8" cy="183.55" r="3.47"/>
	<circle class="st3" cx="354.07" cy="183.55" r="3.47"/>
</g>
<path class="st12" d="M174.08,100.05c-0.28,0-0.51-0.21-0.53-0.5c-0.72-9.8-8.87-17.39-18.7-17.42c-0.57,0-1.16,0.03-1.77,0.08
	c-0.21,0.02-0.41-0.08-0.51-0.27c-6.12-10.71-19.76-14.43-30.48-8.32c-5.04,2.88-8.75,7.6-10.37,13.17
	c-0.07,0.23-0.28,0.39-0.52,0.38l-0.14-0.01c-0.07,0-0.15-0.01-0.22-0.01c-7.41,0.02-13.79,5.2-15.35,12.44
	c-0.05,0.25-0.27,0.42-0.52,0.42H59.33c-0.29,0-0.53-0.24-0.53-0.53c0-0.29,0.24-0.53,0.53-0.53c0,0,0,0,0.01,0h35.21
	c1.82-7.52,8.54-12.83,16.28-12.86c3.82-12.35,16.92-19.26,29.27-15.45c5.56,1.72,10.27,5.44,13.24,10.45
	c0.52-0.04,1.03-0.06,1.53-0.06c10.38,0.03,19,8.05,19.76,18.41c0.02,0.29-0.2,0.55-0.49,0.57l0,0
	C174.11,100.05,174.09,100.05,174.08,100.05z"/>
<path class="st12" d="M167.75,106.87H80.52c-0.29,0-0.53-0.24-0.53-0.53s0.24-0.53,0.53-0.53h87.23c0.29,0,0.53,0.24,0.53,0.53
	C168.29,106.63,168.05,106.87,167.75,106.87C167.76,106.87,167.76,106.87,167.75,106.87z"/>
<path class="st12" d="M101.8,114.59H72.54c-0.29,0-0.53-0.24-0.53-0.53c0-0.29,0.24-0.53,0.53-0.53c0,0,0,0,0.01,0h29.26
	c0.29,0,0.53,0.24,0.53,0.53C102.33,114.35,102.09,114.58,101.8,114.59z"/>
<path class="st12" d="M638.95,85.08c-0.29,0-0.53-0.22-0.54-0.51c-0.74-10.09-9.14-17.92-19.26-17.94c-0.59,0-1.2,0.03-1.82,0.09
	c-0.22,0.02-0.42-0.09-0.53-0.27c-6.31-11.04-20.36-14.87-31.39-8.57c-5.19,2.96-9.02,7.83-10.69,13.57
	c-0.07,0.24-0.29,0.4-0.54,0.39l-0.15-0.01c-0.08,0-0.15-0.01-0.23-0.01c-7.63,0.02-14.21,5.36-15.81,12.81
	c-0.05,0.25-0.28,0.44-0.54,0.44h-36.7c-0.3,0-0.55-0.24-0.55-0.55c0-0.3,0.24-0.55,0.55-0.55c0,0,0,0,0.01,0h36.27
	c1.88-7.75,8.8-13.21,16.77-13.25c3.93-12.72,17.43-19.84,30.15-15.91c5.72,1.77,10.58,5.61,13.63,10.77
	c0.54-0.04,1.07-0.06,1.58-0.06c10.7,0.03,19.57,8.29,20.35,18.96c0.02,0.3-0.2,0.56-0.51,0.59l0,0
	C638.97,85.08,638.96,85.08,638.95,85.08z"/>
<path class="st12" d="M632.43,92.1h-89.86c-0.3,0-0.55-0.25-0.55-0.55c0-0.3,0.25-0.54,0.55-0.55h89.86c0.3,0,0.55,0.24,0.55,0.55
	C632.98,91.86,632.73,92.1,632.43,92.1C632.43,92.1,632.43,92.1,632.43,92.1z"/>
<path class="st12" d="M564.49,100.05h-30.14c-0.3,0-0.55-0.24-0.55-0.55c0-0.3,0.24-0.55,0.55-0.55c0,0,0,0,0.01,0h30.14
	c0.3,0,0.55,0.25,0.55,0.55C565.03,99.8,564.79,100.05,564.49,100.05z"/>
</svg>
