<svg width="386" height="247" viewBox="0 0 386 247" fill="none" xmlns="http://www.w3.org/2000/svg">
<rect width="386" height="247" fill="#F7F7F7"/>
<path d="M306.968 154.581C308.565 183.8 251.039 243.213 180.135 221.222C147.158 210.994 149.951 194.017 124.875 171.642C109.929 158.307 88.4532 148.223 82.4804 128.839C77.3207 112.107 80.4847 94.1232 89.4306 82.426C109.549 56.1195 150.164 38.1058 190.183 79.554C230.201 121.002 302.841 79.2234 306.968 154.581Z" fill="url(#paint0_linear_646_180)"/>
<path d="M282.579 78.5143C277.3 87.8123 265.74 89.0896 247.219 87.3224C233.291 85.9911 220.588 84.9615 206.658 77.4654C196.909 72.2223 189.191 65.1291 183.557 58.2393C177.453 50.7761 168.933 42.2578 173.11 33.7957C178.85 22.1709 212.043 12.3803 244.275 28.3913C279.682 45.9843 287.743 69.4266 282.579 78.5143Z" fill="url(#paint1_linear_646_180)"/>
<path d="M311.747 107.614C302.636 109.805 293 101.961 293 101.961C293 101.961 298.142 90.5704 307.256 88.3865C316.367 86.1958 326 94.032 326 94.032C326 94.032 320.857 105.423 311.747 107.614Z" fill="url(#paint2_linear_646_180)"/>
<path d="M327.065 191.976C335.347 197.591 348 193.666 348 193.666C348 193.666 347.216 180.637 338.929 175.026C330.647 169.411 318 173.331 318 173.331C318 173.331 318.783 186.36 327.065 191.976Z" fill="url(#paint3_linear_646_180)"/>
<path d="M45.9976 133.493C54.9729 142.787 71.757 140.828 71.757 140.828C71.757 140.828 73.9776 123.8 64.9942 114.511C56.0189 105.217 39.2435 107.171 39.2435 107.171C39.2435 107.171 37.0223 124.199 45.9976 133.493Z" fill="url(#paint4_linear_646_180)"/>
<path d="M321 136C317.686 136 315 139.134 315 143C315 146.866 317.686 150 321 150C324.314 150 327 146.866 327 143C327 139.134 324.314 136 321 136Z" fill="#D9C5E7"/>
<path d="M81.5 75C77.9101 75 75 72.0899 75 68.5C75 64.9101 77.9101 62 81.5 62C85.0899 62 88 64.9101 88 68.5C88 72.0899 85.0899 75 81.5 75Z" fill="#D9C5E7"/>
<path d="M247 71C243.686 71 241 68.3137 241 65C241 61.6863 243.686 59 247 59C250.314 59 253 61.6863 253 65C253 68.3137 250.314 71 247 71Z" fill="#D9C5E7"/>
<path fill-rule="evenodd" clip-rule="evenodd" d="M145.927 172.431C144.96 172.533 144.109 172.623 143.364 172.66C139.942 172.826 130.83 176.999 130.83 176.999L130.87 177.13C125.984 179.165 123.414 180.096 118.571 181.773C114.235 183.274 97.9541 185.245 87.8879 186.362C83.6997 186.826 80.9955 191.114 82.3537 195.168L93.8527 229.491C95.0988 233.21 99.2192 235.03 102.737 233.4C113.912 228.224 135.729 218.118 138.636 216.761C140.164 216.048 142.334 215.794 144.418 215.749C146.134 215.967 150.83 216.851 162.855 220.343C170.518 222.567 174.771 225.417 178.418 227.861C182.812 230.805 186.327 233.16 193.864 233.125C193.864 233.125 223.407 227.864 230.314 226.859C236.677 225.928 239.091 224.543 244.844 221.242C245.328 220.964 245.837 220.673 246.373 220.367C248.961 218.891 251.386 217.831 253.766 216.791C257.321 215.237 260.773 213.729 264.513 210.947C268.025 208.34 270.14 207.711 271.389 207.34C272.363 207.05 272.809 206.917 272.979 206.124C273.365 204.316 268.455 199.486 265.258 199.903C262.061 200.32 256.734 202.906 256.734 202.906C256.734 202.906 237.431 210.423 234.203 210.956C232.584 211.226 227.848 211.357 223.122 211.488C218.428 211.618 213.744 211.748 212.134 212.013C208.908 212.552 184.932 206.466 184.932 206.466C185.788 206.341 186.496 206.2 186.996 206.047C188.967 205.447 192.905 206.206 197.319 207.056C200.686 207.705 204.33 208.407 207.59 208.6C212.434 208.891 215.98 208.546 219.916 208.162C222.104 207.949 224.413 207.724 227.132 207.59C234.743 207.215 238.75 203.712 237.941 198.751C237.13 193.789 234.025 191.73 230.361 190.963C226.697 190.195 216.743 188.471 206.127 188.789C197.841 189.042 193.732 186.251 189.519 183.389C188.336 182.586 187.145 181.777 185.851 181.028C179.948 177.613 170.136 174.382 161.294 172.785C154.377 171.536 149.403 172.063 145.927 172.431Z" fill="#F8AE9D"/>
<path d="M262.577 136.669C265.779 158.802 250.453 179.346 228.31 182.571C206.182 185.797 185.641 170.465 182.423 148.332C179.22 126.213 194.562 105.654 216.69 102.428C238.833 99.2032 259.375 114.535 262.577 136.669Z" fill="url(#paint5_linear_646_180)"/>
<path d="M252.676 138.106C255.127 154.766 243.393 170.248 226.45 172.68C209.507 175.097 193.775 163.557 191.324 146.897C188.873 130.222 200.607 114.74 217.55 112.324C234.492 109.892 250.21 121.431 252.676 138.106Z" fill="#C59CE0"/>
<path d="M161.692 109.68C164.025 126.076 152.861 141.294 136.732 143.683C120.614 146.072 105.652 134.715 103.308 118.32C100.975 101.936 112.15 86.7064 128.268 84.3174C144.397 81.9283 159.359 93.2851 161.692 109.68Z" fill="url(#paint6_linear_646_180)"/>
<path d="M155.76 110.259C157.578 122.549 148.872 133.97 136.302 135.764C123.732 137.547 112.059 129.034 110.24 116.744C108.422 104.442 117.128 93.0215 129.698 91.2387C142.269 89.4446 153.93 97.9575 155.76 110.259Z" fill="#C59CE0"/>
<path d="M222.64 63.6765C225.367 81.9847 212.312 98.9776 193.449 101.646C174.6 104.314 157.101 91.6316 154.36 73.3234C151.632 55.0278 164.7 38.0224 183.55 35.3545C202.413 32.6865 219.911 45.3684 222.64 63.6765Z" fill="url(#paint7_linear_646_180)"/>
<path d="M213.728 64.2548C215.784 78.4567 205.943 91.6548 191.732 93.7273C177.522 95.7876 164.327 85.9503 162.272 71.7484C160.216 57.5337 170.057 44.3361 184.268 42.2758C198.478 40.2027 211.66 50.0401 213.728 64.2548Z" fill="#C59CE0"/>
<path d="M223.75 126.95C225.75 126.95 227.6 127.217 229.3 127.75C231.033 128.25 232.517 129.033 233.75 130.1C234.983 131.167 235.95 132.517 236.65 134.15C237.35 135.75 237.7 137.667 237.7 139.9C237.7 142.033 237.4 143.9 236.8 145.5C236.2 147.1 235.35 148.45 234.25 149.55C233.15 150.617 231.817 151.417 230.25 151.95C228.717 152.483 227 152.75 225.1 152.75C223.667 152.75 222.333 152.533 221.1 152.1V160.4C220.767 160.5 220.233 160.6 219.5 160.7C218.767 160.833 218.017 160.9 217.25 160.9C216.517 160.9 215.85 160.85 215.25 160.75C214.683 160.65 214.2 160.45 213.8 160.15C213.4 159.85 213.1 159.433 212.9 158.9C212.7 158.4 212.6 157.733 212.6 156.9V132.9C212.6 132 212.783 131.267 213.15 130.7C213.55 130.133 214.083 129.617 214.75 129.15C215.783 128.483 217.067 127.95 218.6 127.55C220.133 127.15 221.85 126.95 223.75 126.95ZM223.85 146.05C227.283 146.05 229 144 229 139.9C229 137.767 228.567 136.183 227.7 135.15C226.867 134.117 225.65 133.6 224.05 133.6C223.417 133.6 222.85 133.683 222.35 133.85C221.85 133.983 221.417 134.15 221.05 134.35V145.35C221.45 145.55 221.883 145.717 222.35 145.85C222.817 145.983 223.317 146.05 223.85 146.05Z" fill="white"/>
<path d="M262.577 136.669C265.779 158.802 250.453 179.346 228.31 182.571C206.182 185.797 185.641 170.465 182.423 148.332C179.22 126.213 194.562 105.654 216.69 102.428C238.833 99.2032 259.375 114.535 262.577 136.669Z" fill="url(#paint8_linear_646_180)"/>
<path d="M252.676 138.106C255.127 154.766 243.393 170.248 226.45 172.68C209.507 175.097 193.775 163.557 191.324 146.897C188.873 130.222 200.607 114.74 217.55 112.324C234.492 109.892 250.21 121.431 252.676 138.106Z" fill="#C59CE0"/>
<path d="M223.75 126.95C225.75 126.95 227.6 127.217 229.3 127.75C231.033 128.25 232.517 129.033 233.75 130.1C234.983 131.167 235.95 132.517 236.65 134.15C237.35 135.75 237.7 137.667 237.7 139.9C237.7 142.033 237.4 143.9 236.8 145.5C236.2 147.1 235.35 148.45 234.25 149.55C233.15 150.617 231.817 151.417 230.25 151.95C228.717 152.483 227 152.75 225.1 152.75C223.667 152.75 222.333 152.533 221.1 152.1V160.4C220.767 160.5 220.233 160.6 219.5 160.7C218.767 160.833 218.017 160.9 217.25 160.9C216.517 160.9 215.85 160.85 215.25 160.75C214.683 160.65 214.2 160.45 213.8 160.15C213.4 159.85 213.1 159.433 212.9 158.9C212.7 158.4 212.6 157.733 212.6 156.9V132.9C212.6 132 212.783 131.267 213.15 130.7C213.55 130.133 214.083 129.617 214.75 129.15C215.783 128.483 217.067 127.95 218.6 127.55C220.133 127.15 221.85 126.95 223.75 126.95ZM223.85 146.05C227.283 146.05 229 144 229 139.9C229 137.767 228.567 136.183 227.7 135.15C226.867 134.117 225.65 133.6 224.05 133.6C223.417 133.6 222.85 133.683 222.35 133.85C221.85 133.983 221.417 134.15 221.05 134.35V145.35C221.45 145.55 221.883 145.717 222.35 145.85C222.817 145.983 223.317 146.05 223.85 146.05Z" fill="white"/>
<path d="M133.25 103.97C134.45 103.97 135.56 104.13 136.58 104.45C137.62 104.75 138.51 105.22 139.25 105.86C139.99 106.5 140.57 107.31 140.99 108.29C141.41 109.25 141.62 110.4 141.62 111.74C141.62 113.02 141.44 114.14 141.08 115.1C140.72 116.06 140.21 116.87 139.55 117.53C138.89 118.17 138.09 118.65 137.15 118.97C136.23 119.29 135.2 119.45 134.06 119.45C133.2 119.45 132.4 119.32 131.66 119.06V124.04C131.46 124.1 131.14 124.16 130.7 124.22C130.26 124.3 129.81 124.34 129.35 124.34C128.91 124.34 128.51 124.31 128.15 124.25C127.81 124.19 127.52 124.07 127.28 123.89C127.04 123.71 126.86 123.46 126.74 123.14C126.62 122.84 126.56 122.44 126.56 121.94V107.54C126.56 107 126.67 106.56 126.89 106.22C127.13 105.88 127.45 105.57 127.85 105.29C128.47 104.89 129.24 104.57 130.16 104.33C131.08 104.09 132.11 103.97 133.25 103.97ZM133.31 115.43C135.37 115.43 136.4 114.2 136.4 111.74C136.4 110.46 136.14 109.51 135.62 108.89C135.12 108.27 134.39 107.96 133.43 107.96C133.05 107.96 132.71 108.01 132.41 108.11C132.11 108.19 131.85 108.29 131.63 108.41V115.01C131.87 115.13 132.13 115.23 132.41 115.31C132.69 115.39 132.99 115.43 133.31 115.43Z" fill="white"/>
<path d="M189.25 58.97C190.45 58.97 191.56 59.13 192.58 59.45C193.62 59.75 194.51 60.22 195.25 60.86C195.99 61.5 196.57 62.31 196.99 63.29C197.41 64.25 197.62 65.4 197.62 66.74C197.62 68.02 197.44 69.14 197.08 70.1C196.72 71.06 196.21 71.87 195.55 72.53C194.89 73.17 194.09 73.65 193.15 73.97C192.23 74.29 191.2 74.45 190.06 74.45C189.2 74.45 188.4 74.32 187.66 74.06V79.04C187.46 79.1 187.14 79.16 186.7 79.22C186.26 79.3 185.81 79.34 185.35 79.34C184.91 79.34 184.51 79.31 184.15 79.25C183.81 79.19 183.52 79.07 183.28 78.89C183.04 78.71 182.86 78.46 182.74 78.14C182.62 77.84 182.56 77.44 182.56 76.94V62.54C182.56 62 182.67 61.56 182.89 61.22C183.13 60.88 183.45 60.57 183.85 60.29C184.47 59.89 185.24 59.57 186.16 59.33C187.08 59.09 188.11 58.97 189.25 58.97ZM189.31 70.43C191.37 70.43 192.4 69.2 192.4 66.74C192.4 65.46 192.14 64.51 191.62 63.89C191.12 63.27 190.39 62.96 189.43 62.96C189.05 62.96 188.71 63.01 188.41 63.11C188.11 63.19 187.85 63.29 187.63 63.41V70.01C187.87 70.13 188.13 70.23 188.41 70.31C188.69 70.39 188.99 70.43 189.31 70.43Z" fill="white"/>
<defs>
<linearGradient id="paint0_linear_646_180" x1="238.212" y1="329.724" x2="132.032" y2="-152.686" gradientUnits="userSpaceOnUse">
<stop stop-color="#9CD083"/>
<stop offset="1" stop-color="#EEEEEE"/>
</linearGradient>
<linearGradient id="paint1_linear_646_180" x1="247.019" y1="138.773" x2="201.132" y2="-70.1455" gradientUnits="userSpaceOnUse">
<stop stop-color="#9CD083"/>
<stop offset="1" stop-color="#EEEEEE"/>
</linearGradient>
<linearGradient id="paint2_linear_646_180" x1="277.438" y1="113.061" x2="357.625" y2="75.7405" gradientUnits="userSpaceOnUse">
<stop stop-color="#9CD083"/>
<stop offset="1" stop-color="#EEEEEE"/>
</linearGradient>
<linearGradient id="paint3_linear_646_180" x1="359.327" y1="210.402" x2="295.21" y2="141.721" gradientUnits="userSpaceOnUse">
<stop stop-color="#9CD083"/>
<stop offset="1" stop-color="#EEEEEE"/>
</linearGradient>
<linearGradient id="paint4_linear_646_180" x1="81.8076" y1="165.239" x2="15.3188" y2="62.7951" gradientUnits="userSpaceOnUse">
<stop stop-color="#9CD083"/>
<stop offset="1" stop-color="#EEEEEE"/>
</linearGradient>
<linearGradient id="paint5_linear_646_180" x1="224.227" y1="228.413" x2="221.729" y2="13.8856" gradientUnits="userSpaceOnUse">
<stop stop-color="#C59CE0"/>
<stop offset="1" stop-color="#EEEEEE"/>
</linearGradient>
<linearGradient id="paint6_linear_646_180" x1="133.758" y1="177.639" x2="131.877" y2="18.7313" gradientUnits="userSpaceOnUse">
<stop stop-color="#C59CE0"/>
<stop offset="1" stop-color="#EEEEEE"/>
</linearGradient>
<linearGradient id="paint7_linear_646_180" x1="189.971" y1="139.564" x2="187.965" y2="-37.8855" gradientUnits="userSpaceOnUse">
<stop stop-color="#D8C3E6"/>
<stop offset="1" stop-color="#EEEEEE"/>
</linearGradient>
<linearGradient id="paint8_linear_646_180" x1="224.227" y1="228.413" x2="221.729" y2="13.8856" gradientUnits="userSpaceOnUse">
<stop stop-color="#C59CE0"/>
<stop offset="1" stop-color="#EEEEEE"/>
</linearGradient>
</defs>
</svg>
