<svg width="57" height="57" viewBox="0 0 57 57" fill="none" xmlns="http://www.w3.org/2000/svg">
<g clip-path="url(#clip0_607_274)">
<path d="M0 14.318C0.245353 13.3443 0.54368 12.4078 1.21561 11.6925C2.10781 10.7431 3.1868 10.4863 4.34944 10.4863C13.4191 10.4896 22.4875 10.4879 31.5572 10.4879C38.586 10.4879 45.6148 10.4879 52.645 10.4879C53.6236 10.4879 54.5688 10.6397 55.3871 11.334C56.4521 12.2383 56.9693 13.4848 56.9791 14.9865C57.0014 18.2078 57.0098 21.4307 56.9763 24.6536C56.954 26.8076 55.698 28.5143 53.8425 28.9955C47.3378 30.6828 40.8318 32.3653 34.3202 34.0187C33.7918 34.1528 33.6441 34.3837 33.665 34.9876C33.7082 36.2099 33.6859 37.4354 33.6747 38.661C33.6622 40.0012 33.2356 40.492 32.0939 40.4936C29.6822 40.4985 27.2718 40.5001 24.8601 40.4936C23.7742 40.4904 23.335 40.0028 23.3169 38.7482C23.2974 37.416 23.296 36.0839 23.3211 34.7534C23.3295 34.3239 23.2012 34.1544 22.8513 34.0656C17.9693 32.8174 13.0888 31.558 8.20818 30.3017C6.52695 29.869 4.84294 29.4492 3.16589 28.9987C1.60874 28.5805 0.585502 27.4825 0.128253 25.695C0.0920074 25.553 0.0432156 25.4141 0 25.2752C0 21.6228 0 17.9704 0 14.318ZM33.6761 31.1656C33.9438 31.1123 34.1403 31.0816 34.3341 31.0316C40.5683 29.4169 46.8025 27.799 53.0367 26.1827C54.0809 25.9114 54.4029 25.4641 54.4057 24.2225C54.4099 21.2789 54.4099 18.3369 54.4057 15.3934C54.4029 14.0128 53.9819 13.5106 52.8109 13.509C36.6008 13.5058 20.3894 13.5058 4.17937 13.509C3.00697 13.509 2.58457 14.0128 2.58318 15.3917C2.5776 18.3353 2.579 21.2773 2.58318 24.2208C2.58457 25.4658 2.9066 25.9114 3.94935 26.1827C8.86478 27.4567 13.7788 28.7339 18.6942 30.0079C20.2068 30.4002 21.7207 30.7829 23.3113 31.1914C23.3113 30.8443 23.3058 30.5698 23.3127 30.2969C23.3406 28.9987 23.7644 28.5094 24.8769 28.5014C25.8415 28.4949 26.8062 28.4998 27.7709 28.4998C29.2361 28.4998 30.7012 28.4917 32.1664 28.503C33.191 28.5094 33.6217 28.9922 33.6747 30.1645C33.6873 30.4794 33.6761 30.7975 33.6761 31.1656ZM25.9419 37.4709C27.6678 37.4709 29.3448 37.4709 31.0372 37.4709C31.0372 35.472 31.0372 33.5117 31.0372 31.5305C29.3211 31.5305 27.6454 31.5305 25.9419 31.5305C25.9419 33.5166 25.9419 35.4639 25.9419 37.4709Z" fill="black"/>
<path d="M28.4943 56.9973C20.8159 56.9973 13.1374 56.994 5.45898 57.0005C3.77775 57.0021 2.43946 56.2916 1.70898 54.48C1.45247 53.8422 1.32283 53.0768 1.32004 52.3696C1.29076 45.99 1.29773 39.6087 1.3061 33.2291C1.30749 31.9357 1.96967 31.3044 2.96502 31.5821C3.39996 31.7032 3.69271 32.0132 3.79309 32.5122C3.86 32.8416 3.88509 33.1904 3.88509 33.531C3.89067 39.6749 3.88928 45.8188 3.88928 51.9627C3.88928 53.5693 4.27682 54.0117 5.68063 54.0117C20.8883 54.0117 36.0975 54.0117 51.3052 54.0117C52.7104 54.0117 53.0965 53.5693 53.0965 51.9643C53.0965 45.7768 53.0965 39.591 53.0979 33.4035C53.0979 32.2264 53.413 31.6984 54.1867 31.5514C54.9785 31.4013 55.5738 31.9196 55.6602 32.8432C55.6783 33.0353 55.6839 33.2291 55.6839 33.4212C55.6853 39.6733 55.6797 45.9238 55.6881 52.1758C55.6909 54.1247 55.0886 55.691 53.5161 56.5145C52.8832 56.8455 52.1207 56.9763 51.4167 56.9795C43.7773 57.0102 36.1365 56.9973 28.4943 56.9973Z" fill="black"/>
<path d="M38.8276 5.06688C38.8276 5.45279 38.8624 5.84354 38.8206 6.22461C38.7356 7.00289 38.2295 7.48568 37.5576 7.48407C36.8634 7.48245 36.3545 6.96898 36.2932 6.15518C36.2556 5.66432 36.2848 5.16699 36.2695 4.67451C36.2333 3.55069 35.7899 3.00008 34.8239 2.99524C30.5957 2.97909 26.3675 2.97748 22.1394 2.99686C21.1998 3.0017 20.7607 3.54908 20.7175 4.63576C20.6951 5.17184 20.73 5.71276 20.6812 6.24399C20.6143 6.96737 20.1529 7.42755 19.5186 7.47922C18.9163 7.52928 18.3211 7.15951 18.236 6.51364C18.02 4.88119 17.9823 3.2439 18.8857 1.81491C19.69 0.540919 20.8192 0 22.1617 0C24.572 0 26.9837 0 29.394 0C31.0808 0 32.769 0 34.4558 0C37.3485 0 38.8499 1.73256 38.8276 5.06688Z" fill="black"/>
<path d="M33.6761 31.1649C33.6761 30.7967 33.6887 30.4802 33.6733 30.1638C33.6218 28.9899 33.191 28.5087 32.165 28.5022C30.6998 28.4926 29.2347 28.499 27.7695 28.499C26.8048 28.499 25.8402 28.4942 24.8755 28.5006C23.7644 28.5087 23.3406 28.998 23.3114 30.2962C23.3058 30.569 23.31 30.8435 23.31 31.1907C21.7194 30.7838 20.2054 30.3995 18.6929 30.0071C13.7774 28.7331 8.8634 27.4559 3.94797 26.1819C2.90522 25.9123 2.5832 25.465 2.5818 24.2201C2.57762 21.2765 2.57623 18.3346 2.5818 15.391C2.58459 14.0121 3.00699 13.5099 4.17799 13.5083C20.388 13.5051 36.5995 13.5051 52.8095 13.5083C53.9805 13.5083 54.4015 14.0121 54.4043 15.3926C54.4085 18.3362 54.4085 21.2781 54.4043 24.2217C54.4029 25.465 54.0795 25.9107 53.0353 26.1819C46.8011 27.7982 40.5669 29.4162 34.3327 31.0308C34.1404 31.0809 33.9424 31.11 33.6761 31.1649Z" fill="white"/>
<path d="M25.9414 37.4697C25.9414 35.4627 25.9414 33.517 25.9414 31.5293C27.6449 31.5293 29.322 31.5293 31.0367 31.5293C31.0367 33.5105 31.0367 35.4707 31.0367 37.4697C29.3429 37.4697 27.6672 37.4697 25.9414 37.4697Z" fill="#AE85C9"/>
</g>
<defs>
<clipPath id="clip0_607_274">
<rect width="57" height="57" fill="white"/>
</clipPath>
</defs>
</svg>
