<svg width="57" height="43" viewBox="0 0 57 43" fill="none" xmlns="http://www.w3.org/2000/svg">
<g clip-path="url(#clip0_607_352)">
<path d="M0 4.41654C0.316513 3.77233 0.816361 3.54485 1.50127 3.57215C2.57361 3.61583 3.64768 3.58307 4.82034 3.58307C4.82034 3.18817 4.81342 2.82785 4.82207 2.46753C4.84109 1.55218 5.10572 1.22643 5.94802 1.00078C9.60089 0.0253662 13.3056 -0.249423 17.0398 0.231003C21.3395 0.784222 25.2242 2.36745 28.3426 5.67402C28.3686 5.70132 28.4031 5.71769 28.4775 5.77047C28.5899 5.67402 28.7197 5.57757 28.8338 5.46292C31.6202 2.65861 34.9859 1.11543 38.7443 0.436641C42.8814 -0.311296 46.9788 -0.0474256 51.0416 1.00624C51.8614 1.21915 52.1157 1.54126 52.1312 2.43296C52.1364 2.79874 52.133 3.16452 52.133 3.59217C53.2866 3.59217 54.3745 3.59217 55.4641 3.59217C56.6472 3.59399 57.0017 3.95977 57.0017 5.18631C57.0017 17.288 57.0017 29.3914 57.0017 41.4931C57.0017 42.9053 56.2563 43.3511 55.0421 42.7215C52.4166 41.3584 49.6355 40.4886 46.7661 39.919C40.9218 38.7598 35.1087 38.9745 29.3371 40.4376C28.4308 40.6669 27.6093 40.4158 26.7652 40.2229C19.8504 38.6415 12.9926 38.8508 6.21438 41.0036C4.74942 41.4694 3.3329 42.1246 1.91983 42.7524C0.947809 43.1837 0.513685 43.0891 0.00172958 42.1409C0 29.5661 0 16.9913 0 4.41654ZM7.04976 3.1445C7.04976 13.359 7.04976 23.5226 7.04976 33.728C14.103 32.9764 21.0057 33.0765 27.3619 36.98C27.3758 36.8781 27.3862 36.8381 27.3862 36.7998C27.381 27.3496 27.3758 17.8994 27.355 8.44921C27.355 8.22901 27.227 7.96514 27.0817 7.79772C25.4456 5.91969 23.4583 4.5785 21.1891 3.72683C16.5521 1.98711 11.8372 2.11813 7.04976 3.1445ZM49.9243 3.18272C49.8188 3.15178 49.7323 3.12266 49.6441 3.10264C46.1261 2.32923 42.5909 2.12359 39.0401 2.81148C35.548 3.48844 32.4313 4.96248 29.9546 7.72129C29.7643 7.93239 29.6208 8.28907 29.619 8.5766C29.6017 17.8685 29.6052 27.1586 29.6069 36.4504C29.6069 36.6124 29.6277 36.7762 29.6346 36.8781C30.9058 36.2757 32.12 35.6006 33.3999 35.1129C38.1147 33.3131 42.9956 33.0875 47.9387 33.546C48.5925 33.6061 49.2463 33.6643 49.9243 33.7262C49.9243 23.488 49.9243 13.3426 49.9243 3.18272ZM2.23289 40.0245C8.6306 37.3239 15.1909 36.354 21.9795 37.0673C21.8342 36.98 21.6872 36.9236 21.5367 36.8763C18.6708 35.9773 15.7357 35.5606 12.7522 35.6879C10.5868 35.7808 8.42824 36.0155 6.26799 36.2102C5.41531 36.2867 4.912 35.8845 4.85839 34.9946C4.84628 34.7799 4.8532 34.5651 4.8532 34.3504C4.8532 25.1349 4.8532 15.9213 4.8532 6.70584C4.8532 6.45835 4.8532 6.21268 4.8532 5.96519C3.93133 5.96519 3.08903 5.96519 2.23116 5.96519C2.23289 17.3098 2.23289 28.6107 2.23289 40.0245ZM52.1918 5.95063C52.1918 6.25635 52.1918 6.48929 52.1918 6.72222C52.1918 15.9723 52.1918 25.2223 52.1918 34.4741C52.1918 34.6889 52.2056 34.9054 52.1814 35.1183C52.1036 35.8044 51.6764 36.2029 51.0226 36.2048C50.8012 36.2048 50.5781 36.1829 50.3584 36.1502C46.7626 35.6242 43.1565 35.4405 39.5503 35.9555C38.011 36.1756 36.4958 36.5906 34.9686 36.9163C34.9773 36.9782 34.9859 37.0419 34.9963 37.1037C41.7987 36.3431 48.3711 37.3294 54.774 40.0282C54.774 28.618 54.774 17.2934 54.774 5.95245C53.9075 5.95063 53.0808 5.95063 52.1918 5.95063Z" fill="black"/>
<path d="M7.05056 3.14504C11.838 2.11868 16.5529 1.98947 21.1881 3.72738C23.4573 4.57905 25.4446 5.92024 27.0808 7.79827C27.2278 7.96569 27.3541 8.23138 27.3541 8.44975C27.3748 17.9 27.3783 27.3502 27.3852 36.8004C27.3852 36.8386 27.3748 36.8768 27.361 36.9805C21.0048 33.0753 14.1021 32.977 7.04883 33.7286C7.05056 23.5231 7.05056 13.3596 7.05056 3.14504Z" fill="white"/>
<path d="M49.9243 3.18186C49.9243 13.3418 49.9243 23.4872 49.9243 33.7253C49.2463 33.6635 48.5926 33.6052 47.9388 33.5452C42.9974 33.0866 38.1148 33.3104 33.3999 35.112C32.12 35.6016 30.9059 36.2767 29.6346 36.8772C29.6277 36.7753 29.607 36.6134 29.607 36.4496C29.6052 27.1577 29.6018 17.8676 29.6191 8.57574C29.6191 8.28639 29.7644 7.93153 29.9546 7.72044C32.4314 4.96162 35.5463 3.48759 39.0401 2.81062C42.5909 2.12274 46.1262 2.32837 49.6441 3.10179C49.7323 3.11999 49.8188 3.15092 49.9243 3.18186Z" fill="white"/>
<path d="M2.23242 40.0242C2.23242 28.6104 2.23242 17.3095 2.23242 5.96484C3.09029 5.96484 3.9326 5.96484 4.85446 5.96484C4.85446 6.21052 4.85446 6.45801 4.85446 6.7055C4.85446 15.921 4.85446 25.1346 4.85446 34.3501C4.85446 34.5648 4.84755 34.7795 4.85965 34.9943C4.91327 35.8841 5.41658 36.2863 6.26926 36.2099C8.4295 36.0152 10.588 35.7804 12.7534 35.6876C15.737 35.5602 18.6721 35.977 21.538 36.8759C21.6885 36.9232 21.8355 36.9797 21.9808 37.067C15.1904 36.3536 8.63013 37.3236 2.23242 40.0242Z" fill="#AE85C9"/>
<path d="M52.1917 5.95117C53.0807 5.95117 53.9057 5.95117 54.7722 5.95117C54.7722 17.2922 54.7722 28.6168 54.7722 40.0269C48.3693 37.3299 41.7969 36.3418 34.9945 37.1025C34.9858 37.0406 34.9772 36.9769 34.9668 36.915C36.494 36.5893 38.0074 36.1726 39.5485 35.9542C43.1546 35.4392 46.7608 35.623 50.3566 36.1489C50.5762 36.1817 50.7994 36.2035 51.0207 36.2035C51.6745 36.2017 52.1017 35.8031 52.1796 35.1171C52.2038 34.906 52.1899 34.6876 52.1899 34.4729C52.1899 25.2228 52.1899 15.9728 52.1899 6.72095C52.1917 6.48983 52.1917 6.2569 52.1917 5.95117Z" fill="#AE85C9"/>
</g>
<defs>
<clipPath id="clip0_607_352">
<rect width="57" height="43" fill="white"/>
</clipPath>
</defs>
</svg>
