<svg width="57" height="57" viewBox="0 0 57 57" fill="none" xmlns="http://www.w3.org/2000/svg">
<g clip-path="url(#clip0_607_340)">
<path d="M43.9785 47.166C33.6207 47.166 23.3531 47.166 13.0232 47.166C13.0232 47.4864 13.0232 47.7707 13.0232 48.0551C13.0232 50.523 13.0281 52.9888 13.0215 55.4568C13.0183 56.5072 12.6622 56.9931 11.8747 56.9952C8.3127 57.0037 4.75235 57.0037 1.19036 56.9952C0.396257 56.9931 0.00740825 56.505 0.00740825 55.4928C0.00412683 46.3129 -0.013921 37.133 0.0221747 27.9552C0.0320189 25.5721 0.742447 23.4204 2.16987 21.9243C3.74659 20.2734 4.69 18.249 5.3184 15.7853C6.29134 11.9656 7.44312 8.22236 8.52599 4.44938C9.36111 1.5337 11.0592 0.00159153 13.4465 0.00159153C23.742 -0.000530509 34.0374 -0.000530509 44.3329 0.00159153C46.7267 0.00159153 48.4183 1.52946 49.2534 4.44301C50.5693 9.0351 51.8917 13.6251 53.1813 18.2299C53.4389 19.1508 53.7883 19.9424 54.338 20.6129C54.7252 21.084 55.0894 21.5912 55.4274 22.1238C56.4922 23.8066 57.0009 25.7525 57.0009 27.9276C56.9992 37.0545 57.0008 46.1792 56.9992 55.3061C56.9992 56.5369 56.6497 56.9931 55.708 56.9952C52.228 56.9995 48.7481 56.9995 45.2698 56.9952C44.3099 56.9952 43.9818 56.5666 43.9801 55.3209C43.9769 52.6217 43.9785 49.9204 43.9785 47.166ZM55.0336 44.5452C55.0336 39.6009 54.9237 34.7414 55.0714 29.8947C55.1698 26.6565 54.5168 24.0209 52.6136 21.8925C52.2772 21.5169 51.9918 21.3238 51.5504 21.3238C36.9973 21.3365 22.4442 21.3769 7.89103 21.2792C6.13547 21.2665 4.84423 21.814 3.66456 23.484C2.59645 24.997 1.95658 26.6034 1.96314 28.6618C1.9779 33.7016 1.96806 38.7436 1.9697 43.7834C1.9697 44.0381 1.98775 44.2906 1.99595 44.5452C19.6943 44.5452 37.332 44.5452 55.0336 44.5452ZM6.53416 18.7392C21.4614 18.7392 36.3246 18.7392 51.2354 18.7392C51.1698 18.4824 51.1238 18.2829 51.068 18.0877C49.8588 13.867 48.6496 9.64624 47.4371 5.42764C46.8448 3.36714 45.9342 2.54803 44.2345 2.54803C33.9997 2.54591 23.7649 2.54591 13.5302 2.54803C11.8369 2.54803 10.928 3.37351 10.3341 5.44461C9.54979 8.17567 8.77046 10.9067 7.98948 13.6378C7.50875 15.3227 7.02802 17.0076 6.53416 18.7392ZM11.015 54.4148C11.015 51.9596 11.015 49.5639 11.015 47.1893C7.97799 47.1893 4.98533 47.1893 2.00087 47.1893C2.00087 49.6275 2.00087 52.0042 2.00087 54.4148C5.01158 54.4148 7.99112 54.4148 11.015 54.4148ZM54.991 54.4148C54.991 51.9554 54.991 49.5617 54.991 47.1893C51.954 47.1893 48.9597 47.1893 45.9785 47.1893C45.9785 49.6296 45.9785 52.0042 45.9785 54.4148C48.9892 54.4148 51.9671 54.4148 54.991 54.4148Z" fill="black"/>
<path d="M55.0354 44.5454C37.3321 44.5454 19.6961 44.5454 1.99771 44.5454C1.98786 44.2908 1.97146 44.0362 1.97146 43.7836C1.96982 38.7438 1.9813 33.7018 1.96489 28.662C1.95833 26.6036 2.59821 24.9973 3.66631 23.4842C4.84434 21.8142 6.13723 21.2688 7.89279 21.2794C22.4459 21.3771 36.999 21.3367 51.5522 21.324C51.9935 21.324 52.2806 21.5171 52.6153 21.8927C54.5186 24.019 55.1716 26.6546 55.0731 29.8949C54.9271 34.7416 55.0354 39.6011 55.0354 44.5454ZM28.5231 39.1661C31.2451 39.1661 33.9686 39.1682 36.6906 39.164C37.6176 39.1618 37.9572 38.7289 37.9588 37.5448C37.9638 35.0769 37.9621 32.609 37.9588 30.1411C37.9572 28.9379 37.6241 28.4986 36.7103 28.4986C31.2861 28.4965 25.8602 28.4965 20.436 28.4986C19.5074 28.4986 19.171 28.9294 19.1678 30.1156C19.1645 32.5559 19.1645 34.9984 19.1678 37.4387C19.1694 38.748 19.4828 39.1618 20.4771 39.164C23.1596 39.1682 25.8422 39.1661 28.5231 39.1661ZM46.589 39.1597C46.8138 39.1597 47.0386 39.1682 47.2633 39.1576C49.3306 39.0579 51.0698 36.9486 51.2421 34.3363C51.4307 31.478 50.0854 29.0164 47.9721 28.4922C47.2797 28.3204 46.5463 28.3119 45.8392 28.367C43.2895 28.5623 41.4815 31.809 42.1 35.0196C42.6119 37.6594 44.2395 39.1661 46.589 39.1597ZM10.3522 39.164C10.536 39.164 10.7197 39.1682 10.9035 39.164C13.02 39.1024 14.8051 37.0207 14.9938 34.4021C15.2038 31.478 13.8371 29.0015 11.6517 28.4731C10.9773 28.3098 10.2653 28.3098 9.5778 28.367C7.00352 28.5792 5.20694 31.8748 5.86979 35.113C6.40138 37.704 8.01748 39.1661 10.3522 39.164Z" fill="white"/>
<path d="M6.53516 18.7398C7.02901 17.0061 7.50974 15.3233 7.99047 13.6384C8.77145 10.9073 9.55079 8.17415 10.335 5.44309C10.929 3.37199 11.8379 2.54651 13.5312 2.54651C23.7659 2.54439 34.0007 2.54439 44.2371 2.54651C45.9369 2.54651 46.8475 3.36562 47.4398 5.42612C48.6523 9.64472 49.8615 13.8655 51.0707 18.0862C51.1264 18.2814 51.1724 18.4809 51.238 18.7376C36.3256 18.7398 21.4624 18.7398 6.53516 18.7398Z" fill="white"/>
<path d="M11.016 54.415C7.99055 54.415 5.01266 54.415 2.00195 54.415C2.00195 52.0043 2.00195 49.6277 2.00195 47.1895C4.98641 47.1895 7.98071 47.1895 11.016 47.1895C11.016 49.564 11.016 51.9598 11.016 54.415Z" fill="#AE85C9"/>
<path d="M54.991 54.415C51.9688 54.415 48.9892 54.415 45.9785 54.415C45.9785 52.0043 45.9785 49.6277 45.9785 47.1895C48.9613 47.1895 51.954 47.1895 54.991 47.1895C54.991 49.5619 54.991 51.9577 54.991 54.415Z" fill="#AE85C9"/>
<path d="M28.5213 39.1669C25.8387 39.1669 23.1578 39.1691 20.4752 39.1669C19.4793 39.1669 19.166 38.751 19.166 37.4417C19.1643 35.0014 19.1627 32.5589 19.166 30.1186C19.1676 28.9324 19.5039 28.5016 20.4342 28.5016C25.8584 28.4995 31.2843 28.4995 36.7085 28.5016C37.624 28.5016 37.9554 28.9409 37.957 30.144C37.9603 32.612 37.9603 35.0799 37.957 37.5478C37.9554 38.7319 37.6141 39.1648 36.6888 39.1669C33.9668 39.1691 31.2449 39.1669 28.5213 39.1669ZM35.8454 31.1053C30.9167 31.1053 26.0405 31.1053 21.1824 31.1053C21.1824 32.9748 21.1824 34.7871 21.1824 36.5781C26.0947 36.5781 30.9561 36.5781 35.8454 36.5781C35.8454 34.7425 35.8454 32.9494 35.8454 31.1053Z" fill="black"/>
<path d="M46.5879 39.1599C44.2384 39.1663 42.6092 37.6596 42.1006 35.0198C41.482 31.8092 43.2885 28.5625 45.8398 28.3672C46.5486 28.3142 47.2803 28.3205 47.9727 28.4924C50.0859 29.0166 51.4313 31.4803 51.2426 34.3365C51.0704 36.9487 49.3296 39.058 47.2639 39.1578C47.0391 39.1705 46.8127 39.1599 46.5879 39.1599ZM46.5978 36.6198C48.1056 36.6198 49.0392 35.8283 49.259 34.3641C49.5035 32.7407 48.7192 31.2235 47.4821 30.9264C45.6494 30.485 44.1843 31.4612 43.9792 33.2585C43.9726 33.3116 43.9726 33.3646 43.9677 33.4177C43.802 35.0856 44.8078 36.8342 46.5978 36.6198Z" fill="black"/>
<path d="M10.3519 39.165C8.01881 39.1672 6.40107 37.703 5.86948 35.1141C5.20499 31.8759 7.00157 28.5803 9.57749 28.3681C10.265 28.3108 10.977 28.313 11.6514 28.4742C13.8368 29.0005 15.2035 31.479 14.9935 34.4032C14.8048 37.0218 13.0197 39.1035 10.9032 39.165C10.7194 39.1693 10.5357 39.165 10.3519 39.165ZM10.3601 30.8955C10.1977 30.8955 9.97126 30.8785 9.74649 30.8976C8.77847 30.9846 7.9335 31.931 7.74646 33.1194C7.48722 34.7682 8.29938 36.3194 9.56273 36.5889C11.4331 36.9878 12.8491 36.0075 13.0279 34.1889C13.0312 34.1634 13.0312 34.1358 13.0345 34.1104C13.21 32.4212 12.1879 30.6748 10.3601 30.8955Z" fill="black"/>
<path d="M35.8466 31.1055C35.8466 32.9495 35.8466 34.7426 35.8466 36.5782C30.959 36.5782 26.0959 36.5782 21.1836 36.5782C21.1836 34.7872 21.1836 32.975 21.1836 31.1055C26.0401 31.1055 30.9163 31.1055 35.8466 31.1055Z" fill="white"/>
<path d="M46.5983 36.62C44.8083 36.8344 43.8025 35.0858 43.9666 33.4179C43.9715 33.3648 43.9732 33.3118 43.9781 33.2587C44.1832 31.4592 45.6483 30.4831 47.481 30.9266C48.7181 31.2237 49.5007 32.741 49.2579 34.3643C49.0397 35.8285 48.1061 36.62 46.5983 36.62Z" fill="white"/>
<path d="M10.3591 30.894C12.1869 30.6733 13.2074 32.4176 13.0335 34.1088C13.0302 34.1343 13.0302 34.1619 13.0269 34.1874C12.8481 36.0059 11.4322 36.9863 9.56174 36.5874C8.29839 36.3179 7.48624 34.7667 7.74547 33.1179C7.93251 31.9295 8.77912 30.9852 9.7455 30.8961C9.97028 30.877 10.1967 30.894 10.3591 30.894Z" fill="white"/>
</g>
<defs>
<clipPath id="clip0_607_340">
<rect width="57" height="57" fill="white"/>
</clipPath>
</defs>
</svg>
