<svg width="84" height="84" viewBox="0 0 84 84" fill="none" xmlns="http://www.w3.org/2000/svg">
<g clip-path="url(#clip0_607_305)">
<path d="M0 45.2023C0.113946 44.5634 0.219127 43.9206 0.344029 43.2895C1.13946 39.2769 2.70402 36.7174 5.00704 35.6149C6.32399 34.9838 7.64752 34.3955 8.97762 33.8579C10.3472 33.3047 11.3069 31.9217 11.9928 29.7518C13.9474 23.5732 15.9371 17.4335 17.918 11.2821C20.3437 3.75161 23.9987 -0.0077794 28.8853 1.20861e-05C35.882 0.0116993 42.8787 0.00390783 49.8776 1.20861e-05C54.7291 1.20861e-05 58.3688 3.73213 60.7857 11.2081C62.7316 17.227 64.6818 23.2381 66.5882 29.296C67.3705 31.7815 68.4793 33.1878 70.0701 33.5774C71.5843 33.9436 73.0897 34.4267 74.5885 34.9682C79.9637 36.9083 83.8663 45.1867 83.9628 54.93C83.9956 58.3232 84.0745 61.7631 83.8137 65.1057C83.3843 70.5909 80.6912 74.51 77.5818 74.6385C76.1071 74.697 74.6301 74.6113 73.1554 74.6931C72.8771 74.7087 72.4937 75.0982 72.3534 75.519C68.6064 86.7972 59.9574 86.8361 56.2892 75.5424C56.0592 74.8333 55.8225 74.6385 55.3974 74.6385C46.4592 74.658 37.5211 74.658 28.5829 74.6385C28.1534 74.6385 27.9211 74.8489 27.6932 75.5501C24.0163 86.8439 15.3739 86.7933 11.6291 75.5112C11.4888 75.0905 11.1031 74.7087 10.8249 74.6931C9.48818 74.6074 8.14713 74.6619 6.80826 74.6541C3.41618 74.6269 0.929097 71.1168 0.13805 65.2537C0.113946 65.0745 0.0482079 64.9109 0.00438253 64.7395C0 58.2258 0 51.716 0 45.2023ZM28.8195 69.8896C37.6416 69.8896 46.3979 69.8896 55.1607 69.8896C54.5516 58.4751 59.3658 51.4978 63.8404 51.2368C66.334 51.0927 68.5384 52.3744 70.3922 55.3351C72.8202 59.2153 73.7317 64.1668 73.4249 69.9909C74.6564 69.9909 75.8266 69.9948 76.9967 69.987C77.2969 69.987 77.6015 70.0026 77.8973 69.9403C79.6591 69.5507 81.147 67.0925 81.2982 63.9408C81.4231 61.3502 81.3245 58.7283 81.3245 55.9779C80.7569 55.9779 80.2442 56.0091 79.7314 55.974C76.3853 55.7247 73.5871 50.7537 73.4907 44.9023C73.4578 42.9467 73.9443 42.0312 75.0465 42.0039C75.7214 41.9883 76.3985 42 77.0756 42C76.633 41.2326 76.1947 40.6599 75.7061 40.4456C74.0407 39.7249 72.3731 38.8795 70.6771 38.5406C67.5765 37.9173 65.3589 35.4435 63.8951 30.4063C62.2298 24.6756 60.319 19.1671 58.5221 13.5572C56.6245 7.62788 53.7715 4.65932 49.9258 4.66711C42.9269 4.68269 35.9302 4.70217 28.9313 4.65932C24.9848 4.63595 22.0814 7.62788 20.1487 13.7403C18.1941 19.9189 16.1913 26.0469 14.2235 32.21C13.2133 35.3734 11.7496 37.4459 9.74894 38.3107C8.34434 38.9185 6.93536 39.5145 5.54829 40.2352C4.9917 40.5235 4.48552 41.1313 3.95743 41.5949C3.9903 41.7273 4.02316 41.8598 4.05384 41.9961C4.81421 41.9961 5.57458 41.9766 6.33276 42C7.49413 42.0351 8.04852 43.2583 7.78119 45.2257C7.38895 48.1007 6.98357 50.9719 6.56722 53.8392C6.33276 55.452 5.93833 55.974 4.98732 55.9896C4.20723 56.0052 3.42714 55.9935 2.62952 55.9935C2.62952 58.6037 2.59665 60.9879 2.63828 63.3643C2.68868 66.2393 3.79966 69.0988 5.37079 69.578C7.06026 70.0922 8.81108 69.9714 10.5619 70.1312C9.92205 58.518 14.8064 51.229 19.6469 51.1979C24.5268 51.1628 29.444 58.4634 28.8195 69.8896ZM13.1235 67.6223C13.1169 74.0113 16.0291 79.2706 19.6009 79.3212C23.2669 79.368 26.2426 74.1243 26.2426 67.6145C26.2426 61.2567 23.3041 56.0208 19.7214 55.9974C16.0905 55.9701 13.1301 61.1865 13.1235 67.6223ZM70.8568 67.7665C70.894 61.3891 67.9928 56.0831 64.4232 55.9974C60.7813 55.9117 57.7815 61.0619 57.7399 67.4704C57.6982 73.9451 60.606 79.2706 64.2107 79.3212C67.8416 79.3719 70.8195 74.1944 70.8568 67.7665ZM81.0922 51.1589C80.7591 49.846 80.4523 48.5721 80.1127 47.3294C80.0404 47.0606 79.8563 46.7139 79.7183 46.7061C78.627 46.6554 77.5358 46.6788 76.3985 46.6788C77.115 50.1304 78.8286 51.7511 81.0922 51.1589ZM2.67115 46.7333C2.67115 48.2761 2.67115 49.7447 2.67115 51.2407C3.22116 51.2407 3.72296 51.2407 4.23791 51.2407C4.44827 49.7136 4.64548 48.2644 4.85585 46.7333C4.09548 46.7333 3.40085 46.7333 2.67115 46.7333Z" fill="black"/>
<path d="M28.8193 69.8906C29.4438 58.4683 24.5266 51.1677 19.6488 51.1988C14.8083 51.23 9.9218 58.5189 10.5638 70.1321C8.81302 69.9724 7.0622 70.0932 5.37274 69.5789C3.80379 69.0998 2.69063 66.2403 2.64023 63.3652C2.59859 60.9888 2.63146 58.6085 2.63146 55.9945C3.42908 55.9945 4.20917 56.0062 4.98926 55.9906C5.94246 55.9711 6.3347 55.453 6.56917 53.8401C6.98551 50.9729 7.39089 48.1056 7.78313 45.2266C8.05046 43.2593 7.49607 42.036 6.3347 42.001C5.57433 41.9776 4.81396 41.9971 4.05578 41.9971C4.02292 41.8646 3.99005 41.7322 3.95937 41.5958C4.48746 41.1322 4.99365 40.5284 5.55023 40.2362C6.9373 39.5155 8.34628 38.9194 9.75089 38.3117C11.7537 37.4468 13.2153 35.3743 14.2276 32.2071C16.1954 26.044 18.2004 19.916 20.1528 13.7374C22.0855 7.62494 24.9911 4.63301 28.9354 4.65639C35.9321 4.69924 42.931 4.67976 49.9299 4.66418C53.7756 4.65639 56.6286 7.62494 58.5263 13.5543C60.3231 19.1641 62.2339 24.6727 63.8993 30.4033C65.363 35.4405 67.5806 37.9143 70.6812 38.5377C72.3773 38.8805 74.0448 39.722 75.7102 40.4427C76.1989 40.653 76.6371 41.2296 77.0797 41.9971C76.4026 41.9971 75.7277 41.9854 75.0506 42.001C73.9484 42.0282 73.462 42.9437 73.4948 44.8994C73.5912 50.7508 76.3873 55.7218 79.7356 55.9711C80.2483 56.0101 80.7611 55.975 81.3286 55.975C81.3286 58.7254 81.4272 61.3472 81.3023 63.9379C81.1489 67.0896 79.6611 69.5517 77.9015 69.9373C77.6056 70.0036 77.3011 69.9841 77.0009 69.9841C75.8307 69.988 74.6606 69.988 73.4291 69.988C73.7337 64.1639 72.8243 59.2124 70.3964 55.3322C68.5426 52.3714 66.3381 51.0897 63.8445 51.2339C59.3699 51.4949 54.5557 58.4722 55.1649 69.8867C46.3976 69.8906 37.6391 69.8906 28.8193 69.8906ZM26.9129 34.9964C30.053 34.9964 33.1931 35.0003 36.3353 34.9925C37.6172 34.9886 38.0533 34.2134 38.0533 31.9305C38.0555 24.6493 38.0555 17.3643 38.0533 10.0832C38.0533 7.78467 37.6194 7.00941 36.3441 7.00552C33.5853 6.99773 30.8265 6.98994 28.0699 7.00941C25.5149 7.025 23.5471 8.97676 22.2214 12.8569C20.1835 18.8291 18.1763 24.8324 16.1516 30.8202C15.8295 31.7708 15.5731 32.7135 15.9346 33.8082C16.2896 34.8835 16.8615 35.0159 17.4926 35.012C20.6305 34.9886 23.7706 34.9964 26.9129 34.9964ZM43.3189 11.7194C46.0383 11.7194 48.6831 11.6064 51.3236 11.77C52.5529 11.844 53.517 13.1491 54.181 15.0307C54.4856 15.8917 54.7551 16.7994 55.0882 17.6253C55.5264 18.7122 56.232 18.9732 56.8193 18.3188C57.4438 17.6175 57.5928 16.5735 57.3452 15.4008C56.2539 10.2117 53.642 7.01331 50.515 7.00552C47.8373 6.99773 45.1596 7.00162 42.4818 7.00552C41.0838 7.00552 40.6762 7.72623 40.6762 10.2039C40.674 17.3448 40.674 24.4857 40.6762 31.6266C40.6762 34.3147 41.0553 34.9964 42.552 34.9964C48.7269 34.9964 54.9019 34.9964 61.0791 34.9964C61.3508 34.9964 61.6313 35.0276 61.8965 34.938C62.716 34.6575 63.2594 33.1226 62.8606 31.8565C61.7957 28.4711 60.6693 25.1441 59.5014 21.8639C59.1442 20.8627 58.4956 20.7107 57.8908 21.3263C57.2553 21.973 57.0822 23.0014 57.3233 24.2013C57.4328 24.7428 57.6301 25.2259 57.7988 25.7285C58.294 27.2049 58.7914 28.6775 59.3108 30.2164C53.8961 30.2164 48.613 30.2164 43.3167 30.2164C43.3189 24.0299 43.3189 17.9603 43.3189 11.7194ZM18.3669 41.9815C18.8315 41.9815 19.2982 42.036 19.7606 41.9698C20.4859 41.8607 20.9855 40.879 20.9877 39.6674C20.9877 38.452 20.4903 37.4274 19.765 37.365C18.8381 37.2871 17.9068 37.2871 16.9799 37.365C16.2524 37.4235 15.755 38.4442 15.755 39.6596C15.7528 40.8751 16.2524 41.8607 16.9777 41.9698C17.4357 42.036 17.9024 41.9815 18.3669 41.9815ZM43.2948 37.3417C43.2948 37.3378 43.2948 37.3339 43.2948 37.33C42.885 37.33 42.4753 37.33 42.0655 37.33C42.0107 37.33 41.9559 37.33 41.9011 37.3417C41.1802 37.4975 40.6806 38.452 40.685 39.6713C40.6894 40.8868 41.189 41.8997 41.9165 41.962C42.8434 42.0399 43.7747 42.0399 44.7016 41.9581C45.4247 41.8958 45.9243 40.8556 45.9199 39.6479C45.9155 38.4325 45.4159 37.4585 44.6884 37.3534C44.2261 37.291 43.7593 37.3417 43.2948 37.3417Z" fill="white"/>
<path d="M13.1231 67.623C13.1296 61.1872 16.09 55.9708 19.721 55.9942C23.3037 56.0176 26.2422 61.2535 26.2422 67.6113C26.2422 74.1211 23.2664 79.3687 19.6004 79.318C16.0287 79.2713 13.1165 74.012 13.1231 67.623ZM23.6148 67.6191C23.617 63.8247 21.8399 60.6652 19.7056 60.6652C17.5187 60.6652 15.7416 63.8169 15.7504 67.6892C15.7592 71.4915 17.5209 74.6276 19.6596 74.647C21.8377 74.6626 23.6148 71.5071 23.6148 67.6191Z" fill="#AE85C9"/>
<path d="M70.8576 67.7662C70.8203 74.1942 67.8424 79.3716 64.2115 79.321C60.6069 79.2703 57.699 73.9448 57.7407 67.4701C57.7823 61.0655 60.7843 55.9114 64.424 55.9971C67.9936 56.079 70.8927 61.385 70.8576 67.7662ZM64.3254 60.6604C62.1385 60.6565 60.3614 63.8081 60.368 67.6805C60.3746 71.4827 62.1364 74.6188 64.275 74.6422C66.451 74.6655 68.2303 71.51 68.2325 67.622C68.2347 63.8276 66.4597 60.6642 64.3254 60.6604Z" fill="#AE85C9"/>
<path d="M81.0919 51.1593C78.8283 51.7515 77.1147 50.1308 76.4004 46.6792C77.5355 46.6792 78.6289 46.6558 79.7202 46.7065C79.8582 46.7143 80.0401 47.061 80.1146 47.3298C80.452 48.5725 80.761 49.8465 81.0919 51.1593Z" fill="white"/>
<path d="M2.67188 46.7324C3.40376 46.7324 4.09839 46.7324 4.85657 46.7324C4.64621 48.2634 4.4468 49.7127 4.23863 51.2398C3.72368 51.2398 3.22188 51.2398 2.67188 51.2398C2.67188 49.7438 2.67188 48.2751 2.67188 46.7324Z" fill="white"/>
<path d="M26.914 34.996C23.7739 34.996 20.6338 34.9843 17.4915 35.0038C16.8604 35.0077 16.2885 34.8752 15.9335 33.8C15.572 32.7053 15.8305 31.7625 16.1505 30.812C18.1752 24.8281 20.1824 18.8209 22.2203 12.8487C23.546 8.96852 25.5138 7.02065 28.0688 7.00117C30.8276 6.98169 33.5864 6.99338 36.343 6.99728C37.6183 7.00117 38.0522 7.77643 38.0522 10.0749C38.0544 17.3561 38.0544 24.6411 38.0522 31.9222C38.0522 34.2051 37.6139 34.9843 36.3342 34.9843C33.1941 34.9999 30.0541 34.996 26.914 34.996ZM35.3942 11.6683C32.9312 11.6683 30.5339 11.68 28.1345 11.6644C26.4867 11.6527 25.2574 12.9032 24.4137 15.4082C22.8601 20.0285 21.2956 24.6411 19.7398 29.2614C19.639 29.5575 19.5776 29.8926 19.4856 30.2549C24.8345 30.2549 30.0957 30.2549 35.3942 30.2549C35.3942 24.0762 35.3942 17.9755 35.3942 11.6683Z" fill="black"/>
<path d="M43.3192 11.7183C43.3192 17.9593 43.3192 24.0289 43.3192 30.2153C48.6133 30.2153 53.8986 30.2153 59.3132 30.2153C58.7939 28.6765 58.2943 27.2039 57.8013 25.7274C57.6347 25.2288 57.4353 24.7418 57.3258 24.2003C57.0847 23.0004 57.2578 21.9719 57.8933 21.3252C58.4981 20.7097 59.1445 20.8617 59.5039 21.8629C60.6718 25.1392 61.7981 28.4661 62.8631 31.8554C63.2619 33.1254 62.7207 34.6604 61.8989 34.937C61.6338 35.0266 61.3555 34.9954 61.0816 34.9954C54.9066 34.9993 48.7316 34.9993 42.5544 34.9954C41.0556 34.9954 40.6787 34.3137 40.6787 31.6256C40.6787 24.4847 40.6765 17.3438 40.6787 10.2029C40.6787 7.72521 41.0863 7.0045 42.4843 7.0045C45.162 7.0006 47.8398 6.99671 50.5175 7.0045C53.6444 7.01229 56.2564 10.2107 57.3477 15.3998C57.5953 16.5724 57.4463 17.6165 56.8218 18.3177C56.2367 18.9761 55.5289 18.7112 55.0907 17.6243C54.7576 16.7984 54.4881 15.8907 54.1835 15.0297C53.5173 13.1481 52.5554 11.843 51.3261 11.769C48.6834 11.6054 46.0385 11.7183 43.3192 11.7183Z" fill="black"/>
<path d="M18.3664 41.9796C17.9018 41.9796 17.4351 42.0341 16.9727 41.9679C16.2474 41.8588 15.75 40.8732 15.75 39.6577C15.7522 38.4383 16.2496 37.4216 16.9749 37.3631C17.9018 37.2852 18.8331 37.2852 19.76 37.3631C20.4853 37.4255 20.9849 38.45 20.9827 39.6655C20.9827 40.8771 20.4809 41.8627 19.7556 41.9679C19.2999 42.0341 18.8309 41.9796 18.3664 41.9796Z" fill="black"/>
<path d="M43.2954 37.3414C43.7599 37.3414 44.2267 37.2869 44.689 37.3531C45.4165 37.4583 45.9161 38.4283 45.9205 39.6477C45.9249 40.8593 45.4253 41.8956 44.7022 41.9579C43.7753 42.0397 42.844 42.0358 41.9171 41.9618C41.1896 41.9033 40.69 40.8866 40.6856 39.6711C40.6812 38.4556 41.1808 37.5012 41.9017 37.3414C41.9565 37.3297 42.0113 37.3297 42.0661 37.3297C42.4758 37.3297 42.8856 37.3297 43.2954 37.3297C43.2954 37.3375 43.2954 37.3375 43.2954 37.3414Z" fill="black"/>
<path d="M23.6145 67.618C23.6123 71.5098 21.8374 74.6654 19.6593 74.6459C17.5184 74.6264 15.7566 71.4903 15.75 67.6881C15.7413 63.8196 17.5184 60.6641 19.7053 60.6641C21.8396 60.6641 23.6167 63.8235 23.6145 67.618ZM20.9872 67.6374C20.9828 66.3869 20.3955 65.3428 19.6899 65.3312C18.9887 65.3195 18.3905 66.3518 18.373 67.6024C18.3554 68.9113 18.9734 70.0138 19.7075 69.9827C20.4152 69.9437 20.9915 68.8841 20.9872 67.6374Z" fill="black"/>
<path d="M64.3249 60.6602C66.4592 60.6641 68.2341 63.8235 68.2297 67.618C68.2275 71.5059 66.4504 74.6615 64.2723 74.6381C62.1336 74.6147 60.3718 71.4786 60.3653 67.6764C60.3587 63.8118 62.1358 60.6602 64.3249 60.6602ZM64.292 69.9788C64.9954 69.9827 65.5892 68.9503 65.6046 67.6998C65.6199 66.3947 64.9976 65.2961 64.2613 65.3311C63.5579 65.3662 62.9816 66.4336 62.9904 67.6842C62.9992 68.9386 63.5864 69.9749 64.292 69.9788Z" fill="black"/>
<path d="M35.393 11.668C35.393 17.9752 35.393 24.076 35.393 30.2546C30.0967 30.2546 24.8354 30.2546 19.4844 30.2546C19.5764 29.8962 19.6378 29.5573 19.7386 29.2612C21.2944 24.6409 22.8567 20.0283 24.4125 15.408C25.2562 12.8991 26.4855 11.6525 28.1333 11.6641C30.5327 11.6797 32.93 11.668 35.393 11.668Z" fill="white"/>
<path d="M20.9874 67.6384C20.9918 68.8889 20.4133 69.9486 19.7099 69.9797C18.9759 70.0148 18.3557 68.9123 18.3755 67.5994C18.393 66.3489 18.9912 65.3165 19.6924 65.3282C20.398 65.3399 20.9831 66.384 20.9874 67.6384Z" fill="white"/>
<path d="M64.2919 69.9785C63.5885 69.9746 63.0013 68.9383 62.9903 67.68C62.9816 66.4295 63.5579 65.3621 64.2613 65.327C64.9953 65.2919 65.6199 66.3905 65.6045 67.6956C65.587 68.95 64.9953 69.9785 64.2919 69.9785Z" fill="white"/>
</g>
<defs>
<clipPath id="clip0_607_305">
<rect width="84" height="84" fill="white"/>
</clipPath>
</defs>
</svg>
