<svg width="57" height="57" viewBox="0 0 57 57" fill="none" xmlns="http://www.w3.org/2000/svg">
<g clip-path="url(#clip0_607_293)">
<path d="M23.2042 50.0368C19.7784 52.2518 16.4586 54.4037 13.1329 56.5461C12.1258 57.1945 11.8961 57.162 11.0499 56.3395C7.56716 52.9481 4.08442 49.5566 0.603639 46.1633C-0.154162 45.425 -0.163978 45.184 0.381796 44.306C1.16708 43.0416 1.92881 41.7638 2.6925 40.4861C4.08049 38.1639 4.56933 35.5376 5.3075 32.9993C5.3664 32.7966 5.14259 32.4369 4.94824 32.2552C3.53079 30.9239 2.54722 29.3803 2.28415 27.4426C1.96415 25.1032 2.5806 23.024 4.21203 21.2948C5.60395 19.82 7.09796 18.437 8.5527 17.0196C13.3331 12.36 18.1136 7.70232 22.8979 3.04653C26.3865 -0.350632 31.0884 -0.360197 34.5771 3.02357C37.0075 5.38016 39.438 7.73867 41.8469 10.1163C42.1885 10.453 42.481 10.5409 42.9365 10.3994C43.3841 10.2598 43.6923 10.1048 43.8022 9.58645C44.0987 8.18626 44.4776 6.8033 44.8054 5.41077C44.9409 4.83884 45.2138 4.41993 45.8715 4.43523C46.4899 4.44862 46.749 4.86179 46.8766 5.39929C47.2104 6.79182 47.5775 8.1767 47.8838 9.57306C47.9858 10.0398 48.2077 10.2349 48.669 10.3592C50.2475 10.7839 51.8102 11.2678 53.3847 11.7116C53.9265 11.8646 54.3486 12.1171 54.3584 12.7139C54.3683 13.3126 53.954 13.5823 53.4122 13.7373C51.8161 14.1925 50.2239 14.6611 48.6317 15.124C47.7974 15.367 47.6796 15.7782 48.2823 16.3674C49.7508 17.8039 51.2291 19.2347 52.6976 20.6712C56.1941 24.0894 56.1842 28.6763 52.6662 32.106C46.6744 37.9478 40.6238 43.7321 34.7047 49.6427C31.3927 52.9519 26.4062 53.0322 23.265 50.075C23.2179 50.031 23.1492 50.0004 23.2042 50.0368ZM37.4552 29.4396C40.3273 30.9182 40.0682 33.753 38.1423 35.5434C33.9587 39.4283 29.9341 43.4758 25.8447 47.4583C25.4521 47.8409 25.0633 48.2292 24.6746 48.6136C26.8342 50.8708 30.578 50.8497 32.9672 48.5314C39.1474 42.5347 45.3159 36.5285 51.4706 30.5088C53.9285 28.1044 53.9128 24.6824 51.4745 22.2569C50.2416 21.0289 48.9832 19.8238 47.7326 18.6111C47.6246 18.5078 47.4911 18.4294 47.3144 18.3012C47.1574 18.9306 47.0062 19.4814 46.8825 20.0381C46.7549 20.6081 46.4722 21.0346 45.8204 21.0251C45.2118 21.0155 44.9389 20.6119 44.8113 20.0668C44.4815 18.6742 44.1144 17.2894 43.8042 15.8911C43.7021 15.4339 43.4862 15.2159 43.0268 15.0915C41.4483 14.665 39.8837 14.1906 38.3092 13.7468C37.7732 13.5957 37.3393 13.3566 37.3295 12.7502C37.3197 12.1075 37.7653 11.8512 38.3347 11.7039C38.8903 11.5605 39.438 11.3807 40.08 11.1894C39.8365 10.935 39.6795 10.759 39.5106 10.5964C37.3982 8.53631 35.2838 6.47812 33.1695 4.41993C30.472 1.79746 27.0266 1.79172 24.335 4.40845C21.665 7.00414 18.999 9.60557 16.331 12.2051C12.9169 15.5296 9.51075 18.8598 6.08886 22.1747C4.71854 23.5022 4.0589 25.0783 4.2454 26.9567C4.3789 28.3206 4.94627 29.4893 6.06334 30.5088C6.94875 27.4368 7.80471 24.4854 8.65086 21.5301C9.06903 20.0668 10.2843 19.0224 11.7665 18.877C14.4679 18.613 16.4389 20.7669 15.8539 23.3606C15.5143 24.8603 15.1491 26.3542 14.7957 27.85C15.1138 27.7391 15.3101 27.5707 15.4946 27.3909C19.1168 23.8656 22.7271 20.3288 26.3689 16.8226C26.8263 16.3827 27.3976 15.9236 27.9925 15.7859C28.7424 15.6137 29.5984 15.6367 30.3562 15.8031C31.3574 16.0212 31.968 16.8073 32.4058 17.7408C32.6924 17.4749 32.9319 17.2396 33.1852 17.0177C34.6046 15.7782 36.7248 15.8184 38.0363 17.1057C39.3614 18.4064 39.3987 20.4512 38.0893 21.8208C37.675 22.255 37.1882 22.6242 36.6993 23.0527C39.6186 24.5141 39.8012 27.4981 37.4552 29.4396ZM12.328 54.7232C12.8031 54.4248 13.2703 54.1264 13.7454 53.8337C17.8328 51.3241 21.828 48.7112 25.2322 45.314C29.0487 41.5056 32.9496 37.7775 36.8112 34.0112C37.035 33.7931 37.359 33.5732 37.4139 33.3111C37.5082 32.8539 37.5945 32.261 37.3727 31.9128C37.1509 31.5647 36.554 31.2873 36.1123 31.272C35.7236 31.2587 35.2485 31.58 34.9364 31.8784C32.5766 34.1355 30.2482 36.4252 27.9061 38.7014C27.7156 38.885 27.5174 39.172 27.3014 39.1949C26.9088 39.2351 26.3532 39.2427 26.1333 39.017C25.9115 38.7894 25.9488 38.2519 26.0057 37.8674C26.0371 37.6532 26.3335 37.4696 26.524 37.284C29.7633 34.126 33.0026 30.9717 36.2419 27.8137C36.45 27.6109 36.7661 27.412 36.8093 27.1748C36.8976 26.6679 36.9742 26.0883 36.8073 25.6254C36.609 25.0803 35.9985 24.8105 35.4075 24.9483C34.9854 25.0477 34.5535 25.3117 34.2374 25.6139C32.0681 27.6874 29.9302 29.7896 27.7804 31.8822C26.7066 32.9285 25.6366 33.9787 24.5549 35.0173C24.1073 35.4458 23.6066 35.5089 23.1158 35.0881C22.6584 34.6941 22.6741 34.1413 23.1492 33.6363C23.4633 33.3035 23.8049 32.9917 24.1347 32.6722C28.2418 28.6725 32.3488 24.6747 36.45 20.6693C37.1705 19.9654 37.2274 19.1257 36.6306 18.5136C36.0004 17.867 35.1386 17.9091 34.3631 18.6283C34.2217 18.7603 34.0863 18.898 33.9469 19.0319C29.7535 23.1158 25.562 27.2016 21.3686 31.2835C21.1781 31.4671 20.9838 31.7464 20.7619 31.777C20.3909 31.8306 19.851 31.8535 19.6488 31.6431C19.4152 31.4021 19.4014 30.8895 19.4328 30.5069C19.4505 30.2984 19.747 30.1014 19.9354 29.9159C23.2081 26.7234 26.4827 23.5347 29.7574 20.3441C29.9478 20.1586 30.2364 19.9864 30.2875 19.7665C30.4013 19.2863 30.5761 18.6857 30.3778 18.307C30.1795 17.9263 29.5748 17.5858 29.1174 17.5457C28.7169 17.5112 28.1907 17.8307 27.8648 18.1406C25.776 20.1222 23.7284 22.1441 21.667 24.1525C19.0854 26.6679 16.5037 29.1832 13.9201 31.6948C13.2998 32.2973 12.6303 32.435 12.2926 31.9224C12.0649 31.5781 12.0001 31.0195 12.0924 30.6045C12.644 28.0872 13.2605 25.5852 13.8553 23.0775C14.1263 21.9337 13.6688 21.0959 12.6382 20.8491C11.6507 20.6138 10.8693 21.1265 10.5434 22.2455C9.46952 25.9353 8.40349 29.6289 7.33158 33.3207C6.44617 36.3659 5.76101 39.4799 4.02552 42.2286C3.44049 43.1564 2.89275 44.107 2.35679 45.0003C5.68444 48.2483 8.97283 51.4542 12.328 54.7232ZM45.7694 9.99005C45.7262 10.1488 45.6575 10.3057 45.6437 10.4663C45.5554 11.4361 44.9998 11.9335 44.0339 12.1171C43.39 12.2395 42.7715 12.4748 42.1394 12.6603C42.7637 12.9855 43.3585 13.2055 43.973 13.3222C44.9527 13.5096 45.5672 13.9802 45.6477 14.9997C45.6614 15.1623 45.7497 15.3211 45.8616 15.6462C45.9539 15.3115 46.0226 15.1585 46.0364 15.0035C46.1247 13.9936 46.7255 13.5077 47.711 13.3222C48.3333 13.2055 48.9321 12.9779 49.5407 12.8C49.1972 12.557 48.883 12.4155 48.5552 12.3658C47.126 12.1458 46.0226 11.593 45.7694 9.99005Z" fill="black"/>
<path d="M48.3129 54.7158C46.3733 54.7139 44.8184 53.2066 44.8145 51.3225C44.8105 49.4364 46.3536 47.9119 48.2854 47.8928C50.229 47.8717 51.8565 49.446 51.8369 51.332C51.8192 53.2047 50.2428 54.7177 48.3129 54.7158ZM46.8326 51.2842C46.8209 52.0972 47.4687 52.759 48.2933 52.7705C49.11 52.7839 49.801 52.1297 49.8148 51.332C49.8285 50.542 49.1532 49.8592 48.3424 49.8439C47.5257 49.8266 46.8464 50.477 46.8326 51.2842Z" fill="black"/>
<path d="M2.5922 5.84991C2.27416 5.84991 1.95415 5.87287 1.64004 5.84418C1.05108 5.79062 0.683954 5.48074 0.672175 4.88203C0.660396 4.31775 0.996106 3.95814 1.54581 3.91414C2.27416 3.85676 3.01233 3.85867 3.74068 3.90841C4.29234 3.94666 4.64572 4.3101 4.64572 4.85716C4.64572 5.43675 4.28253 5.78105 3.6916 5.83844C3.32841 5.87287 2.95932 5.84418 2.5922 5.84418C2.5922 5.848 2.5922 5.84991 2.5922 5.84991Z" fill="black"/>
<path d="M8.72662 5.8499C8.3595 5.84799 7.99041 5.87668 7.62722 5.84225C7.07359 5.78869 6.71629 5.48264 6.69273 4.92219C6.66721 4.3273 7.01273 3.95621 7.59973 3.91031C8.30453 3.85675 9.01718 3.86057 9.72393 3.90648C10.3129 3.94474 10.6839 4.31391 10.6682 4.89349C10.6525 5.46925 10.2756 5.80017 9.68074 5.84608C9.36466 5.87094 9.04466 5.8499 8.72662 5.8499Z" fill="black"/>
<path d="M6.64279 1.9396C6.64279 2.29539 6.6742 2.655 6.63494 3.00887C6.57408 3.55785 6.23052 3.87155 5.65726 3.86772C5.08596 3.86581 4.7208 3.55402 4.68743 3.00313C4.64424 2.29156 4.64228 1.57426 4.68743 0.864602C4.72277 0.315624 5.10167 0.00192251 5.66315 9.69495e-06C6.18929 -0.00190312 6.55249 0.279281 6.61923 0.80148C6.66635 1.17639 6.62905 1.56087 6.62905 1.9396C6.63298 1.9396 6.63887 1.9396 6.64279 1.9396Z" fill="black"/>
<path d="M6.64279 7.80679C6.64279 8.16258 6.67617 8.5241 6.63494 8.87606C6.57212 9.42503 6.23052 9.73874 5.65726 9.73491C5.08596 9.73108 4.7208 9.41738 4.68743 8.86841C4.64424 8.15684 4.64228 7.43953 4.68743 6.72988C4.72277 6.1809 5.09774 5.86911 5.66315 5.8672C6.19125 5.86528 6.55249 6.14838 6.61923 6.66867C6.66831 7.04358 6.62905 7.42806 6.62905 7.80679C6.63494 7.80679 6.63887 7.80679 6.64279 7.80679Z" fill="black"/>
<path d="M57 42.5751C57.0196 43.1279 56.5328 43.631 55.9615 43.652C55.3921 43.6711 54.8778 43.2006 54.8542 42.642C54.8326 42.0911 55.3215 41.5843 55.8927 41.5651C56.4582 41.5441 56.9804 42.0204 57 42.5751Z" fill="black"/>
<path d="M37.455 29.4393C39.8011 27.4959 39.6185 24.5138 36.6992 23.0505C37.1861 22.622 37.673 22.2528 38.0892 21.8186C39.3986 20.4491 39.3613 18.4043 38.0361 17.1035C36.7247 15.8162 34.6044 15.7761 33.185 17.0156C32.9318 17.2374 32.6903 17.4727 32.4056 17.7386C31.9659 16.8051 31.3553 16.019 30.356 15.8009C29.5982 15.6364 28.7423 15.6115 27.9923 15.7837C27.3975 15.9214 26.8262 16.3805 26.3688 16.8204C22.727 20.3266 19.1166 23.8634 15.4945 27.3888C15.31 27.5686 15.1136 27.735 14.7956 27.8478C15.149 26.352 15.5141 24.8581 15.8538 23.3585C16.4408 20.7666 14.4677 18.6108 11.7664 18.8748C10.2841 19.0202 9.0689 20.0646 8.65074 21.5279C7.80459 24.4832 6.94863 27.4347 6.06322 30.5066C4.94615 29.4871 4.38074 28.3184 4.24528 26.9545C4.06074 25.0762 4.72038 23.5 6.08874 22.1725C9.51062 18.8595 12.9168 15.5293 16.3308 12.2048C18.9988 9.60531 21.6649 7.00579 24.3349 4.40819C27.0264 1.79145 30.4719 1.79719 33.1693 4.41966C35.2837 6.47785 37.3981 8.53604 39.5105 10.5961C39.6794 10.7606 39.8345 10.9347 40.0799 11.1891C39.4379 11.3804 38.8901 11.5602 38.3346 11.7037C37.7633 11.851 37.3176 12.1073 37.3294 12.75C37.3392 13.3563 37.7731 13.5954 38.309 13.7466C39.8835 14.1884 41.4482 14.6647 43.0266 15.0913C43.488 15.2156 43.7039 15.4337 43.8041 15.8908C44.1143 17.2872 44.4833 18.6721 44.8112 20.0665C44.9408 20.6117 45.2117 21.0153 45.8203 21.0248C46.4721 21.0363 46.7548 20.6078 46.8824 20.0378C47.008 19.4812 47.1572 18.9303 47.3143 18.301C47.489 18.431 47.6245 18.5076 47.7325 18.6108C48.983 19.8236 50.2415 21.0286 51.4744 22.2567C53.9107 24.6821 53.9264 28.1042 51.4704 30.5086C45.3158 36.5282 39.1473 42.5363 32.9671 48.5311C30.5779 50.8494 26.834 50.8705 24.6745 48.6134C25.0632 48.2289 25.4519 47.8406 25.8446 47.458C29.934 43.4755 33.9585 39.4299 38.1422 35.5431C40.0681 33.7527 40.3253 30.9179 37.455 29.4393Z" fill="#AE85C9"/>
<path d="M12.3267 54.723C8.97153 51.454 5.68314 48.2481 2.35156 45.0002C2.88752 44.1069 3.43526 43.1562 4.0203 42.2285C5.75578 39.4817 6.4429 36.3657 7.32635 33.3205C8.39827 29.6288 9.46429 25.937 10.5382 22.2453C10.8641 21.1263 11.6454 20.6118 12.6329 20.8489C13.6656 21.0957 14.123 21.9316 13.8501 23.0774C13.2553 25.5851 12.6368 28.087 12.0871 30.6043C11.9968 31.0194 12.0597 31.5779 12.2874 31.9222C12.6251 32.433 13.2945 32.2971 13.9149 31.6946C16.4985 29.1831 19.0801 26.6677 21.6618 24.1524C23.7231 22.1439 25.7708 20.1221 27.8596 18.1404C28.1855 17.8324 28.7117 17.5111 29.1122 17.5455C29.5696 17.5857 30.1743 17.9262 30.3725 18.3068C30.5708 18.6855 30.3941 19.2862 30.2822 19.7663C30.2312 19.9863 29.9426 20.1584 29.7522 20.344C26.4795 23.5345 23.2029 26.7232 19.9302 29.9157C19.7417 30.1012 19.4433 30.2983 19.4276 30.5068C19.3962 30.8893 19.4119 31.4019 19.6436 31.643C19.8458 31.8515 20.3857 31.8304 20.7567 31.7769C20.9805 31.7443 21.1749 31.467 21.3633 31.2834C25.5587 27.2014 29.7502 23.1156 33.9417 19.0318C34.0811 18.896 34.2165 18.7582 34.3579 18.6282C35.1314 17.9089 35.9952 17.8669 36.6254 18.5134C37.2222 19.1274 37.1672 19.9652 36.4448 20.6691C32.3436 24.6727 28.2346 28.6724 24.1295 32.6721C23.7997 32.9934 23.4601 33.3033 23.144 33.6361C22.6669 34.1411 22.6512 34.6939 23.1106 35.0879C23.6014 35.5107 24.102 35.4476 24.5496 35.0172C25.6314 33.9785 26.7013 32.9284 27.7752 31.8821C29.923 29.7894 32.0629 27.6873 34.2322 25.6138C34.5483 25.3115 34.9782 25.0476 35.4023 24.9481C35.9952 24.8104 36.6038 25.0801 36.8021 25.6252C36.9709 26.0881 36.8943 26.6677 36.804 27.1746C36.7628 27.4118 36.4448 27.6107 36.2367 27.8135C32.9993 30.9716 29.7581 34.1258 26.5187 37.2839C26.3283 37.4694 26.0319 37.653 26.0005 37.8673C25.9435 38.2498 25.9082 38.7892 26.1281 39.0169C26.3479 39.2426 26.9016 39.233 27.2962 39.1948C27.5141 39.1718 27.7124 38.8849 27.9009 38.7013C30.243 36.425 32.5713 34.1354 34.9311 31.8782C35.2433 31.5798 35.7184 31.2585 36.1071 31.2719C36.5508 31.2872 37.1456 31.5645 37.3675 31.9127C37.5893 32.2608 37.5029 32.8538 37.4087 33.3109C37.3557 33.573 37.0298 33.793 36.806 34.011C32.9444 37.7774 29.0454 41.5054 25.227 45.3139C21.8227 48.711 17.8256 51.3239 13.7402 53.8335C13.271 54.1262 12.8018 54.4265 12.3267 54.723Z" fill="white"/>
<path d="M45.7687 9.99023C46.0219 11.5932 47.1252 12.1441 48.5525 12.364C48.8804 12.4138 49.1925 12.5553 49.538 12.7982C48.9294 12.9761 48.3287 13.2038 47.7083 13.3204C46.7228 13.506 46.122 13.9918 46.0337 15.0018C46.02 15.1587 45.9532 15.3098 45.859 15.6445C45.749 15.3193 45.6587 15.1625 45.645 14.998C45.5645 13.9785 44.95 13.506 43.9704 13.3204C43.3559 13.2038 42.761 12.9838 42.1367 12.6586C42.7669 12.4731 43.3873 12.2378 44.0312 12.1154C44.9971 11.9317 45.5527 11.4344 45.6411 10.4646C45.6568 10.3058 45.7255 10.149 45.7687 9.99023Z" fill="white"/>
<path d="M46.8322 51.2844C46.844 50.4772 47.5252 49.8269 48.3419 49.8441C49.1527 49.8613 49.8281 50.5423 49.8143 51.3323C49.8006 52.1299 49.1095 52.7841 48.2928 52.7707C47.4702 52.7592 46.8204 52.0974 46.8322 51.2844Z" fill="white"/>
</g>
<defs>
<clipPath id="clip0_607_293">
<rect width="57" height="57" fill="white"/>
</clipPath>
</defs>
</svg>
