<svg width="57" height="57" viewBox="0 0 57 57" fill="none" xmlns="http://www.w3.org/2000/svg">
<path d="M28.4963 56.9943C23.2313 56.9943 17.9663 57.0093 12.7014 56.9905C6.70682 56.9717 1.69005 52.9858 0.339966 47.1535C0.129367 46.236 0.0203074 45.2771 0.0203074 44.3333C-0.00225671 33.7856 -0.00601695 23.2341 0.00902582 12.6864C0.0203079 5.62451 5.61246 0.0291425 12.6788 0.0141012C23.2275 -0.00470041 33.78 -0.00470041 44.3288 0.0141012C51.3914 0.0291425 56.976 5.62451 56.9873 12.6977C57.0061 23.2266 57.0023 33.7555 56.9873 44.2844C56.976 51.3877 51.3914 56.968 44.2874 56.9905C39.0262 57.0093 33.7612 56.9943 28.4963 56.9943ZM28.5038 55.509C33.7462 55.509 38.9924 55.5203 44.2348 55.5052C50.5753 55.4902 55.498 50.5679 55.5056 44.228C55.5168 33.7405 55.5168 23.2567 55.5056 12.7691C55.498 6.42922 50.5715 1.50695 44.2272 1.49943C33.7387 1.48815 23.2539 1.48815 12.7653 1.49943C6.42477 1.50695 1.49826 6.43674 1.4945 12.7729C1.48698 23.2604 1.48698 33.7442 1.50202 44.2318C1.50202 44.95 1.55843 45.6795 1.69758 46.3827C2.76561 51.7975 7.25588 55.4902 12.7728 55.5015C18.0152 55.5165 23.2614 55.509 28.5038 55.509Z" fill="black"/>
<path d="M28.5034 55.5084C23.261 55.5084 18.0149 55.5159 12.7725 55.5046C7.25553 55.4934 2.76526 51.8007 1.69722 46.3858C1.55808 45.6827 1.50543 44.9532 1.50167 44.2349C1.49039 33.7474 1.48663 23.2636 1.49415 12.7761C1.49791 6.43615 6.42441 1.50636 12.7649 1.5026C23.2535 1.49132 33.7383 1.49132 44.2269 1.5026C50.5712 1.51012 55.4977 6.43239 55.5052 12.7723C55.5165 23.2598 55.5165 33.7436 55.5052 44.2312C55.4977 50.5711 50.5749 55.4933 44.2344 55.5084C38.992 55.5197 33.7496 55.5084 28.5034 55.5084ZM43.9524 33.612C46.7992 33.6007 49.0782 31.3182 49.0669 28.4942C49.0556 25.6627 46.7729 23.399 43.9336 23.3915C41.113 23.3877 38.8077 25.689 38.8115 28.5093C38.819 31.3333 41.1281 33.6233 43.9524 33.612ZM13.0583 33.612C15.8938 33.612 18.2067 31.3182 18.1991 28.513C18.1916 25.6665 15.8788 23.3802 13.0131 23.3952C10.219 23.4065 7.9475 25.6928 7.93998 28.4942C7.93998 31.3182 10.234 33.612 13.0583 33.612ZM33.6105 28.5431C33.618 25.6627 31.3578 23.3952 28.4734 23.3952C25.6679 23.3915 23.4077 25.6476 23.3889 28.4641C23.3701 31.3107 25.6265 33.6007 28.4583 33.612C31.3164 33.6271 33.6029 31.3746 33.6105 28.5431Z" fill="#AE85C9"/>
<path d="M43.9535 33.6133C41.1292 33.6246 38.8202 31.3308 38.8164 28.5143C38.8127 25.694 41.1142 23.3927 43.9385 23.3965C46.7778 23.4002 49.0605 25.6677 49.0718 28.4992C49.0793 31.3195 46.7966 33.602 43.9535 33.6133ZM43.8783 32.128C45.9016 32.1543 47.5412 30.5862 47.5826 28.5895C47.624 26.5552 46.0181 24.9006 43.9836 24.8856C41.9754 24.8705 40.3395 26.4574 40.3019 28.4541C40.2643 30.4358 41.8851 32.1016 43.8783 32.128Z" fill="black"/>
<path d="M13.0579 33.6133C10.2299 33.6133 7.93586 31.3195 7.94338 28.4955C7.94714 25.6941 10.2224 23.4078 13.0166 23.3965C15.8822 23.3852 18.195 25.6678 18.2025 28.5143C18.2063 31.3195 15.8935 33.6133 13.0579 33.6133ZM13.0692 24.8819C11.061 24.8819 9.43637 26.4913 9.42885 28.488C9.42133 30.4885 11.0384 32.1167 13.0391 32.1242C15.0737 32.1355 16.7208 30.5035 16.7133 28.4842C16.7058 26.4988 15.0737 24.8819 13.0692 24.8819Z" fill="black"/>
<path d="M33.6105 28.5444C33.603 31.3759 31.3165 33.6246 28.4621 33.6133C25.6265 33.602 23.3739 31.312 23.3927 28.4654C23.4115 25.6452 25.6717 23.3927 28.4772 23.3965C31.3578 23.4002 33.618 25.6677 33.6105 28.5444ZM32.125 28.5068C32.1325 26.4912 30.5418 24.8931 28.5185 24.8818C26.499 24.8705 24.8894 26.4574 24.8782 28.4692C24.8631 30.4922 26.4426 32.1092 28.4508 32.1242C30.5042 32.143 32.1175 30.5524 32.125 28.5068Z" fill="black"/>
<path d="M43.8759 32.1273C41.8827 32.101 40.2619 30.4352 40.2995 28.4535C40.3371 26.453 41.973 24.8661 43.9812 24.8849C46.0157 24.9 47.6215 26.5545 47.5802 28.5889C47.535 30.5856 45.8954 32.1536 43.8759 32.1273Z" fill="white"/>
<path d="M13.0681 24.8809C15.0726 24.8809 16.7085 26.4978 16.7122 28.487C16.7197 30.5063 15.0726 32.1383 13.038 32.127C11.0373 32.1157 9.42024 30.4875 9.42776 28.4908C9.43528 26.4903 11.0561 24.8809 13.0681 24.8809Z" fill="white"/>
<path d="M32.1259 28.506C32.1183 30.5516 30.505 32.146 28.4517 32.1272C26.4435 32.1084 24.864 30.4952 24.879 28.4722C24.8941 26.4566 26.4999 24.8735 28.5194 24.8848C30.5389 24.8923 32.1296 26.4905 32.1259 28.506Z" fill="white"/>
</svg>
