<svg width="57" height="49" viewBox="0 0 57 49" fill="none" xmlns="http://www.w3.org/2000/svg">
<g clip-path="url(#clip0_607_270)">
<path d="M0 15.738C0.338812 14.5589 1.08991 13.8436 2.05124 13.3291C9.69288 9.21726 17.3202 5.07317 24.9762 0.99368C27.5132 -0.358458 30.1359 -0.328461 32.6647 1.05367C40.0676 5.09855 47.448 9.1965 54.8447 13.2575C55.8754 13.8228 56.6714 14.5866 57.002 15.8649C57.002 16.1579 57.002 16.451 57.002 16.744C56.6306 17.9277 55.8407 18.6245 54.8732 19.1529C52.571 20.4082 50.287 21.7072 47.9827 22.9532C47.5602 23.1817 47.3969 23.4332 47.399 23.98C47.4214 28.6064 47.399 33.235 47.4235 37.8614C47.4275 38.6528 47.2112 39.2596 46.756 39.8411C43.2067 44.3705 38.8123 47.2756 33.5546 48.4039C26.3192 49.9545 19.6062 48.5193 13.6443 43.4983C12.2891 42.3562 11.1277 40.9117 9.9378 39.5365C9.6541 39.2089 9.48673 38.609 9.48469 38.1313C9.45204 33.3573 9.4602 28.5833 9.47245 23.8093C9.47449 23.3801 9.3806 23.1378 9.01525 22.9532C8.17027 22.5287 7.34773 22.0418 6.51703 21.5826C6.37415 21.5042 6.22312 21.4442 6.01085 21.345C6.01085 22.0672 6.01085 22.7086 6.01085 23.3524C6.01085 26.0105 6.01493 28.671 6.00677 31.3291C6.00677 31.6452 6.05167 31.8506 6.33742 32.0236C7.44366 32.6928 8.02943 33.7611 8.01311 35.1848C7.99882 36.5992 7.41916 37.6583 6.31088 38.339C6.24761 38.3782 6.19046 38.4267 6.08433 38.5028C7.05382 41.987 8.02127 45.4666 9.00097 48.99C6.24149 48.99 3.55548 48.99 0.812332 48.99C0.865399 48.7685 0.90622 48.5723 0.959287 48.3808C1.82469 45.2704 2.68804 42.1577 3.56569 39.052C3.67386 38.6666 3.67999 38.459 3.31668 38.2075C1.21033 36.7515 1.26748 33.445 3.41261 32.0582C3.69836 31.8737 3.79429 31.6891 3.79224 31.3314C3.78204 27.7296 3.78 24.1277 3.79429 20.5282C3.79633 20.1567 3.69427 19.9559 3.39424 19.8267C3.10033 19.6998 2.82683 19.5175 2.54109 19.3721C1.43281 18.8161 0.446987 18.11 0 16.744C0 16.4094 0 16.0726 0 15.738ZM8.62338 20.0436C8.903 20.2143 9.05403 20.3159 9.21324 20.4012C14.6893 23.3686 20.1634 26.3451 25.6477 29.2917C27.7091 30.3992 29.8012 30.3969 31.8667 29.264C36.8244 26.5459 41.778 23.8231 46.7316 21.0935C49.1277 19.7736 51.5198 18.44 53.9099 17.104C54.1732 16.9563 54.4242 16.7717 54.6651 16.5802C54.9467 16.3587 54.9467 16.0933 54.663 15.881C54.4018 15.6849 54.1242 15.5165 53.8425 15.3619C46.5377 11.3308 39.2307 7.30443 31.9238 3.2757C29.8399 2.12662 27.7397 2.12892 25.6558 3.2434C22.7433 4.79859 19.8429 6.38608 16.9386 7.96204C12.3115 10.4702 7.68654 12.976 3.06564 15.4911C2.71458 15.6826 2.39618 15.9503 2.03899 16.1972C2.16962 16.391 2.2084 16.5087 2.28188 16.5502C3.57589 17.2863 4.73316 18.4861 6.37211 18.0408C6.7844 17.93 7.2171 17.9277 7.64164 17.87C11.2686 17.3878 14.8934 16.9032 18.5204 16.421C21.7595 15.9895 24.9986 15.5488 28.2398 15.1265C28.9296 15.0365 29.4174 15.4472 29.497 16.1256C29.5726 16.7648 29.197 17.2701 28.5174 17.3878C27.803 17.5101 27.0845 17.5954 26.3661 17.6924C22.4269 18.2138 18.4857 18.733 14.5465 19.2545C12.6218 19.5106 10.695 19.769 8.62338 20.0436ZM11.6604 24.2685C11.638 24.4461 11.6196 24.5246 11.6196 24.6053C11.6176 29.0009 11.6135 33.3965 11.6298 37.7944C11.6298 38.0344 11.7421 38.339 11.8952 38.5051C12.9116 39.6011 13.875 40.7918 15.0016 41.724C20.8247 46.5418 27.305 47.7717 34.2608 45.8773C38.496 44.7236 42.08 42.2385 44.9946 38.5674C45.1804 38.3344 45.2987 37.9444 45.3008 37.6283C45.3212 33.4219 45.3151 29.2132 45.313 25.0045C45.313 24.8107 45.2926 24.6146 45.2783 24.3631C45.015 24.4992 44.813 24.5961 44.617 24.7045C40.6084 26.9197 36.6039 29.1463 32.5892 31.3453C30.0257 32.7505 27.4254 32.6951 24.8598 31.3776C22.6514 30.2446 20.4798 29.0217 18.2918 27.8403C16.1017 26.6612 13.9137 25.4845 11.6604 24.2685Z" fill="black"/>
<path d="M8.62353 20.0447C10.6952 19.7701 12.6199 19.5117 14.5446 19.2578C18.4838 18.7364 22.425 18.2172 26.3642 17.6957C27.0827 17.6011 27.8011 17.5158 28.5155 17.3912C29.1972 17.2735 29.5707 16.7659 29.4952 16.129C29.4156 15.4506 28.9298 15.0399 28.2379 15.1299C24.9967 15.5545 21.7576 15.9929 18.5185 16.4244C14.8916 16.9089 11.2667 17.3912 7.63975 17.8734C7.21726 17.9288 6.78252 17.9311 6.37023 18.0442C4.72924 18.4895 3.57197 17.2896 2.27999 16.5536C2.20652 16.512 2.16774 16.3944 2.03711 16.2005C2.39429 15.9536 2.71269 15.6837 3.06375 15.4945C7.68465 12.9794 12.3096 10.4736 16.9346 7.96542C19.839 6.38947 22.7393 4.80428 25.6519 3.24678C27.7378 2.13231 29.836 2.13 31.9199 3.27909C39.2268 7.3055 46.5317 11.3342 53.8386 15.3653C54.1203 15.5199 54.3999 15.6906 54.6591 15.8844C54.9428 16.0967 54.9428 16.3621 54.6611 16.5836C54.4203 16.7751 54.1692 16.9597 53.9059 17.1073C51.5159 18.4433 49.1238 19.7747 46.7276 21.0968C41.7761 23.8242 36.8204 26.5492 31.8628 29.2674C29.7993 30.398 27.7052 30.4026 25.6437 29.295C20.1574 26.3485 14.6854 23.3719 9.20931 20.4046C9.05623 20.3169 8.90519 20.2154 8.62353 20.0447Z" fill="#AE85C9"/>
<path d="M11.6612 24.2695C13.9145 25.4832 16.1025 26.6623 18.2905 27.8414C20.4784 29.0228 22.6522 30.2457 24.8585 31.3786C27.4241 32.6962 30.0244 32.7492 32.5879 31.3463C36.6026 29.1474 40.6071 26.9207 44.6157 24.7056C44.8117 24.5972 45.0137 24.5003 45.277 24.3641C45.2913 24.6156 45.3117 24.8118 45.3117 25.0056C45.3138 29.2143 45.3199 33.4207 45.2995 37.6294C45.2974 37.9478 45.1791 38.3355 44.9933 38.5685C42.0787 42.2396 38.4967 44.7223 34.2595 45.8784C27.3057 47.775 20.8234 46.5429 15.0003 41.725C13.8737 40.7928 12.9103 39.6022 11.8939 38.5062C11.7408 38.3424 11.6285 38.0378 11.6285 37.7955C11.6122 33.3999 11.6183 29.0043 11.6183 24.6064C11.6204 24.528 11.6387 24.4472 11.6612 24.2695Z" fill="#AE85C9"/>
</g>
<defs>
<clipPath id="clip0_607_270">
<rect width="57" height="49" fill="white"/>
</clipPath>
</defs>
</svg>
