<svg width="60" height="59" viewBox="0 0 60 59" fill="none" xmlns="http://www.w3.org/2000/svg">
<path d="M26.27 32.7308C27.9246 32.7308 29.5069 32.7308 31.0909 32.7308C31.6711 32.7308 32.2513 32.7256 32.8298 32.7325C33.7664 32.7428 34.1883 33.1456 34.2675 34.0908C34.4069 35.7589 35.7826 36.8486 37.4337 36.6007C38.6234 36.4217 39.5325 35.406 39.6633 34.1097C39.7666 33.0768 40.1454 32.7342 41.2026 32.7325C43.6508 32.7308 46.0991 32.729 48.5474 32.7325C49.6665 32.7342 50.0987 33.1663 50.0987 34.3008C50.1004 42.0098 50.1004 49.717 50.0987 57.426C50.0987 58.5536 49.6597 58.9995 48.544 58.9995C32.8901 59.0012 17.2344 59.0012 1.58054 58.9995C0.421822 58.9995 0 58.5674 0 57.3916C0 41.7584 0 26.127 0 10.4956C0 9.32322 0.4201 8.89973 1.59432 8.89973C9.28181 8.89801 16.9693 8.89801 24.6585 8.89973C25.8672 8.89973 26.27 9.31462 26.27 10.5403C26.2718 12.9453 26.2718 15.3503 26.27 17.7552C26.2683 18.8553 25.936 19.2271 24.8668 19.3408C23.381 19.4974 22.3273 20.6543 22.3514 22.1021C22.3755 23.512 23.4533 24.6121 24.9271 24.7343C25.8586 24.8118 26.2666 25.2404 26.2683 26.189C26.2752 28.3323 26.27 30.479 26.27 32.7308ZM2.481 11.3632C2.481 18.5075 2.481 25.5985 2.481 32.7308C4.66931 32.7308 6.81286 32.7273 8.9564 32.7325C9.94812 32.7342 10.3441 33.1095 10.4371 34.1063C10.5765 35.5971 11.7129 36.6489 13.1746 36.6386C14.5933 36.6283 15.7107 35.5592 15.8347 34.0959C15.9173 33.1181 16.3288 32.7359 17.3257 32.7325C19.2575 32.7273 21.1892 32.7308 23.1227 32.7308C23.3483 32.7308 23.5738 32.7308 23.8321 32.7308C23.8321 30.8767 23.8407 29.1173 23.8166 27.3596C23.8149 27.2116 23.6255 27.0187 23.4757 26.931C22.9609 26.6297 22.3652 26.4403 21.9038 26.0771C20.3198 24.8272 19.681 23.1384 19.9978 21.1707C20.3043 19.2685 21.4509 17.9721 23.2364 17.2319C23.4585 17.1389 23.8011 16.9375 23.8045 16.7791C23.8441 14.9836 23.8304 13.188 23.8304 11.3632C16.6835 11.3632 9.60721 11.3632 2.481 11.3632ZM23.8321 35.165C22.0966 35.165 20.4661 35.1839 18.8356 35.1529C18.3415 35.1443 18.1022 35.2631 17.9128 35.7624C17.188 37.6784 15.7486 38.7819 13.7325 39.0246C11.6199 39.2777 9.74323 38.5323 8.85826 36.6352C8.17474 35.1667 7.27944 35.0548 5.99504 35.1529C5.09802 35.2218 4.1924 35.1667 3.29021 35.1667C3.0199 35.1667 2.74959 35.1667 2.481 35.1667C2.481 42.3437 2.481 49.4347 2.481 56.5136C9.61927 56.5136 16.711 56.5136 23.8321 56.5136C23.8321 54.298 23.8269 52.1306 23.8338 49.9632C23.8373 49.0835 24.2436 48.6462 25.0907 48.567C26.6781 48.419 27.718 47.3602 27.7352 45.8729C27.7525 44.3837 26.6988 43.3164 25.0528 43.158C24.2815 43.084 23.8579 42.6364 23.8355 41.8514C23.8218 41.3573 23.8321 40.8632 23.8321 40.3709C23.8321 38.658 23.8321 36.945 23.8321 35.165ZM47.6194 56.5291C47.6194 49.3882 47.6194 42.2955 47.6194 35.165C45.9218 35.165 44.2707 35.1839 42.6195 35.1529C42.1409 35.1443 41.9274 35.2717 41.7483 35.74C40.9753 37.7542 39.4653 38.8783 37.3252 39.0419C35.1111 39.2106 33.3825 38.2586 32.4459 36.2754C31.9965 35.3216 31.511 35.0841 30.5503 35.1443C29.1453 35.2304 27.7318 35.1667 26.2718 35.1667C26.2718 37.0208 26.2632 38.7991 26.289 40.5757C26.2907 40.7135 26.5076 40.8873 26.6643 40.9786C27.1791 41.2798 27.7697 41.4813 28.2276 41.8479C29.7806 43.0926 30.4142 44.7642 30.1043 46.7078C29.7961 48.6359 28.6409 49.9494 26.821 50.6828C26.6161 50.7654 26.301 50.9582 26.2976 51.1063C26.2614 52.9035 26.2735 54.7008 26.2735 56.5308C33.4135 56.5291 40.4915 56.5291 47.6194 56.5291Z" fill="black"/>
<path d="M45.8752 0.000765121C49.6991 0.000765121 53.5213 -0.000956401 57.3453 0.000765121C58.6004 0.000765121 58.9981 0.403601 58.9999 1.66548C59.0016 9.31076 59.0016 16.9578 58.9999 24.603C58.9999 25.8752 58.6107 26.266 57.3504 26.2677C55.3739 26.2695 53.3974 26.2781 51.4226 26.2609C51.0266 26.2574 50.832 26.3469 50.6857 26.7601C49.9419 28.8586 48.0704 30.1584 45.8631 30.1687C43.68 30.179 41.7964 28.8741 41.0406 26.7653C40.8942 26.3573 40.7066 26.2591 40.3071 26.2626C38.2875 26.2798 36.2697 26.2729 34.2501 26.2695C33.1671 26.2677 32.7333 25.8305 32.7298 24.739C32.7264 22.7197 32.7178 20.7021 32.7384 18.6827C32.7419 18.273 32.6196 18.1026 32.2236 17.958C30.1283 17.2022 28.837 15.3326 28.8301 13.1239C28.8232 10.9669 30.1145 9.08524 32.1926 8.34326C32.6713 8.17283 32.7401 7.93182 32.7367 7.5066C32.7212 5.59571 32.7298 3.6831 32.7298 1.77221C32.7298 0.367449 33.0862 0.00420816 34.4705 0.00248664C38.272 0.000765121 42.0736 0.000765121 45.8752 0.000765121ZM35.1678 23.8352C37.4215 23.8352 39.5874 23.8301 41.7534 23.837C42.659 23.8404 43.0877 24.2501 43.1634 25.1488C43.2943 26.6723 44.3773 27.7173 45.8442 27.7362C47.2904 27.7551 48.4302 26.6861 48.5645 25.1866C48.6523 24.2036 49.0535 23.837 50.0624 23.8352C51.9959 23.8318 53.9277 23.8335 55.8612 23.8335C56.0867 23.8335 56.3122 23.8335 56.5309 23.8335C56.5309 16.6548 56.5309 9.57587 56.5309 2.47631C49.4047 2.47631 42.3095 2.47631 35.1678 2.47631C35.1678 4.59379 35.1678 6.67338 35.1678 8.75126C35.1678 9.98904 34.8923 10.3006 33.675 10.4452C32.2684 10.6122 31.256 11.7519 31.2595 13.1635C31.2612 14.5235 32.2942 15.6666 33.6647 15.8267C34.8888 15.9696 35.1678 16.2795 35.1678 17.5086C35.1695 19.5917 35.1678 21.6713 35.1678 23.8352Z" fill="black"/>
<path d="M2.48047 11.3633C9.60668 11.3633 16.683 11.3633 23.8298 11.3633C23.8298 13.1881 23.8453 14.9836 23.804 16.7792C23.8006 16.9376 23.4579 17.139 23.2358 17.2319C21.4521 17.9722 20.3037 19.2685 19.9973 21.1708C19.6805 23.1385 20.3192 24.8273 21.9032 26.0771C22.3646 26.4404 22.9586 26.6315 23.4752 26.931C23.6267 27.0188 23.8143 27.2133 23.8161 27.3597C23.8402 29.1173 23.8316 30.875 23.8316 32.7308C23.5733 32.7308 23.3477 32.7308 23.1222 32.7308C21.1904 32.7308 19.2587 32.7274 17.3252 32.7325C16.3283 32.7343 15.9168 33.1164 15.8342 34.096C15.7102 35.5593 14.5928 36.6283 13.1741 36.6387C11.7123 36.649 10.576 35.5971 10.4366 34.1063C10.3436 33.1095 9.94758 32.7343 8.95587 32.7325C6.81232 32.7274 4.66706 32.7308 2.48047 32.7308C2.48047 25.6003 2.48047 18.5076 2.48047 11.3633Z" fill="white"/>
<path d="M23.8316 35.1651C23.8316 36.9451 23.8316 38.658 23.8316 40.3692C23.8316 40.8633 23.8212 41.3574 23.835 41.8497C23.8574 42.6365 24.2826 43.0823 25.0523 43.1564C26.6999 43.3147 27.7536 44.3821 27.7347 45.8712C27.7175 47.3569 26.6776 48.4173 25.0901 48.5654C24.243 48.6446 23.8367 49.0818 23.8333 49.9615C23.8264 52.1289 23.8316 54.2946 23.8316 56.5119C16.7122 56.5119 9.61873 56.5119 2.48047 56.5119C2.48047 49.433 2.48047 42.3421 2.48047 35.1651C2.74906 35.1651 3.01937 35.1651 3.28968 35.1651C4.19186 35.1651 5.09749 35.2201 5.99451 35.1513C7.27891 35.0532 8.17248 35.1651 8.85773 36.6335C9.7427 38.5306 11.6194 39.2778 13.7319 39.023C15.7498 38.7802 17.1874 37.6785 17.9123 35.7607C18.1017 35.2615 18.341 35.1427 18.8351 35.1513C20.4656 35.184 22.0961 35.1651 23.8316 35.1651Z" fill="white"/>
<path d="M47.6185 56.5295C40.4906 56.5295 33.4126 56.5295 26.2726 56.5295C26.2726 54.7013 26.2606 52.9023 26.2967 51.105C26.3002 50.957 26.6153 50.7642 26.8201 50.6815C28.6383 49.9482 29.7953 48.6329 30.1035 46.7065C30.4134 44.7629 29.7798 43.0913 28.2268 41.8467C27.7688 41.48 27.1783 41.2786 26.6635 40.9773C26.5085 40.8861 26.2898 40.7139 26.2881 40.5745C26.2623 38.7979 26.2709 37.0195 26.2709 35.1655C27.7309 35.1655 29.1445 35.2292 30.5494 35.1431C31.5101 35.0845 31.9956 35.3221 32.445 36.2741C33.3816 38.2573 35.1102 39.2093 37.3244 39.0406C39.4645 38.8788 40.9744 37.7529 41.7475 35.7387C41.9265 35.2705 42.14 35.1431 42.6187 35.1517C44.2698 35.1827 45.9209 35.1637 47.6185 35.1637C47.6185 42.296 47.6185 49.3887 47.6185 56.5295Z" fill="white"/>
<path d="M35.1681 23.8338C35.1681 21.6681 35.1681 19.5885 35.1681 17.5089C35.1681 16.2797 34.8892 15.9699 33.665 15.827C32.2945 15.6669 31.2615 14.5238 31.2598 13.1638C31.258 11.7521 32.2687 10.6125 33.6753 10.4455C34.8926 10.3009 35.1681 9.98928 35.1681 8.75151C35.1681 6.67191 35.1681 4.59403 35.1681 2.47656C42.3098 2.47656 49.4033 2.47656 56.5312 2.47656C56.5312 9.57612 56.5312 16.655 56.5312 23.8338C56.3126 23.8338 56.087 23.8338 55.8615 23.8338C53.928 23.8338 51.9962 23.832 50.0627 23.8355C49.0538 23.8372 48.6543 24.2039 48.5648 25.1869C48.4305 26.6863 47.2907 27.7537 45.8445 27.7365C44.3793 27.7175 43.2946 26.6708 43.1638 25.149C43.0863 24.2504 42.6576 23.8389 41.7537 23.8372C39.5877 23.8286 37.4218 23.8338 35.1681 23.8338Z" fill="#AE85C9"/>
</svg>
