<svg width="57" height="57" viewBox="0 0 57 57" fill="none" xmlns="http://www.w3.org/2000/svg">
<g clip-path="url(#clip0_607_330)">
<path d="M4.59375 54.4023C5.09046 54.4023 5.56189 54.4023 6.07645 54.4023C5.93368 54.9867 5.79835 55.5399 5.65707 56.1228C5.30759 56.1228 4.96703 56.1228 4.59375 56.1228C4.59375 55.5533 4.59375 54.9912 4.59375 54.4023Z" fill="white"/>
<path d="M0 23.2705C0.227536 22.5583 0.709377 22.0423 1.24773 21.5441C8.79062 14.5613 16.3231 7.56961 23.8601 0.579367C24.6914 -0.190883 25.1911 -0.19237 26.0135 0.570445C28.2591 2.6522 30.5047 4.73099 32.7518 6.80977C32.8842 6.93319 33.0254 7.0462 33.2262 7.22166C33.2426 6.98672 33.2634 6.83207 33.2649 6.67594C33.2693 5.65588 33.256 4.63582 33.2738 3.61576C33.2857 2.88268 33.711 2.39644 34.4368 2.38901C36.8118 2.36224 39.1868 2.36224 41.5618 2.38752C42.3455 2.39644 42.756 2.91391 42.7574 3.76148C42.7604 7.67519 42.7664 11.5904 42.75 15.5041C42.7485 15.9323 42.8794 16.2163 43.1917 16.5018C45.0536 18.2044 46.8962 19.9278 48.7448 21.6453C48.8935 21.7836 49.0481 21.9189 49.182 22.072C49.6043 22.5568 49.5939 23.2452 49.1701 23.6898C48.7388 24.1389 48.0726 24.1761 47.5565 23.7776C47.4688 23.7092 47.3899 23.6304 47.3082 23.5545C45.2291 21.6215 43.159 19.678 41.0636 17.7643C40.5847 17.3271 40.3795 16.8587 40.3824 16.2104C40.4033 12.6491 40.3928 9.08632 40.3928 5.52503C40.3928 5.30496 40.3928 5.08488 40.3928 4.81574C38.8075 4.81574 37.2609 4.81574 35.6324 4.81574C35.6324 4.99121 35.6324 5.18749 35.6324 5.38377C35.6324 6.83059 35.6205 8.27741 35.6384 9.72423C35.6458 10.3324 35.4956 10.8469 34.8993 11.0893C34.3371 11.3168 33.8731 11.1012 33.4404 10.6967C30.9047 8.32796 28.3557 5.97409 25.8112 3.61576C25.5405 3.36446 25.2669 3.11614 24.9412 2.81726C17.4519 9.76289 9.98035 16.6922 2.42705 23.6988C2.69623 23.7166 2.85089 23.7359 3.00704 23.7359C4.65928 23.7404 6.31003 23.7404 7.96227 23.7449C9.09698 23.7478 9.49256 24.1463 9.49256 25.2943C9.49405 30.9715 9.52082 36.6473 9.47621 42.3246C9.46282 43.9602 10.4577 45.1751 12.2884 45.1364C15.5721 45.0665 18.8572 45.1156 22.1424 45.1186C22.3818 45.1186 22.6272 45.1275 22.8592 45.181C23.408 45.3104 23.7396 45.758 23.7381 46.3141C23.7366 46.8702 23.4035 47.3148 22.8547 47.4442C22.6242 47.4992 22.3773 47.5066 22.1379 47.5066C18.8721 47.5111 15.6063 47.5096 12.3405 47.5096C9.09847 47.5081 7.12946 45.5498 7.12946 42.3246C7.12946 37.1677 7.12946 32.0094 7.12946 26.8526C7.12946 26.634 7.12946 26.4169 7.12946 26.1374C6.07952 26.1374 5.08461 26.1374 4.08821 26.1374C3.62422 26.1374 3.16022 26.124 2.69623 26.1404C1.32804 26.1894 0.459533 25.5322 0.00297433 24.2727C0 23.9382 0 23.6051 0 23.2705Z" fill="black"/>
<path d="M41.1991 57.0009C36.3376 53.2686 31.8464 49.1735 28.5017 43.9676C27.4027 42.2576 26.5744 40.4286 26.2293 38.3989C25.4575 33.8592 28.8349 29.2303 33.3945 28.6161C36.577 28.1864 39.2376 29.1767 41.3627 31.5886C41.4118 31.6436 41.4668 31.6927 41.5204 31.7432C41.5337 31.7551 41.5546 31.7581 41.4252 31.7061C42.429 30.9477 43.299 30.1195 44.3162 29.5514C47.4021 27.828 51.1572 28.2459 53.8936 30.4986C56.569 32.7023 57.6353 36.3008 56.621 39.6985C55.7376 42.6546 54.0304 45.1364 52.0956 47.4769C49.2566 50.9073 45.9804 53.8857 42.4736 56.6173C42.2848 56.7645 42.0691 56.876 41.8669 57.0024C41.6453 57.0009 41.4222 57.0009 41.1991 57.0009ZM41.4906 54.3496C41.6542 54.2351 41.7315 54.1861 41.8014 54.131C45.0643 51.511 48.0966 48.6545 50.7214 45.3862C52.2116 43.5304 53.55 41.5736 54.2728 39.2703C54.9926 36.9788 54.6654 34.8599 53.0771 33.022C50.1801 29.6689 44.804 30.3678 42.7889 34.3201C42.6164 34.6577 42.3219 35.0131 41.9933 35.1707C41.3211 35.4949 40.7589 35.1647 40.3351 34.3261C38.9446 31.5797 35.8126 30.2459 32.9097 31.1633C29.9324 32.1031 28.1255 35.0027 28.591 38.0792C28.8051 39.4948 29.3747 40.7781 30.0826 42.0018C31.8419 45.0501 34.1857 47.6285 36.7079 50.0448C38.2575 51.5303 39.8979 52.9206 41.4906 54.3496Z" fill="black"/>
<path d="M41.4895 54.3478C39.8953 52.9203 38.2549 51.53 36.7053 50.0445C34.1831 47.6282 31.8408 45.0483 30.08 42.0015C29.3736 40.7777 28.804 39.4959 28.5884 38.0788C28.1229 35.0038 29.9298 32.1027 32.9071 31.163C35.8115 30.2455 38.942 31.5793 40.3325 34.3257C40.7563 35.1629 41.3185 35.4945 41.9907 35.1703C42.3193 35.0112 42.6153 34.6558 42.7863 34.3198C44.8014 30.3674 50.1775 29.6685 53.0745 33.0217C54.6628 34.8581 54.99 36.9785 54.2702 39.2699C53.5459 41.5732 52.209 43.5301 50.7188 45.3858C48.094 48.6527 45.0617 51.5106 41.7988 54.1307C41.7304 54.1842 41.6546 54.2318 41.4895 54.3478Z" fill="#AE85C9"/>
</g>
<defs>
<clipPath id="clip0_607_330">
<rect width="57" height="57" fill="white"/>
</clipPath>
</defs>
</svg>
