<svg width="57" height="57" viewBox="0 0 57 57" fill="none" xmlns="http://www.w3.org/2000/svg">
<g clip-path="url(#clip0_607_285)">
<path d="M28.4679 47.5088C20.288 47.5088 12.1081 47.5105 3.92824 47.5072C1.92473 47.5072 0.520347 46.5083 0.101609 44.7748C0.0178611 44.4284 0.00336629 44.0578 0.00336629 43.6985C0.000145222 32.7832 -0.00146531 21.8678 0.00175575 10.9524C0.00336629 8.57761 1.45929 7.13888 3.84449 7.13888C9.55222 7.13727 15.2599 7.13888 20.9677 7.13888C21.169 7.13888 21.3719 7.1276 21.57 7.1566C22.1176 7.23716 22.5428 7.73822 22.5524 8.29244C22.5621 8.81606 22.182 9.33484 21.665 9.44117C21.3929 9.49756 21.1062 9.49434 20.826 9.49434C15.239 9.49756 9.65207 9.49595 4.06352 9.49756C2.70745 9.49756 2.35636 9.85201 2.35636 11.215C2.35636 21.95 2.35636 32.6849 2.35636 43.4182C2.35636 44.778 2.7155 45.1373 4.06835 45.1389C20.3476 45.1389 36.6269 45.1389 52.9062 45.1389C54.2558 45.1389 54.6182 44.7764 54.6198 43.4198C54.6198 37.0478 54.6198 30.6742 54.6214 24.3022C54.6214 24.0412 54.6133 23.777 54.6536 23.5208C54.7422 22.9585 55.2286 22.5751 55.8067 22.5799C56.3833 22.5847 56.8616 22.9762 56.9486 23.5369C56.9824 23.7544 56.9744 23.9784 56.9744 24.1991C56.976 30.6516 56.9325 37.1058 56.9985 43.5568C57.0211 45.7608 55.4975 47.5411 53.0076 47.5266C44.8277 47.4782 36.6478 47.5088 28.4679 47.5088Z" fill="black"/>
<path d="M26.391 23.7048C26.5972 23.1458 26.7228 22.6834 26.937 22.2661C27.156 21.8408 27.462 21.4605 27.7278 21.0577C28.1111 20.4745 27.7954 19.7125 27.1126 19.5675C26.602 19.4595 26.0866 19.3757 25.5825 19.2436C24.4906 18.9552 23.79 18.0981 23.7594 16.98C23.732 15.9553 23.7304 14.9306 23.7594 13.906C23.7916 12.7427 24.5421 11.8711 25.6921 11.6069C26.0834 11.5167 26.478 11.4442 26.871 11.3684C27.9001 11.1703 28.2174 10.4775 27.5957 9.64132C26.0013 7.49852 26.1817 6.38684 28.1014 4.68227C28.5057 4.32299 28.8664 3.91377 29.2562 3.53676C30.1613 2.66031 31.3273 2.54109 32.3967 3.21615C32.7365 3.43043 33.0651 3.66243 33.3985 3.88476C34.2247 4.43738 34.9011 4.14899 35.0976 3.15976C35.1878 2.70703 35.257 2.24947 35.373 1.80319C35.6323 0.801071 36.5197 0.0599536 37.5536 0.0277311C38.6375 -0.0061025 39.723 -0.00771363 40.8069 0.0293423C41.8296 0.064787 42.688 0.772071 42.957 1.75969C43.1084 2.32036 43.1986 2.89715 43.3194 3.46587C43.4385 4.02332 44.2277 4.34716 44.7109 4.03621C45.1328 3.76393 45.5419 3.47232 45.9655 3.20487C46.9817 2.56203 48.1445 2.64742 49.0158 3.46748C49.747 4.15543 50.4556 4.86916 51.1465 5.59739C51.9389 6.43357 52.0388 7.60646 51.4332 8.59569C51.2126 8.95498 50.971 9.30137 50.7375 9.65259C50.1738 10.5 50.454 11.1671 51.4542 11.3636C51.8278 11.4377 52.2031 11.507 52.5751 11.5924C53.8297 11.8759 54.5705 12.7315 54.6108 14.0026C54.6414 14.9661 54.6414 15.9328 54.6092 16.8962C54.5673 18.1352 53.8281 19.0052 52.6202 19.2936C52.2304 19.387 51.8342 19.4563 51.4413 19.5385C50.4395 19.7463 50.1786 20.3891 50.7471 21.243C50.9807 21.5943 51.2239 21.939 51.4429 22.2999C52.0452 23.2924 51.9389 24.4556 51.1401 25.2998C50.4637 26.0152 49.7647 26.708 49.0528 27.3895C48.1928 28.2128 47.0187 28.3223 46.0073 27.6988C45.6659 27.4877 45.3357 27.259 45.0008 27.0366C44.1182 26.4502 43.4675 26.7128 43.2501 27.7439C43.1631 28.1564 43.0971 28.5736 42.9924 28.9813C42.7025 30.1219 41.8312 30.8469 40.6555 30.884C39.6715 30.9146 38.6858 30.913 37.7034 30.884C36.502 30.8486 35.6162 30.101 35.3424 28.9362C35.2457 28.5269 35.1749 28.1096 35.0911 27.6972C34.8947 26.7337 34.2198 26.4518 33.4114 26.9947C33.0442 27.2412 32.6834 27.4974 32.3049 27.7246C31.3177 28.3143 30.1935 28.2224 29.356 27.4426C28.6071 26.745 27.8534 26.041 27.1947 25.2596C26.8291 24.8181 26.6519 24.2236 26.391 23.7048ZM47.2104 5.27678C46.6564 5.63284 45.9735 6.05495 45.3084 6.50445C44.7898 6.85407 44.2921 6.88951 43.7284 6.5979C43.2324 6.34012 42.7057 6.12906 42.1759 5.95184C41.5735 5.75045 41.2498 5.36539 41.1484 4.74672C41.0437 4.11354 40.8923 3.48682 40.786 2.85364C40.7344 2.54431 40.6104 2.40897 40.2771 2.4122C39.5539 2.42025 38.8292 2.36547 38.1077 2.39125C37.9466 2.3977 37.6986 2.60553 37.6535 2.76664C37.4618 3.44171 37.3137 4.12966 37.1864 4.82083C37.0737 5.42339 36.7323 5.76495 36.1621 5.95667C35.6323 6.13551 35.1072 6.34818 34.608 6.60273C34.0427 6.89112 33.545 6.85729 33.0297 6.4964C32.379 6.03884 31.7074 5.61028 31.0245 5.15594C30.3223 5.90512 29.6653 6.60273 28.9743 7.34063C29.3818 7.97219 29.8199 8.6682 30.2756 9.35131C30.5945 9.83143 30.6219 10.3019 30.3674 10.8271C30.1065 11.3668 29.8859 11.9291 29.6781 12.493C29.4881 13.0086 29.1612 13.3324 28.6103 13.4371C27.8067 13.5902 27.0063 13.7642 26.164 13.9366C26.164 14.9339 26.164 15.8909 26.164 16.9043C26.9467 17.0734 27.7439 17.2571 28.5475 17.4182C29.1354 17.5374 29.5026 17.8629 29.6942 18.4381C29.8633 18.9504 30.0518 19.466 30.3079 19.9396C30.6461 20.568 30.5881 21.1093 30.179 21.6764C29.7345 22.2903 29.3335 22.9347 28.8809 23.613C29.6363 24.2945 30.3481 24.9389 31.1067 25.6237C31.7026 25.2418 32.4032 24.8101 33.0828 24.3493C33.5869 24.0077 34.0684 23.9964 34.6096 24.2687C35.1282 24.5297 35.6709 24.7472 36.2169 24.9406C36.7629 25.1339 37.0801 25.4787 37.1864 26.0538C37.333 26.8562 37.5118 27.6537 37.6793 28.4689C38.702 28.4689 39.6618 28.4689 40.6459 28.4689C40.823 27.6505 41.0018 26.8497 41.1661 26.0458C41.282 25.4835 41.588 25.1242 42.1437 24.9357C42.6929 24.7504 43.2388 24.5378 43.7542 24.2736C44.3227 23.9836 44.8171 24.019 45.3293 24.3863C45.8688 24.7714 46.4212 25.1387 46.9881 25.4819C47.1218 25.5625 47.4117 25.5995 47.4922 25.519C48.1268 24.8809 48.7275 24.2091 49.3669 23.5163C48.9707 22.9025 48.5343 22.2049 48.0769 21.5201C47.7564 21.0384 47.7226 20.5744 47.9883 20.0476C48.2492 19.5304 48.4747 18.9891 48.6599 18.4397C48.8628 17.8387 49.2477 17.5133 49.8646 17.4102C50.5168 17.3006 51.1691 17.1765 51.8117 17.0203C51.9631 16.9832 52.1853 16.7963 52.1886 16.6723C52.2208 15.7716 52.2063 14.871 52.2063 13.935C51.3897 13.7658 50.5909 13.5837 49.784 13.4403C49.2042 13.3372 48.866 13.0134 48.6712 12.4721C48.4763 11.9259 48.275 11.3749 48.0108 10.8593C47.7193 10.2906 47.7596 9.79921 48.1236 9.28526C48.5745 8.64725 48.9916 7.98669 49.4474 7.30035C48.7162 6.6414 48.0044 5.99534 47.2104 5.27678Z" fill="black"/>
<path d="M33.1916 36.8227C38.2761 36.8227 43.3622 36.8211 48.4466 36.8243C49.2712 36.8243 49.7624 37.1948 49.8381 37.8522C49.9106 38.4805 49.5466 39.017 48.9265 39.1459C48.6737 39.1991 48.408 39.1975 48.147 39.1975C38.1972 39.1991 28.2489 39.1991 18.299 39.1991C18.2588 39.1991 18.2185 39.1991 18.1782 39.1991C17.1668 39.1926 16.6305 38.7802 16.6289 38.0068C16.6273 37.2319 17.1604 36.8243 18.175 36.8227C23.1822 36.8227 28.1861 36.8227 33.1916 36.8227Z" fill="black"/>
<path d="M21.3697 54.6387C21.3697 53.4078 21.3568 52.2494 21.3745 51.0894C21.3841 50.4191 21.8593 49.9261 22.4809 49.8826C23.0543 49.8424 23.5745 50.2371 23.6953 50.8332C23.742 51.0668 23.7452 51.3117 23.7452 51.5518C23.75 52.5539 23.7468 53.5544 23.7468 54.5968C26.9244 54.5968 30.044 54.5968 33.228 54.5968C33.228 53.7445 33.2264 52.9244 33.2296 52.1044C33.2312 51.7225 33.2103 51.3375 33.2554 50.9605C33.3327 50.2967 33.8722 49.844 34.4858 49.881C35.1139 49.9197 35.5874 50.403 35.6019 51.0781C35.6213 52.0222 35.6084 52.9663 35.6084 53.9104C35.6084 54.1263 35.6084 54.3438 35.6084 54.65C36.4587 54.65 37.2576 54.6274 38.0532 54.658C38.6652 54.6822 39.0807 55.0833 39.1483 55.6617C39.2144 56.2224 38.9857 56.6494 38.4735 56.883C38.2819 56.97 38.0467 56.9941 37.8309 56.9958C31.6062 57.0022 25.3799 57.0022 19.1552 56.9974C18.3177 56.9974 17.7878 56.5027 17.8072 55.7922C17.8249 55.0995 18.3322 54.658 19.1536 54.6435C19.8686 54.629 20.5869 54.6387 21.3697 54.6387Z" fill="black"/>
<path d="M10.078 36.8225C10.6594 36.8225 11.2408 36.8113 11.8206 36.8258C12.5308 36.8435 13.0269 37.3155 13.0462 37.9664C13.0655 38.6125 12.5953 39.1571 11.8915 39.178C10.69 39.2151 9.48693 39.2151 8.28548 39.1796C7.56718 39.1587 7.11784 38.6415 7.12911 37.9777C7.14039 37.293 7.6316 36.8386 8.39338 36.8241C8.95546 36.8145 9.51592 36.8225 10.078 36.8225Z" fill="black"/>
<path d="M47.2118 5.27725C48.0058 5.99581 48.7176 6.64187 49.4456 7.30082C48.9898 7.98877 48.5727 8.64933 48.1217 9.28572C47.7594 9.79967 47.7175 10.2911 48.009 10.8598C48.2731 11.3754 48.4744 11.9247 48.6693 12.4725C48.8626 13.0155 49.2024 13.3377 49.7822 13.4408C50.5891 13.5842 51.3879 13.7679 52.2044 13.9354C52.2044 14.8715 52.2189 15.7721 52.1867 16.6727C52.1819 16.7968 51.9596 16.9837 51.8099 17.0207C51.1673 17.177 50.515 17.3011 49.8627 17.4106C49.2459 17.5137 48.861 17.8392 48.658 18.4401C48.4728 18.9895 48.2474 19.5309 47.9865 20.048C47.7207 20.5733 47.7545 21.0389 48.075 21.5206C48.5324 22.2053 48.9689 22.9013 49.3651 23.5168C48.7257 24.2096 48.125 24.8814 47.4904 25.5194C47.4099 25.6 47.12 25.5629 46.9863 25.4824C46.4194 25.1392 45.867 24.7719 45.3275 24.3868C44.8153 24.0211 44.3209 23.984 43.7524 24.274C43.237 24.5382 42.691 24.7509 42.1418 24.9362C41.5862 25.1247 41.2786 25.484 41.1642 26.0463C41 26.8502 40.8212 27.6509 40.644 28.4694C39.66 28.4694 38.7001 28.4694 37.6774 28.4694C37.5099 27.6542 37.3312 26.8567 37.1846 26.0543C37.0799 25.4791 36.7626 25.1344 36.2151 24.941C35.6675 24.7477 35.1247 24.5302 34.6077 24.2692C34.0666 23.9969 33.5851 24.0082 33.081 24.3497C32.3997 24.8105 31.7007 25.2423 31.1048 25.6241C30.3479 24.9394 29.6344 24.295 28.8791 23.6135C29.3316 22.9352 29.7327 22.2907 30.1772 21.6769C30.5879 21.1114 30.6458 20.5684 30.306 19.9401C30.0499 19.4664 29.8631 18.9509 29.6924 18.4385C29.5024 17.8634 29.1352 17.5363 28.5457 17.4187C27.7437 17.2576 26.9448 17.0739 26.1621 16.9047C26.1621 15.8913 26.1621 14.9327 26.1621 13.937C27.006 13.763 27.8049 13.5907 28.6085 13.4376C29.1593 13.3329 29.4846 13.009 29.6763 12.4935C29.8841 11.9296 30.1047 11.3673 30.3656 10.8276C30.6201 10.3023 30.5927 9.8319 30.2738 9.35178C29.8196 8.66866 29.3816 7.97266 28.9725 7.3411C29.665 6.6032 30.3205 5.90397 31.0227 5.15641C31.7056 5.61075 32.3772 6.03931 33.0278 6.49687C33.5432 6.85776 34.0408 6.89159 34.6061 6.6032C35.1054 6.34864 35.6288 6.13598 36.1603 5.95714C36.7304 5.76542 37.0719 5.42386 37.1846 4.8213C37.3134 4.13174 37.4616 3.44217 37.6517 2.76711C37.6967 2.606 37.9448 2.39816 38.1058 2.39172C38.8273 2.36594 39.5521 2.42072 40.2752 2.41266C40.6086 2.40944 40.7326 2.54478 40.7841 2.85411C40.8904 3.48729 41.0418 4.1124 41.1465 4.74718C41.248 5.36586 41.5717 5.75092 42.174 5.95231C42.7055 6.12953 43.2305 6.34059 43.7266 6.59837C44.2903 6.88998 44.7895 6.85454 45.3065 6.50492C45.9733 6.05542 46.6561 5.6333 47.2118 5.27725ZM32.0325 15.4306C32.0808 15.8688 32.0937 16.3151 32.1807 16.7452C32.9811 20.6522 36.571 23.1317 40.4379 22.4583C44.2065 21.8026 46.7335 18.25 46.21 14.3398C46.0957 13.4811 45.5433 12.9752 44.833 13.0783C44.1083 13.183 43.7185 13.8146 43.8522 14.6637C44.2613 17.264 42.604 19.6082 39.9998 20.1109C37.5663 20.5813 35.0812 18.9331 34.5417 16.4891C33.9829 13.9612 35.4984 11.4559 38.0253 10.8598C38.7082 10.6987 39.4538 10.776 40.1705 10.7889C40.9565 10.8034 41.5041 10.3797 41.5314 9.67562C41.5588 8.96189 41.1127 8.52205 40.2269 8.38672C35.9606 7.73421 32.0663 11.0918 32.0325 15.4306Z" fill="#AE85C9"/>
<path d="M32.0312 15.4292C32.0667 11.0904 35.9593 7.73281 40.2273 8.3837C41.113 8.51904 41.5592 8.95887 41.5318 9.6726C41.5044 10.3767 40.9584 10.8004 40.1709 10.7859C39.4542 10.773 38.7085 10.6957 38.0257 10.8568C35.4971 11.4529 33.9832 13.9582 34.5405 16.4861C35.08 18.9285 37.565 20.5767 39.9986 20.1079C42.6028 19.6052 44.26 17.261 43.851 14.6606C43.7173 13.8116 44.1086 13.18 44.8318 13.0753C45.542 12.9722 46.0944 13.4781 46.2088 14.3368C46.7322 18.247 44.2053 21.7995 40.4366 22.4553C36.5697 23.1271 32.9799 20.6492 32.1794 16.7422C32.0908 16.3137 32.078 15.8674 32.0312 15.4292Z" fill="black"/>
</g>
<defs>
<clipPath id="clip0_607_285">
<rect width="57" height="57" fill="white"/>
</clipPath>
</defs>
</svg>
