<?xml version="1.0" encoding="utf-8"?>
<!-- Generator: Adobe Illustrator 24.0.2, SVG Export Plug-In . SVG Version: 6.00 Build 0)  -->
<svg version="1.1" id="Layer_1" xmlns="http://www.w3.org/2000/svg" xmlns:xlink="http://www.w3.org/1999/xlink" x="0px" y="0px"
	 viewBox="0 0 180 80" style="enable-background:new 0 0 180 80;" xml:space="preserve">
<style type="text/css">
	.st0{fill:none;stroke:#333333;stroke-width:4;stroke-miterlimit:10;}
	.st1{fill:#333333;stroke:#333333;stroke-width:2;stroke-miterlimit:10;}
	.st2{font-family:'NotoSansKR-Bold-KSCpc-EUC-H';}
	.st3{font-size:35.5537px;}
</style>
<path class="st0" d="M25.82,20.35c-0.01-4.7,3.8-8.51,8.49-8.51"/>
<path class="st0" d="M15.53,50.29c-4.7,0-8.5-3.81-8.5-8.5s3.81-8.5,8.5-8.5s8.5,3.81,8.5,8.5"/>
<path class="st0" d="M24.04,41.79c0-4.7,3.81-8.5,8.5-8.5s8.5,3.81,8.5,8.5s-3.81,8.5-8.5,8.5"/>
<path class="st0" d="M24.04,38.99"/>
<g>
	<path class="st0" d="M24.04,60.21c-4.28,0-7.75-3.47-7.75-7.75s3.47-7.75,7.75-7.75"/>
	<path class="st0" d="M24.04,60.21c4.28,0,7.75-3.47,7.75-7.75s-3.47-7.75-7.75-7.75"/>
</g>
<g>
	<path class="st0" d="M16.35,31.11c0-4.21,3.41-7.62,7.62-7.62"/>
	<path class="st0" d="M23.97,38.74"/>
	<path class="st0" d="M31.59,31.11c0-4.21-3.41-7.62-7.62-7.62"/>
	<path class="st0" d="M23.97,38.74"/>
</g>
<g>
	<path class="st0" d="M40.58,38.99c3.64-2.56,4.51-7.58,1.95-11.21c-2.56-3.64-7.58-4.51-11.21-1.95"/>
	<path class="st0" d="M31.32,25.83"/>
	<path class="st0" d="M29.37,37.04"/>
	<path class="st0" d="M40.58,38.99"/>
</g>
<g>
	<path class="st0" d="M7.42,38.79c-3.64-2.56-4.51-7.58-1.95-11.21s7.58-4.51,11.21-1.95"/>
	<path class="st0" d="M16.68,25.62"/>
	<path class="st0" d="M18.63,36.83"/>
	<path class="st0" d="M7.42,38.79"/>
</g>
<g>
	<text transform="matrix(0.94 0 0 1 52.0942 51.8105)" class="st1 st2 st3">Gummi</text>
</g>
</svg>
