<?xml version="1.0" encoding="utf-8"?>
<!-- Generator: Adobe Illustrator 24.0.2, SVG Export Plug-In . SVG Version: 6.00 Build 0)  -->
<svg version="1.1" id="Layer_1" xmlns="http://www.w3.org/2000/svg" xmlns:xlink="http://www.w3.org/1999/xlink" x="0px" y="0px"
	 viewBox="0 0 180 54.1" style="enable-background:new 0 0 180 54.1;" xml:space="preserve">
<style type="text/css">
	.st0{fill:none;stroke:#31302B;stroke-width:4;stroke-miterlimit:10;}
	.st1{fill:#31302B;stroke:#31302B;stroke-width:2;stroke-miterlimit:10;}
	.st2{fill:#AE85C9;}
</style>
<g>
	<path class="st0" d="M23.2,12c0-4.5,3.6-8.2,8.1-8.2"/>
	<path class="st0" d="M13.4,40.7c-4.5,0-8.1-3.7-8.1-8.1s3.7-8.1,8.1-8.1s8.1,3.7,8.1,8.1"/>
	<path class="st0" d="M21.5,32.6c0-4.5,3.7-8.1,8.1-8.1s8.1,3.7,8.1,8.1s-3.7,8.1-8.1,8.1"/>
	<path class="st0" d="M21.5,29.9"/>
	<g>
		<path class="st0" d="M21.5,50.3c-4.1,0-7.4-3.3-7.4-7.4s3.3-7.4,7.4-7.4"/>
		<path class="st0" d="M21.5,50.3c4.1,0,7.4-3.3,7.4-7.4s-3.3-7.4-7.4-7.4"/>
	</g>
	<g>
		<path class="st0" d="M14.2,22.4c0-4,3.3-7.3,7.3-7.3"/>
		<path class="st0" d="M21.5,29.7"/>
		<path class="st0" d="M28.8,22.4c0-4-3.3-7.3-7.3-7.3"/>
		<path class="st0" d="M21.5,29.7"/>
	</g>
	<g>
		<path class="st0" d="M37.4,29.9c3.5-2.5,4.3-7.3,1.9-10.7c-2.5-3.5-7.3-4.3-10.7-1.9"/>
		<path class="st0" d="M28.5,17.3"/>
		<path class="st0" d="M26.6,28"/>
		<path class="st0" d="M37.4,29.9"/>
	</g>
	<g>
		<path class="st0" d="M5.6,29.7C2.1,27.3,1.3,22.5,3.7,19s7.3-4.3,10.7-1.9"/>
		<path class="st0" d="M14.5,17.1"/>
		<path class="st0" d="M16.3,27.8"/>
		<path class="st0" d="M5.6,29.7"/>
	</g>
</g>
<g>
	<path class="st1" d="M50.2,32.2c0-8.3,5.1-13.2,11.4-13.2c3.4,0,5.8,1.6,7.3,3.2l-2.5,3.2c-1.2-1.2-2.5-2.1-4.7-2.1
		c-3.9,0-6.7,3.3-6.7,8.7c0,5.5,2.4,8.8,7,8.8c1.1,0,2.3-0.3,2.9-1v-5h-4.2v-4.1h8.4v11.4c-1.6,1.7-4.4,3-7.7,3
		C55.1,45.2,50.2,40.7,50.2,32.2z"/>
	<path class="st1" d="M73.7,37.6V25.7h4.7V37c0,2.9,0.8,4,2.5,4c1.5,0,2.4-0.7,3.7-2.4V25.7h4.7v19.1h-3.8l-0.4-2.7H85
		c-1.5,1.9-3.3,3.2-5.7,3.2C75.4,45.2,73.7,42.4,73.7,37.6z"/>
	<path class="st1" d="M94.3,25.7h3.8l0.4,2.6h0.1c1.5-1.7,3.2-3,5.5-3c2.6,0,4.1,1.2,4.9,3.3c1.6-1.8,3.4-3.3,5.7-3.3
		c3.8,0,5.6,2.9,5.6,7.7v11.9h-4.7V33.5c0-3-0.8-4-2.5-4c-1,0-2.2,0.7-3.5,2.1v13.1H105V33.5c0-3-0.8-4-2.5-4c-1,0-2.2,0.7-3.4,2.1
		v13.1h-4.7C94.3,44.7,94.3,25.7,94.3,25.7z"/>
	<path class="st1" d="M125.2,25.7h3.8l0.4,2.6h0.1c1.5-1.7,3.2-3,5.5-3c2.6,0,4.1,1.2,4.9,3.3c1.6-1.8,3.4-3.3,5.7-3.3
		c3.8,0,5.6,2.9,5.6,7.7v11.9h-4.7V33.5c0-3-0.8-4-2.5-4c-1,0-2.2,0.7-3.5,2.1v13.1h-4.7V33.5c0-3-0.8-4-2.5-4c-1,0-2.2,0.7-3.4,2.1
		v13.1h-4.7L125.2,25.7L125.2,25.7z"/>
	<path class="st1" d="M155.7,19.8c0-1.6,1.1-2.7,2.8-2.7c1.6,0,2.7,1.1,2.7,2.7c0,1.7-1.1,2.8-2.7,2.8
		C156.9,22.6,155.7,21.5,155.7,19.8z M156.1,25.7h4.7v19.1h-4.7V25.7z"/>
</g>
<g>
	<path class="st2" d="M109.9,22.9h-1.8v-6.7H107v6.1h-1.8v-3.8l-1.1,1.4c-1.2-0.7-2-1.8-2.5-3.1c-0.4,1.6-1.2,2.9-2.5,3.6L98,18.9
		c2-1.1,2.7-3.5,2.7-6v-0.4h-2.3V11h6.1v1.5h-2v0.4c0,2.3,0.7,4.5,2.7,5.6V9.8h1.8v4.9h1.1V9.6h1.8V22.9z"/>
	<path class="st2" d="M123.4,17.1h-12.2v-1.5h12.2V17.1z M121.9,20.4c0,1.6-1.8,2.5-4.6,2.5c-2.9,0-4.7-0.9-4.7-2.5
		c0-1.6,1.8-2.5,4.7-2.5C120.2,17.9,121.9,18.8,121.9,20.4z M122.1,14.4h-9.3V9.8h1.9v3.1h7.4V14.4z M114.5,20.4
		c0,0.7,0.9,1.1,2.8,1.1c1.8,0,2.8-0.4,2.8-1.1c0-0.7-1-1-2.8-1C115.5,19.4,114.5,19.7,114.5,20.4z"/>
	<path class="st2" d="M125.2,20.6l-1-1.5c3.4-1.6,5-3.7,5.3-6.7H125V11h6.4C131.4,15,130,18.4,125.2,20.6z M135.4,22.9h-1.9V9.6h1.9
		V22.9z"/>
	<path class="st2" d="M149.4,18.7h-5.2v4.2h-1.8v-4.2h-5.1v-1.5h12.2V18.7z M140.4,11.6h5.6v-1.5h1.9V16h-9.3v-5.9h1.8V11.6z
		 M146,14.5v-1.4h-5.6v1.4H146z"/>
</g>
<circle class="st2" cx="158.4" cy="19.9" r="4"/>
</svg>
