<?xml version="1.0" encoding="utf-8"?>
<!-- Generator: Adobe Illustrator 24.0.2, SVG Export Plug-In . SVG Version: 6.00 Build 0)  -->
<svg version="1.1" id="Layer_1" xmlns="http://www.w3.org/2000/svg" xmlns:xlink="http://www.w3.org/1999/xlink" x="0px" y="0px"
	 viewBox="0 0 180 54.1" style="enable-background:new 0 0 180 54.1;" xml:space="preserve">
<style type="text/css">
	.st0{fill:none;stroke:#31302B;stroke-width:4;stroke-miterlimit:10;}
	.st1{fill:#31302B;stroke:#31302B;stroke-width:2;stroke-miterlimit:10;}
</style>
<g>
	<path class="st0" d="M23.2,12c0-4.5,3.6-8.2,8.1-8.2"/>
	<path class="st0" d="M13.4,40.7c-4.5,0-8.1-3.7-8.1-8.1s3.7-8.1,8.1-8.1s8.1,3.7,8.1,8.1"/>
	<path class="st0" d="M21.5,32.6c0-4.5,3.7-8.1,8.1-8.1s8.1,3.7,8.1,8.1s-3.7,8.1-8.1,8.1"/>
	<path class="st0" d="M21.5,29.9"/>
	<g>
		<path class="st0" d="M21.5,50.3c-4.1,0-7.4-3.3-7.4-7.4s3.3-7.4,7.4-7.4"/>
		<path class="st0" d="M21.5,50.3c4.1,0,7.4-3.3,7.4-7.4s-3.3-7.4-7.4-7.4"/>
	</g>
	<g>
		<path class="st0" d="M14.2,22.4c0-4,3.3-7.3,7.3-7.3"/>
		<path class="st0" d="M21.5,29.7"/>
		<path class="st0" d="M28.8,22.4c0-4-3.3-7.3-7.3-7.3"/>
		<path class="st0" d="M21.5,29.7"/>
	</g>
	<g>
		<path class="st0" d="M37.4,29.9c3.5-2.5,4.3-7.3,1.9-10.7c-2.5-3.5-7.3-4.3-10.7-1.9"/>
		<path class="st0" d="M28.5,17.3"/>
		<path class="st0" d="M26.6,28"/>
		<path class="st0" d="M37.4,29.9"/>
	</g>
	<g>
		<path class="st0" d="M5.6,29.7C2.1,27.3,1.3,22.5,3.7,19s7.3-4.3,10.7-1.9"/>
		<path class="st0" d="M14.5,17.1"/>
		<path class="st0" d="M16.3,27.8"/>
		<path class="st0" d="M5.6,29.7"/>
	</g>
</g>
<g>
	<path class="st1" d="M50.2,28.1c0-8.3,5.1-13.2,11.4-13.2c3.4,0,5.8,1.6,7.3,3.2l-2.5,3.2c-1.2-1.2-2.5-2.1-4.7-2.1
		c-3.9,0-6.7,3.3-6.7,8.7c0,5.5,2.4,8.8,7,8.8c1.1,0,2.3-0.3,2.9-1v-5h-4.2v-4.1h8.4v11.4c-1.6,1.7-4.4,3-7.7,3
		C55.1,41.1,50.2,36.6,50.2,28.1z"/>
	<path class="st1" d="M73.7,33.5V21.6h4.7v11.3c0,2.9,0.8,4,2.5,4c1.5,0,2.4-0.7,3.7-2.4V21.6h4.7v19.1h-3.8l-0.4-2.7H85
		c-1.5,1.9-3.3,3.2-5.7,3.2C75.4,41.1,73.7,38.3,73.7,33.5z"/>
	<path class="st1" d="M94.3,21.6h3.8l0.4,2.6h0.1c1.5-1.7,3.2-3,5.5-3c2.6,0,4.1,1.2,4.9,3.3c1.6-1.8,3.4-3.3,5.7-3.3
		c3.8,0,5.6,2.9,5.6,7.7v11.9h-4.7V29.4c0-3-0.8-4-2.5-4c-1,0-2.2,0.7-3.5,2.1v13.1H105V29.4c0-3-0.8-4-2.5-4c-1,0-2.2,0.7-3.4,2.1
		v13.1h-4.7C94.3,40.6,94.3,21.6,94.3,21.6z"/>
	<path class="st1" d="M125.2,21.6h3.8l0.4,2.6h0.1c1.5-1.7,3.2-3,5.5-3c2.6,0,4.1,1.2,4.9,3.3c1.6-1.8,3.4-3.3,5.7-3.3
		c3.8,0,5.6,2.9,5.6,7.7v11.9h-4.7V29.4c0-3-0.8-4-2.5-4c-1,0-2.2,0.7-3.5,2.1v13.1h-4.7V29.4c0-3-0.8-4-2.5-4c-1,0-2.2,0.7-3.4,2.1
		v13.1h-4.7L125.2,21.6L125.2,21.6z"/>
	<path class="st1" d="M155.7,15.7c0-1.6,1.1-2.7,2.8-2.7c1.6,0,2.7,1.1,2.7,2.7c0,1.7-1.1,2.8-2.7,2.8
		C156.9,18.5,155.7,17.4,155.7,15.7z M156.1,21.6h4.7v19.1h-4.7V21.6z"/>
</g>
</svg>
