<svg width="57" height="57" viewBox="0 0 57 57" fill="none" xmlns="http://www.w3.org/2000/svg">
<path d="M29.1699 0C29.5254 0.150216 29.8987 0.266224 30.2303 0.456597C31.4275 1.14224 32.0268 2.21755 32.0313 3.57395C32.0492 9.73132 32.0417 15.8902 32.0373 22.0475C32.0373 22.7153 31.6818 23.1095 31.1464 23.0901C30.6081 23.0708 30.3181 22.6737 30.3181 21.9286C30.3166 15.9184 30.3181 9.90979 30.3121 3.89967C30.3121 3.56949 30.3062 3.22295 30.211 2.91211C29.9715 2.13128 29.274 1.67766 28.3654 1.67171C27.012 1.66279 25.6572 1.66874 24.3038 1.66874C17.5162 1.66874 10.7272 1.66874 3.93959 1.66874C2.35275 1.66874 1.67161 2.34991 1.67013 3.93685C1.67013 11.986 1.67013 20.0367 1.67013 28.0859C1.67013 29.6535 2.33044 30.3139 3.89944 30.3139C9.83485 30.3139 15.7688 30.3139 21.7042 30.3154C21.9079 30.3154 22.1147 30.3064 22.3139 30.3377C22.7988 30.4135 23.0947 30.6991 23.0813 31.2003C23.0694 31.7045 22.7482 31.9633 22.2693 32.0272C22.0864 32.0525 21.899 32.0377 21.7131 32.0377C15.9264 32.0377 10.1397 32.0377 4.35303 32.0377C1.80992 32.0377 0.965193 31.4814 0 29.1672C0 20.3729 0 11.577 0 2.78271C0.312312 2.23093 0.523494 1.57504 0.959244 1.15265C1.46489 0.661843 2.16834 0.374796 2.78553 0C11.5808 0 20.3746 0 29.1699 0Z" fill="black"/>
<path d="M2.78646 0C2.16927 0.374796 1.46582 0.661843 0.960176 1.15265C0.524426 1.57504 0.313244 2.23093 0.00390625 2.78271C0.00390625 1.85613 0.00390625 0.928067 0.00390625 0C0.931919 0 1.85993 0 2.78646 0Z" fill="white"/>
<path d="M56.9986 41.0121C56.9986 45.1304 57.0001 49.2502 56.9986 53.3685C56.9971 55.5042 55.4995 56.9989 53.3594 56.9989C45.1218 57.0004 36.8857 57.0004 28.6481 56.9989C26.4947 56.9989 24.9762 55.4983 24.9658 53.3298C24.9524 50.4906 24.9628 47.6528 24.9628 44.8136C24.9628 39.4519 24.9599 34.0902 24.9643 28.7286C24.9658 26.9423 25.9444 25.5666 27.5372 25.1234C27.9239 25.0163 28.3403 24.9687 28.7433 24.9687C33.3075 24.9583 37.8702 24.9613 42.4345 24.9642C42.6352 24.9642 42.8985 24.936 43.0234 25.0446C43.2658 25.2572 43.5439 25.5354 43.6004 25.8269C43.6763 26.2165 43.3937 26.5289 42.9818 26.6226C42.7497 26.6746 42.5044 26.6821 42.2664 26.6836C37.7959 26.6865 33.3239 26.685 28.8534 26.6865C27.3275 26.6865 26.688 27.3216 26.6865 28.8401C26.685 36.9473 26.685 45.0545 26.6865 53.1632C26.6865 54.652 27.3721 55.3317 28.8653 55.3317C36.9541 55.3317 45.0415 55.3332 53.1304 55.3317C54.625 55.3317 55.3315 54.6163 55.3315 53.1037C55.3315 45.0337 55.3315 36.9622 55.3315 28.8922C55.3315 27.3558 54.6652 26.6865 53.1364 26.6865C50.9665 26.685 48.7952 26.6895 46.6254 26.6836C45.9547 26.6821 45.6037 26.4426 45.5338 25.9697C45.455 25.4417 45.7688 24.9791 46.328 24.9791C48.9231 24.9791 51.5227 24.9241 54.1105 25.0773C55.7672 25.1754 56.9927 26.7579 56.9956 28.4326C57.0031 32.6268 56.9986 36.8194 56.9986 41.0121Z" fill="black"/>
<path d="M17.1107 19.7937C18.519 20.872 19.9289 21.9488 21.3388 23.0256C21.4116 23.0821 21.4964 23.1208 21.5752 23.1714C22.1805 23.5595 22.359 24.0429 22.0645 24.4965C21.7805 24.9338 21.2525 25.023 20.7022 24.6096C19.2671 23.5328 17.8632 22.4143 16.4503 21.3078C16.3061 21.1948 16.1826 21.0564 16.0488 20.9285C15.1357 21.7049 14.2582 22.4946 13.3332 23.2234C12.6654 23.7499 11.9441 24.2095 11.2288 24.6705C10.6993 25.0111 10.2026 24.9055 9.92897 24.4475C9.6702 24.0132 9.83825 23.6161 10.3394 23.2338C11.721 22.1793 13.0848 21.1011 14.4515 20.0258C14.5928 19.9142 14.7029 19.764 14.7609 19.7015C13.8002 18.2127 12.8558 16.779 11.9441 15.3229C11.6407 14.8381 11.4102 14.3071 11.1723 13.7851C10.9224 13.2407 11.0711 12.7886 11.5411 12.5655C12.0021 12.3469 12.3962 12.5492 12.7115 13.0801C13.647 14.6522 14.6018 16.2123 15.5565 17.7725C15.6696 17.9569 15.8317 18.1131 16.0072 18.3288C17.9197 16.016 19.3073 13.4772 20.262 10.5889C19.9914 10.5889 19.798 10.5889 19.6032 10.5889C15.8376 10.5889 12.0735 10.5904 8.30792 10.5859C8.08782 10.5859 7.84392 10.6053 7.65058 10.5235C7.27729 10.3658 7.07057 10.0475 7.14642 9.62962C7.2297 9.17302 7.53458 8.91869 8.00305 8.91423C8.87455 8.90382 9.74605 8.90977 10.6175 8.90977C12.1003 8.90977 13.5815 8.90977 15.152 8.90977C15.152 8.59744 15.1401 8.31039 15.155 8.02335C15.1832 7.48049 15.5372 7.12354 16.0205 7.13097C16.4816 7.13841 16.8073 7.47602 16.84 8.00401C16.8578 8.27767 16.843 8.55431 16.843 8.88151C17.0869 8.89192 17.2832 8.90828 17.4795 8.90828C19.5378 8.90977 21.5961 8.90977 23.6558 8.90977C23.7852 8.90977 23.9161 8.90233 24.0455 8.91423C24.5452 8.95587 24.8932 9.32026 24.8783 9.77983C24.8634 10.2513 24.5303 10.5696 23.9979 10.5845C23.461 10.5993 22.9211 10.5681 22.3858 10.6038C22.2296 10.6142 21.9887 10.757 21.9485 10.8879C20.967 14.084 19.3563 16.9337 17.2445 19.5112C17.2222 19.5379 17.2163 19.5781 17.2014 19.6123C17.1731 19.6718 17.1419 19.7328 17.1107 19.7937Z" fill="black"/>
<path d="M34.7713 49.8663C34.0351 49.8871 33.6604 49.2878 33.9162 48.6021C34.4768 47.094 35.0569 45.5933 35.6279 44.0912C37.0081 40.4622 38.3793 36.8302 39.7817 33.2102C39.92 32.8547 40.1788 32.4725 40.4911 32.2732C41.144 31.8583 41.8846 32.2167 42.1984 33.0347C42.9256 34.934 43.641 36.8377 44.3593 38.7414C45.5803 41.9763 46.8042 45.2111 48.0089 48.4519C48.11 48.7256 48.1903 49.1078 48.0743 49.3354C47.9509 49.5778 47.5702 49.85 47.3248 49.8291C47.0467 49.8053 46.6719 49.5287 46.5529 49.264C46.1335 48.3404 45.79 47.3796 45.4524 46.4203C45.3304 46.0752 45.1802 45.9339 44.7906 45.9369C42.2683 45.9577 39.746 45.9577 37.2237 45.9369C36.8355 45.9339 36.6675 46.0693 36.5441 46.4143C36.2154 47.3379 35.8495 48.2467 35.5104 49.1673C35.3617 49.5674 35.1193 49.8306 34.7713 49.8663ZM41.019 34.6915C39.7906 37.9175 38.6023 41.0378 37.4096 44.1715C39.8174 44.1715 42.1716 44.1715 44.5972 44.1715C43.4 41.0021 42.2296 37.8981 41.019 34.6915Z" fill="black"/>
<path d="M19.5392 45.3759C19.1138 45.0532 18.6825 44.7378 18.2631 44.4077C17.7858 44.0329 17.7025 43.5674 18.0252 43.1554C18.3197 42.7791 18.8179 42.7211 19.264 43.0513C20.4121 43.899 21.5543 44.7542 22.6876 45.6213C23.2378 46.0422 23.2453 46.6416 22.6935 47.0669C21.5499 47.9504 20.3913 48.8145 19.2254 49.6697C18.7718 50.0014 18.2929 49.9196 18.0014 49.512C17.7099 49.106 17.7917 48.6613 18.2483 48.2999C18.6781 47.9593 19.1227 47.6366 19.5347 47.1963C18.6929 47.1963 17.8527 47.1978 17.0109 47.1963C13.5785 47.1919 10.7513 44.958 9.97795 41.619C9.87385 41.1713 9.81882 40.7043 9.81287 40.2448C9.79354 38.4838 9.80246 36.7214 9.80544 34.9589C9.80693 34.3135 10.1133 33.9268 10.6234 33.9089C11.1647 33.8896 11.4845 34.2659 11.486 34.9574C11.4919 36.6083 11.4756 38.2592 11.4904 39.9086C11.5202 43.0022 13.5472 45.2212 16.6198 45.477C17.5716 45.5559 18.5338 45.4889 19.4916 45.4889C19.5094 45.4517 19.5243 45.4146 19.5392 45.3759Z" fill="black"/>
<path d="M37.3737 11.5489C37.8912 11.9415 38.321 12.2583 38.7404 12.59C39.2178 12.9677 39.3011 13.4333 38.9799 13.8423C38.6854 14.2171 38.1812 14.2751 37.741 13.9494C36.5944 13.1016 35.4507 12.2464 34.319 11.3793C33.7687 10.9584 33.7613 10.3561 34.31 9.93368C35.4552 9.05321 36.6152 8.18909 37.7797 7.33242C38.2139 7.01265 38.669 7.07363 38.9694 7.4395C39.2862 7.8262 39.2357 8.3051 38.8029 8.66354C38.3656 9.02495 37.9016 9.35364 37.3082 9.8028C38.3523 9.8028 39.2297 9.80131 40.1086 9.8028C43.2853 9.81172 46.1021 11.9475 46.9379 15.0038C47.0687 15.4828 47.1743 15.9855 47.1818 16.4777C47.2115 18.3681 47.2041 20.2599 47.1951 22.1517C47.1922 22.8642 46.5943 23.2821 45.9994 23.0129C45.6068 22.8344 45.5131 22.4938 45.5131 22.0952C45.5176 20.4443 45.5161 18.7949 45.5146 17.1441C45.5116 15.4471 44.951 13.9895 43.6601 12.8488C42.8168 12.1036 41.8427 11.6173 40.7154 11.5593C39.6491 11.5057 38.5798 11.5489 37.3737 11.5489Z" fill="black"/>
<path d="M41.0196 34.6914C42.2302 37.898 43.4006 41.0005 44.5978 44.1714C42.1722 44.1714 39.8194 44.1714 37.4102 44.1714C38.6029 41.0377 39.7912 37.9173 41.0196 34.6914Z" fill="#AE85C9"/>
</svg>
