<?xml version="1.0" encoding="utf-8"?>
<!-- Generator: Adobe Illustrator 24.0.2, SVG Export Plug-In . SVG Version: 6.00 Build 0)  -->
<svg version="1.1" id="Layer_1" xmlns="http://www.w3.org/2000/svg" xmlns:xlink="http://www.w3.org/1999/xlink" x="0px" y="0px"
	 viewBox="0 0 1460 430" style="enable-background:new 0 0 1460 430;" xml:space="preserve">
<style type="text/css">
	.st0{fill:#AE85C9;}
	.st1{fill:none;}
	.st2{fill:#FF6584;}
	.st3{fill:#F2F2F2;}
	.st4{fill:#E6E6E6;}
	.st5{fill:#3F3D56;}
	.st6{fill:#F49092;}
	.st7{fill:#FFB6B6;}
	.st8{fill:#2F2E41;}
	.st9{fill:#F0F0F0;}
	.st10{enable-background:new    ;}
	.st11{fill:#FFFFFF;}
</style>
<rect y="0.4" class="st0" width="1460" height="430"/>
<rect x="132.1" y="159.9" class="st1" width="598" height="111"/>
<g>
	<circle class="st2" cx="1279.7" cy="149.1" r="30.3"/>
	<path class="st3" d="M1056.2,273.1c0,80-51.2,98.9-122.8,98.9s-92.3-1.9-92.3-81.9S748.3,71.2,819.9,71.2
		S1056.2,193.1,1056.2,273.1z"/>
	<g>
		
			<ellipse transform="matrix(0.9997 -2.559858e-02 2.559858e-02 0.9997 -8.4499 24.9435)" class="st4" cx="970" cy="342.5" rx="4.9" ry="0.8"/>
		
			<ellipse transform="matrix(0.9997 -2.559858e-02 2.559858e-02 0.9997 -8.3732 25.7337)" class="st5" cx="1000.9" cy="339.9" rx="4.9" ry="0.8"/>
		
			<ellipse transform="matrix(0.9997 -2.559858e-02 2.559858e-02 0.9997 -8.3183 24.6244)" class="st2" cx="957.6" cy="337.2" rx="4.9" ry="0.8"/>
		
			<ellipse transform="matrix(1.130082e-02 -0.9999 0.9999 1.130082e-02 598.7802 1276.942)" class="st4" cx="945.1" cy="335.7" rx="0.7" ry="2.2"/>
		
			<ellipse transform="matrix(1.130082e-02 -0.9999 0.9999 1.130082e-02 595.4908 1265.1958)" class="st5" cx="937.5" cy="331.5" rx="0.7" ry="2.2"/>
		
			<ellipse transform="matrix(1.130082e-02 -0.9999 0.9999 1.130082e-02 630.3819 1311.8927)" class="st4" cx="978.6" cy="337.2" rx="0.7" ry="2.2"/>
		
			<ellipse transform="matrix(1.130082e-02 -0.9999 0.9999 1.130082e-02 613.9507 1300.6033)" class="st2" cx="964.7" cy="339.8" rx="0.7" ry="2.2"/>
		
			<ellipse transform="matrix(1.130082e-02 -0.9999 0.9999 1.130082e-02 634.8952 1325.627)" class="st5" cx="987.8" cy="341.8" rx="0.7" ry="2.2"/>
	</g>
	<g>
		
			<ellipse transform="matrix(0.9997 -2.559858e-02 2.559858e-02 0.9997 -8.3406 30.8796)" class="st4" cx="1201.9" cy="341.2" rx="4.9" ry="0.8"/>
		
			<ellipse transform="matrix(0.9997 -2.559858e-02 2.559858e-02 0.9997 -8.2665 31.6698)" class="st5" cx="1232.8" cy="338.7" rx="4.9" ry="0.8"/>
		
			<ellipse transform="matrix(0.9997 -2.559858e-02 2.559858e-02 0.9997 -8.209 30.5604)" class="st2" cx="1189.5" cy="335.9" rx="4.9" ry="0.8"/>
		
			<ellipse transform="matrix(1.130082e-02 -0.9999 0.9999 1.130082e-02 829.3049 1507.5048)" class="st4" cx="1177" cy="334.4" rx="0.7" ry="2.2"/>
		
			<ellipse transform="matrix(1.130082e-02 -0.9999 0.9999 1.130082e-02 826.1324 1495.88)" class="st5" cx="1169.5" cy="330.2" rx="0.7" ry="2.2"/>
		
			<ellipse transform="matrix(1.130082e-02 -0.9999 0.9999 1.130082e-02 860.9059 1542.475)" class="st4" cx="1210.5" cy="335.9" rx="0.7" ry="2.2"/>
		
			<ellipse transform="matrix(1.130082e-02 -0.9999 0.9999 1.130082e-02 844.4952 1531.1663)" class="st2" cx="1196.5" cy="338.5" rx="0.7" ry="2.2"/>
		
			<ellipse transform="matrix(1.130082e-02 -0.9999 0.9999 1.130082e-02 865.4194 1556.1895)" class="st5" cx="1219.6" cy="340.5" rx="0.7" ry="2.2"/>
	</g>
	<g>
		
			<ellipse transform="matrix(0.9997 -2.559858e-02 2.559858e-02 0.9997 -8.4273 28.1104)" class="st4" cx="1093.7" cy="343.2" rx="4.9" ry="0.8"/>
		
			<ellipse transform="matrix(0.9997 -2.559858e-02 2.559858e-02 0.9997 -8.3506 28.898)" class="st5" cx="1124.5" cy="340.6" rx="4.9" ry="0.8"/>
		
			<ellipse transform="matrix(0.9997 -2.559858e-02 2.559858e-02 0.9997 -8.2931 27.7912)" class="st2" cx="1081.3" cy="337.8" rx="4.9" ry="0.8"/>
		
			<ellipse transform="matrix(1.130082e-02 -0.9999 0.9999 1.130082e-02 720.4775 1401.2815)" class="st4" cx="1068.8" cy="336.3" rx="0.7" ry="2.2"/>
		
			<ellipse transform="matrix(1.130082e-02 -0.9999 0.9999 1.130082e-02 717.2079 1389.5356)" class="st5" cx="1061.3" cy="332.1" rx="0.7" ry="2.2"/>
		
			<ellipse transform="matrix(1.130082e-02 -0.9999 0.9999 1.130082e-02 752.0792 1436.2322)" class="st4" cx="1102.3" cy="337.8" rx="0.7" ry="2.2"/>
		
			<ellipse transform="matrix(1.130082e-02 -0.9999 0.9999 1.130082e-02 735.5507 1424.822)" class="st2" cx="1088.3" cy="340.5" rx="0.7" ry="2.2"/>
		
			<ellipse transform="matrix(1.130082e-02 -0.9999 0.9999 1.130082e-02 756.5922 1449.9662)" class="st5" cx="1111.5" cy="342.4" rx="0.7" ry="2.2"/>
	</g>
	<path class="st6" d="M937.8,306.4c-1.7,0.1-2.6-1.9-1.3-3.1l0.1-0.5v-0.1c-1.7-4-7.3-3.9-9,0c-1.5,3.5-3.3,7.1-3.8,10.8
		c-0.2,1.6-0.1,3.3,0.3,4.9c-3.4-7.5-5.2-15.7-5.2-23.9c0-2.1,0.1-4.1,0.3-6.2c0.2-1.7,0.5-3.4,0.8-5c1.8-9,5.8-17.5,11.5-24.7
		c2.8-1.5,5.1-3.9,6.5-6.7c0.5-1,0.9-2.1,1.1-3.2c-0.3,0-1.2-4.7-1-5c-0.4-0.7-1.2-1-1.7-1.6c-2.4-3.2-5.7-2.7-7.4,1.7
		c-3.7,1.8-3.7,4.9-1.5,7.8c1.4,1.9,1.6,4.4,2.9,6.4c-0.1,0.2-0.3,0.3-0.4,0.5c-2.4,3-4.4,6.3-6.1,9.7c0.5-3.8-0.2-8.4-1.5-11.3
		c-1.4-3.4-4-6.2-6.3-9.1c-2.8-3.5-8.4-2-8.9,2.5v0.1c0.3,0.2,0.7,0.4,1,0.6c1.9,1.2,1.2,4.1-1,4.5l0,0c0.1,1.2,0.3,2.5,0.6,3.6
		c-3,11.4,3.4,15.6,12.5,15.8c0.2,0.1,0.4,0.2,0.6,0.3c-0.9,2.6-1.7,5.3-2.2,8c-0.5,2.4-0.8,4.8-1,7.2c-0.2,3-0.2,6.1,0,9.2v-0.1
		c-0.7-3.4-2.5-6.5-5.1-8.7c-3.9-3.2-9.5-4.4-13.8-7c-2-1.3-4.7,0.4-4.3,2.7v0.1c0.6,0.3,1.3,0.6,1.8,0.9c0.3,0.2,0.7,0.4,1,0.6
		c1.9,1.2,1.2,4.1-1,4.5l0,0h-0.1c1.1,2.6,2.6,5,4.5,7c1.8,10,9.8,10.9,18.2,8l0,0c0.9,4,2.3,8,4,11.7h14.4c0-0.2,0.1-0.3,0.1-0.5
		c-1.3,0.1-2.7,0-4-0.2c1.1-1.3,2.1-2.6,3.2-3.9c0,0,0,0,0.1-0.1c0.5-0.7,1.1-1.3,1.6-2l0,0C938.5,310.4,938.3,308.3,937.8,306.4
		L937.8,306.4L937.8,306.4z"/>
	<path class="st6" d="M1222.8,306.4c1.7,0.1,2.6-1.9,1.3-3.1l-0.1-0.5c0,0,0-0.1,0.1-0.1c1.7-4,7.3-3.9,9,0
		c1.5,3.5,3.3,7.1,3.8,10.8c0.2,1.6,0.1,3.3-0.3,4.9c3.4-7.5,5.2-15.7,5.2-23.9c0-2.1-0.1-4.1-0.3-6.2c-0.2-1.7-0.4-3.4-0.8-5
		c-1.8-9-5.8-17.5-11.6-24.7c-2.8-1.5-5.1-3.9-6.4-6.7c-0.5-1-0.9-2.1-1.1-3.2c0.3,0,1.2-4.7,0.9-5c0.4-0.7,1.2-1,1.7-1.6
		c2.4-3.2,5.7-2.7,7.4,1.7c3.7,1.8,3.7,4.9,1.4,7.8c-1.4,1.9-1.6,4.4-2.9,6.4c0.1,0.2,0.3,0.3,0.4,0.5c2.4,3,4.4,6.3,6.1,9.7
		c-0.5-3.8,0.2-8.4,1.5-11.3c1.4-3.4,4-6.2,6.3-9.1c2.8-3.5,8.4-2,8.9,2.5v0.1c-0.3,0.2-0.7,0.4-1,0.6c-1.9,1.2-1.2,4.1,1,4.5h0.1
		c-0.1,1.2-0.3,2.5-0.6,3.6c2.9,11.4-3.4,15.6-12.5,15.8c-0.2,0.1-0.4,0.2-0.6,0.3c0.9,2.6,1.7,5.3,2.2,8c0.5,2.4,0.8,4.8,1,7.2
		c0.2,3,0.2,6.1,0,9.2v-0.1c0.7-3.4,2.5-6.5,5.1-8.7c3.9-3.2,9.5-4.4,13.8-7c2.1-1.3,4.7,0.4,4.3,2.7v0.1c-0.6,0.3-1.3,0.6-1.8,0.9
		c-0.3,0.2-0.7,0.4-1,0.6c-1.9,1.2-1.2,4.1,1,4.5h0.1h0.1c-1.1,2.6-2.6,5-4.5,7c-1.8,10-9.8,10.9-18.2,8l0,0c-0.9,4-2.3,8-4,11.7
		h-14.4c-0.1-0.2-0.1-0.3-0.1-0.5c1.3,0.1,2.7,0,4-0.2c-1.1-1.3-2.1-2.6-3.2-3.9c0,0-0.1,0-0.1-0.1c-0.5-0.7-1.1-1.3-1.6-2l0,0
		C1222.1,310.4,1222.3,308.3,1222.8,306.4L1222.8,306.4L1222.8,306.4z"/>
	<g>
		<g>
			<path class="st7" d="M1049.7,197c2.1-1.4,2.7-4.3,1.3-6.5c-0.1-0.2-0.3-0.4-0.5-0.6l1-42.4l-8.4,1.3l0.6,41.2
				c-1.4,1.6-1.7,3.9-0.4,5.8C1044.6,197.9,1047.5,198.4,1049.7,197L1049.7,197z"/>
			<path class="st4" d="M1050,125.5c0,0-0.6,0.4,2.3,4.8c2,3.1,1.7,24.6,2.1,24.3s-0.6,1.2-0.1,1.4s-0.4,1.4-0.2,2.1
				c0.3,0.8-0.1,1.6-0.3,2.4c-0.7,2.2-0.8,4.1-1.4,5.1c1.4,0.8,2.2,2.5,1.7,4.1l-11.8-2.1c-1.4-2.3-1.2-4.7-0.3-5.1l-0.3-7.5
				l-3.4-24.7l9.9-4.4L1050,125.5L1050,125.5z"/>
		</g>
		<g>
			<polygon class="st7" points="1030.5,330.3 1035.6,330.2 1037.8,310.3 1030.4,310.3 			"/>
			<path class="st8" d="M1028.2,340.7h3.8v-0.2l0.6-3.4l1.7,3.4l0.1,0.2l10-0.1c0.2,0,0.4,0,0.6-0.1c0.9-0.3,1.6-1.2,1.6-2.2
				c0-0.7-0.4-1.4-1-1.9l-8.1-5.5v-3.6l-1.7,0.1l-5.4,0.4l-1.3,0.1l-0.9,12.6L1028.2,340.7L1028.2,340.7z"/>
		</g>
		<g>
			<polygon class="st7" points="960.5,304.5 964,308.2 980,296.1 974.9,290.7 			"/>
			<path class="st8" d="M951.3,310l2.6,2.7l3-2l-1.4,3.7l6.7,6.9l0.3,0.3c0.2,0.2,0.3,0.3,0.5,0.4c0.3,0.2,0.6,0.3,1,0.3
				c0.6,0,1.2-0.2,1.7-0.6c0.5-0.5,0.8-1.3,0.7-2l-1.6-9.6l2.6-2.5l-1.3-1.2l0,0l-4-3.7l-1-0.9L951.3,310L951.3,310z"/>
		</g>
		<path class="st8" d="M1040.7,162.5l9.7,28l0.3,2.2c2.4,2.3-0.6,3.1,0.5,3.7s-1.2,2.4,0.4,2.6c3.3,0.4-3.5,110.6-13.1,113.9
			c-2.4,0.8-7.4,2.1-10,1.7c-4-0.6-4.9-16.6-0.5-31.7c0.5-1.6-1.9-3.5-0.3-5.2s-0.2-2.8-0.3-4.1c-0.4-6.1,3.3-7.4,3.1-15
			c-0.5-16.9-4.5-39.9-4.5-39.9s-7,54.9-9.7,52.2c-2.7-2.7-3.8,1.8-4.6,3.8c-0.7,1.7-0.4,3-4.6,3.1c-4.3,0-27.1,22.2-28.1,22.2
			c-2-0.1-9.3-2.4-9.7-5.8c-0.6-5.8,7.7-17.4,23.3-31.3c1.4-1.2,3.2-1.8,1.4-5.3s6.8-25.7,6.1-26.7c-1.9-2.7-2.7-3.9-0.8-4.1
			c1.9-0.2,2.5,0.9,2.6-1.8c0.1-2.6,0.4-9.2,0.4-9.2c0.5-30,1.5-31.9,11.1-40.1l0.8-8.5L1040.7,162.5L1040.7,162.5z"/>
		<path class="st4" d="M1047.9,161.3c0.3,0,1.4,0.3-0.1,0.6c-1.4,0.3-0.1,0.8-0.1,0.8c-0.5,0.3-1,0.6-1.4,1
			c-5,3.4,5.9,16.7,0.8,20.1c-7.2,4.7-27.8-3.9-32.8-7.4c-0.3-0.2-0.5-0.4-0.8-0.6l0,0c-0.1-0.1-0.3-0.3-0.4-0.4c0,0-1.8-4.7-1-4.2
			s0.8-0.7,0.2-1.7s-0.9-2.6,0.2-1.8s2.2-6.6,3-7.5c0.5-0.6,0.7-0.9,0.7-1.1c0-0.4-0.8-0.1-0.8-0.1s-1.1-0.2-0.1-0.9
			s-1.6-11.4-1.6-11.4l-1.3-9.1c-1.4-4.3-2.9-9.7-0.3-12.3l13.3-7.1l13.5-0.4l10.6,5.7c4.1,2.1,2.9,11.7,1.2,16
			c0,0-2.3,21.5-2.5,21.1C1047.8,160,1047.7,161.3,1047.9,161.3L1047.9,161.3z"/>
		<path class="st8" d="M1044.8,99.2c-0.1,1.5-0.3,3.1-0.4,4.6c-0.2,1.8-0.3,3.6-0.8,5.3c-0.1,0.5-0.3,1-0.6,1.3
			c-0.6,0.6,0.5,4.3-0.3,4.6c-0.8,0.4-1.6,0.6-2.4,0.7c0-0.3-0.1-0.5-0.1-0.8v-0.1c-0.2-1.1-0.7-2.2-1.3-3.2c0.2,1.2,0,2.3-0.4,3.4
			c-0.1,0.2-0.1,0.4-0.2,0.5c-3.3-0.5-6.2-2.7-8.4-2.7c-1.4-4.6-2.3-9.3-2.9-14.1c-0.2-1.3-0.2-2.7,0.5-3.7c0.7-0.9,1.9-1.2,3-1.5
			c3.6-0.8,7.3-1.1,11-1.1l-6.4-1.5c1.8,0,3.6,0,5.3,0.5c1.7,0.5,3.3,1.7,4,3.3C1045,96.4,1044.9,97.9,1044.8,99.2L1044.8,99.2z"/>
		<circle class="st7" cx="1030.6" cy="100.2" r="13"/>
		<path class="st8" d="M1043.8,120.9c-4.9-4.4,3.5-16.9-3.1-25.2l-0.8-0.6c-0.5,1.1-1.6,2-2.7,2.5c-0.3-1.2-0.7-2.3-1.2-3.3
			c0.2,1.3,0,2.6-0.3,3.8c-0.4,0.1-0.6,0-0.7-0.2c0.1,1-3,1.5-2.3-0.1c0,0,0,0,0-0.1c-0.8,1.6-2.4,2.4-3.9,3.3
			c-1.4,0.9-2.9,2.4-2.7,4.2c0.1,1.5,1.3,2.6,2.4,3.3c1.1,0.8,2.4,1.3,3.3,2.5c1.4,1.9,1.1,4.8,0.4,7.2c-0.2,0.7-0.9,1.3-1.7,1.6
			c-0.2-1.3-0.7-2.5-1.3-3.6c0.2,1.3,0,2.7-0.4,3.9c-1.7,0-3.5-0.5-4.6-1.8l0.9,3.9c-1.4-0.3-2.8,0-4.3,0.3c0-0.4-0.1-0.9-0.2-1.3
			c-0.2-1.3-0.7-2.6-1.3-3.7c0.2,1.6-0.1,3.3-0.7,4.8c-0.1,0.2-0.2,0.3-0.2,0.5c-2.2-0.2-4.4-1.4-4-4.8c0.1-1.1,0.7-2.1,1.3-2.9
			c1.1-1.6-4.7-3.3-4.3-5.3c0.5-2.9,5.8-5.4,5.4-8.3c-0.4-2.6-0.3-8.5,1.1-10.6c2.1-2.9-0.2-9.1,14.6-5.6c5.5,1.3,7.4-4.1,15.7,12.4
			c1.4,2.8-3.8,1.9-0.7,7.9C1050.3,111.7,1041.6,116.5,1043.8,120.9L1043.8,120.9z"/>
		<g>
			<path class="st8" d="M1018,92.4L1018,92.4c0.1,0.1,0.2,0.1,0.3,0.1c0.4,0.1,0.8,0.2,1.2,0.3c0.2,0,0.3,0,0.5,0s0.4,0,0.7,0
				c0.2,0,0.5-0.1,0.7-0.1c0.1,0,0.2-0.1,0.3-0.1c1.5-0.5,2.6-1.7,3.1-3.2l0,0c0-0.1,0-0.2,0.1-0.2c0.1-0.4,0.2-0.8,0.2-1.3l0,0
				c0-0.4,0-0.8-0.1-1.1c-0.2-0.7-0.4-1.3-0.8-1.8s-0.8-0.6-0.5-1.2c0.8-1.9-2.3-3.4-4.2-2.6c-0.1,0-0.1,0-0.2,0
				c-1.2,0-1.7,1.8-2.4,2.8l0,0c0.8,0.3,0.8,1.5,0,1.8c-0.5,0.2-1,0.3-1.5,0.4C1013.6,88.1,1015.5,93.8,1018,92.4L1018,92.4z"/>
			<path class="st6" d="M1023.9,84.4c0.2,3.5-1.9,6.9-5.1,8.4c-0.6,0.3-1.2-0.7-0.5-0.9c2.8-1.3,4.7-4.3,4.5-7.4
				C1022.7,83.7,1023.8,83.7,1023.9,84.4L1023.9,84.4z"/>
		</g>
		<path class="st6" d="M1031.5,155.7c0.9,0.1,1.5-1.1,0.8-1.8l-0.1-0.3v-0.1c1-2.3,4.2-2.3,5.1,0c0.8,2,1.9,4,2.2,6.1
			c0.1,0.9,0.1,1.9-0.1,2.8c2-4.3,3-8.9,3-13.6c0-1.2-0.1-2.4-0.2-3.5c-0.1-1-0.3-1.9-0.4-2.9c-1.1-5.1-3.3-10-6.6-14.1
			c-1.6-0.9-2.9-2.2-3.7-3.8c-0.3-0.6-0.5-1.2-0.6-1.8c0.2,0,0.7-2.7,0.5-2.9c0.3-0.4,0.7-0.6,1-0.9c1.3-1.8,3.2-1.5,4.2,1
			c2.1,1.1,2.1,2.8,0.8,4.5c-0.8,1.1-0.9,2.5-1.6,3.7c0.1,0.1,0.2,0.2,0.2,0.3c1.3,1.7,2.5,3.6,3.5,5.5c-0.3-2.2,0.1-4.8,0.8-6.4
			c0.8-1.9,2.3-3.5,3.6-5.2c1.6-2,4.8-1.1,5.1,1.4v0.1c-0.2,0.1-0.4,0.2-0.6,0.3c-1.1,0.7-0.7,2.3,0.6,2.5l0,0
			c-0.1,0.7-0.2,1.4-0.4,2.1c1.7,6.5-2,8.9-7.1,9c-0.1,0.1-0.2,0.1-0.3,0.2c0.5,1.5,0.9,3,1.3,4.5c0.3,1.4,0.5,2.7,0.6,4.1
			c0.1,1.7,0.1,3.5,0,5.2v-0.1c0.4-1.9,1.4-3.7,2.9-4.9c2.2-1.8,5.4-2.5,7.8-4c1.2-0.7,2.7,0.2,2.5,1.6v0.1
			c-0.4,0.1-0.7,0.3-1.1,0.5c-0.2,0.1-0.4,0.2-0.6,0.4c-1.1,0.7-0.7,2.4,0.6,2.5l0,0c0,0,0,0,0.1,0c-0.6,1.5-1.5,2.8-2.6,4
			c-1,5.7-5.6,6.2-10.4,4.6l0,0c-0.5,2.3-1.3,4.5-2.3,6.7h-8.2c0-0.1-0.1-0.2-0.1-0.3c0.8,0.1,1.5,0,2.3-0.1
			c-0.6-0.7-1.2-1.5-1.8-2.2l0,0c-0.3-0.4-0.6-0.8-0.9-1.1l0,0C1031.1,158,1031.3,156.8,1031.5,155.7L1031.5,155.7L1031.5,155.7z"/>
		<g>
			<path class="st7" d="M1023.4,134.5c0,0-9.9-10.5-10.4-5.4c-0.3,3.3-3.6,20.5-1.7,26.4c0.9,2.9,4.2,4.4,7,3.3l23.6-9.8l-3.1-6.4
				l-18.7,7.8L1023.4,134.5L1023.4,134.5z"/>
			<circle class="st7" cx="1042.4" cy="144" r="5"/>
		</g>
		<path class="st4" d="M1019,127.7l-7-2.5c-3.1,8-5.8,24.5-4.3,24.2s0.6,1.7,0.1,2s0.8,1.9,0.2,2.1c-0.7,0.2,0.2,1.6,0.3,2.4
			c0,0,3.6,5.4,7.2,5.4s7.1-2.1,7.1-2.1l3.9,0.4l-1.2-15.6l-3.8,3.9l3.4-14.5C1024.8,133.4,1019,127.7,1019,127.7z"/>
	</g>
</g>
<g>
	<path class="st9" d="M828,814.6c-14.6,0-29.2-0.2-43.8-0.7c-20.8-0.7-42.4-1.3-62.4-11c-14-6.7-26.4-17.6-35.9-31.3
		c-6.2-9.1-10.9-19.2-13.7-29.9c-1.4-5.1-2.4-10.4-3-15.7c-1.7-14.3-0.5-28.8,3.5-42.6c2-6.6,4.6-13,8-19
		c14.6-26.3,41.2-43.9,73-48.3c0.3,0,0.5,0,0.8,0c0.1,0,0.3,0,0.4,0h0.2c0.5-0.2,1-0.3,1.5-0.3c49.1-6.3,101,6.5,150,37.1
		c37.9,23.7,88.2,36.4,153.7,39h0.9c18.2,0.9,35.9,7.4,51,18.9c14.8,11.1,26.1,26.2,32.4,43.6c0.8,2.1,1.5,4.3,2.1,6.5
		c1.2,4.2-0.2,8.4-3.8,11.6l0,0l-0.2,0.2c-0.4,0.3-0.8,0.7-1.2,1l-0.5,0.4c-4.2,3-7.5,5.4-11.4,7.2c-2.7,1.2-5.5,2.2-8.3,2.7
		c-16,3.4-32.2,6.5-48.2,9.3c-31.1,5.4-63,9.9-94.8,13.3C928.5,811.9,878.2,814.6,828,814.6z M754.2,617c-0.1,0-0.2,0-0.3,0
		c-31.5,4.4-57.9,21.9-72.3,47.9c-3.3,6-6,12.3-7.9,18.8c-4,13.7-5.2,28-3.5,42.2c0.6,5.2,1.6,10.4,3,15.5
		c2.8,10.6,7.4,20.6,13.6,29.6c9.4,13.6,21.6,24.3,35.5,31c19.8,9.5,41.3,10.2,62,10.9c64.8,2,129.6-0.4,194.1-7.3
		c31.8-3.4,63.7-7.9,94.8-13.3c16-2.8,32.2-5.9,48.1-9.3c2.8-0.6,5.5-1.5,8.2-2.7c3.9-1.8,7.2-4.1,11.3-7.1l0.5-0.4
		c0.4-0.3,0.7-0.5,1.1-0.8l0.1-0.1c3.4-3,4.7-6.9,3.6-10.8l0,0c-0.6-2.2-1.3-4.3-2.1-6.4c-12.8-35.2-46-60-82.6-61.8h-0.9
		c-29.9-1.2-56.1-4.4-80-9.9c-28.6-6.5-53.5-16.4-74.2-29.3c-48.9-30.5-100.5-43.3-149.4-37c-0.5,0.1-0.9,0.2-1.3,0.3l-0.3,0.1
		c-0.2,0-0.4,0-0.6,0C754.4,617.1,754.3,617,754.2,617z"/>
	<path class="st4" d="M1142.6,772.3L1142.6,772.3c-0.4,0.3-0.8,0.7-1.2,1c-6.9,4.9-11.6,8.4-20.1,10.2c-16,3.4-32.1,6.5-48.2,9.3
		c-31.4,5.5-63,10-94.8,13.3c-64.5,6.9-129.4,9.4-194.2,7.3c-21.6-0.7-42.4-1.4-62.2-10.9c-14.5-7-26.6-18-35.7-31.1
		c-9.2-13.3-14.8-29.1-16.7-45.4c4.5-2,9.2-3.2,14.1-3.7c16.9-1.6,33.5,4.6,48.8,11.8c15.4,7.2,30.4,15.6,47.1,18.9
		c24.5,4.9,49.8-1.8,73.3-10.3s46.6-19,71.4-22.2c33.2-4.3,66.6,4.8,98.8,13.9c34.4,9.6,68.7,19.3,103.1,28.9
		c4.9,1.4,10,2.8,13.8,6.2C1141.1,770.3,1141.9,771.3,1142.6,772.3z"/>
	<path class="st3" d="M1142.6,772.3L1142.6,772.3c-0.4,0.3-0.8,0.7-1.2,1c-4.3,3.1-7.8,5.6-11.9,7.5c-14,1.4-28,2.6-42.1,3.6
		c-36.2,2.6-72.4,4-108.7,4.1c-73.6,0.4-151,2.7-215.5-33.1c-21.5-11.9-52.5,12.5-73.8-0.5c-6.1-3.8-11.8-8.2-17-13.2
		c-1.4-5.1-2.4-10.3-3-15.6c-1.7-14.2-0.5-28.6,3.5-42.4c2-6.6,4.6-12.9,8-18.9c9.9,3.5,19.3,8.6,28.3,14
		c16.5,9.9,32.6,21.1,51,26.8c27.1,8.3,56.5,3.8,84-3.2s54.9-16.1,83.2-16.9c38-1,74.7,13.1,110.1,27.1c35.5,14,71.1,28,106.6,42
		c0.8,2.1,1.5,4.3,2.1,6.5C1147.7,765.4,1145.8,769.5,1142.6,772.3z"/>
	<path class="st4" d="M796.3,591.7c-5.3-3.6-4.8-11.5,0.8-14.6c0.1-0.1,0.2-0.1,0.3-0.2c0.3-1.4,0.6-2.7,0.8-4.1
		c1.7,1.7,5,1.4,6.3-0.6c-4.5-9.6-10.5-18.5-17.6-26.4c-3.2-3.6-3.3-9-0.1-12.6c0,0,0-0.1,0.1-0.1c4-1.4,7.9-3.3,11.4-5.7
		c-12-19.3-34.9-34.6-40.3-56.6c-16.3,17.6-18.2,23.7-34.5,41.3c0,0-15.5,14-18.8,21.5c0.8,0.9,8.2,2.9,8.5,4.6
		c5.6,0.5,15.3-5.7,15.3-5.7S707.2,555,700.7,569c-0.6,1.3-1.1,2.7-0.6,4c0.4,1,1.8,1.6,2.7,1.2c-1.1,1-1.9,2.3-2.5,3.6
		c3.8,2.5,8.9,2,12.2-1.2c-0.9,1.7-1.8,3.3-2.7,5l0,0c3.8,1.3,5.9,5.4,4.7,9.2c-0.4,1.2-1.1,2.2-2,3.1c-5.6,5.2-10.7,10.6-12.5,14.2
		c-1.8,3.4,16.2,7.4,20.3,7.3s7.8-1.9,11.5-3.7c-0.2,1.7,0.1,3.3,0.9,4.8c4,1,8.3,0.3,11.8-1.9c-0.2,3.3,4,5.2,7,4.2
		c-1.5,23-0.4,55.4,1,89h3.5v-87.7c0.9,0.5,1.9,0.8,2.9,1c7.1,1.3,15.7,2,20.3-3.5c5.3,5.4,15.1,5.3,20.4-0.1
		c-0.5,0.9,0.3,2.5,1.5,2.7c1.4,0.3,2.7-0.5,3.9-1.3c5.3-3.6,10.7-7.1,16-10.7C814.3,603.8,804.9,597.5,796.3,591.7z"/>
	<circle class="st3" cx="956.6" cy="564.2" r="16.8"/>
	<path class="st4" d="M994.1,556.2c-1-3.3-3.7-5.4-7-5.8H987h-0.1c-4.7-0.6-9.4,0.5-13.5,2.9c-3.9,2.4-8.4,3.5-13,3.7c0,0,0,0-0.1,0
		c-3.5,0.2-6.4,2.6-7.4,6c-0.1,0.4,0.1,0.8,0.4,1.1c0.5,0.4,1.1,0.7,1.8,0.9c1.4,0.3,2.8,0.6,4.2,0.8c2.7,0.5,5.5,0.9,8.3,1.2
		c5.6,0.6,11.3,0.8,16.9,0.6c1.9-0.1,3.7-0.1,5.4-1c1.3-0.6,2.3-1.5,3.1-2.7C994.4,561.6,994.8,558.8,994.1,556.2z"/>
	<path class="st4" d="M959.2,578.6c-1-3.3-3.7-5.4-7-5.8h-0.1H952c-4.7-0.6-9.4,0.5-13.5,2.9c-3.9,2.4-8.4,3.5-13,3.7c0,0,0,0-0.1,0
		c-3.5,0.2-6.4,2.6-7.4,6c-0.1,0.4,0.1,0.8,0.4,1.1c0.5,0.4,1.1,0.7,1.8,0.9c1.4,0.3,2.8,0.6,4.2,0.8c2.7,0.5,5.5,0.9,8.3,1.2
		c5.6,0.6,11.3,0.8,16.9,0.6c1.9-0.1,3.7-0.1,5.4-1c1.3-0.6,2.3-1.5,3.1-2.7C959.6,584,960,581.2,959.2,578.6z"/>
	<path class="st4" d="M1101.1,648.6c-5.3-3.6-4.8-11.5,0.8-14.6c0.1-0.1,0.2-0.1,0.3-0.2c0.3-1.4,0.6-2.7,0.8-4.1
		c1.7,1.7,4.9,1.4,6.3-0.6c-4.5-9.6-10.4-18.5-17.6-26.4c-3.2-3.6-3.3-9-0.1-12.6l0.1-0.1c4-1.4,7.9-3.3,11.4-5.7
		c-12-19.3-34.9-34.6-40.3-56.6c-16.3,17.6-18.2,23.7-34.5,41.3c0,0-15.5,14-18.8,21.5c0.8,0.9,8.2,2.9,8.5,4.6
		c5.6,0.5,15.3-5.7,15.3-5.7s-21.2,22.6-27.6,36.5c-0.6,1.3-1.1,2.7-0.6,4c0.4,1,1.8,1.6,2.7,1.2c-1.1,1-1.9,2.3-2.5,3.6
		c3.8,2.5,8.9,2,12.2-1.2c-0.9,1.7-1.8,3.3-2.7,5l0,0c3.8,1.3,5.9,5.4,4.7,9.2c-0.4,1.2-1.1,2.2-2,3.1c-5.6,5.2-10.7,10.6-12.5,14.2
		c-1.8,3.4,16.2,7.4,20.3,7.3c4.1-0.2,7.8-1.9,11.5-3.7c-0.2,1.7,0.1,3.3,0.9,4.8c4,1,8.3,0.3,11.8-1.9c-0.2,3.3,4,5.2,7,4.2
		c-1.5,23-0.4,55.4,1,89h3.5V677c0.9,0.5,1.9,0.8,2.9,1c7.1,1.3,15.7,2,20.3-3.5c5.3,5.4,15.1,5.3,20.4-0.1
		c-0.5,0.9,0.3,2.5,1.5,2.7c1.4,0.3,2.7-0.5,3.9-1.3c5.3-3.6,10.7-7.1,16-10.7C1119.1,660.7,1109.8,654.4,1101.1,648.6z"/>
	<path class="st4" d="M698.1,738c0.9,0,1.7-0.7,1.8-1.6c0-0.5-0.2-1-0.5-1.3c0-0.2-0.1-0.3-0.1-0.5v-0.1c1-2.3,3.7-3.4,6-2.4
		c1.1,0.5,2,1.3,2.4,2.5c1.4,3.3,3.1,6.6,3.6,10.2c0.2,1.5,0.1,3.1-0.2,4.6c3.2-7.1,4.9-14.7,4.9-22.5c0-2-0.1-3.9-0.3-5.8
		c-0.2-1.6-0.4-3.2-0.8-4.7c-1.7-8.5-5.5-16.4-10.9-23.2c-2.6-1.4-4.7-3.6-6.1-6.3c-0.5-1-0.8-2-1-3c0.3,0,0.6,0.1,0.9,0.1
		c0.1,0,0.2,0,0.3,0l0,0c0.9,0,1.7-0.7,1.8-1.6c0-0.4-0.1-0.8-0.4-1.1c-0.1-0.2-0.3-0.3-0.4-0.5c-0.2-0.2-0.4-0.5-0.6-0.7
		c0,0,0,0-0.1-0.1c-0.2-0.3-0.5-0.5-0.7-0.8c0.4-0.6,1-1.2,1.6-1.5c2.2-1.3,5.3-0.4,6.9,1.6c1.6,2,1.9,4.8,1.4,7.4
		c-0.5,2.1-1.5,4.2-2.7,6c0.1,0.2,0.3,0.3,0.4,0.5c2.2,2.8,4.1,5.9,5.8,9.1c-0.4-3.6,0.1-7.3,1.4-10.6c1.3-3.2,3.8-5.8,5.9-8.5
		c2.6-3.3,7.9-1.8,8.4,2.3v0.1c-0.3,0.2-0.6,0.4-0.9,0.6c-1.1,0.7-1.3,2.1-0.6,3.2c0.4,0.5,0.9,0.9,1.6,1l0,0
		c-0.1,1.2-0.3,2.3-0.6,3.4c-1.7,6.4-6,11.7-11.8,14.8c-0.2,0.1-0.4,0.2-0.6,0.3c0.9,2.4,1.6,4.9,2.1,7.5c0.5,2.2,0.8,4.5,1,6.8
		c0.2,2.9,0.2,5.8,0,8.6v-0.1c0.6-3.2,2.3-6.1,4.8-8.1c3.7-3,8.9-4.2,12.9-6.6c1.2-0.8,2.9-0.4,3.7,0.8c0.3,0.5,0.5,1.2,0.4,1.8v0.1
		c-0.6,0.2-1.2,0.5-1.7,0.8c-0.3,0.2-0.6,0.4-0.9,0.6c-1.1,0.7-1.3,2.1-0.6,3.2c0.4,0.5,0.9,0.9,1.6,1l0,0h0.1
		c-1,2.4-2.5,4.7-4.2,6.6c-4.4,4.8-10.6,7.5-17.2,7.5l0,0c-0.9,3.8-2.1,7.5-3.8,11h-13.5c0-0.2-0.1-0.3-0.1-0.5
		c1.3,0.1,2.5,0,3.7-0.2c-1-1.2-2-2.5-3-3.7c0,0,0,0-0.1-0.1c-0.5-0.6-1-1.3-1.5-1.9l0,0C697.4,741.8,697.6,739.8,698.1,738
		L698.1,738z"/>
	<path class="st4" d="M1100.3,751.1c0.9,0,1.7-0.7,1.8-1.6c0-0.5-0.2-1-0.5-1.3c0-0.2-0.1-0.3-0.1-0.5c0,0,0-0.1,0.1-0.1
		c1-2.3,3.7-3.4,6-2.4c1.1,0.5,2,1.3,2.4,2.5c1.4,3.3,3.1,6.6,3.6,10.2c0.2,1.5,0.1,3.1-0.2,4.6c3.2-7.1,4.9-14.7,4.9-22.5
		c0-2-0.1-3.9-0.3-5.8c-0.2-1.6-0.4-3.2-0.8-4.7c-1.7-8.5-5.5-16.4-10.9-23.2c-2.6-1.4-4.7-3.6-6.1-6.3c-0.5-1-0.8-2-1-3
		c0.3,0,0.6,0.1,0.9,0.1c0.1,0,0.2,0,0.3,0l0,0c0.9,0,1.7-0.7,1.8-1.6c0-0.4-0.1-0.8-0.4-1.1c-0.1-0.2-0.3-0.3-0.4-0.5
		c-0.2-0.2-0.4-0.5-0.6-0.7c0,0,0,0-0.1-0.1c-0.2-0.3-0.4-0.5-0.7-0.8c0.4-0.6,0.9-1.2,1.6-1.5c2.2-1.3,5.3-0.4,6.9,1.6
		s1.9,4.8,1.4,7.4c-0.6,2.1-1.5,4.2-2.7,6c0.1,0.2,0.3,0.3,0.4,0.5c2.2,2.8,4.1,5.9,5.8,9.1c-0.4-3.6,0.1-7.3,1.4-10.6
		c1.3-3.2,3.8-5.8,5.9-8.5c2.6-3.3,7.9-1.8,8.4,2.3v0.1c-0.3,0.2-0.6,0.4-0.9,0.6c-1.1,0.7-1.3,2.1-0.6,3.2c0.4,0.5,0.9,0.9,1.6,1
		h0.1c-0.1,1.2-0.3,2.3-0.6,3.4c-1.7,6.4-5.9,11.7-11.8,14.8c-0.2,0.1-0.4,0.2-0.6,0.3c1.6,4.6,2.6,9.4,3,14.3
		c0.2,2.9,0.2,5.8,0,8.6v-0.1c0.6-3.2,2.3-6.1,4.8-8.1c3.7-3,8.9-4.2,12.9-6.6c1.2-0.8,2.9-0.4,3.7,0.8c0.3,0.5,0.5,1.2,0.4,1.8v0.1
		c-0.6,0.2-1.2,0.5-1.7,0.8c-0.3,0.2-0.6,0.4-0.9,0.6c-1.1,0.7-1.3,2.1-0.6,3.2c0.4,0.5,0.9,0.9,1.6,1h0.1h0.1
		c-1,2.4-2.4,4.7-4.2,6.6c-4.4,4.8-10.6,7.5-17.2,7.5l0,0c-0.9,3.8-2.1,7.5-3.8,11H1101c-0.1-0.2-0.1-0.3-0.1-0.5
		c1.3,0.1,2.5,0,3.7-0.2c-1-1.2-2-2.5-3-3.7c0,0,0,0-0.1-0.1c-0.5-0.6-1-1.3-1.5-1.9l0,0C1099.6,754.9,1099.8,753,1100.3,751.1
		L1100.3,751.1z"/>
	<path class="st4" d="M939.9,712.1c0.9,0,1.7-0.7,1.8-1.6c0-0.5-0.2-1-0.5-1.3c0-0.2-0.1-0.3-0.1-0.5v-0.1c1-2.3,3.7-3.4,6-2.4
		c1.1,0.5,2,1.3,2.4,2.5c1.4,3.3,3.1,6.6,3.6,10.2c0.2,1.5,0.1,3.1-0.2,4.6c3.2-7.1,4.9-14.7,4.9-22.5c0-2-0.1-3.9-0.3-5.8
		c-0.2-1.6-0.4-3.2-0.8-4.7c-1.7-8.5-5.5-16.4-10.9-23.2c-2.6-1.4-4.7-3.6-6.1-6.3c-0.5-1-0.8-2-1-3c0.3,0,0.6,0.1,0.9,0.1
		c0.1,0,0.2,0,0.3,0l0,0c0.9,0,1.7-0.7,1.8-1.6c0-0.4-0.1-0.8-0.4-1.1c-0.1-0.2-0.3-0.3-0.4-0.5c-0.2-0.2-0.4-0.5-0.6-0.7
		c0,0,0,0-0.1-0.1c-0.2-0.3-0.5-0.5-0.7-0.8c0.4-0.6,1-1.2,1.6-1.5c2.2-1.3,5.3-0.4,6.9,1.6c1.6,2,1.9,4.8,1.4,7.4
		c-0.5,2.1-1.5,4.2-2.7,6c0.1,0.2,0.3,0.3,0.4,0.5c2.2,2.8,4.1,5.9,5.8,9.1c-0.4-3.6,0.1-7.3,1.4-10.6c1.3-3.2,3.8-5.8,5.9-8.5
		c2.6-3.3,7.9-1.8,8.4,2.3v0.1c-0.3,0.2-0.6,0.4-0.9,0.6c-1.1,0.7-1.3,2.1-0.6,3.2c0.4,0.5,0.9,0.9,1.6,1l0,0
		c-0.1,1.2-0.3,2.3-0.6,3.4c-1.7,6.4-6,11.7-11.8,14.8c-0.2,0.1-0.4,0.2-0.6,0.3c1.6,4.6,2.6,9.4,3,14.3c0.2,2.9,0.2,5.8,0,8.6v-0.1
		c0.6-3.2,2.3-6.1,4.8-8.1c3.7-3,8.9-4.2,12.9-6.6c1.2-0.8,2.9-0.4,3.7,0.8c0.3,0.5,0.5,1.2,0.4,1.8v0.1c-0.6,0.2-1.2,0.5-1.7,0.8
		c-0.3,0.2-0.6,0.4-0.9,0.6c-1.1,0.7-1.3,2.1-0.6,3.2c0.4,0.5,0.9,0.9,1.6,1l0,0h0.1c-1,2.4-2.5,4.7-4.2,6.6
		c-4.4,4.8-10.6,7.5-17.2,7.5l0,0c-0.9,3.8-2.1,7.5-3.8,11h-13.5c0-0.2-0.1-0.3-0.1-0.5c1.3,0.1,2.5,0,3.7-0.2c-1-1.2-2-2.5-3-3.7
		c0,0,0,0-0.1-0.1c-0.5-0.6-1-1.3-1.5-1.9l0,0C939.2,715.9,939.4,714,939.9,712.1L939.9,712.1z"/>
	<polygon class="st7" points="854.1,814.7 859.8,813 856,789.9 847.7,792.4 	"/>
	<path class="st7" d="M819.5,805.5c0.3,0.3,0.7,0.6,1,0.9c0.7,0.6,1.4,1.2,2.1,1.8c0.3,0.3,0.7,0.6,1.1,0.9l0,0l0,0l0,0l0.6,0.2
		l1.2-2.1l0.6-1l0.8-1.4l1.4-2.5l7.6-13.3l-8-3.4l-0.5,1.2l0,0l-0.3,0.6l-4.8,11.3l-1,2.3v0.1l-0.6,1.4l-0.5,1.2l-0.6,1.3
		L819.5,805.5z"/>
	<path class="st8" d="M777.6,748c0.4,0.9,0.8,1.9,1.2,2.8c0.8,1.7,1.6,3.4,2.4,5.1l0,0c0.5,0.7,1.1,1.3,1.8,1.8c0,0,0.1,0,0.1,0.1
		c0.5,0.4,1,0.7,1.6,1c0.2,0.1,0.4,0.2,0.6,0.3c0.8,0.3,1.5,0.6,2.2,0.8c1.3,0.5,2.7,0.8,4,1.2c0.1,0,0.2,0,0.3,0.1
		c5.5,1.3,10.9,1.5,16.7,1.3c2.8-0.1,5.8-0.3,8.8-0.5c1-0.1,2-0.1,3-0.2c0.1,0,0.2,0,0.2,0c1.4-0.1,2.9-0.2,4.4-0.2
		c1.9-0.1,3.8-0.2,5.8-0.2l-0.6,2.7c-0.5,2.1-1.2,4.1-2.3,6c-1.2,2.3-2.2,4.1-1.4,8.4l0.4,2c-1,1.8-1.1,4.1-0.3,6l0.1,0.2l-7.8,13.3
		l-0.5,0.9l2.9,0.5l3.5,0.6l6,1l11.4-15.9l0.5-0.8l0,0l4.4-33.4c0-0.3,0.1-0.6,0.1-0.9c0.1-2.7-0.9-5.4-2.8-7.4
		c-1.8-1.9-4.3-3.1-6.9-3.1l-3-0.1l-6.2-0.2l-4.3-0.1h-0.1l-12.8-0.4l-0.3-3.8l-0.2-0.1l-5-2.8l-17.2-9.6l0,0l-1.1-0.6L787,724
		c0,0.1-0.1,0.1-0.2,0.2c-1.5,1.9-2.8,4-3.9,6.2c-1.8,3.6-3.5,7.3-4.9,11.1c-0.1,0.2-0.1,0.3-0.2,0.5l0,0c0,0.1,0,0.1,0,0.1
		C777.2,743.5,777.2,745.7,777.6,748z"/>
	<path class="st8" d="M778.8,735.6c0.1-0.2,0.2-0.5,0.3-0.7c0.9-1.7,1.9-3.4,3-5.1c1.2-1.9,2.7-3.8,4.3-6c0.8-1,1.7-2.1,2.6-3.2
		c0.5-0.5,0.9-1.1,1.4-1.7c0,0,0,0,0.1-0.1l0.1-0.2l17.7,5.3v2.4l1.3,3.4l-0.1,0.1l0,0v-0.5l0.5,0.5l4.5,5.6l0,0l10.2,0.3l10.5,0.3
		l5.6,0.2c2.6,0.1,5.1,1.2,6.9,3.1c1.9,2,2.9,4.7,2.8,7.4c0,0.3,0,0.6-0.1,0.8l3.3,13.2c2,7.9,2.7,16,2.2,24.1l1.9,12.8h-0.5
		l-8.2-0.5l-2.2-0.1l-3.6-7.6c-0.4-0.9-0.8-1.8-1.1-2.7c-0.6-1.5-1-3-1.4-4.5l-6.3-25.8c-0.8,0-1.6,0-2.4,0c-3.7,0-7.2-0.1-10.5-0.2
		c-10.9-0.5-20.1-1.9-28.2-4.2c-2.3-0.7-4.4-1.4-6.5-2.2c-0.8-0.3-1.5-0.6-2.3-0.9c-0.2-0.1-0.3-0.1-0.5-0.2
		c-3.1-1.3-5.3-4.2-5.9-7.5C777.8,739.3,778,737.4,778.8,735.6z"/>
	<path class="st8" d="M853,810.8l6.1-1.8l1-0.3l0.9,3.7l9.6,3.8c1.2,0.5,1.8,1.9,1.3,3.1c-0.3,0.7-0.9,1.3-1.7,1.5l-10.3,2.4
		l-2.6-3.3l0.2,3.8l-3.9,0.9l-2-13.4L853,810.8z"/>
	<polygon class="st8" points="818.9,799.9 818.4,800.8 818.8,800.8 	"/>
	<path class="st8" d="M820.7,801.3l5.6,3l0.9,0.5l-2,3.3l4.2,9.4c0.5,1.2,0,2.6-1.2,3.2c-0.7,0.3-1.5,0.3-2.2-0.2l-9-5.5l0.4-4.2
		l-2.6,2.8l-3.4-2.1l8-10.9L820.7,801.3z"/>
	<path class="st7" d="M861.4,630c0.2,2.4-1.5,4.4-3.9,4.6c-0.3,0-0.5,0-0.8,0l-6.3,13.9l-4.2-6.7l6.6-12.1c0.4-2.3,2.6-4,4.9-3.6
		C859.7,626.4,861.2,628,861.4,630L861.4,630z"/>
	<path class="st2" d="M845.5,671.3l-28.7,21.9c-4.7,3.6-11.5,2.7-15.1-2l0,0c-3.6-4.7-2.7-11.5,2-15.1c0.5-0.4,1.1-0.8,1.7-1
		l28.6-14.5l12.8-24.9l8.6,2.5L845.5,671.3z"/>
	<path class="st2" d="M784.4,697.3l-0.6,21.3c-8,13.5-8.9,20.1-6.7,23.6l32.9-12l0.5-1.3l1.7-9.5l3.1-9.8c0.5-1,8-7.3,1-19.3
		l-14-18.9l-11.3-0.6c-1.8,4.8,1.5,7.4-1.8,8.5C781.8,686.1,782.9,687.2,784.4,697.3z"/>
	<path class="st7" d="M762.1,757.1c-1-2.2,0-4.7,2.2-5.7c0.2-0.1,0.5-0.2,0.7-0.3l1.4-15.2l6.2,4.9l-2.3,13.6c0.4,2.3-1.1,4.6-3.5,5
		C764.8,759.9,762.8,758.9,762.1,757.1L762.1,757.1z"/>
	<path class="st2" d="M763.6,712.9l19.9-30.1c3.3-5,10-6.3,15-3l0,0c5,3.3,6.3,10,3,15c-0.4,0.5-0.8,1.1-1.2,1.5l-22.3,23l-4,27.7
		l-9,0.4L763.6,712.9z"/>
	<path class="st8" d="M805.9,644.9c4,7.8,1.4,16.9-6,21.7c-8,5.2-18.3,4-21.7-6c-3.7-11.2-0.7-16,6-21.7
		C792,632.2,801.6,636.4,805.9,644.9z"/>
	<path class="st7" d="M786.3,662.3c4.2,5.5,12.1,6.6,17.7,2.4c5.5-4.2,6.6-12.1,2.4-17.6l-0.1-0.1c-4.3-5.4-12.3-6.3-17.7-2
		C783.2,649.2,782.2,656.9,786.3,662.3L786.3,662.3z"/>
	<path class="st8" d="M809.7,643.6c-2,2-4.5,3.4-7.3,4.1c-0.5-0.6-1.2-1.2-1.9-1.6c0.3,0.7,0.6,1.5,0.7,2.3
		c-1.2,2.5-6.2,4.3-10.9,6.2l-6.3-11.1l8.3-4.7C799.1,634.2,806.9,636.1,809.7,643.6z"/>
	<path class="st8" d="M779.3,638.9c-1.1-0.5-2.6-0.2-3.7,0.5c-1,0.8-1.8,1.8-2.4,2.9c-1,1.8-1.8,3.8-2.2,5.9c-0.4,1.8-0.3,4,1.3,4.9
		c1.3,0.8,3.3,0.3,4.5-0.8s1.9-2.5,2.5-3.9s1.2-2.9,2.2-4.1l-1.1,0.5c0.3-1.1,0.5-2.2,0.5-3.3C781,640.4,780.3,639.4,779.3,638.9z"
		/>
	<path class="st8" d="M793.7,640.3l-8.9,5c-5,2.8-6.8,9.2-3.9,14.2l0,0c4.1,7.3,13.1,10.2,20.7,6.8l-8.1-7.2l11,5.6l2.4-1.3
		C795,661.4,792.7,652.1,793.7,640.3z"/>
</g>
<g>
	<g class="st10">
		<path class="st11" d="M153.5,188.6c3,0,6.2-0.2,9.6-1l0.2,1.6c-3.6,0.7-6.8,0.9-10,0.9h-1.7v-13.5h1.8L153.5,188.6L153.5,188.6z
			 M170.3,184.4H167v11h-1.8v-20.8h1.8v8.3h3.4L170.3,184.4L170.3,184.4z"/>
		<path class="st11" d="M185.5,188.6l0.1,1.4c-4.8,0.9-9.9,0.9-13.6,0.9l-0.3-1.6C175.5,189.3,180.8,189.3,185.5,188.6z M184,181
			c0,2.9-2.3,4.9-5.6,4.9s-5.6-2-5.6-4.9s2.3-4.9,5.6-4.9S184,178.1,184,181z M174.6,181c0,1.9,1.6,3.3,3.8,3.3s3.8-1.3,3.8-3.3
			s-1.6-3.3-3.8-3.3C176.2,177.7,174.6,179.1,174.6,181z M188.7,195.5h-1.8v-20.9h1.8V195.5z"/>
		<path class="st11" d="M206.9,176.2c0,1.1,0,3.4-0.8,6.6h6.5c0.6-2.5,0.7-4.4,0.7-5.7h-4.9v-1.5h6.6v0.8c0,1.2,0,3.4-0.6,6.4h2.9
			v1.5h-8.7v3.5h6.3v7.3h-14.3v-7.3h6.2v-3.5h-8.6v-1.5h6c0.6-2.5,0.8-4.4,0.8-5.7h-4.9v-1.5h6.7v0.6H206.9z M202.5,193.6h10.6v-4.3
			h-10.6V193.6z"/>
		<path class="st11" d="M230.5,183.5c0,4.4-2.2,7.2-5.3,7.2s-5.3-2.8-5.3-7.2s2.2-7.2,5.3-7.3C228.3,176.2,230.5,179,230.5,183.5z
			 M221.6,183.5c0,3.4,1.5,5.6,3.5,5.6s3.5-2.2,3.5-5.6s-1.5-5.6-3.5-5.6S221.6,180.1,221.6,183.5z M236.3,195.5h-1.9v-20.9h1.9
			V195.5z"/>
		<path class="st11" d="M257.3,183.5c0,4.4-2.2,7.2-5.3,7.2s-5.3-2.8-5.3-7.2s2.2-7.2,5.3-7.3C255,176.2,257.3,179,257.3,183.5z
			 M248.4,183.5c0,3.4,1.5,5.6,3.5,5.6s3.5-2.2,3.5-5.6s-1.5-5.6-3.5-5.6S248.4,180.1,248.4,183.5z M263,195.5h-1.9v-20.9h1.9V195.5
			z"/>
		<path class="st11" d="M285.7,188.7H277v6.7h-1.8v-6.7h-8.6v-1.5h19.1V188.7z M283.3,180.8h-12.6v2.7h13v1.5h-14.9v-5.7h12.5v-2.5
			h-12.6v-1.5h14.5v5.5H283.3z"/>
		<path class="st11" d="M298.1,182.5h4.7v-8h1.8v21h-1.8v-11.4h-4.6c-0.2,4.1-2.3,6.6-5.2,6.6c-3.1,0-5.2-2.8-5.2-7.2
			s2.2-7.2,5.2-7.3C295.8,176.2,297.8,178.6,298.1,182.5z M289.5,183.5c0,3.4,1.4,5.6,3.5,5.6c2,0,3.5-2.2,3.5-5.6s-1.4-5.6-3.5-5.6
			S289.5,180.1,289.5,183.5z"/>
		<path class="st11" d="M321.2,189.4l-1,1.5c-2.4-1.1-4.5-3.5-5.5-6.4c-1,3.1-3.1,5.7-5.5,6.9l-1.1-1.5c3-1.4,5.6-5.4,5.6-9v-2.7
			h-4.9v-1.5h11.7v1.5h-5v2.7C315.5,184.5,318.1,188.1,321.2,189.4z M325.3,195.4h-1.9v-20.8h1.9V195.4z"/>
		<path class="st11" d="M347.9,186.7h-19.1v-1.5h19.1V186.7z M345.8,194.9h-14.5v-6h1.8v4.5h12.7V194.9z M345.7,182.4h-14.3v-7h1.8
			v5.6h12.4v1.4H345.7z"/>
		<path class="st11" d="M374.6,185.8h-19v-1.5h7.9v-4h1.8v4h9.3L374.6,185.8L374.6,185.8z M372.3,191.6c0,2.4-2.8,3.8-7.3,3.8
			s-7.3-1.4-7.3-3.8c0-2.4,2.8-3.8,7.3-3.8C369.5,187.7,372.3,189.2,372.3,191.6z M372.2,177.4c0,1.7,0,3.4-0.6,5.5l-1.8-0.2
			c0.6-2.2,0.6-3.7,0.6-5.3v-0.3h-12.5v-1.5h14.3V177.4z M359.6,191.6c0,1.5,2.1,2.3,5.5,2.3s5.5-0.9,5.5-2.3c0-1.5-2.2-2.4-5.5-2.4
			C361.7,189.2,359.5,190.1,359.6,191.6z"/>
		<path class="st11" d="M377.2,187.4l-0.8-1.5c5-1.6,8.3-4.5,8.6-8.2h-7.8v-1.5h9.8C387,181.6,383.2,185.5,377.2,187.4z M393.6,195
			h-14v-6.7h1.8v5.1h12.2V195z M392.6,180.9h3.1v1.5h-3.1v7.4h-1.9v-15.3h1.9V180.9z"/>
	</g>
	<g class="st10">
		<path class="st11" d="M179,227.8c-10.1,0-16.9,7.7-16.9,21.4s6.6,21.6,17,21.6c9.3,0,14.8-5.3,15-13.5H180v-10.2h27.1v8.1
			c0,17.1-11.7,27.5-28.1,27.5c-18.2,0-30.6-12.8-30.6-33.3c0-21.1,13.2-33.5,30.4-33.5c14.6,0,26,9,27.8,21.8h-13.7
			C191,231.6,186.1,227.8,179,227.8z"/>
		<path class="st11" d="M248,233h13.3v48.8h-12.8V273H248c-2.2,5.7-7.5,9.4-14.8,9.4c-9.8,0-16.4-6.9-16.4-18.3V233H230v28.8
			c0,5.8,3.3,9.4,8.5,9.4c4.9,0,9.4-3.5,9.4-10.2v-28H248z"/>
		<path class="st11" d="M271.6,233h12.7v8.5h0.5c2.1-5.7,7-9.2,13.6-9.2c6.7,0,11.7,3.5,13.3,9.2h0.4c2.1-5.6,7.5-9.2,14.7-9.2
			c9.1,0,15.4,6,15.4,16.6v32.8h-13.3v-30.2c0-5.6-3.2-8.3-7.6-8.3c-5,0-7.9,3.5-7.9,8.6v29.8h-12.9v-30.5c0-4.9-3.1-7.9-7.5-7.9
			s-8,3.6-8,9.2v29.3h-13.3V233H271.6z"/>
		<path class="st11" d="M352.5,233h12.7v8.5h0.5c2.1-5.7,7-9.2,13.6-9.2c6.7,0,11.7,3.5,13.3,9.2h0.4c2.1-5.6,7.5-9.2,14.7-9.2
			c9.1,0,15.4,6,15.4,16.6v32.8h-13.3v-30.2c0-5.6-3.2-8.3-7.6-8.3c-5,0-7.9,3.5-7.9,8.6v29.8h-12.9v-30.5c0-4.9-3.1-7.9-7.5-7.9
			s-8,3.6-8,9.2v29.3h-13.3V233H352.5z"/>
		<path class="st11" d="M432.7,219.9c0-3.8,3.2-6.8,7.3-6.8c4,0,7.2,3.1,7.2,6.8s-3.2,6.7-7.2,6.7
			C435.9,226.6,432.7,223.6,432.7,219.9z M433.3,233h13.3v48.8h-13.3V233z"/>
	</g>
	<g>
		<path class="st11" d="M162.1,161.7l-1.1,1.4c-2.1-1.1-3.6-3.2-4.3-5.8c-0.7,2.9-2.2,5.2-4.4,6.5l-1.1-1.4c3-1.6,4.6-5.2,4.6-9.4
			v-1.7h-4.1v-1.5h9.8v1.5h-3.9v1.7C157.6,156.8,159.1,160.2,162.1,161.7z M169.3,168.1h-1.8v-10.8h-2.8v9.8h-1.8v-19.3h1.8v8h2.8
			v-8.4h1.8V168.1z"/>
		<path class="st11" d="M191.2,158.6h-19v-1.5h19V158.6z M188.8,164.3c0,2.4-2.7,3.8-7.2,3.8c-4.5,0-7.2-1.4-7.2-3.8
			s2.7-3.8,7.2-3.8C186.1,160.5,188.8,161.9,188.8,164.3z M189,154.7h-14.2v-6.9h1.8v5.4H189V154.7z M176.3,164.3
			c0,1.5,2,2.3,5.3,2.3c3.3,0,5.3-0.9,5.3-2.3c0-1.5-2-2.3-5.3-2.3C178.3,162,176.3,162.8,176.3,164.3z"/>
		<path class="st11" d="M194.2,164.2l-1-1.5c5.6-2.7,8.5-6.7,8.9-11.6h-8v-1.5h9.8C203.9,155.6,201.1,160.9,194.2,164.2z
			 M210.1,168.1h-1.9v-20.8h1.9V168.1z"/>
		<path class="st11" d="M232.7,161.2H224v7h-1.8v-7h-8.6v-1.5h19.1V161.2z M217.9,151h10.5v-2.9h1.9v9h-14.2v-9h1.8V151z
			 M228.4,155.6v-3.1h-10.5v3.1H228.4z"/>
		<path class="st11" d="M253.4,158.1h-19v-1.5h19V158.1z M251.6,149.4h-3.2v4h3.1v1.4h-15.3v-1.4h3.1v-4h-3.2V148h15.4V149.4z
			 M250.9,164.5h-12.4v2h13v1.4h-14.8v-4.7h12.4v-1.8h-12.4V160h14.3V164.5z M246.5,153.4v-4h-5.3v4H246.5z"/>
		<path class="st11" d="M263.9,154.8h-6.1v3.1c2.7,0,4.8-0.1,7.3-0.6l0.2,1.5c-2.7,0.5-4.9,0.6-7.9,0.6h-1.4v-6h6.1v-2.9H256v-1.5
			h7.9V154.8z M273.9,166.6l-0.8,1.4c-3.1-0.5-6.1-2.1-7.3-4.5c-1.3,2.3-4.2,3.9-7.3,4.5l-0.8-1.4c3.6-0.6,7.1-2.8,7.2-5.5v-0.5h1.8
			v0.5C266.8,163.8,270.3,166,273.9,166.6z M272.8,161.5h-1.8v-7.2h-2.9v5.4h-1.7v-12h1.7v5.1h2.9v-5.5h1.8V161.5z"/>
		<path class="st11" d="M294.9,159.3h-19v-1.5h8.6v-2.4h-6.7v-1.5h3.1v-4.4h-3.2V148H293v1.5h-3.2v4.4h3.1v1.5h-6.7v2.4h8.6V159.3z
			 M292.5,167.9h-14.3v-6.5h14.3V167.9z M280,166.4h10.7v-3.6H280V166.4z M288,153.9v-4.4h-5.3v4.4H288z"/>
	</g>
</g>
</svg>
