<?xml version="1.0" encoding="utf-8"?>
<!-- Generator: Adobe Illustrator 24.0.2, SVG Export Plug-In . SVG Version: 6.00 Build 0)  -->
<svg version="1.1" id="Layer_1" xmlns="http://www.w3.org/2000/svg" xmlns:xlink="http://www.w3.org/1999/xlink" x="0px" y="0px"
	 viewBox="0 0 1460 430" style="enable-background:new 0 0 1460 430;" xml:space="preserve">
<style type="text/css">
	.st0{fill:#9CD083;}
	.st1{fill:none;}
	.st2{enable-background:new    ;}
	.st3{fill:#FFFFFF;}
	.st4{fill:#E6E6E6;}
	.st5{fill:#F2F2F2;}
	.st6{fill:#D08383;}
	.st7{fill:#2F2E41;}
	.st8{fill:#F1F1F1;}
	.st9{fill:#E5E5E5;}
	.st10{fill:#CBCBCB;}
	.st11{fill:#3F3D56;}
</style>
<rect x="-0.1" class="st0" width="1460.1" height="431"/>
<rect x="762.8" y="160.4" class="st1" width="597.3" height="132.5"/>
<g class="st2">
	<path class="st3" d="M700.1,166.1c0,4.8-3.9,8.3-9,8.3c-5.1,0-9-3.5-9-8.3c0-4.9,4-8.3,9-8.3C696.1,157.8,700.1,161.2,700.1,166.1z
		 M686.6,166.1c0,2.7,2,4.3,4.5,4.3c2.5,0,4.4-1.7,4.5-4.3c0-2.7-2-4.4-4.5-4.3C688.6,161.7,686.6,163.4,686.6,166.1z M709.1,187.9
		h-22.5v-10.9h4.6v7.2h17.9V187.9z M707.9,165.1h4.4v3.8h-4.4v10.7h-4.6v-24h4.6V165.1z"/>
	<path class="st3" d="M734.1,169.5l-2.2,3.5c-3.8-1.1-6.4-3.4-7.8-6.3c-1.5,3.2-4.2,5.7-8.1,6.9l-2.2-3.6c5.5-1.7,7.9-5.9,7.9-10
		v-3.2h4.8v3.2C726.4,164.1,728.8,167.8,734.1,169.5z M741.4,188.2h-22v-12.4h22V188.2z M723.9,184.5h13v-5.1h-13V184.5z
		 M741.4,174.2h-4.6v-18.5h4.6V174.2z"/>
	<path class="st3" d="M764.9,164.2h-19.3v-3.7h7.4v-4.4h4.6v4.4h7.3V164.2z M763.8,173.9c0,4.6-3.6,7.8-8.4,7.8
		c-4.8,0-8.4-3.3-8.4-7.8s3.6-7.8,8.4-7.8C760.2,166.1,763.8,169.3,763.8,173.9z M751.4,173.9c0,2.6,1.7,4.1,4,4c2.3,0,4-1.5,4-4
		c0-2.5-1.7-4.1-4-4.1C753.1,169.8,751.4,171.4,751.4,173.9z M771.7,168.5h4.8v3.8h-4.8v16.2h-4.6v-32.9h4.6V168.5z"/>
	<path class="st3" d="M807.8,184.5h-30v-3.8h10.7v-11.3h4.6v11.3h14.7V184.5z M804.9,161.6c0,4.1,0,8.7-1.3,15.7l-4.6-0.5
		c1.2-6.2,1.3-10.8,1.3-14.7h-19.4v-3.6h24V161.6z"/>
	<path class="st3" d="M847,188.5h-4.4V172h-2.8v15h-4.4v-9.4l-2.6,3.5c-3.1-1.6-5-4.3-6.2-7.7c-1.1,3.9-3.1,7.1-6.2,8.9l-2.9-3.5
		c5-2.8,6.7-8.6,6.7-14.9v-1h-5.6V159h15.1v3.7h-5v1c0,5.7,1.7,11.2,6.6,13.7v-21.4h4.4v12.2h2.8v-12.6h4.4V188.5z"/>
	<path class="st3" d="M880.3,174.1h-30.1v-3.8h30.1V174.1z M876.7,182.3c0,3.9-4.3,6.1-11.5,6.1c-7.2,0-11.5-2.2-11.5-6.1
		c0-3.9,4.3-6.1,11.5-6.1C872.3,176.2,876.6,178.4,876.7,182.3z M876.9,167.6h-22.9v-11.4h4.6v7.7h18.3V167.6z M858.4,182.3
		c0,1.7,2.3,2.6,6.8,2.6c4.4,0,6.8-0.9,6.8-2.6c0-1.7-2.4-2.5-6.8-2.5C860.7,179.8,858.4,180.6,858.4,182.3z"/>
	<path class="st3" d="M912.2,172.5h-30v-3.6h30V172.5z M909.2,161.7c0,3.6-4.4,5.6-12,5.6c-7.6,0-12-2-12-5.6c0-3.6,4.4-5.6,12-5.6
		C904.8,156.1,909.2,158.1,909.2,161.7z M908.6,182.8h-18.3v2h19.2v3.5h-23.7v-8.7H904v-1.8h-18.3v-3.4h22.9V182.8z M890.1,161.7
		c0,1.6,2.3,2.2,7.2,2.2c4.9,0,7.2-0.6,7.2-2.2c0-1.4-2.3-2.2-7.2-2.2C892.4,159.5,890,160.3,890.1,161.7z"/>
	<path class="st3" d="M928.4,176.6c4.2-0.1,8.7-0.5,13.5-1.4l0.5,3.8c-5.5,1.1-10.8,1.4-15.7,1.4h-2.9v-21.6h4.6V176.6z
		 M953.3,171.9h-4.7v16.6h-4.6v-32.8h4.6v12.5h4.7V171.9z"/>
	<path class="st3" d="M984.8,177.1h-12.9v11.4h-4.6v-11.4h-12.6v-3.8h30.1V177.1z M981.6,169.6h-23.2v-12.5h4.6v8.8h18.6V169.6z"/>
	<path class="st3" d="M1003.2,177.6l-2.5,3.6c-2.8-1.7-4.6-4.5-5.7-7.9c-1.2,3.7-3.2,6.8-6.1,8.6l-2.8-3.4c4.9-3,6.7-8.8,6.7-14.4
		v-5.7h4.5v5.5C997.2,169.2,998.7,174.7,1003.2,177.6z M1008.3,187h-4.3v-16.5h-4.3v-3.8h4.3v-10.6h4.3V187z M1015.2,188.5h-4.4
		v-32.9h4.4V188.5z"/>
	<path class="st3" d="M1048.8,184.7h-30.1v-3.8h6.7v-8.1c-2.5-1.5-4.1-3.8-4.1-6.8c0-5.3,5.2-8.9,12.4-8.9c7.1,0,12.4,3.5,12.4,8.9
		c0,2.8-1.5,5.1-4,6.7v8.1h6.7V184.7z M1025.9,166.1c0,3.2,3.1,5.2,7.8,5.2c4.7,0,7.8-2,7.8-5.2c0-3.3-3.2-5.2-7.8-5.2
		C1029,160.9,1025.9,162.7,1025.9,166.1z M1037.4,180.9v-6.4c-1.2,0.2-2.4,0.4-3.8,0.4c-1.3,0-2.6-0.1-3.7-0.4v6.4H1037.4z"/>
	<path class="st3" d="M1060.9,182.5c0-1.7,1.3-3,3-3c1.6,0,3,1.3,3,3s-1.4,3-3,3C1062.2,185.5,1060.8,184.1,1060.9,182.5z
		 M1066.2,177.3h-4.6l-0.5-18.3h5.6L1066.2,177.3z"/>
</g>
<g class="st2">
	<path class="st3" d="M694.9,223.5c-4,0-6.8,3.1-6.8,8.6c0,5.5,2.7,8.7,6.8,8.7c3.7,0,6-2.1,6-5.4h-5.7v-4.1h10.9v3.3
		c0,6.9-4.7,11.1-11.3,11.1c-7.3,0-12.3-5.1-12.3-13.4c0-8.5,5.3-13.5,12.2-13.5c5.9,0,10.4,3.6,11.2,8.8h-5.5
		C699.7,225,697.7,223.5,694.9,223.5z"/>
	<path class="st3" d="M722.6,225.6h5.3v19.6h-5.1v-3.5h-0.2c-0.9,2.3-3,3.8-6,3.8c-3.9,0-6.6-2.8-6.6-7.4v-12.5h5.3v11.6
		c0,2.3,1.3,3.8,3.4,3.8c2,0,3.8-1.4,3.8-4.1V225.6z"/>
	<path class="st3" d="M732.1,225.6h5.1v3.4h0.2c0.8-2.3,2.8-3.7,5.5-3.7c2.7,0,4.7,1.4,5.3,3.7h0.2c0.8-2.2,3-3.7,5.9-3.7
		c3.6,0,6.2,2.4,6.2,6.7v13.2h-5.3V233c0-2.2-1.3-3.3-3.1-3.3c-2,0-3.2,1.4-3.2,3.5v12h-5.2v-12.3c0-2-1.2-3.2-3-3.2
		s-3.2,1.4-3.2,3.7v11.8h-5.3V225.6z"/>
	<path class="st3" d="M764.7,225.6h5.1v3.4h0.2c0.8-2.3,2.8-3.7,5.5-3.7c2.7,0,4.7,1.4,5.3,3.7h0.2c0.8-2.2,3-3.7,5.9-3.7
		c3.6,0,6.2,2.4,6.2,6.7v13.2h-5.3V233c0-2.2-1.3-3.3-3.1-3.3c-2,0-3.2,1.4-3.2,3.5v12h-5.2v-12.3c0-2-1.2-3.2-3-3.2
		s-3.2,1.4-3.2,3.7v11.8h-5.3V225.6z"/>
	<path class="st3" d="M796.9,220.3c0-1.5,1.3-2.7,2.9-2.7c1.6,0,2.9,1.2,2.9,2.7c0,1.5-1.3,2.7-2.9,2.7
		C798.2,223,796.9,221.8,796.9,220.3z M797.2,225.6h5.3v19.6h-5.3V225.6z"/>
	<path class="st3" d="M827.2,247h-4.3v-15.5h-2.6c-0.4,6.5-3.2,10.4-7.2,10.4c-4.3,0-7.2-4.6-7.2-12c0-7.4,2.8-11.9,7.2-11.9
		c4,0,6.7,3.7,7.2,9.8h2.7v-11.7h4.3V247z M810.1,229.9c0,5.1,1,7.6,2.9,7.5c1.9,0,3-2.5,3-7.5c0-5-1.1-7.6-3-7.6
		C811.2,222.3,810.1,224.8,810.1,229.9z M834.1,248.5h-4.4v-32.9h4.4V248.5z"/>
	<path class="st3" d="M858,237.6l-2.8,3.7c-3.6-1.8-6.1-5.1-7.4-9.1c-1.4,4.3-4,7.8-7.7,9.7l-2.9-3.8c5.6-2.5,8.2-8.9,8.2-15.1v-4.9
		h4.7v4.9C850,229.3,852.5,235.3,858,237.6z M865.3,248.6h-4.6v-18.9h-6.5V226h6.5v-10.3h4.6V248.6z"/>
	<path class="st3" d="M899.6,235.4h-30.1v-3.6h30.1V235.4z M896.4,247.8h-23.5V238h4.6v6.1h18.9V247.8z M896.2,228.2h-23v-11.4h4.6
		v7.8h18.4V228.2z"/>
	<path class="st3" d="M926,222.4h7.2v-6.8h4.6v33h-4.6v-12.3h-6.9c-1.5,3.3-4.1,5.1-7.3,5.1c-5,0-8.6-4.5-8.5-11.7
		c0-7.2,3.5-11.7,8.5-11.7C922,217.9,924.5,219.6,926,222.4z M915,229.7c0,4.9,1.7,7.6,4.1,7.6c2.5,0,4.1-2.6,4.1-7.6
		c0-4.9-1.6-7.6-4.1-7.6C916.6,222.1,914.9,224.8,915,229.7z M927.6,229.7c0,1-0.1,2-0.2,2.9h5.8v-6.5h-5.9
		C927.5,227.2,927.6,228.4,927.6,229.7z"/>
	<path class="st3" d="M958,230.7h-10.2v6.4c4.5,0,8.4-0.2,12.6-0.9l0.4,3.8c-4.9,0.8-9.4,1-14.9,1h-2.7V227h10.3v-5h-10.4v-3.7H958
		V230.7z M969.7,248.6h-4.6v-17.3h-5.3v-3.8h5.3v-11.9h4.6V248.6z"/>
	<path class="st3" d="M1004,236.1h-12.4v5.3h-4.6v-5.3h-13.2v-3.6h30.1V236.1z M1000.7,247.9h-23.2v-9.1h4.6v5.4h18.7V247.9z
		 M982.4,220.1h13.2v-3.4h4.6v13.5h-22.3v-13.5h4.6V220.1z M995.5,226.5v-3h-13.2v3H995.5z"/>
	<path class="st3" d="M1035.9,232.5h-30v-3.6h30V232.5z M1032.9,221.7c0,3.6-4.4,5.6-12,5.6c-7.6,0-12-2-12-5.6
		c0-3.6,4.4-5.6,12-5.6C1028.5,216.1,1032.9,218.1,1032.9,221.7z M1032.3,242.8H1014v2h19.2v3.5h-23.7v-8.7h18.3v-1.8h-18.3v-3.4
		h22.9V242.8z M1013.8,221.7c0,1.6,2.3,2.2,7.2,2.2c4.9,0,7.2-0.6,7.2-2.2c0-1.4-2.3-2.2-7.2-2.2
		C1016.1,219.5,1013.8,220.3,1013.8,221.7z"/>
	<path class="st3" d="M1067.5,237.9l-2.5,3.6c-3.9-1.6-6.6-4.9-8-8.9c-1.5,4.4-4.2,8-8.1,9.8l-2.6-3.6c5.5-2.4,8.3-8.5,8.3-14.1v-2
		h-7v-3.8h18.6v3.8h-6.9v2C1059.2,229.9,1061.9,235.6,1067.5,237.9z M1074,248.5h-4.7v-32.9h4.7V248.5z"/>
	<path class="st3" d="M1081.1,243.6l-2.4-3.5c5.4-2.7,8.8-5.7,10.8-9.5l-10,0.9l-0.6-3.9l12-0.7c0.4-1.4,0.7-2.9,0.8-4.4h-11.1v-3.7
		h15.7C1096.4,228.9,1093.6,237.5,1081.1,243.6z M1106.1,248.5h-4.7v-32.9h4.7V248.5z"/>
	<path class="st3" d="M1140.4,244.5h-30v-3.8h10.7v-11.3h4.6v11.3h14.7V244.5z M1137.5,221.6c0,4.1,0,8.7-1.3,15.7l-4.6-0.5
		c1.2-6.2,1.3-10.8,1.3-14.7h-19.4v-3.6h24V221.6z"/>
	<path class="st3" d="M1181,244.7h-30.1v-3.8h12.7v-6.1h-9.5v-17.1h4.6v5.1h14.3v-5.1h4.6v17.1h-9.5v6.1h12.8V244.7z M1173.1,231.2
		v-4.7h-14.3v4.7H1173.1z"/>
	<path class="st3" d="M1213,245.2h-30.1v-3.7h12.7v-3.8c-5.6-0.5-9-2.8-9-6.4c0-4,4.3-6.4,11.2-6.4c6.8,0,11.2,2.4,11.2,6.4
		c0,3.6-3.4,5.9-8.9,6.4v3.8h12.9V245.2z M1211.5,223.5h-27.4v-3.7h11.4V216h4.6v3.8h11.4V223.5z M1191.4,231.3c0,2,2.2,2.8,6.5,2.8
		c4.2,0,6.5-0.9,6.5-2.8c0-1.9-2.3-2.8-6.5-2.8C1193.6,228.5,1191.3,229.4,1191.4,231.3z"/>
	<path class="st3" d="M1234.4,222.1h-19.5v-3.6h7.5v-3.1h4.6v3.1h7.4V222.1z M1232.7,228.9c0,3.5-3.3,5.8-8.1,5.8
		c-4.8,0-8.2-2.3-8.2-5.8s3.3-5.8,8.2-5.8C1229.4,223.1,1232.7,225.4,1232.7,228.9z M1224,238.6h12.3v-2.5h4.6v12h-21.5v-12h4.6
		V238.6z M1221,228.9c0,1.6,1.4,2.5,3.6,2.5s3.7-0.9,3.7-2.5c0-1.6-1.5-2.5-3.7-2.4C1222.4,226.4,1220.9,227.3,1221,228.9z
		 M1236.3,244.5v-2.3H1224v2.3H1236.3z M1241,223.5h4.4v3.8h-4.4v7.5h-4.6v-19.3h4.6V223.5z"/>
	<path class="st3" d="M1253.2,236.4c4.4-0.1,9.2-0.5,14.1-1.4l0.6,3.8c-5.8,1.2-11.2,1.6-16.3,1.6h-2.9v-21.6h4.6V236.4z
		 M1274.5,248.5h-4.6v-32.9h4.6V248.5z"/>
	<path class="st3" d="M1295.6,222.4h-10.8v14.4c4.8-0.1,8.7-0.3,13.1-1l0.5,3.9c-5.1,0.9-9.6,1-15.4,1h-2.8v-21.9h15.4V222.4z
		 M1304.8,227.8h4.8v3.8h-4.8v17h-4.6v-33h4.6V227.8z"/>
</g>
<g>
	<path id="ad903c08-5677-4dbe-a9c7-05a0eb46801f-576" class="st4" d="M186.8,347.6c4.6,1.6,9.8,0.7,13.6-2.4
		c4.8-4,6.2-10.5,7.4-16.6l3.6-18l-7.5,5.2c-5.4,3.7-10.9,7.5-14.6,12.9c-3.7,5.4-5.4,12.7-2.4,18.5"/>
	<path id="a94887ac-0642-4b28-b311-c351a0f7f12b-577" class="st5" d="M187.4,369.4c-0.8-5.5-1.5-11.1-1-16.7c0.5-5,2-9.8,5.1-13.8
		c1.6-2.1,3.6-3.9,5.9-5.3c0.6-0.4,1.1,0.6,0.5,0.9c-3.9,2.5-6.9,6.1-8.6,10.4c-1.9,4.8-2.2,10-1.9,15c0.2,3.1,0.6,6.1,1,9.1
		c0.1,0.3-0.1,0.6-0.4,0.7C187.8,369.8,187.5,369.7,187.4,369.4L187.4,369.4z"/>
	<path class="st6" d="M337.8,250.3c-0.5,0.3-1.1,0.4-1.8,0.4l-56.6,1.6c-4.9,0.1-9-3.8-9.1-8.7c-0.1-4.9,3.8-9,8.7-9.1l56.5-1.6
		c2.4-0.1,4.4,1.8,4.4,4.2l0.2,9.1C340.3,248,339.3,249.6,337.8,250.3z"/>
	<path class="st6" d="M265.2,369.5h-9.1c-2.4,0-4.3-1.9-4.3-4.3v-75.9c0-2.4,1.9-4.3,4.3-4.3h9.1c2.4,0,4.3,1.9,4.3,4.3v75.9
		C269.5,367.6,267.6,369.5,265.2,369.5z"/>
	<path class="st6" d="M289.4,369.5h-9.1c-2.4,0-4.3-1.9-4.3-4.3v-75.9c0-2.4,1.9-4.3,4.3-4.3h9.1c2.4,0,4.3,1.9,4.3,4.3v75.9
		C293.7,367.6,291.8,369.5,289.4,369.5z"/>
	
		<ellipse transform="matrix(0.1602 -0.9871 0.9871 0.1602 57.5477 416.6393)" class="st6" cx="273.6" cy="174.5" rx="31.5" ry="31.5"/>
	<path class="st7" d="M284.3,311.9h-22.6c-14.8,0.1-26.8-11.9-26.8-26.6c0-4.8,1.2-9.4,3.6-13.5l31.7-54.9c1.1-1.9,3.6-2.6,5.5-1.5
		c0.6,0.4,1.1,0.9,1.5,1.5l31,53.8c7.6,13.2,3.1,30-10.1,37.6C293.9,310.6,289.1,311.9,284.3,311.9z"/>
	<path class="st7" d="M281.1,187.7c2-0.1,4.6-0.1,6.5-1.6c1.2-0.9,1.9-2.3,2-3.8c0.1-1.1-0.4-2.1-1.1-2.8c-1-0.9-2.5-1.1-4.1-0.6
		l1.7-12.2l-1.2-0.2l-2,14.3l1-0.5c1.2-0.5,2.8-0.8,3.8,0c0.5,0.4,0.8,1.1,0.7,1.8c-0.1,1.1-0.6,2.1-1.5,2.8
		c-1.5,1.1-3.5,1.3-5.8,1.3L281.1,187.7z"/>
	<rect x="292" y="167.9" class="st7" width="6.6" height="1.2"/>
	<rect x="271" y="167.9" class="st7" width="6.6" height="1.2"/>
	<path class="st6" d="M266.2,304.8c-0.3-0.5-0.4-1.1-0.4-1.8l-1.6-56.6c-0.1-4.9,3.8-9,8.7-9.1c4.9-0.1,9,3.8,9.1,8.7l1.5,56.5
		c0.1,2.4-1.8,4.4-4.2,4.4l-9.1,0.2C268.5,307.3,267,306.4,266.2,304.8L266.2,304.8z"/>
	<path class="st7" d="M270.7,151.2c3.8,5,9.9,8.4,16.3,7.6c6.1-0.8,11.1-5,12.4-11.1c1.1-5.9-0.7-11.9-4.8-16.2
		c-4.3-4.6-10.5-7-16.6-7.8c-11.6-1.6-23.5,2.5-32.3,10.1c-4.4,3.8-7.9,8.5-10.3,13.8c-2.3,5.3-3.4,11-3.2,16.7
		c0.3,11.3,5.3,22.7,13.9,30.2c1.1,0.9,2.2,1.8,3.3,2.6c1,0.7,1.9-0.9,0.9-1.6c-8.8-6.2-14.4-16.2-15.9-26.7
		c-1.6-10.7,1.5-21.6,8.7-29.8c7.1-8.1,17.5-13.3,28.3-13.8c10.8-0.5,24.4,4.4,26.4,16.4c0.9,5.4-1.1,11.1-6.1,13.8
		c-5.3,2.9-11.8,1.7-16.4-2c-1.1-0.9-2.1-1.9-3-3.1C271.6,149.4,270,150.3,270.7,151.2L270.7,151.2z"/>
	
		<rect id="fc777aff-63b1-4720-84dc-e3a9c20790b9" x="329.9" y="87.7" transform="matrix(0.9897 -0.143 0.143 0.9897 -16.9137 68.0358)" class="st8" width="269.9" height="128.1"/>
	
		<rect id="ecffa418-b240-4504-be04-512edea7ccda" x="337.7" y="98.6" transform="matrix(0.9897 -0.143 0.143 0.9897 -16.966 68.0475)" class="st3" width="254.4" height="106.8"/>
	
		<rect id="b49ce3f1-9d75-4481-986b-3b6beb000c79" x="320.4" y="80.9" transform="matrix(0.9897 -0.143 0.143 0.9897 -7.7159 66.0075)" class="st9" width="269.9" height="11.5"/>
	<circle id="a4219562-805a-49cd-8b89-b1f92f7a9e75" class="st3" cx="330.4" cy="105.8" r="2.1"/>
	<circle id="b0f6399c-6944-4f74-a888-473f61f9730c" class="st3" cx="338.4" cy="104.6" r="2.1"/>
	<circle id="b03f93dc-2c99-4323-9b17-02f51b8830c0" class="st3" cx="346.4" cy="103.5" r="2.1"/>
	<rect id="a6067cfc-0392-4d68-afe4-e34d11a8f0ac" x="380.7" y="123.6" class="st4" width="269.9" height="128.1"/>
	<rect id="ecd65817-7467-4dbd-a435-c0f1d9841c98" x="388.5" y="134.6" class="st3" width="254.4" height="106.8"/>
	<rect id="eea6c39d-8a45-4eb1-bab9-6120f465de14" x="380.6" y="116.2" class="st10" width="269.9" height="11.5"/>
	<circle id="ab9e51f9-7431-4d30-8193-f9435a6bd5c3" class="st3" cx="389.2" cy="122.9" r="2.1"/>
	<circle id="a54ed687-3b0d-413b-b405-af8897a5c032" class="st3" cx="397.2" cy="122.9" r="2.1"/>
	<circle id="fd1d2195-7e97-488f-8f4b-7061a06deb9a" class="st3" cx="405.3" cy="122.9" r="2.1"/>
	<rect x="535.1" y="150.8" class="st4" width="35.8" height="2.7"/>
	<rect x="535.1" y="158.7" class="st4" width="55.3" height="2.7"/>
	<rect x="535.7" y="166.2" class="st4" width="45.1" height="2.7"/>
	<rect x="535.1" y="174.5" class="st4" width="26.3" height="2.7"/>
	<rect x="535.1" y="182.6" class="st4" width="39.7" height="2.7"/>
	<rect x="518.7" y="149.9" class="st4" width="4.4" height="4.4"/>
	<rect x="518.7" y="157.9" class="st4" width="4.4" height="4.4"/>
	<rect x="518.7" y="165.4" class="st4" width="4.4" height="4.4"/>
	<rect x="518.7" y="173.6" class="st4" width="4.4" height="4.4"/>
	<rect x="518.7" y="181.7" class="st4" width="4.4" height="4.4"/>
	<rect x="535.1" y="190.7" class="st4" width="35.8" height="2.7"/>
	<rect x="535.1" y="198.6" class="st4" width="55.3" height="2.7"/>
	<rect x="535.7" y="206.1" class="st4" width="45.1" height="2.7"/>
	<rect x="535.1" y="214.4" class="st4" width="26.3" height="2.7"/>
	<rect x="535.1" y="222.5" class="st4" width="39.7" height="2.7"/>
	<rect x="518.7" y="189.8" class="st4" width="4.4" height="4.4"/>
	<rect x="518.7" y="197.8" class="st4" width="4.4" height="4.4"/>
	<rect x="518.7" y="205.3" class="st4" width="4.4" height="4.4"/>
	<rect x="518.7" y="213.5" class="st4" width="4.4" height="4.4"/>
	<rect x="518.7" y="221.6" class="st4" width="4.4" height="4.4"/>
	<rect x="421.7" y="211.8" class="st4" width="35.8" height="2.7"/>
	<rect x="416.9" y="218.8" class="st4" width="45.1" height="2.7"/>
	<path class="st4" d="M462.9,177.8c0,12.9-10.5,23.4-23.4,23.4c-3.9,0-7.7-1-11.1-2.8l0,0c-11.4-6.1-15.6-20.3-9.5-31.7
		s20.3-15.6,31.7-9.5C458.2,161.3,462.9,169.2,462.9,177.8z"/>
	<circle class="st3" cx="439.6" cy="170.3" r="6.4"/>
	<path class="st3" d="M450.5,189.8c-7.1,2.5-14.9,2.5-22-0.1l0,0l4.7-9.4H446L450.5,189.8z"/>
	<path class="st6" d="M369.2,235.9c-11.1,0-20.1-9.6-20.1-21.4s9-21.4,20.1-21.4s20.1,9.6,20.1,21.4
		C389.3,226.3,380.3,235.9,369.2,235.9z M369.2,198.6c-8.1,0-14.7,7.2-14.7,16s6.6,16,14.7,16s14.7-7.2,14.7-16
		S377.3,198.6,369.2,198.6z"/>
	<path class="st11" d="M388.3,273.1h-38.1c-7,0-12.7-5.7-12.7-12.7v-37.4c0-4.8,3.9-8.7,8.7-8.7h46.1c4.8,0,8.7,3.9,8.7,8.7v37.4
		C400.9,267.5,395.3,273.1,388.3,273.1z"/>
	<path class="st3" d="M376.6,235.7c0-4.1-3.3-7.4-7.4-7.4c-4.1,0-7.4,3.3-7.4,7.4c0,2.8,1.6,5.4,4,6.6v11.6h6.8v-11.6
		C375.1,241,376.6,238.5,376.6,235.7z"/>
	<path class="st11" d="M388,370.4H152.8c-0.3,0-0.6-0.3-0.6-0.6s0.3-0.6,0.6-0.6H388c0.3,0,0.6,0.3,0.6,0.6S388.3,370.4,388,370.4z"
		/>
</g>
</svg>
