<?xml version="1.0" encoding="utf-8"?>
<!-- Generator: Adobe Illustrator 24.0.2, SVG Export Plug-In . SVG Version: 6.00 Build 0)  -->
<svg version="1.1" id="Layer_1" xmlns="http://www.w3.org/2000/svg" xmlns:xlink="http://www.w3.org/1999/xlink" x="0px" y="0px"
	 viewBox="0 0 1460 430" style="enable-background:new 0 0 1460 430;" xml:space="preserve">
<style type="text/css">
	.st0{fill:#FFDF6C;}
	.st1{fill:none;}
	.st2{enable-background:new    ;}
	.st3{opacity:0.1;fill:#6C81FF;enable-background:new    ;}
	.st4{fill:none;stroke:#535461;stroke-width:2;stroke-miterlimit:10;}
	.st5{fill:#6C81FF;}
	.st6{opacity:0.25;enable-background:new    ;}
	.st7{opacity:0.5;fill:#FFFFFF;enable-background:new    ;}
	.st8{opacity:0.6;}
	.st9{fill:#D6DBE6;}
	.st10{opacity:5.000000e-02;enable-background:new    ;}
	.st11{opacity:0.1;enable-background:new    ;}
	.st12{fill:#FFD865;}
	.st13{fill:#565387;}
	.st14{opacity:0.35;fill:#FFD865;enable-background:new    ;}
	.st15{fill:url(#SVGID_1_);}
	.st16{fill:#F0898B;}
	.st17{fill:#FFDF9C;}
	.st18{opacity:3.000000e-02;enable-background:new    ;}
	.st19{fill:#FEC2BE;}
	.st20{fill:#AF637C;}
	.st21{fill:#4C4981;}
	.st22{fill:none;stroke:#535461;stroke-miterlimit:10;}
	.st23{fill:#FFB7B7;}
	.st24{fill:#2F2E41;}
	.st25{fill:#CBCBCB;}
	.st26{fill:#FFFFFF;}
	.st27{fill:#3F3D56;}
	.st28{opacity:0.2;enable-background:new    ;}
	.st29{fill:#E5E5E5;}
	.st30{fill:#E6E6E6;}
	.st31{fill:#F2F2F2;}
	.st32{fill:#FFB8B8;}
	.st33{fill:#FF6584;}
</style>
<rect x="-0.1" y="0" class="st0" width="1460.1" height="430"/>
<rect x="99.9" y="167" class="st1" width="598" height="93.9"/>
<g class="st2">
	<path d="M184.9,189.3h-14.7v11.1h-4.5v-11.1h-14.6v-3.7h33.8V189.3z M181.7,171.3h-11.4c0.4,3.7,5.3,7.5,12.7,8.4l-1.7,3.6
		c-6.1-0.8-10.9-3.5-13.3-7.1c-2.4,3.6-7.2,6.3-13.4,7.1l-1.6-3.6c7.4-0.9,12.3-4.7,12.7-8.4h-11.4v-3.6h11.5v-4.3h4.5v4.3h11.5
		V171.3z"/>
	<path d="M209.5,180.3l-2.5,3.7c-4-1.4-6.9-4.2-8.4-7.8c-1.7,3.9-4.7,7-8.9,8.5l-2.5-3.7c6-2,9-6.8,9-12.1v-3.7h4.6v3.9
		C200.9,173.9,203.8,178.4,209.5,180.3z M218.4,200.3h-4.6v-9.6h-20.7v-3.6h25.3V200.3z M218.4,185.3h-4.6v-11.1h-7.4v-3.7h7.4v-7.2
		h4.6V185.3z"/>
	<path d="M245,181.9c3.8-0.1,7.8-0.4,11.4-0.9l0.2,3.3c-7.7,1.4-16.4,1.5-23,1.6l-0.4-3.7c2.2,0,4.7,0,7.3-0.1v-7.5h4.5V181.9z
		 M254.4,168.2c0,2.5,0,6.2-0.9,10.9l-4.5-0.4c0.7-3.8,0.9-6.7,0.9-8.9h-14.4V166h18.9V168.2z M264.4,199.6h-25.6v-11h4.6v7.3h21
		V199.6z M263.2,174.8h4.8v3.8h-4.8V191h-4.7v-27.8h4.7V174.8z"/>
	<path d="M287.7,177.4H276v4.9c5.6,0,9.2-0.3,13.3-1l0.5,3.7c-4.8,0.8-8.8,0.9-15.6,0.9h-2.8v-12h11.7v-4.4h-11.7v-3.7h16.3V177.4z
		 M302,199.5h-25.6v-11h4.6v7.2h21V199.5z M301,190.6h-4.6v-9.5H290v-3.7h6.5v-4.7H290v-3.7h6.5v-5.8h4.6V190.6z"/>
	<path d="M346,167.9c0,2.9,0,6-0.8,10h4.8v3.7h-33.6v-3.7h24.4c0.2-1.3,0.4-2.5,0.5-3.7l-21.2,0.9l-0.5-3.5l21.9-0.5
		c0-0.9,0-1.8,0-2.6h-21v-3.6H346V167.9z M346.2,193.5h-21.5v2.8h22.8v3.6h-27.4v-9.7h21.5v-2.5H320v-3.5h26.1V193.5z"/>
	<path d="M367.6,180.9H358v7.2c3.8,0,7.4-0.2,11.5-0.9l0.3,3.7c-5,0.8-9.1,1-13.7,1h-2.5v-14.7h9.6v-6.4h-9.6V167h14V180.9z
		 M384.4,200.3h-4.3v-19.2h-4.2v17.3h-4.2V164h4.2v13.5h4.2v-14.2h4.3V200.3z"/>
	<path d="M422.7,195.6h-33.9v-3.8h33.9V195.6z M421.4,181.2l-2.1,3.8c-6.2-1.3-11.3-5.1-13.7-10c-2.5,4.9-7.5,8.7-13.7,10l-2-3.8
		c7.7-1.4,13.2-7.1,13.3-12.8v-2.7h4.8v2.7C408,174.1,413.6,179.8,421.4,181.2z"/>
	<path d="M457.2,180.5l-2.1,3.5c-4.3-1.1-7.3-3.7-8.9-6.8c-1.6,3.5-4.7,6.3-9.1,7.5l-2.2-3.5c5.9-1.6,9-5.8,9-10.2v-0.1h-7.8v-3.6
		h7.8v-4.1h4.6v4.1h7.7v3.6h-7.8v0.1C448.4,174.9,451.4,178.9,457.2,180.5z M464.3,199.9h-24v-13.2h24V199.9z M444.9,196.2h14.9
		v-5.9h-14.9V196.2z M464.3,172.2h5.2v3.8h-5.2v9.1h-4.6v-21.8h4.6V172.2z"/>
	<path d="M489.3,171.1h8.7v-7.8h4.5v37.1H498v-14h-8.3c-1.6,3.7-4.5,5.8-8.1,5.8c-5.6,0-9.5-5-9.5-13.1c0-8,3.9-13.1,9.5-13.1
		C484.9,166,487.7,167.8,489.3,171.1z M476.4,179.1c0,5.7,2.1,9,5.1,9s5.1-3.3,5.2-9c0-5.7-2.1-9-5.2-9S476.4,173.4,476.4,179.1z
		 M491,179.1c0,1.3-0.1,2.5-0.3,3.6h7.3v-7.8h-7.4C490.9,176.1,491,177.5,491,179.1z"/>
	<path d="M541.2,188.4l-2.7,3.7c-4.3-2-7.4-5.9-9.1-10.7c-1.7,5.2-4.9,9.5-9.4,11.6l-2.8-3.8c6.2-2.7,9.8-9.8,9.8-16.9v-5.9h4.6v5.9
		C531.6,179,535.2,185.8,541.2,188.4z M548.5,200.4h-4.6v-37.1h4.6V200.4z"/>
	<path d="M557.7,205.3h-3.9l2.1-11.5h5.2L557.7,205.3z"/>
</g>
<g class="st2">
	<path d="M185,256h-33.9v-3.8h14.6v-7.3H154v-3.6h5.2v-11.1h-5.3v-3.7H182v3.7h-5.4v11.1h5.3v3.6h-11.7v7.3H185V256z M172.1,241.3
		v-11.1h-8.3v11.1H172.1z"/>
	<path d="M217.5,243.7h-11v8.5h14.8v3.7h-33.9v-3.7H202v-8.5h-10.5V226h25.7v3.7h-21.2v10.5h21.5V243.7z"/>
	<path d="M243.8,232.8c0,4.8-4.2,8.3-9.8,8.3s-9.9-3.4-9.8-8.3c0-4.9,4.2-8.3,9.8-8.3S243.8,227.9,243.8,232.8z M228.6,232.8
		c0,2.8,2.3,4.7,5.4,4.7s5.4-1.9,5.4-4.7c0-2.8-2.3-4.6-5.4-4.6S228.5,230,228.6,232.8z M252.9,253.2h-19.7v3.1h20.8v3.6h-25.3v-10
		h19.6V247h-19.7v-3.5h24.2V253.2z M252.9,230.7h5.2v3.8h-5.2v7.4h-4.6v-18.6h4.6V230.7z"/>
	<path d="M271.2,252.8l10.5-10.1c3-3,4.6-4.8,4.6-7.3c0-2.7-2.2-4.5-5.1-4.5c-3.1,0-5,1.9-5,4.9h-5.1c0-5.6,4.2-9.3,10.1-9.3
		c6.1,0,10.2,3.6,10.2,8.6c0,3.4-1.6,6.1-7.5,11.6l-5.3,5.3v0.2h13.2v4.5h-20.6V252.8z"/>
	<path d="M297.6,252.6l-2.6-3.2c7.9-4.6,11.2-10.4,11.9-17.8h-10.2v-3.7h14.6C311.3,238,308.1,246.6,297.6,252.6z M327.1,260.3h-4.4
		v-19h-4v17.3h-4.3v-34.4h4.3v13.4h4v-14.4h4.4V260.3z"/>
	<path d="M375.3,244.2h-33.8v-3.7h33.8V244.2z M372.3,228.8h-10.7c0.7,3.1,5.1,5.8,12.1,6.5l-1.6,3.6c-6.7-0.7-11.7-3.4-13.7-7.1
		c-2,3.8-6.9,6.4-13.7,7.1l-1.6-3.6c6.9-0.7,11.3-3.4,12.1-6.5h-10.6V225h27.7V228.8z M371.2,253.5c0,4.3-4.8,6.8-12.8,6.8
		c-8.1,0-12.9-2.5-12.9-6.8c0-4.3,4.8-6.8,12.9-6.8C366.4,246.7,371.2,249.2,371.2,253.5z M350.1,253.5c0,2.1,2.9,3.2,8.3,3.2
		c5.3,0,8.2-1.1,8.3-3.2c0-2.1-3-3.2-8.3-3.2C353,250.3,350.1,251.4,350.1,253.5z"/>
	<path d="M400.2,240.6l-2.3,3.6c-4.1-1.4-7.1-4.2-8.7-7.7c-1.6,4-4.7,7.1-9.1,8.7l-2.4-3.6c5.9-2.1,9.1-7.1,9.1-11.9v-0.3h-7.7v-3.7
		h20v3.7h-7.7v0.2C391.5,234.1,394.4,238.7,400.2,240.6z M409,253.3c0,4.5-4.8,7.1-12.7,7.1c-7.8,0-12.6-2.6-12.6-7.1
		c0-4.5,4.8-7.1,12.6-7.1C404.2,246.2,409,248.8,409,253.3z M388.3,253.3c0,2.3,2.9,3.5,8.1,3.5s8.1-1.2,8.1-3.5
		c0-2.3-3-3.6-8.1-3.6S388.3,251,388.3,253.3z M408.9,245.3h-4.6v-9.1H398v-3.7h6.3v-9.2h4.6V245.3z"/>
	<path d="M425.8,253.8c0-1.7,1.4-3.2,3.2-3.2c1.7,0,3.2,1.4,3.2,3.2c0,1.8-1.5,3.2-3.2,3.2C427.2,257,425.8,255.6,425.8,253.8z
		 M431.3,248h-4.6l-0.5-21h5.6L431.3,248z"/>
</g>
<g>
	<path class="st3" d="M1178.9-271.2c-14.7,18.8-9,46.1,0.3,68.1c3.1,7.3,6.7,15.1,5.4,23c-1.6,9.6-10.2,16.7-19.2,20.4
		c-16.4,6.8-36.1,5.2-51.3-4.2c-13.1-8.1-22.4-21.3-35.7-29.1c-22.2-13-50.5-8.1-74.7,0.9c-17.1,6.3-35.8,14.6-52.7,7.9
		c-11.9-4.6-20.2-16-24.7-28c-2.2-5.8-3.8-12.1-7.9-16.7c-2.5-2.7-5.7-4.7-9-6.3c-30.1-14.9-68.1-6.9-97.3-23.5
		c-19.7-11.2-32.4-32.3-38-54.3s-4.9-45-3.5-67.7c1-16.1,2.8-33.3,13.1-45.7c10.9-13.1,29.5-18,46.4-15.5s32.2,11.4,45.6,21.9
		c16.8,13.1,32.4,29.4,53,34.7c14.1,3.6,28.8,1.6,43.3,1c24.2-1.1,48.5,1.4,72.6,4.2c23.1,2.7,46.3,5.6,68.3,13.1
		c15.6,5.3,28,15,42.7,21.7c9.6,4.4,20,5.6,29.1,11.2c11.2,6.9,21.4,18.9,18.5,32.9C1200.7-287.8,1186.8-281.1,1178.9-271.2z"/>
	<path class="st3" d="M803.9-117.8c3.3,1.7,6.8,3.2,10.2,4.6c12.6,5.3,25.4,10.7,38.9,12.5c25.4,3.4,51.6-5.8,76.6-0.1
		c20.9,4.8,38.2,19.6,58.7,26.2c9.5,3.1,19.4,4.3,29.4,4.3h1.3c1.2,0,2.5-0.1,3.7-0.1c10.1-0.4,20.3-1.9,30.2-3.8
		c31.3-6,63.2-17.1,87.1-37.4C1070.2-124.3,926.7-143.8,803.9-117.8z"/>
	<path class="st4" d="M821-119.1c0,0,11.4-38.8-2.2-67.4c-5.7-12-7.6-25.4-5-38.5c1.3-6.2,3.1-12.2,5.4-18.1"/>
	<path class="st5" d="M810.9-261.1c0,4.8,8.6,18.5,8.6,18.5s8.6-13.8,8.6-18.5c-0.1-4.8-4.1-8.5-8.8-8.4
		C814.7-269.4,811-265.7,810.9-261.1L810.9-261.1z"/>
	<path class="st5" d="M796.6-234.7c2.6,4,17.3,10.9,17.3,10.9s-0.3-16.3-2.8-20.3c-2.5-4.1-7.8-5.3-11.8-2.9
		c-4.1,2.5-5.3,7.8-2.8,11.8C796.5-235,796.6-234.8,796.6-234.7L796.6-234.7z"/>
	<path class="st5" d="M797.3-189.7c4.3,2.1,20.4,0.7,20.4,0.7s-8.4-13.9-12.7-16c-4.2-2.3-9.4-0.7-11.7,3.5s-0.7,9.4,3.5,11.7
		C797-189.8,797.2-189.8,797.3-189.7z"/>
	<path class="st5" d="M805.4-155.7c3.8,2.8,20,4.1,20,4.1s-6-15.1-9.8-17.9c-3.8-2.8-9.2-1.9-12,1.9
		C800.9-163.9,801.7-158.6,805.4-155.7z"/>
	<path class="st5" d="M832-222.9c-3.4,3.3-19.3,6.8-19.3,6.8s3.9-15.8,7.3-19.1c3.4-3.3,8.9-3.2,12.2,0.2
		C835.5-231.7,835.5-226.2,832-222.9L832-222.9z"/>
	<path class="st5" d="M841.1-183.1c-4.3,2.1-20.4,0.7-20.4,0.7s8.4-13.9,12.7-16c4.3-2.1,9.4-0.3,11.5,4
		C846.8-190.2,845.2-185.2,841.1-183.1L841.1-183.1z"/>
	<path class="st5" d="M844.5-143.1c-3.8,2.8-20,4.1-20,4.1s6-15.1,9.8-17.9c3.8-2.8,9.2-1.9,12,1.9
		C849.1-151.3,848.3-146,844.5-143.1L844.5-143.1z"/>
	<path class="st6" d="M810.9-261.1c0,4.8,8.6,18.5,8.6,18.5s8.6-13.8,8.6-18.5c-0.1-4.8-4.1-8.5-8.8-8.4
		C814.7-269.4,811-265.7,810.9-261.1L810.9-261.1z"/>
	<path class="st6" d="M796.6-234.7c2.6,4,17.3,10.9,17.3,10.9s-0.3-16.3-2.8-20.3c-2.5-4.1-7.8-5.3-11.8-2.9
		c-4.1,2.5-5.3,7.8-2.8,11.8C796.5-235,796.6-234.8,796.6-234.7L796.6-234.7z"/>
	<path class="st6" d="M797.3-189.7c4.3,2.1,20.4,0.7,20.4,0.7s-8.4-13.9-12.7-16c-4.2-2.3-9.4-0.7-11.7,3.5s-0.7,9.4,3.5,11.7
		C797-189.8,797.2-189.8,797.3-189.7z"/>
	<path class="st6" d="M805.4-155.7c3.8,2.8,20,4.1,20,4.1s-6-15.1-9.8-17.9c-3.8-2.8-9.2-1.9-12,1.9
		C800.9-163.9,801.7-158.6,805.4-155.7z"/>
	<path class="st6" d="M832-222.9c-3.4,3.3-19.3,6.8-19.3,6.8s3.9-15.8,7.3-19.1c3.4-3.3,8.9-3.2,12.2,0.2
		C835.5-231.7,835.5-226.2,832-222.9L832-222.9z"/>
	<path class="st6" d="M841.1-183.1c-4.3,2.1-20.4,0.7-20.4,0.7s8.4-13.9,12.7-16c4.3-2.1,9.4-0.3,11.5,4
		C846.8-190.2,845.2-185.2,841.1-183.1L841.1-183.1z"/>
	<path class="st6" d="M844.5-143.1c-3.8,2.8-20,4.1-20,4.1s6-15.1,9.8-17.9c3.8-2.8,9.2-1.9,12,1.9
		C849.1-151.3,848.3-146,844.5-143.1L844.5-143.1z"/>
	<path class="st4" d="M880-130.9c0,0,6.2-21-1.2-36.5c-3.1-6.5-4.1-13.8-2.7-20.8c0.7-3.3,1.7-6.6,3-9.8"/>
	<path class="st5" d="M874.5-207.8c0,2.6,4.7,10,4.7,10s4.7-7.5,4.7-10c0-2.6-2.1-4.7-4.7-4.7C876.6-212.4,874.5-210.4,874.5-207.8
		L874.5-207.8L874.5-207.8z"/>
	<path class="st5" d="M866.8-193.5c1.4,2.2,9.4,5.9,9.4,5.9s-0.1-8.8-1.5-11c-1.4-2.2-4.3-2.8-6.5-1.4
		C866-198.6,865.4-195.7,866.8-193.5z"/>
	<path class="st5" d="M867.1-169.1c2.3,1.2,11.1,0.4,11.1,0.4s-4.6-7.5-6.9-8.7s-5.1-0.2-6.3,2.1
		C863.9-173.1,864.8-170.3,867.1-169.1L867.1-169.1L867.1-169.1L867.1-169.1z"/>
	<path class="st5" d="M871.5-150.8c2.1,1.5,10.8,2.2,10.8,2.2s-3.2-8.2-5.3-9.7c-2.1-1.5-5-1.1-6.5,1
		C869-155.2,869.5-152.3,871.5-150.8L871.5-150.8z"/>
	<path class="st5" d="M886-187.1c-1.8,1.8-10.5,3.6-10.5,3.6s2.1-8.6,4-10.3c1.8-1.8,4.8-1.9,6.6-0.1s1.9,4.8,0.1,6.6
		C886.1-187.3,886-187.2,886-187.1L886-187.1L886-187.1z"/>
	<path class="st5" d="M890.8-165.6c-2.3,1.2-11.1,0.4-11.1,0.4s4.6-7.5,6.9-8.7s5.1-0.2,6.3,2.1
		C894.1-169.5,893.1-166.7,890.8-165.6L890.8-165.6L890.8-165.6L890.8-165.6z"/>
	<path class="st5" d="M892.7-143.9c-2.1,1.5-10.8,2.2-10.8,2.2s3.2-8.2,5.3-9.7c2.1-1.5,5-1.1,6.5,1
		C895.2-148.4,894.8-145.5,892.7-143.9L892.7-143.9z"/>
	<path class="st7" d="M874.5-207.8c0,2.6,4.7,10,4.7,10s4.7-7.5,4.7-10c0-2.6-2.1-4.7-4.7-4.7C876.6-212.4,874.5-210.4,874.5-207.8
		L874.5-207.8L874.5-207.8z"/>
	<path class="st7" d="M866.8-193.5c1.4,2.2,9.4,5.9,9.4,5.9s-0.1-8.8-1.5-11c-1.4-2.2-4.3-2.8-6.5-1.4
		C866-198.6,865.4-195.7,866.8-193.5z"/>
	<path class="st7" d="M867.1-169.1c2.3,1.2,11.1,0.4,11.1,0.4s-4.6-7.5-6.9-8.7s-5.1-0.2-6.3,2.1
		C863.9-173.1,864.8-170.3,867.1-169.1L867.1-169.1L867.1-169.1L867.1-169.1z"/>
	<path class="st7" d="M871.5-150.8c2.1,1.5,10.8,2.2,10.8,2.2s-3.2-8.2-5.3-9.7c-2.1-1.5-5-1.1-6.5,1
		C869-155.2,869.5-152.3,871.5-150.8L871.5-150.8z"/>
	<path class="st7" d="M886-187.1c-1.8,1.8-10.5,3.6-10.5,3.6s2.1-8.6,4-10.3c1.8-1.8,4.8-1.9,6.6-0.1s1.9,4.8,0.1,6.6
		C886.1-187.3,886-187.2,886-187.1L886-187.1L886-187.1z"/>
	<path class="st7" d="M890.8-165.6c-2.3,1.2-11.1,0.4-11.1,0.4s4.6-7.5,6.9-8.7s5.1-0.2,6.3,2.1
		C894.1-169.5,893.1-166.7,890.8-165.6L890.8-165.6L890.8-165.6L890.8-165.6z"/>
	<path class="st7" d="M892.7-143.9c-2.1,1.5-10.8,2.2-10.8,2.2s3.2-8.2,5.3-9.7c2.1-1.5,5-1.1,6.5,1
		C895.2-148.4,894.8-145.5,892.7-143.9L892.7-143.9z"/>
	<g class="st8">
		<path class="st9" d="M866.6-420.5c-1.4,1.2-2.2,3-2,4.8c0.6,5.9,2.5,19.3,7.3,26.9c0.3,0.5,0.6,0.9,0.9,1.3h25.7
			c0,0,5.3-19.5,5.6-28.1c0.1-2-0.8-3.9-2.3-5.2c-3.9-3.2-12.9-10.2-18-9.7h-0.1C883.7-430.7,881.7-432.9,866.6-420.5z"/>
		<path class="st1" d="M864.7-415.8c0.6,5.9,2.5,19.3,7.3,26.9c1,0.5,2.1,0.9,3.1,1.3c6.5,2.5,12.6,4,11.6,0c-0.2-0.8-0.6-1.6-1-2.3
			c-5.9-10.3-3.2-32.6-1.9-40.8h-0.1c0,0-2-2.2-17.1,10.2C865.2-419.4,864.5-417.6,864.7-415.8z"/>
		<path class="st10" d="M864.7-415.8c0.6,5.9,2.5,19.3,7.3,26.9c1,0.5,2.1,0.9,3.1,1.3c6.5,2.5,12.6,4,11.6,0
			c-0.2-0.8-0.6-1.6-1-2.3c-5.9-10.3-3.2-32.6-1.9-40.8h-0.1c0,0-2-2.2-17.1,10.2C865.2-419.4,864.5-417.6,864.7-415.8z"/>
		<path class="st9" d="M872.7-388.3c0,1.1,1,2.2,2.6,3c1.1,0.5,2.3,1,3.5,1.3c2.3,0.5,4.6,0.8,7,0.8c2.8,0,5.6-0.4,8.3-1.2
			c1.1-0.3,2.2-0.8,3.1-1.5c1-0.7,1.6-1.5,1.6-2.4c0-1.3-1.2-2.5-3.3-3.3c-0.3-0.1-0.7-0.3-1-0.4c-2.8-0.9-5.7-1.3-8.7-1.3
			c-4.1,0-7.8,0.8-10.2,1.9c-0.4,0.2-0.8,0.4-1.2,0.7C873.3-390.1,872.7-389.2,872.7-388.3z"/>
		<path class="st11" d="M872.4-388.3c0,1.1,1,2.2,2.6,3c1.1,0.5,2.3,1,3.5,1.3c2.3,0.5,4.6,0.8,7,0.8c2.8,0,5.6-0.4,8.3-1.2
			c1.1-0.3,2.2-0.8,3.1-1.5c1-0.7,1.6-1.5,1.6-2.4c0-1.3-1.2-2.5-3.3-3.3c-0.3-0.1-0.7-0.3-1-0.4c-2.8-0.9-5.7-1.3-8.7-1.3
			c-4.1,0-7.8,0.8-10.2,1.9c-0.4,0.2-0.8,0.4-1.2,0.7C873-390.1,872.4-389.2,872.4-388.3z"/>
		<path class="st12" d="M888.2-387c0.8-1.5,0.4-3.3-0.9-4.3c0,0-0.9-1.1-0.3-2c0,0-4.5,3-2.2,6.5L888.2-387z"/>
		<path class="st12" d="M887.1-386.9c0.4-0.7,0.2-1.5-0.4-1.9c-0.2-0.3-0.3-0.6-0.2-0.9c0,0-2,1.4-1,2.9L887.1-386.9z"/>
		<path class="st11" d="M887.1-386.9c0.4-0.7,0.2-1.5-0.4-1.9c-0.2-0.3-0.3-0.6-0.2-0.9c0,0-2,1.4-1,2.9L887.1-386.9z"/>
		<path class="st13" d="M875.3-385.3c1.1,0.5,2.3,1,3.5,1.3c3.7-0.9,14.4-3.6,16.7-7.6c-0.3-0.1-0.7-0.3-1-0.4
			C892.9-390.3,886.9-384.3,875.3-385.3z"/>
		<path class="st13" d="M874.4-390.8c1.4,2.5,14.4,5.3,19.7,6.3c1.1-0.3,2.2-0.8,3.1-1.5c-7.5-0.1-15-2-21.6-5.6
			C875.1-391.3,874.7-391,874.4-390.8z"/>
		<path class="st14" d="M890.9-420.7c0.8,0.8,0.5,2,0.5,3.1c-0.2,2,0.4,4,1.5,5.7c0.7,1,1.6,2.1,1.4,3.3s-1.4,2-2.1,3.1
			s-0.7,2.5-0.5,3.8c0.2,1.3,0.6,2.6,0.7,3.9c0,0.3,0,0.6-0.1,0.9c-0.2,0.3-0.4,0.5-0.6,0.7c-0.4,0.4-0.8,0.8-1.1,1.3
			c-0.1,0.3-0.3,0.6-0.5,0.9c-0.2,0.2-0.4,0.3-0.7,0.4c-1.7,0.7-3.7,0.6-5.5,0c-1.8-0.6-3.5-1.5-5-2.5c-0.5-0.2-0.8-0.5-1.2-0.9
			c-0.4-0.6-0.6-1.2-0.6-1.9c-0.1-1.5,0.2-2.9,0-4.4c-0.2-1.5-0.8-2.9-1.3-4.4c-0.8-2.8-0.7-5.7,0.3-8.4c0.4-1.1,1-2.1,1.9-2.9
			c2-1.5,5-0.9,7.3-1.9C887.1-421.8,889.3-422.3,890.9-420.7z"/>
	</g>
	<g class="st8">
		<path class="st9" d="M826.9-350.9c-0.8,0.7-1.2,1.7-1.1,2.8c0.4,3.4,1.5,11.2,4.2,15.5c0.2,0.3,0.3,0.5,0.5,0.7h14.9
			c0,0,3-11.3,3.2-16.3c0-1.2-0.5-2.3-1.3-3c-2.2-1.9-7.5-5.9-10.4-5.6h-0.1C836.8-356.8,835.6-358.1,826.9-350.9z"/>
		<path class="st1" d="M825.7-348.2c0.4,3.4,1.5,11.2,4.2,15.5c0.6,0.3,1.2,0.5,1.8,0.7c3.7,1.5,7.3,2.3,6.7,0
			c-0.1-0.5-0.3-0.9-0.6-1.3c-3.4-5.9-1.8-18.9-1.1-23.6h-0.1c0,0-1.1-1.3-9.9,5.9C826-350.3,825.6-349.2,825.7-348.2z"/>
		<path class="st10" d="M825.7-348.2c0.4,3.4,1.5,11.2,4.2,15.5c0.6,0.3,1.2,0.5,1.8,0.7c3.7,1.5,7.3,2.3,6.7,0
			c-0.1-0.5-0.3-0.9-0.6-1.3c-3.4-5.9-1.8-18.9-1.1-23.6h-0.1c0,0-1.1-1.3-9.9,5.9C826-350.3,825.6-349.2,825.7-348.2z"/>
		<path class="st9" d="M830.4-332.3c0,0.6,0.6,1.3,1.5,1.7c0.6,0.3,1.3,0.6,2,0.7c1.3,0.3,2.7,0.5,4,0.5c1.6,0,3.2-0.2,4.8-0.7
			c0.6-0.2,1.2-0.5,1.8-0.8c0.5-0.3,0.9-0.8,0.9-1.4c0-0.7-0.7-1.4-1.9-1.9c-0.2-0.1-0.4-0.2-0.6-0.2c-1.6-0.5-3.3-0.8-5-0.8
			c-2.4,0-4.5,0.4-5.9,1.1c-0.2,0.1-0.5,0.2-0.7,0.4C830.8-333.4,830.5-332.9,830.4-332.3z"/>
		<path class="st11" d="M830.2-332.3c0,0.6,0.6,1.3,1.5,1.7c0.6,0.3,1.3,0.6,2,0.7c1.3,0.3,2.7,0.5,4,0.5c1.6,0,3.2-0.2,4.8-0.7
			c0.6-0.2,1.2-0.5,1.8-0.8c0.5-0.3,0.9-0.8,0.9-1.4c0-0.7-0.7-1.4-1.9-1.9c-0.2-0.1-0.4-0.2-0.6-0.2c-1.6-0.5-3.3-0.8-5-0.8
			c-2.4,0-4.5,0.4-5.9,1.1c-0.2,0.1-0.5,0.2-0.7,0.4C830.7-333.4,830.3-332.9,830.2-332.3z"/>
		<path class="st12" d="M839.3-331.5c0.5-0.8,0.3-1.9-0.5-2.5c-0.3-0.3-0.4-0.8-0.2-1.2c0,0-2.6,1.7-1.3,3.7L839.3-331.5z"/>
		<path class="st12" d="M838.7-331.5c0.2-0.4,0.1-0.9-0.2-1.1c-0.1-0.1-0.2-0.4-0.1-0.5c0,0-1.2,0.8-0.6,1.7L838.7-331.5z"/>
		<path class="st11" d="M838.7-331.5c0.2-0.4,0.1-0.9-0.2-1.1c-0.1-0.1-0.2-0.4-0.1-0.5c0,0-1.2,0.8-0.6,1.7L838.7-331.5z"/>
		<path class="st13" d="M831.9-330.5c0.6,0.3,1.3,0.6,2,0.7c2.2-0.5,8.3-2.1,9.6-4.4c-0.2-0.1-0.4-0.2-0.6-0.2
			C842.1-333.5,838.6-330,831.9-330.5z"/>
		<path class="st13" d="M831.3-333.7c0.8,1.5,8.3,3.1,11.4,3.7c0.6-0.2,1.2-0.5,1.8-0.8c-4.4,0-8.7-1.1-12.5-3.2
			C831.8-334,831.5-333.9,831.3-333.7z"/>
		<path class="st14" d="M840.9-351c0.5,0.4,0.3,1.1,0.3,1.8c-0.1,1.1,0.2,2.3,0.8,3.3c0.4,0.6,0.9,1.2,0.8,1.9
			c-0.1,0.7-0.8,1.2-1.2,1.8c-0.4,0.7-0.5,1.5-0.3,2.2c0.1,0.8,0.3,1.5,0.4,2.2c0,0.2,0,0.4-0.1,0.5c-0.1,0.2-0.2,0.3-0.4,0.4
			c-0.3,0.2-0.5,0.5-0.6,0.8c-0.1,0.2-0.2,0.3-0.3,0.5c-0.1,0.1-0.2,0.2-0.4,0.2c-1,0.4-2.2,0.4-3.2,0c-1-0.4-2-0.9-2.9-1.5
			c-0.3-0.1-0.5-0.3-0.7-0.5c-0.2-0.3-0.3-0.7-0.3-1.1c0-0.8,0.1-1.7,0-2.5c-0.2-0.9-0.4-1.7-0.7-2.5c-0.5-1.6-0.4-3.3,0.2-4.9
			c0.2-0.7,0.6-1.2,1.1-1.7c1.2-0.9,2.9-0.5,4.2-1.1C838.7-351.6,840-352,840.9-351z"/>
	</g>
	<g class="st8">
		<path class="st9" d="M1063.2-359.9c-0.8,0.7-1.2,1.7-1.1,2.8c0.4,3.4,1.5,11.2,4.2,15.5c0.2,0.3,0.3,0.5,0.5,0.7h14.9
			c0,0,3-11.3,3.2-16.3c0.1-1.2-0.4-2.3-1.3-3c-2.2-1.9-7.5-5.9-10.4-5.6h-0.1C1073.1-365.7,1071.9-367,1063.2-359.9z"/>
		<path class="st1" d="M1062.1-357.1c0.4,3.4,1.5,11.2,4.2,15.5c0.6,0.3,1.2,0.5,1.8,0.7c3.7,1.5,7.3,2.3,6.7,0
			c-0.1-0.5-0.3-0.9-0.6-1.3c-3.4-5.9-1.8-18.9-1.1-23.6h-0.1c0,0-1.1-1.3-9.9,5.9C1062.4-359.2,1061.9-358.2,1062.1-357.1z"/>
		<path class="st10" d="M1062.1-357.1c0.4,3.4,1.5,11.2,4.2,15.5c0.6,0.3,1.2,0.5,1.8,0.7c3.7,1.5,7.3,2.3,6.7,0
			c-0.1-0.5-0.3-0.9-0.6-1.3c-3.4-5.9-1.8-18.9-1.1-23.6h-0.1c0,0-1.1-1.3-9.9,5.9C1062.4-359.2,1061.9-358.2,1062.1-357.1z"/>
		<path class="st9" d="M1066.7-341.2c0,0.6,0.6,1.3,1.5,1.7c0.6,0.3,1.3,0.6,2,0.7c1.3,0.3,2.7,0.5,4,0.5c1.6,0,3.2-0.2,4.8-0.7
			c0.6-0.2,1.2-0.5,1.8-0.8c0.5-0.3,0.9-0.8,0.9-1.4c0-0.7-0.7-1.4-1.9-1.9c-0.2-0.1-0.4-0.2-0.6-0.2c-1.6-0.5-3.3-0.8-5-0.8
			c-2.4,0-4.5,0.4-5.9,1.1c-0.2,0.1-0.4,0.2-0.7,0.4C1067.1-342.4,1066.8-341.9,1066.7-341.2z"/>
		<path class="st11" d="M1066.5-341.2c0,0.6,0.6,1.3,1.5,1.7c0.6,0.3,1.3,0.6,2,0.7c1.3,0.3,2.7,0.5,4,0.5c1.6,0,3.2-0.2,4.8-0.7
			c0.6-0.2,1.2-0.5,1.8-0.8c0.5-0.3,0.9-0.8,0.9-1.4c0-0.7-0.7-1.4-1.9-1.9c-0.2-0.1-0.4-0.2-0.6-0.2c-1.6-0.5-3.3-0.8-5-0.8
			c-2.4,0-4.5,0.4-5.9,1.1c-0.2,0.1-0.4,0.2-0.7,0.4C1067-342.4,1066.6-341.9,1066.5-341.2z"/>
		<path class="st12" d="M1075.7-340.4c0.5-0.8,0.3-1.9-0.5-2.5c-0.3-0.3-0.4-0.8-0.2-1.2c0,0-2.6,1.7-1.3,3.7L1075.7-340.4z"/>
		<path class="st12" d="M1075-340.4c0.2-0.4,0.1-0.9-0.2-1.1c-0.1-0.1-0.2-0.4-0.1-0.5c0,0-1.2,0.8-0.6,1.7L1075-340.4z"/>
		<path class="st11" d="M1075-340.4c0.2-0.4,0.1-0.9-0.2-1.1c-0.1-0.1-0.2-0.4-0.1-0.5c0,0-1.2,0.8-0.6,1.7L1075-340.4z"/>
		<path class="st13" d="M1068.2-339.5c0.6,0.3,1.3,0.6,2,0.7c2.2-0.5,8.3-2.1,9.6-4.4c-0.2-0.1-0.4-0.2-0.6-0.2
			C1078.4-342.4,1074.9-338.9,1068.2-339.5z"/>
		<path class="st13" d="M1067.7-342.7c0.8,1.5,8.3,3.1,11.4,3.7c0.6-0.2,1.2-0.5,1.8-0.8c-4.4,0-8.7-1.1-12.5-3.2
			C1068.1-343,1067.9-342.8,1067.7-342.7z"/>
		<path class="st14" d="M1077.2-360c0.5,0.4,0.3,1.1,0.3,1.8c-0.1,1.1,0.2,2.3,0.8,3.3c0.4,0.6,0.9,1.2,0.8,1.9s-0.8,1.2-1.2,1.8
			c-0.4,0.7-0.5,1.5-0.3,2.2c0.1,0.8,0.3,1.5,0.4,2.2c0,0.2,0,0.4-0.1,0.5c-0.1,0.2-0.2,0.3-0.4,0.4c-0.3,0.2-0.4,0.5-0.6,0.8
			c-0.1,0.2-0.2,0.3-0.3,0.5c-0.1,0.1-0.2,0.2-0.4,0.2c-1,0.4-2.2,0.4-3.2,0c-1-0.4-2-0.9-2.9-1.5c-0.3-0.1-0.5-0.3-0.7-0.5
			c-0.2-0.3-0.3-0.7-0.3-1.1c0-0.8,0.1-1.7,0-2.5c-0.2-0.9-0.4-1.7-0.7-2.5c-0.4-1.6-0.4-3.3,0.2-4.9c0.2-0.7,0.6-1.2,1.1-1.7
			c1.2-0.9,2.9-0.5,4.2-1.1C1075-360.6,1076.3-360.9,1077.2-360z"/>
	</g>
	<g class="st8">
		<path class="st9" d="M1104.3-435.4c-1.4,1.2-2.2,3-1.9,4.8c0.6,5.9,2.5,19.3,7.3,26.9c0.3,0.5,0.6,0.9,0.9,1.3h25.7
			c0,0,5.3-19.5,5.6-28.1c0.1-2-0.8-3.9-2.3-5.2c-3.8-3.2-12.9-10.2-18-9.7h-0.1C1121.4-445.5,1119.4-447.8,1104.3-435.4z"/>
		<path class="st1" d="M1102.4-430.6c0.6,5.9,2.5,19.3,7.3,26.9c1,0.5,2.1,0.9,3.1,1.3c6.5,2.5,12.6,4,11.6,0
			c-0.2-0.8-0.6-1.6-1-2.3c-5.9-10.3-3.2-32.6-1.9-40.8h-0.1c0,0-2-2.2-17.1,10.2C1102.9-434.2,1102.2-432.4,1102.4-430.6z"/>
		<path class="st10" d="M1102.4-430.6c0.6,5.9,2.5,19.3,7.3,26.9c1,0.5,2.1,0.9,3.1,1.3c6.5,2.5,12.6,4,11.6,0
			c-0.2-0.8-0.6-1.6-1-2.3c-5.9-10.3-3.2-32.6-1.9-40.8h-0.1c0,0-2-2.2-17.1,10.2C1102.9-434.2,1102.2-432.4,1102.4-430.6z"/>
		<path class="st9" d="M1110.4-403.2c0,1.1,1,2.2,2.6,3c1.1,0.5,2.3,1,3.5,1.3c2.3,0.5,4.6,0.8,6.9,0.8c2.8,0,5.6-0.4,8.3-1.2
			c1.1-0.3,2.2-0.8,3.1-1.5c1-0.7,1.6-1.5,1.6-2.4c0-1.3-1.2-2.5-3.3-3.3c-0.3-0.1-0.7-0.3-1.1-0.4c-2.8-0.9-5.7-1.3-8.7-1.3
			c-4.1,0-7.8,0.8-10.2,1.9c-0.4,0.2-0.8,0.4-1.2,0.7C1111-404.9,1110.4-404,1110.4-403.2z"/>
		<path class="st11" d="M1110.1-403.2c0,1.1,1,2.2,2.6,3c1.1,0.5,2.3,1,3.5,1.3c2.3,0.5,4.6,0.8,6.9,0.8c2.8,0,5.6-0.4,8.3-1.2
			c1.1-0.3,2.2-0.8,3.1-1.5c1-0.7,1.6-1.5,1.6-2.4c0-1.3-1.2-2.5-3.3-3.3c-0.3-0.1-0.7-0.3-1.1-0.4c-2.8-0.9-5.7-1.3-8.7-1.3
			c-4.1,0-7.8,0.8-10.2,1.9c-0.4,0.2-0.8,0.4-1.2,0.7C1110.7-404.9,1110.1-404,1110.1-403.2z"/>
		<path class="st12" d="M1125.9-401.8c0.8-1.5,0.4-3.3-0.9-4.3c0,0-0.9-1.1-0.3-2c0,0-4.6,3-2.2,6.5L1125.9-401.8z"/>
		<path class="st12" d="M1124.8-401.7c0.4-0.7,0.2-1.5-0.4-1.9c-0.2-0.3-0.3-0.6-0.2-0.9c0,0-2.1,1.4-1,2.9L1124.8-401.7z"/>
		<path class="st11" d="M1124.8-401.7c0.4-0.7,0.2-1.5-0.4-1.9c-0.2-0.3-0.3-0.6-0.2-0.9c0,0-2.1,1.4-1,2.9L1124.8-401.7z"/>
		<path class="st13" d="M1113-400.1c1.1,0.5,2.3,1,3.5,1.3c3.7-0.9,14.4-3.6,16.7-7.6c-0.3-0.1-0.7-0.3-1.1-0.4
			C1130.6-405.2,1124.6-399.1,1113-400.1z"/>
		<path class="st13" d="M1112.1-405.6c1.4,2.5,14.4,5.3,19.7,6.3c1.1-0.3,2.2-0.8,3.1-1.5c-7.5-0.1-15-2-21.6-5.6
			C1112.8-406.1,1112.4-405.9,1112.1-405.6z"/>
		<path class="st14" d="M1128.6-435.6c0.8,0.8,0.6,2,0.5,3.1c-0.2,2,0.4,4,1.4,5.7c0.7,1,1.6,2.1,1.4,3.3s-1.4,2-2.1,3.1
			s-0.7,2.5-0.5,3.8s0.6,2.6,0.7,3.9c0.1,0.3,0,0.6-0.1,0.9c-0.2,0.3-0.4,0.5-0.6,0.7c-0.4,0.4-0.8,0.8-1.1,1.3
			c-0.1,0.3-0.3,0.6-0.5,0.9c-0.2,0.2-0.4,0.3-0.7,0.4c-1.7,0.7-3.7,0.6-5.5,0c-1.8-0.6-3.5-1.5-5-2.5c-0.4-0.2-0.8-0.5-1.2-0.9
			c-0.4-0.6-0.6-1.2-0.6-1.9c-0.1-1.5,0.2-2.9,0-4.4c-0.2-1.5-0.8-2.9-1.3-4.4c-0.8-2.8-0.7-5.7,0.3-8.4c0.4-1.1,1-2.1,1.9-2.9
			c2-1.5,5-0.9,7.3-1.9C1124.8-436.6,1127-437.1,1128.6-435.6z"/>
	</g>
	<path class="st9" d="M973.6-397.5c-2.4,2-3.6,5-3.3,8c1.1,9.9,4.3,32.4,12.3,45.1c0.5,0.8,1,1.5,1.5,2.1h43.2
		c0,0,8.8-32.8,9.4-47.2c0.1-3.4-1.3-6.6-3.9-8.8c-6.5-5.4-21.7-17.1-30.3-16.3h-0.2C1002.3-414.6,999-418.3,973.6-397.5z"/>
	<path class="st1" d="M970.3-389.5c1.1,9.9,4.3,32.4,12.3,45.1c1.7,0.7,3.5,1.5,5.2,2.1c10.9,4.3,21.2,6.8,19.5,0
		c-0.4-1.3-0.9-2.6-1.7-3.8c-9.9-17.2-5.3-54.8-3.2-68.5h-0.2c0,0-3.3-3.8-28.7,17.1C971.2-395.6,970-392.5,970.3-389.5z"/>
	<path class="st10" d="M970.3-389.5c1.1,9.9,4.3,32.4,12.3,45.1c1.7,0.7,3.5,1.5,5.2,2.1c10.9,4.3,21.2,6.8,19.5,0
		c-0.4-1.3-0.9-2.6-1.7-3.8c-9.9-17.2-5.3-54.8-3.2-68.5h-0.2c0,0-3.3-3.8-28.7,17.1C971.2-395.6,970-392.5,970.3-389.5z"/>
	<path class="st9" d="M983.8-343.4c0,1.9,1.6,3.7,4.3,5.1c1.9,0.9,3.8,1.6,5.9,2.1c3.8,0.9,7.7,1.3,11.6,1.3c5.3,0,10.2-0.7,14-2
		c1.8-0.5,3.6-1.4,5.2-2.5c1.7-1.2,2.7-2.6,2.7-4.1c0-2.1-2.1-4.1-5.5-5.6c-0.5-0.2-1.1-0.5-1.8-0.7c-3.9-1.4-9-2.2-14.6-2.2
		c-7,0-13.1,1.3-17.1,3.2c-0.7,0.3-1.3,0.7-1.9,1.1C984.8-346.3,983.8-344.9,983.8-343.4z"/>
	<path class="st11" d="M983.4-343.4c0,1.9,1.6,3.7,4.3,5.1c1.9,0.9,3.8,1.6,5.9,2.1c3.8,0.9,7.7,1.3,11.6,1.3c5.3,0,10.2-0.7,14-2
		c1.8-0.5,3.6-1.4,5.2-2.5c1.7-1.2,2.7-2.6,2.7-4.1c0-2.1-2.1-4.1-5.5-5.6c-0.5-0.2-1.1-0.5-1.8-0.7c-3.9-1.4-9-2.2-14.6-2.2
		c-7,0-13.1,1.3-17.1,3.2c-0.7,0.3-1.3,0.7-1.9,1.1C984.4-346.3,983.4-344.9,983.4-343.4z"/>
	<path class="st12" d="M1009.9-341.1c0,0,2.3-3.9-1.5-7.2c0,0-1.5-1.8-0.6-3.4c0,0-7.6,5-3.7,10.8L1009.9-341.1z"/>
	<path class="st12" d="M1008-340.9c0.6-1.1,0.3-2.5-0.7-3.2c0,0-0.7-0.8-0.3-1.5c0,0-3.4,2.3-1.7,4.9L1008-340.9z"/>
	<path class="st11" d="M1008-340.9c0.6-1.1,0.3-2.5-0.7-3.2c0,0-0.7-0.8-0.3-1.5c0,0-3.4,2.3-1.7,4.9L1008-340.9z"/>
	<path class="st13" d="M988.2-338.3c1.9,0.9,3.8,1.6,5.9,2.1c6.2-1.5,24.1-6.1,28-12.8c-0.5-0.2-1.1-0.5-1.8-0.7
		C1017.8-346.8,1007.6-336.7,988.2-338.3z"/>
	<path class="st13" d="M986.6-347.5c2.3,4.2,24.1,8.9,33,10.7c1.8-0.5,3.6-1.4,5.2-2.5c-12.7-0.2-25.1-3.4-36.3-9.3
		C987.9-348.3,987.2-348,986.6-347.5z"/>
	<path class="st14" d="M1014.4-397.8c1.3,1.3,0.9,3.4,0.8,5.1c-0.3,3.4,0.6,6.7,2.4,9.5c1.1,1.7,2.7,3.5,2.4,5.6s-2.4,3.4-3.6,5.3
		s-1.2,4.2-0.9,6.4c0.3,2.2,1,4.3,1.2,6.5c0.1,0.5,0,1-0.2,1.5c-0.3,0.5-0.6,0.9-1.1,1.2c-0.7,0.6-1.3,1.4-1.8,2.3
		c-0.2,0.5-0.5,1-0.9,1.4c-0.3,0.3-0.7,0.5-1.1,0.7c-2.9,1.2-6.3,1-9.3,0s-5.8-2.6-8.5-4.3c-0.8-0.4-1.4-0.9-2-1.6
		c-0.6-1-1-2.1-1-3.2c-0.1-2.4,0.3-4.9,0-7.3c-0.3-2.5-1.4-4.9-2.1-7.3c-1.3-4.7-1.1-9.6,0.5-14.2c0.7-1.9,1.7-3.7,3.2-4.9
		c3.4-2.6,8.3-1.5,12.3-3.2C1008-399.5,1011.7-400.5,1014.4-397.8z"/>
	
		<linearGradient id="SVGID_1_" gradientUnits="userSpaceOnUse" x1="565.9088" y1="-126.4372" x2="565.9088" y2="-381.1201" gradientTransform="matrix(-1 0 0 1 1590.63 37.13)">
		<stop  offset="0" style="stop-color:#808080;stop-opacity:0.25"/>
		<stop  offset="0.54" style="stop-color:#808080;stop-opacity:0.12"/>
		<stop  offset="1" style="stop-color:#808080;stop-opacity:0.1"/>
	</linearGradient>
	<path class="st15" d="M981.8-90.2c3,1.7,10.6,0.4,15.3-0.6c1.5-0.3,2.5-1.9,2.2-3.4c-0.1-0.3-0.2-0.7-0.4-1l-1.3-1.9l-0.5-0.1h0.4
		l4.8-20.5c2.8-9.3,1.2-16.3,0-21.9c-0.6-2.6,0.8-8.6,2.4-14c2.7,1.1,5.3,2,7.5,2.3c1.4,0.1,2.9,0.3,4.4,0.4
		c1.7,4.4,3.2,8.3,3.3,8.8c2,7.9,11.7,11.7,11.7,11.7l24.8,28.2c0,0-1.5,4-4.6,5.3c0,0-7.7,1.8-2.8,3.7c3.3,1.2,10.6-1.2,15.1-3
		c1.4-0.6,2.2-2.2,1.6-3.7c-0.1-0.3-0.3-0.6-0.6-0.9l-1.6-1.7h-0.1l-7.7-16.5c-0.9-4.6-9.6-17.6-14.8-20.1
		c-3.1-1.4-5.7-8.1-7.4-13.4c2.4-0.8,4.5-2.3,6.1-4.1c5.9-7.1,8.3-3.1,19.7-5.9c14.5-3.5,8.9-13.4,7.2-13.5
		c-7.7-3.5-27.8-22.1-29.9-24c0.4-0.2,0.6-0.3,0.6-0.3l-0.7,0.2l0,0c-0.3-1.4-0.8-2.7-1.3-4c0.9,0.8,1.9,1.6,3,2.3
		c3.6,2.3,8.1,3.9,12.2,2.6l-0.1-0.1c0.2-0.1,0.5-0.1,0.7-0.2c-2.4-2.6-3.9-5.9-4.2-9.5c2-0.3,3.9-1,5.7-1.9
		c7.1-3.4,12.2-11,11.9-18.9c-0.1-3-0.9-6.1-0.2-9c0.7-2.7,1.3-3.8,1.8-6.6c1.5-8.3,3.1-6.8,1.7-13c-0.7-3.2-4.5-4.8-6.2-7.6
		c-2.5-4.1-2.6-9.2-3.2-13.9c-0.7-4.8-2.4-10-6.7-12.2c-6.1-3.2-10.3-10.9-16.4-10c-0.3,0-0.7,0.1-1,0.1c-2.3-1.3-4.9-1.9-7.6-1.7
		c-1.6,0.1-3.1,0.5-4.6,0.5c-1.7,0-3.4-0.5-4.8-1.4c-0.1,0.2-0.1,0.4-0.2,0.5c-0.1-0.1-0.3-0.2-0.4-0.3c-0.4,1-0.6,2.2-0.5,3.3
		c-2.4,0.6-4.6,1.9-6.2,3.8c-0.3-2.5-0.5-4.1-0.5-4.1l-0.6-30.5c0,0,7.1-12,0.3-12s-6.5,10.8-6.5,10.8l-1.8,23.4
		c-1.2,8.3,0,13.9,0,13.9c3.2,8.4,5,20.9,5.8,26.9c-9.3,7.1-12,13.3-11.9,18.5c-0.1,5.3,2.7,9.6,4.2,12.6c0.4,0.7,0.6,2.2,0.6,4.4
		c-0.1,17.6-10,71.7-10,71.7l0.1,0l-0.1,0.6l0.5,0.2c-0.6,1.9-1.2,3.7-1.9,5.5c-3.4,8.9,0,15.1,0,15.1l3.2,42.4l-0.3,0
		c0,0-2.7,3.9-5.9,4.6C985.2-93.4,977.3-92.7,981.8-90.2z M1026.1-218.4L1026.1-218.4c-3-3.3-4.6-7.5-4.6-11.9
		c0.1-3.1,0.8-6.2,2.1-9.1c1-4,1.7-8,2.1-12.1c0.2,2.2,0.2,4.5,0.1,6.7C1025.4-235.9,1023.8-226.9,1026.1-218.4L1026.1-218.4z"/>
	<path class="st16" d="M1022.9-263.2c2.7,4.5,2.2,12.7-1.5,27.8c0,0-4.2,11.5,4.2,21.1s10.3,18.1,10.3,18.1s26.5,16.4,29.8,23.8
		c-5-11,11.4,4.8-7.5,9.4c-11.2,2.7-13.6-1.2-19.3,5.7c-5.7,6.9-18.7,6-26.8,5.1s-22-10.5-22-10.5s15.4-64.8,12-71.2
		c-3.1-6-14.4-17.4,7.7-32.1C1014.1-269,1020.2-267.8,1022.9-263.2z"/>
	<path class="st17" d="M1022.9-263.2c2.7,4.5,2.2,12.7-1.5,27.8c0,0-4.2,11.5,4.2,21.1s10.3,18.1,10.3,18.1s26.7,16.4,29.8,23.8
		c-4.7-11,11.4,4.8-7.5,9.4c-11.2,2.7-13.6-1.2-19.3,5.7c-5.7,6.9-18.7,6-26.8,5.1s-22-10.5-22-10.5s15.4-64.8,12-71.2
		c-3.1-6-14.4-17.4,7.7-32.1C1014.1-269,1020.2-267.8,1022.9-263.2z"/>
	<path class="st18" d="M1022.9-263.2c2.7,4.5,2.2,12.7-1.5,27.8c0,0-4.2,11.5,4.2,21.1s10.3,18.1,10.3,18.1s26.7,16.4,29.8,23.8
		c-4.7-11,11.4,4.8-7.5,9.4c-11.2,2.7-13.6-1.2-19.3,5.7c-5.7,6.9-18.7,6-26.8,5.1s-22-10.5-22-10.5s15.4-64.8,12-71.2
		c-3.1-6-14.4-17.4,7.7-32.1C1014.1-269,1020.2-267.8,1022.9-263.2z"/>
	<path class="st19" d="M1031-160.1c0,0,3.9,17.5,9,19.9c5.1,2.4,13.6,15.1,14.5,19.6l7.7,16.4h-6.9l-24.3-27.6
		c0,0-9.5-3.7-11.5-11.5c-0.3-1.2-8.4-22.3-8.4-22.3L1031-160.1z"/>
	<path class="st19" d="M1008.4-165.5c0,0-7.2,19.3-6,24.7c1.2,5.4,2.7,12.4,0,21.4l-4.7,20l-6-0.3l-3.2-42c0,0-3.3-6,0-14.8
		s5.7-19.6,5.7-19.6L1008.4-165.5z"/>
	<path class="st19" d="M1006.9-264.1c0,0-1.8-18.4-6-29.5c0,0-1.2-5.4,0-13.6l1.8-22.9c0,0-0.3-10.5,6.3-10.5s-0.3,11.8-0.3,11.8
		l0.6,29.9c0,0,3.9,30.5,6.6,33.8L1006.9-264.1z"/>
	<path class="st10" d="M1006.9-264.1c0,0-1.8-18.4-6-29.5c0,0-1.2-5.4,0-13.6l1.8-22.9c0,0-0.3-10.5,6.3-10.5s-0.3,11.8-0.3,11.8
		l0.6,29.9c0,0,3.9,30.5,6.6,33.8L1006.9-264.1z"/>
	<path class="st19" d="M1008.4-285.8c0,0,1.2,14.5-2.4,19.3c0,0,8.4-4.5,15.7-0.6c0,0-4.5-12.4-3-17.8L1008.4-285.8z"/>
	<path class="st17" d="M1022.9-266.8c2.7,4.5,4,12.7,0.3,27.8c0,0-6,11.5,2.4,21.1c8.4,9.6,10.3,18.1,10.3,18.1s22.3,20.8,29.8,23.8
		c0,0,3.6,6.6-7.5,9.4s-13.6-1.2-19.3,5.7c-5.7,6.9-18.7,6-26.8,5.1c-8.1-0.9-22.2-6.8-22.2-6.8s12.5-68.6,9.2-74.9
		c-3.1-6-11.4-17.4,10.7-32.1C1014.1-272.6,1020.2-271.4,1022.9-266.8z"/>
	
		<ellipse transform="matrix(0.1602 -0.9871 0.9871 0.1602 1107.6228 782.7543)" class="st19" cx="1013.8" cy="-259.5" rx="10.2" ry="10.3"/>
	<path class="st11" d="M1017.4-255.3l2.1,31.7l-7,33.8c0,0,6.3,22.3,0,20.2s-6.6-20.5-6.6-20.5l4.2-35.3c0,0-5.1-26.5-4.2-32
		C1006.9-262.9,1017.4-255.3,1017.4-255.3z"/>
	<path class="st19" d="M1017.4-255.9l2.1,31.7l-7,33.8c0,0,6.3,22.3,0,20.2s-6.6-20.5-6.6-20.5l4.2-35.3c0,0-5.1-26.5-4.2-32
		C1006.9-263.5,1017.4-255.9,1017.4-255.9z"/>
	<path class="st18" d="M1018.8-276c-4.3,0-8.2-1.2-10.2-4.6c0-2.7-0.2-4.6-0.2-4.6l10.3,0.9c-0.7,2.3-0.3,4.3,0.5,7.7
		C1018.9-276.6,1019-276,1018.8-276z"/>
	<circle class="st19" cx="1018.6" cy="-287.3" r="11.8"/>
	<path class="st18" d="M1005.8-241.9c0,0-0.9,4.5-6.8,5"/>
	<path class="st18" d="M1037-161c5.7-6.9,8.1-3,19.3-5.7c11.2-2.7,7.5-9.4,7.5-9.4c-7.5-3-29.8-23.8-29.8-23.8s-1.8-8.4-10.3-18.1
		c-8.4-9.6-2.4-21.1-2.4-21.1c3.7-15,2.4-23.3-0.3-27.8c-1.5-2.5-4.1-4.1-7-4.4c3.5-0.4,7,1.3,8.8,4.4c2.7,4.5,4,12.7,0.3,27.8
		c0,0-6,11.5,2.4,21.1c8.4,9.6,10.3,18.1,10.3,18.1s22.3,20.8,29.8,23.8c0,0,3.6,6.6-7.5,9.4s-13.6-1.2-19.3,5.7
		c-4,4.8-11.4,5.8-18.3,5.7C1026.9-155.3,1033.4-156.6,1037-161z"/>
	<path class="st11" d="M1014.4-273.6c0.4-0.8,1.2-1.4,1.8-2.1c2-2.3,1.6-5.6,1.8-8.6c0.1-2.9,0.8-5.7,1.9-8.3
		c-0.7-0.4-1.4-0.8-1.9-1.4c-2-2.1-2.6-5.1-1.5-7.8c1.4,0.9,3,1.3,4.7,1.3c1.5,0,3-0.4,4.5-0.5c2.6-0.2,5.1,0.4,7.4,1.6
		c0.3,0,0.6-0.1,0.9-0.1c5.9-0.9,10.1,6.7,16,9.8c4.2,2.2,5.8,7.2,6.5,11.9c0.6,4.6,0.7,9.6,3.2,13.6c1.7,2.8,5.4,4.3,6.1,7.5
		c1.4,6.1-0.2,4.6-1.7,12.8c-0.5,2.7-1.1,3.8-1.8,6.4c-0.7,2.9,0.1,5.9,0.2,8.8c0.3,9.7-7.6,19-17.2,20.2c0.3,3.5,1.8,6.9,4.2,9.5
		c-4,1.3-8.4-0.2-11.9-2.5c-5.7-3.8-9.8-9.4-11.7-16c-2.4-8.4-0.7-17.3-0.4-26.1s-1-18.4-7.6-24.1
		C1015.8-269.4,1013.4-271.4,1014.4-273.6z"/>
	<path class="st20" d="M1015-274c0.4-0.8,1.2-1.4,1.8-2.1c2-2.3,1.6-5.6,1.8-8.6c0.1-2.9,0.8-5.7,1.9-8.3c-0.7-0.4-1.4-0.8-1.9-1.4
		c-2-2.1-2.6-5.1-1.5-7.8c1.4,0.9,3,1.4,4.7,1.4c1.5,0,3-0.4,4.5-0.5c2.6-0.2,5.1,0.4,7.4,1.6c0.3,0,0.6-0.1,0.9-0.1
		c5.9-0.9,10.1,6.7,16,9.8c4.2,2.2,5.8,7.2,6.5,11.9c0.6,4.6,0.7,9.6,3.2,13.6c1.7,2.8,5.4,4.3,6.1,7.5c1.4,6.1-0.2,4.6-1.7,12.8
		c-0.5,2.7-1.1,3.8-1.8,6.4c-0.7,2.9,0.1,5.9,0.2,8.8c0.3,9.7-7.6,19-17.2,20.2c0.3,3.5,1.7,6.9,4.1,9.5c-4,1.3-8.4-0.2-11.9-2.5
		c-5.7-3.8-9.9-9.4-11.8-16c-2.4-8.4-0.7-17.3-0.4-26.1s-1-18.4-7.6-24.1C1016.5-269.6,1014-271.7,1015-274z"/>
	<path class="st21" d="M1055.3-104.1c0,0-1.5,3.9-4.5,5.1c0,0-7.5,1.8-2.7,3.6c3.2,1.2,10.3-1.2,14.7-3c1.4-0.6,2.1-2.2,1.5-3.6
		c-0.1-0.3-0.3-0.6-0.5-0.8l-1.5-1.6L1055.3-104.1z"/>
	<path class="st21" d="M991.4-100.2c0,0-2.6,3.8-5.8,4.5c0,0-7.7,0.6-3.2,3.2c3,1.7,10.4,0.4,15-0.6c1.5-0.3,2.4-1.8,2.1-3.3
		c-0.1-0.3-0.2-0.7-0.4-0.9l-1.3-1.8L991.4-100.2z"/>
	<path class="st18" d="M1036.6-200c0,0-6.9,3.9-14.8,3.6"/>
	<path class="st5" d="M1074.4-89c-1.1-1-2.1-2.2-2.4-3.6c-0.3-1.4,0.3-3.2,1.7-3.7c1.5-0.6,3.2,0.5,4.4,1.6s2.7,2.3,4.3,2.1
		c-1.7-1.6-2.5-3.9-2-6.2c0.1-0.5,0.3-0.9,0.6-1.3c0.9-0.9,2.4-0.5,3.4,0.2c3.2,2.3,4.2,6.7,4.2,10.7c0.3-1.4,0.1-2.9,0.1-4.4
		c0-1.5,0.4-3.1,1.7-3.9c0.8-0.4,1.7-0.6,2.6-0.6c1.5-0.1,3.1,0.1,4.1,1.2c1.3,1.3,0.9,3.6-0.2,5c-1.1,1.5-2.7,2.4-4.3,3.4
		c-1.2,0.7-2.3,1.7-3,2.9c-0.1,0.2-0.2,0.3-0.2,0.5h-9.2C1078.1-86.1,1076.1-87.4,1074.4-89z"/>
	<path class="st5" d="M1158.8-161.8c0,0,34.4,25.1-35.5,53c0,0-12.4-28.7,5.9-49.6c7.3-8.4,19.8-10.1,29.1-3.8L1158.8-161.8z"/>
	<path class="st22" d="M1158.4-162.3c0,0-33.2,21.1-35.1,53.5"/>
	<path class="st4" d="M1122.6-112.5c0,0,11.4-38.8-2.2-67.4c-5.7-12-7.6-25.4-5-38.5c1.3-6.2,3.1-12.2,5.4-18.1"/>
	<path class="st5" d="M1112.5-254.4c0,4.8,8.6,18.5,8.6,18.5s8.6-13.8,8.6-18.5c-0.1-4.8-4.1-8.5-8.8-8.4
		C1116.3-262.7,1112.6-259,1112.5-254.4L1112.5-254.4z"/>
	<path class="st5" d="M1098.3-228.1c2.6,4,17.3,10.9,17.3,10.9s-0.3-16.3-2.8-20.3c-2.7-3.9-8-4.9-12-2.3
		C1097-237.1,1095.9-232,1098.3-228.1L1098.3-228.1z"/>
	<path class="st5" d="M1098.9-183c4.3,2.1,20.4,0.7,20.4,0.7s-8.4-13.9-12.7-16c-4.3-2.1-9.4-0.3-11.5,4
		C1093.1-190.2,1094.8-185.2,1098.9-183L1098.9-183z"/>
	<path class="st5" d="M1107-149.1c3.8,2.8,20,4.1,20,4.1s-6-15.1-9.8-17.9c-3.8-2.9-9.2-2.1-12.1,1.7c-2.9,3.8-2.1,9.2,1.7,12.1
		C1106.9-149.1,1107-149.1,1107-149.1z"/>
	<path class="st5" d="M1133.7-216.2c-3.4,3.3-19.3,6.8-19.3,6.8s3.9-15.8,7.3-19.1c3.4-3.3,8.9-3.2,12.2,0.2
		S1137.1-219.6,1133.7-216.2L1133.7-216.2z"/>
	<path class="st5" d="M1142.7-176.4c-4.3,2.1-20.4,0.7-20.4,0.7s8.4-13.9,12.7-16c4.2-2.3,9.4-0.7,11.7,3.5s0.7,9.4-3.5,11.7
		C1142.9-176.5,1142.8-176.5,1142.7-176.4z"/>
	<path class="st5" d="M1146.1-136.5c-3.8,2.8-20,4.1-20,4.1s6-15.1,9.8-17.9c3.8-2.8,9.2-1.9,12,1.9
		C1150.7-144.6,1149.9-139.3,1146.1-136.5z"/>
	<path class="st6" d="M1112.5-254.4c0,4.8,8.6,18.5,8.6,18.5s8.6-13.8,8.6-18.5c-0.1-4.8-4.1-8.5-8.8-8.4
		C1116.3-262.7,1112.6-259,1112.5-254.4L1112.5-254.4z"/>
	<path class="st6" d="M1098.3-228.1c2.6,4,17.3,10.9,17.3,10.9s-0.3-16.3-2.8-20.3c-2.7-3.9-8-4.9-12-2.3
		C1097-237.1,1095.9-232,1098.3-228.1L1098.3-228.1z"/>
	<path class="st6" d="M1098.9-183c4.3,2.1,20.4,0.7,20.4,0.7s-8.4-13.9-12.7-16c-4.3-2.1-9.4-0.3-11.5,4
		C1093.1-190.2,1094.8-185.2,1098.9-183L1098.9-183z"/>
	<path class="st6" d="M1107-149.1c3.8,2.8,20,4.1,20,4.1s-6-15.1-9.8-17.9c-3.8-2.9-9.2-2.1-12.1,1.7c-2.9,3.8-2.1,9.2,1.7,12.1
		C1106.9-149.1,1107-149.1,1107-149.1z"/>
	<path class="st6" d="M1133.7-216.2c-3.4,3.3-19.3,6.8-19.3,6.8s3.9-15.8,7.3-19.1c3.4-3.3,8.9-3.2,12.2,0.2
		S1137.1-219.6,1133.7-216.2L1133.7-216.2z"/>
	<path class="st6" d="M1142.7-176.4c-4.3,2.1-20.4,0.7-20.4,0.7s8.4-13.9,12.7-16c4.2-2.3,9.4-0.7,11.7,3.5s0.7,9.4-3.5,11.7
		C1142.9-176.5,1142.8-176.5,1142.7-176.4z"/>
	<path class="st6" d="M1146.1-136.5c-3.8,2.8-20,4.1-20,4.1s6-15.1,9.8-17.9c3.8-2.8,9.2-1.9,12,1.9
		C1150.7-144.6,1149.9-139.3,1146.1-136.5z"/>
</g>
<g>
	<path class="st23" d="M1127.2,156.4l-13-2.3l-13.3,35.8l-22.7,33.8c-4.4,0.1-7.9,3.8-7.8,8.3c0.1,4.4,3.8,7.9,8.3,7.8
		s7.9-3.8,7.8-8.3c0-0.1,0-0.1,0-0.2l27.7-31.9L1127.2,156.4z"/>
	<path class="st24" d="M1171.7,111.8c0,12.9-11.9,10.9-26.6,10.9s-26.6,1.9-26.6-10.9s5.8-35.7,26.6-35.7
		C1166.6,76.1,1171.7,98.9,1171.7,111.8z"/>
	<path class="st23" d="M1220.6,223.9l-23.5-40.4l-10.9-36.6l-13.1,1.5l10.2,43.8l26.2,34.4c-2.3,3.8-1.1,8.7,2.7,11
		c3.8,2.3,8.7,1.1,11-2.7C1225.4,231.1,1224.3,226.2,1220.6,223.9z"/>
	<polygon class="st23" points="1197.3,288.2 1224.3,361.9 1235.4,361.9 1216.3,285.6 	"/>
	<polygon class="st23" points="1138.2,292.2 1111.3,365.9 1100.2,365.9 1119.2,289.6 	"/>
	<path class="st24" d="M1165.9,132.2c0,0,10.9-3.6,13.8,1.5c2.9,5.1,10.2,21.1,10.2,21.1l-14.6,2.2l13.1,32.8
		c0,0,18.2,13.9,22.6,45.2c4.4,31.4,8.8,56.9,8.8,56.9s-75.8,12.4-105,7.3c0,0,2.2-15.3,8-16c-4.4-4.4,1.4-8,1.4-8l13.2-47.4
		l2.9-23.3c0,0-5.1-23.9-11.7-28.4c-6.6-4.6-4.4-17.5-4.4-17.5l-13.1,0.7c0,0,1.5-23.3,8-23.3h8L1165.9,132.2z"/>
	<path class="st24" d="M1236.7,371.4h-28.8v-0.4c0-6.2,5-11.2,11.2-11.2l0,0h17.6V371.4z"/>
	<path class="st24" d="M1114.3,371.4h-28.8v-0.4c0-6.2,5-11.2,11.2-11.2l0,0h17.6V371.4z"/>
	<circle class="st23" cx="1146.2" cy="103.5" r="17.9"/>
	<path class="st24" d="M1124.3,103L1124.3,103h7.1l3.1-8.8l0.6,8.8h3.4l1.8-5.1l0.4,5.1h25.2l0,0c0-10.5-8.5-19-19-19l0,0h-3.7
		C1132.8,84.1,1124.3,92.6,1124.3,103L1124.3,103z"/>
	<path class="st25" d="M1309.1,372.5h-277.8c-0.4,0-0.7-0.3-0.7-0.7s0.3-0.7,0.7-0.7h277.8c0.4,0,0.7,0.3,0.7,0.7
		S1309.5,372.5,1309.1,372.5z"/>
	<rect id="b176a470-c9a0-4b19-a249-9749cef70ca2" x="764.4" y="100.9" class="st25" width="313.7" height="131.7"/>
	<path class="st26" d="M771,226.1h300.6V107.5H771V226.1z"/>
	<path class="st5" d="M1025.2,150.1v50.6c0,1.4-1.1,2.5-2.5,2.5h-54.4c-1.4,0-2.5-1.1-2.5-2.5v-50.6c0-1.4,1.1-2.5,2.5-2.5h54.4
		C1024.1,147.6,1025.2,148.8,1025.2,150.1z"/>
	<path class="st27" d="M999.4,203.5h-7.7c-1.4,0-2.5-1.1-2.5-2.4v-52.5c0-1.4,1.1-2.5,2.5-2.4h7.7c1.4,0,2.5,1.1,2.5,2.4V201
		C1001.8,202.4,1000.7,203.5,999.4,203.5z"/>
	<path class="st27" d="M993.9,131.8c3.9,3.4,2.7,11.3,2.7,11.3s-7.7,2.4-11.6-1.1s-2.7-11.3-2.7-11.3S990,128.4,993.9,131.8z"/>
	<path class="st27" d="M1007.1,141.4c-3.4,4-11.3,2.7-11.3,2.7s-2.4-7.6,1-11.6c3.4-4,11.3-2.7,11.3-2.7S1010.5,137.5,1007.1,141.4z
		"/>
	<path class="st28" d="M1025.2,150.1v8.5l-59.5-0.3v-8.3c0-1.4,1.1-2.5,2.5-2.5h54.4C1024.1,147.6,1025.2,148.8,1025.2,150.1z"/>
	<path class="st5" d="M1031.6,155.3c-0.5,0.6-1.2,1-2,1l-66.3-0.3c-1.4,0-2.5-1.1-2.5-2.5l0,0l0-7.4c0-1.4,1.1-2.5,2.5-2.5l0,0
		l66.3,0.3c1.4,0,2.5,1.1,2.5,2.5l0,0l0,7.4C1032.2,154.4,1032,154.9,1031.6,155.3z"/>
	
		<rect x="989" y="143.4" transform="matrix(4.006683e-03 -1 1 4.006683e-03 841.8578 1144.839)" class="st27" width="13.3" height="12.7"/>
	<rect id="b0bfb71d-a32e-4f0c-b04f-06b3baf1791c" x="810.7" y="146.9" class="st29" width="73.5" height="5.9"/>
	<rect id="a096be4f-2cf6-461f-ae56-f8547c16e35b" x="810.7" y="168.3" class="st5" width="113.6" height="5.9"/>
	<rect id="be15e58f-5799-4307-babb-7d5595f0559e" x="810.7" y="188.5" class="st29" width="92.6" height="5.9"/>
	<path id="bb7b29b1-743f-4814-99e1-7130c517fe83-247" class="st30" d="M856.4,330.2c5.8,2,12.3,0.9,17-3c6-5,7.8-13.3,9.4-20.9
		l4.5-22.6l-9.4,6.5c-6.8,4.7-13.7,9.5-18.4,16.3c-4.7,6.8-6.8,16-3,23.3"/>
	<path id="fed11345-5ecc-4699-9d2a-1ad58856fa3e-248" class="st31" d="M857.9,359.1c-1.2-8.6-2.4-17.4-1.6-26.2
		c0.7-7.8,3.1-15.4,7.9-21.6c2.6-3.3,5.7-6.1,9.2-8.3c0.9-0.6,1.8,0.9,0.8,1.5c-6.1,3.9-10.8,9.6-13.5,16.3
		c-2.9,7.5-3.4,15.6-2.9,23.5c0.3,4.8,1,9.6,1.6,14.3c0.1,0.5-0.2,0.9-0.6,1C858.5,359.8,858,359.6,857.9,359.1L857.9,359.1z"/>
	<path id="a3dbae8e-6ba7-4728-9f88-d2b4a8de2cb7-249" class="st30" d="M866.5,345.3c2.5,3.8,6.8,6,11.3,5.9
		c5.7-0.3,10.5-4.3,14.8-8.1l12.7-11.2l-8.4-0.4c-6.1-0.3-12.3-0.6-18,1.3s-11.1,6.4-12.1,12.3"/>
	<path id="b12c7aab-829f-433e-99e1-9b0624b941d5-250" class="st31" d="M854.5,364.1c5.7-10.1,12.3-21.4,24.2-25
		c3.3-1,6.8-1.4,10.2-1c1.1,0.1,0.8,1.8-0.3,1.7c-5.8-0.5-11.5,1-16.2,4.3c-4.6,3.1-8.1,7.5-11.2,12c-1.8,2.8-3.5,5.8-5.2,8.7
		C855.6,365.7,854,365,854.5,364.1z"/>
	<path class="st25" d="M916.9,366h-99.2c-0.4,0-0.7-0.3-0.7-0.7s0.3-0.7,0.7-0.7h99.2c0.4,0,0.7,0.3,0.7,0.7S917.3,366,916.9,366z"
		/>
</g>
<g>
	<polygon class="st32" points="1069.7,-79.4 1076.2,-79.4 1079.3,-104.7 1069.7,-104.7 	"/>
	<path class="st24" d="M1068-81.6h12.9c4.5,0,8.2,3.7,8.2,8.2v0.3H1068V-81.6z"/>
	<polygon class="st32" points="985.3,-91.8 990.9,-88.5 1006.5,-108.5 998.3,-113.5 	"/>
	<path class="st24" d="M980.5-87.3l4.4-7.3l11,6.6c3.9,2.3,5.1,7.4,2.8,11.3l-0.1,0.2L980.5-87.3z"/>
	<path class="st24" d="M1067.9-84.7c-1.3-1.3-4.6-23.4-9.5-57c-1.7-11.7-3.3-22.7-4.6-31.2c-11.3,24.8-29.5,51.6-51.4,75.5l-0.1,0.1
		l-0.2-0.1c-7-2.9-8.3-3.6-11.5-5.2c-0.9-0.5-2-1.1-3.5-1.8l-0.1-0.1c-0.7-0.8,5.5-11,27.1-45.8c9.4-15.2,19.1-30.9,25.5-41.7
		l0.1-0.1l0.1,0c15.6-3.2,30.6,0.6,42.2,10.7l0.1,0.1v0.1c-0.3,12.8-0.1,32.8,0.2,50.5c0.5,34.5,0.4,44.6-0.7,44.9l-0.1,0
		c-1.6,0.1-2.9,0.3-4.1,0.4c-3.2,0.4-6.3,0.5-9.5,0.6L1067.9-84.7L1067.9-84.7z"/>
	<path class="st24" d="M1034-288.1c-2.2-9.1-4.1-19.4,0.1-27.7c2.9-5.8,13.6-7.8,19.7-5.7s10.5,7.8,12.5,14s1.7,12.9,0.9,19.3
		C1055.8-288.5,1044.6-288.7,1034-288.1z"/>
	<circle class="st32" cx="1053" cy="-301.2" r="13.1"/>
	<path class="st24" d="M1036.9-303.9c-0.2-9.1,7.1-16.6,16.2-16.8c9.1-0.2,16.6,7.1,16.8,16.2c0,0.4,0,0.7,0,1.1
		C1058.6-303.5,1047.4-303.4,1036.9-303.9z"/>
	<path class="st27" d="M1088.5-175.6c-2.4-8.3-3.6-14-5-20.7c-1.9-9.1-4.1-19.5-10-39.7l0-0.1l0-0.1c1.7-17.5-5.7-36.1-19.2-48.5
		c-1.9-1.6-4.7-1.5-6.4,0.3c-7.6,8.5-12.4,16.5-14.6,24.5l-0.1,0.2c3.2,10.2,6.7,20.5,10.2,30.4l0.1,0.1l-0.1,0.1
		c-12.9,15.5-20,36.2-19.6,56.9c12.3-4.3,25.3-6.5,38.3-6.4C1070.9-178.4,1079.8-177.5,1088.5-175.6z"/>
	<polygon class="st11" points="1042.9,-242.2 1062.2,-200 1073.3,-211.2 	"/>
	<path class="st5" d="M1148.4-403.5c0.2-23.6-15.2-42.8-34.4-43s-34.9,18.9-35,42.5c-0.2,21.4,12.5,39.2,29.1,42.5l-1.2,6.9
		l12.7,0.1l-1-6.9C1135.3-364.5,1148.3-382.1,1148.4-403.5z"/>
	<path class="st26" d="M1090.7-392.7l-4.8,0c-1.5-9-1.4-18.2,0.2-27.2l4.8,0C1088.7-410.5,1088.7-401.5,1090.7-392.7z"/>
	
		<rect x="1111.8" y="-367.2" transform="matrix(7.808111e-03 -1 1 7.808111e-03 1464.6499 756.1685)" class="st27" width="3.2" height="14.4"/>
	<path class="st33" d="M1215.2-390.4c1.9-23.5-12.1-43.8-31.2-45.3c-19.1-1.5-36.1,16.3-38,39.8c-1.7,21.3,9.6,40,26,44.4l-1.6,6.8
		l12.7,1l-0.6-7C1199.4-352.5,1213.5-369.1,1215.2-390.4z"/>
	<path class="st26" d="M1156.8-383.8l-4.8-0.4c-0.9-9.1-0.1-18.3,2.2-27.1l4.8,0.4C1156.2-401.8,1155.5-392.7,1156.8-383.8z"/>
	
		<rect x="1175.6" y="-356.8" transform="matrix(7.919674e-02 -0.9969 0.9969 7.919674e-02 1432.4332 851.5764)" class="st27" width="3.2" height="14.4"/>
	
		<rect x="1024.6" y="-265.2" transform="matrix(0.5224 -0.8527 0.8527 0.5224 762.7538 832.9909)" class="st27" width="200.9" height="1.6"/>
	<path class="st5" d="M1242.3-367.3c11.1-20.8,6.4-45-10.5-54s-39.6,0.5-50.7,21.4c-10.1,18.9-7.1,40.5,6.1,51.1l-4.2,5.6l11.2,6
		l2.3-6.6C1212.7-338.8,1232.3-348.5,1242.3-367.3z"/>
	<path class="st26" d="M1186.2-384.6l-4.2-2.3c2.8-8.7,7.2-16.8,12.8-24l4.2,2.3C1192.7-401.3,1188.4-393.3,1186.2-384.6z"/>
	
		<rect x="1189.5" y="-352.2" transform="matrix(0.4705 -0.8824 0.8824 0.4705 935.1352 868.3428)" class="st27" width="3.2" height="14.4"/>
	
		<rect x="1031.3" y="-264" transform="matrix(0.5883 -0.8086 0.8086 0.5883 678.7325 806.7807)" class="st27" width="200.9" height="1.6"/>
	
		<rect x="997.1" y="-261.9" transform="matrix(0.1749 -0.9846 0.9846 0.1749 1162.6172 865.2212)" class="st27" width="200.9" height="1.6"/>
	<path class="st32" d="M1086.1-197.4c-3-0.2-5.2-2.8-5-5.7c0-0.3,0.1-0.6,0.2-0.9l-16-10.5l9.1-3.9l13.8,10.5c2.8,0.9,4.4,4,3.5,6.8
		C1090.8-198.7,1088.5-197.2,1086.1-197.4L1086.1-197.4z"/>
	<path class="st27" d="M1070.5-205.1c-9.6-11-19.4-22.3-28.4-33.8l-0.1-0.1v-0.1c0-9.3,0.1-19,1.2-29.7c-1.8-1.9-2.6-4.4-2.3-7
		c0.2-2.9,1.8-5.5,4.2-7.1c4.5-2.8,11.2-1.3,14.4,3.3c3.1,4.4,2.6,10.8,0.3,14l-2.6,20.4l-0.2,0l0.1,0l0,0l0,0l0.1,0c0,0,0,0,0,0
		c8.4,10.3,17.1,20.9,25.8,31.1l0.2,0.2l-0.2,0.2c-4.1,2.8-8.3,5.7-12.1,8.5l-0.2,0.1L1070.5-205.1z"/>
	<path class="st27" d="M1147-72.4H943.6c-0.3,0-0.5-0.2-0.5-0.5s0.2-0.5,0.5-0.5H1147c0.3,0,0.5,0.2,0.5,0.5S1147.3-72.4,1147-72.4z
		"/>
	<path class="st31" d="M1206.2-190L1206.2-190L1206.2-190z"/>
	<path class="st31" d="M1227.1-183.9l-0.3,1l-20.1-6.4c1.8,2.4,7.8,9.7,14,11.3c7.4,1.9,11.2-0.8,12.4-5.1s-0.9-8.5-8.3-10.4
		c-6.3-1.6-15.3,2-17.8,3.1L1227.1-183.9z"/>
	<path class="st31" d="M1130.4-137.4L1130.4-137.4L1130.4-137.4z"/>
	<path class="st31" d="M1132-115.6l-1.1,0.1l-1.1-21.1c-1.6,2.5-6.4,10.7-5.7,17.1c0.8,7.6,4.7,10.3,9.1,9.8
		c4.4-0.4,7.7-3.8,6.9-11.4c-0.7-6.5-7.2-13.6-9.2-15.6L1132-115.6z"/>
	<path class="st31" d="M977.2-376.1L977.2-376.1L977.2-376.1z"/>
	<path class="st31" d="M959.3-388.7l0.6-0.9l17,12.6c-0.9-2.8-4.2-11.7-9.5-15.3c-6.4-4.2-10.9-2.9-13.3,0.8
		c-2.5,3.7-1.9,8.3,4.5,12.6c5.4,3.6,15.1,3.1,17.9,2.9L959.3-388.7z"/>
</g>
</svg>
